<?xml version="1.0" encoding="utf-8" standalone="no"?>
<!DOCTYPE svg PUBLIC "-//W3C//DTD SVG 1.1//EN"
  "http://www.w3.org/Graphics/SVG/1.1/DTD/svg11.dtd">
<!-- Created with matplotlib (https://matplotlib.org/) -->
<svg height="392.88125pt" version="1.1" viewBox="0 0 596.309375 392.88125" width="596.309375pt" xmlns="http://www.w3.org/2000/svg" xmlns:xlink="http://www.w3.org/1999/xlink">
 <defs>
  <style type="text/css">
*{stroke-linecap:butt;stroke-linejoin:round;}
  </style>
 </defs>
 <g id="figure_1">
  <g id="patch_1">
   <path d="M 0 392.88125 
L 596.309375 392.88125 
L 596.309375 0 
L 0 0 
z
" style="fill:#ffffff;"/>
  </g>
  <g id="axes_1">
   <g id="patch_2">
    <path d="M 142.709375 339.84 
L 589.109375 339.84 
L 589.109375 7.2 
L 142.709375 7.2 
z
" style="fill:#ffffff;"/>
   </g>
   <g id="PolyCollection_1">
    <defs>
     <path d="M 163.000284 -289.342168 
L 163.000284 -289.342168 
L 164.630076 -288.660613 
L 166.259868 -288.58819 
L 167.88966 -287.845486 
L 169.519452 -286.969102 
L 171.149244 -286.285372 
L 172.779035 -286.321935 
L 174.408827 -287.683216 
L 176.038619 -287.09085 
L 177.668411 -286.252765 
L 179.298203 -285.390063 
L 180.927995 -287.725465 
L 182.557787 -286.865991 
L 184.187579 -286.518175 
L 185.817371 -286.200299 
L 187.447163 -285.602688 
L 189.076954 -284.764531 
L 190.706746 -284.718604 
L 192.336538 -283.938081 
L 193.96633 -283.116759 
L 195.596122 -284.61347 
L 197.225914 -283.799052 
L 198.855706 -283.692479 
L 200.485498 -283.142401 
L 202.11529 -282.914849 
L 203.745081 -282.397746 
L 205.374873 -283.733072 
L 207.004665 -283.539192 
L 208.634457 -283.601018 
L 210.264249 -282.959819 
L 211.894041 -282.995994 
L 213.523833 -282.193361 
L 215.153625 -281.574729 
L 216.783417 -280.842932 
L 218.413209 -280.303857 
L 220.043 -279.508378 
L 221.672792 -278.751577 
L 223.302584 -279.652002 
L 224.932376 -280.339303 
L 226.562168 -282.828354 
L 228.19196 -284.918212 
L 229.821752 -284.749016 
L 231.451544 -284.596642 
L 233.081336 -284.15226 
L 234.711127 -283.88561 
L 236.340919 -283.920582 
L 237.970711 -285.800611 
L 239.600503 -285.155324 
L 241.230295 -286.475402 
L 242.860087 -286.007371 
L 244.489879 -285.345939 
L 246.119671 -286.396746 
L 247.749463 -286.092516 
L 249.379255 -285.67342 
L 251.009046 -285.062559 
L 252.638838 -284.331371 
L 254.26863 -283.66041 
L 255.898422 -282.932771 
L 257.528214 -283.536715 
L 259.158006 -283.080014 
L 260.787798 -283.101168 
L 262.41759 -283.419467 
L 264.047382 -283.028704 
L 265.677173 -283.770293 
L 267.306965 -285.149008 
L 268.936757 -284.858599 
L 270.566549 -284.179122 
L 272.196341 -284.316976 
L 273.826133 -284.997019 
L 275.455925 -287.620548 
L 277.085717 -288.391299 
L 278.715509 -288.720641 
L 280.345301 -288.210795 
L 281.975092 -287.928092 
L 283.604884 -288.422719 
L 285.234676 -288.548141 
L 286.864468 -288.041566 
L 288.49426 -287.3566 
L 290.124052 -287.580704 
L 291.753844 -287.108999 
L 293.383636 -287.049303 
L 295.013428 -286.41896 
L 296.643219 -286.448854 
L 298.273011 -286.36005 
L 299.902803 -286.917878 
L 301.532595 -287.677039 
L 303.162387 -288.394164 
L 304.792179 -289.665119 
L 306.421971 -289.537058 
L 308.051763 -288.999034 
L 309.681555 -288.665365 
L 311.311347 -288.061914 
L 312.941138 -288.148826 
L 314.57093 -287.67555 
L 316.200722 -288.283221 
L 317.830514 -288.092518 
L 319.460306 -287.561668 
L 321.090098 -287.087685 
L 322.71989 -286.606248 
L 324.349682 -286.092334 
L 325.979474 -286.605165 
L 327.609265 -286.109224 
L 329.239057 -285.477367 
L 330.868849 -285.415715 
L 332.498641 -284.785236 
L 334.128433 -284.169992 
L 335.758225 -284.135181 
L 337.388017 -283.920235 
L 339.017809 -283.848428 
L 340.647601 -283.364254 
L 342.277393 -283.069276 
L 343.907184 -283.333258 
L 345.536976 -283.492922 
L 347.166768 -282.892498 
L 348.79656 -282.430642 
L 350.426352 -281.910906 
L 352.056144 -282.037606 
L 353.685936 -282.83512 
L 355.315728 -282.81753 
L 356.94552 -282.263493 
L 358.575311 -281.90194 
L 360.205103 -281.479805 
L 361.834895 -281.037627 
L 363.464687 -280.447662 
L 365.094479 -280.322705 
L 366.724271 -280.446082 
L 368.354063 -280.795115 
L 369.983855 -280.399724 
L 371.613647 -280.122606 
L 373.243439 -280.020266 
L 374.87323 -281.834706 
L 376.503022 -281.252911 
L 378.132814 -280.937131 
L 379.762606 -280.738566 
L 381.392398 -280.15698 
L 383.02219 -279.89064 
L 384.651982 -279.558917 
L 386.281774 -279.547668 
L 387.911566 -279.75297 
L 389.541357 -280.190063 
L 391.171149 -280.672942 
L 392.800941 -280.430078 
L 394.430733 -280.497539 
L 396.060525 -281.824011 
L 397.690317 -281.250565 
L 399.320109 -280.694068 
L 400.949901 -280.192742 
L 402.579693 -279.634316 
L 404.209485 -279.400959 
L 405.839276 -280.00134 
L 407.469068 -279.988007 
L 409.09886 -279.426577 
L 410.728652 -280.28463 
L 412.358444 -280.197353 
L 413.988236 -280.187423 
L 415.618028 -282.329113 
L 417.24782 -281.769773 
L 418.877612 -281.259908 
L 420.507403 -281.184368 
L 422.137195 -281.225844 
L 423.766987 -280.67526 
L 425.396779 -281.154899 
L 427.026571 -280.680875 
L 428.656363 -280.393355 
L 430.286155 -280.509217 
L 431.915947 -280.041242 
L 433.545739 -279.852451 
L 435.175531 -279.323107 
L 436.805322 -280.130077 
L 438.435114 -279.825829 
L 440.064906 -279.310642 
L 441.694698 -279.22851 
L 443.32449 -280.953157 
L 444.954282 -280.423873 
L 446.584074 -280.343843 
L 448.213866 -279.820411 
L 449.843658 -279.42502 
L 451.473449 -279.09066 
L 453.103241 -278.852238 
L 454.733033 -278.468078 
L 456.362825 -277.939825 
L 457.992617 -277.637252 
L 459.622409 -277.169753 
L 461.252201 -276.757444 
L 462.881993 -276.468888 
L 464.511785 -275.95902 
L 466.141577 -275.457523 
L 467.771368 -275.03002 
L 469.40116 -274.564947 
L 471.030952 -276.200359 
L 472.660744 -276.305167 
L 474.290536 -275.939881 
L 475.920328 -276.247436 
L 477.55012 -275.778886 
L 479.179912 -275.294384 
L 480.809704 -275.179013 
L 482.439495 -276.315378 
L 484.069287 -275.941183 
L 485.699079 -275.995465 
L 487.328871 -275.49391 
L 488.958663 -275.015122 
L 490.588455 -276.408227 
L 492.218247 -275.983544 
L 493.848039 -275.481897 
L 495.477831 -275.243941 
L 497.107623 -275.938786 
L 498.737414 -277.420511 
L 500.367206 -276.97022 
L 501.996998 -276.526205 
L 503.62679 -276.088717 
L 505.256582 -275.662597 
L 506.886374 -275.257158 
L 508.516166 -275.010627 
L 510.145958 -274.812907 
L 511.77575 -274.361047 
L 513.405541 -273.879477 
L 515.035333 -273.401499 
L 516.665125 -273.471835 
L 518.294917 -273.617356 
L 519.924709 -273.299383 
L 521.554501 -272.952754 
L 523.184293 -272.471916 
L 524.814085 -271.996852 
L 526.443877 -271.624489 
L 528.073669 -271.975315 
L 529.70346 -271.512183 
L 531.333252 -271.177037 
L 532.963044 -271.320753 
L 534.592836 -270.845331 
L 536.222628 -272.856275 
L 537.85242 -273.218204 
L 539.482212 -272.861614 
L 541.112004 -272.440802 
L 542.741796 -272.856504 
L 544.371587 -272.405514 
L 546.001379 -272.494042 
L 547.631171 -273.268059 
L 549.260963 -273.045451 
L 550.890755 -272.611209 
L 552.520547 -273.98284 
L 554.150339 -273.571253 
L 555.780131 -273.129319 
L 557.409923 -273.102989 
L 559.039715 -273.261466 
L 560.669506 -273.630817 
L 562.299298 -273.352751 
L 563.92909 -272.895798 
L 565.558882 -273.225419 
L 567.188674 -273.043065 
L 568.818466 -272.734148 
L 568.818466 -272.734148 
L 568.818466 -340.950595 
L 567.188674 -341.156306 
L 565.558882 -341.097502 
L 563.92909 -341.271921 
L 562.299298 -341.542822 
L 560.669506 -341.981095 
L 559.039715 -342.032054 
L 557.409923 -341.536624 
L 555.780131 -340.651586 
L 554.150339 -340.000491 
L 552.520547 -340.136076 
L 550.890755 -340.557031 
L 549.260963 -340.59707 
L 547.631171 -341.061744 
L 546.001379 -341.31103 
L 544.371587 -341.721393 
L 542.741796 -342.015714 
L 541.112004 -342.312296 
L 539.482212 -342.248551 
L 537.85242 -342.71 
L 536.222628 -342.802032 
L 534.592836 -343.199751 
L 532.963044 -343.373685 
L 531.333252 -343.525063 
L 529.70346 -343.935907 
L 528.073669 -344.193534 
L 526.443877 -344.672114 
L 524.814085 -345.112228 
L 523.184293 -345.557373 
L 521.554501 -345.574695 
L 519.924709 -345.529266 
L 518.294917 -345.801272 
L 516.665125 -345.587906 
L 515.035333 -346.037814 
L 513.405541 -346.347518 
L 511.77575 -346.252594 
L 510.145958 -346.185544 
L 508.516166 -346.517127 
L 506.886374 -346.649132 
L 505.256582 -346.679139 
L 503.62679 -346.600217 
L 501.996998 -346.707048 
L 500.367206 -347.011959 
L 498.737414 -347.270265 
L 497.107623 -347.634034 
L 495.477831 -347.801497 
L 493.848039 -347.260809 
L 492.218247 -345.680644 
L 490.588455 -346.121194 
L 488.958663 -345.907642 
L 487.328871 -345.995652 
L 485.699079 -346.032868 
L 484.069287 -346.488353 
L 482.439495 -346.025828 
L 480.809704 -345.419292 
L 479.179912 -345.584533 
L 477.55012 -346.0963 
L 475.920328 -346.024945 
L 474.290536 -346.058839 
L 472.660744 -345.712824 
L 471.030952 -345.890263 
L 469.40116 -346.329824 
L 467.771368 -346.719207 
L 466.141577 -346.812069 
L 464.511785 -344.893612 
L 462.881993 -345.003484 
L 461.252201 -345.338737 
L 459.622409 -344.834061 
L 457.992617 -344.191696 
L 456.362825 -344.614209 
L 454.733033 -344.603955 
L 453.103241 -345.133661 
L 451.473449 -344.880253 
L 449.843658 -344.518883 
L 448.213866 -344.108054 
L 446.584074 -344.12725 
L 444.954282 -344.379615 
L 443.32449 -343.20003 
L 441.694698 -342.247804 
L 440.064906 -342.713347 
L 438.435114 -342.081314 
L 436.805322 -341.871415 
L 435.175531 -342.10135 
L 433.545739 -342.644369 
L 431.915947 -342.057611 
L 430.286155 -342.451322 
L 428.656363 -342.120919 
L 427.026571 -342.294961 
L 425.396779 -342.679096 
L 423.766987 -342.78435 
L 422.137195 -343.181332 
L 420.507403 -342.978501 
L 418.877612 -342.850543 
L 417.24782 -343.199246 
L 415.618028 -341.82411 
L 413.988236 -342.00684 
L 412.358444 -342.540488 
L 410.728652 -342.782312 
L 409.09886 -342.467542 
L 407.469068 -341.017042 
L 405.839276 -341.18295 
L 404.209485 -341.401636 
L 402.579693 -341.936303 
L 400.949901 -342.492238 
L 399.320109 -342.885845 
L 397.690317 -342.519377 
L 396.060525 -342.068189 
L 394.430733 -341.337466 
L 392.800941 -341.768933 
L 391.171149 -342.307627 
L 389.541357 -342.049039 
L 387.911566 -342.522079 
L 386.281774 -341.211301 
L 384.651982 -341.76494 
L 383.02219 -342.237411 
L 381.392398 -340.301346 
L 379.762606 -339.517594 
L 378.132814 -339.89455 
L 376.503022 -340.181266 
L 374.87323 -340.385894 
L 373.243439 -340.815551 
L 371.613647 -341.414241 
L 369.983855 -341.851507 
L 368.354063 -342.368707 
L 366.724271 -342.902798 
L 365.094479 -342.383749 
L 363.464687 -342.950987 
L 361.834895 -343.052283 
L 360.205103 -343.451518 
L 358.575311 -343.818581 
L 356.94552 -343.75696 
L 355.315728 -344.354186 
L 353.685936 -344.855281 
L 352.056144 -345.267302 
L 350.426352 -345.017433 
L 348.79656 -345.249596 
L 347.166768 -345.868478 
L 345.536976 -346.258423 
L 343.907184 -346.490425 
L 342.277393 -346.723999 
L 340.647601 -346.390072 
L 339.017809 -346.212103 
L 337.388017 -345.300636 
L 335.758225 -345.927896 
L 334.128433 -345.335662 
L 332.498641 -345.93609 
L 330.868849 -346.246906 
L 329.239057 -346.149186 
L 327.609265 -344.97106 
L 325.979474 -345.159263 
L 324.349682 -344.907611 
L 322.71989 -345.554922 
L 321.090098 -343.671527 
L 319.460306 -344.105935 
L 317.830514 -344.503603 
L 316.200722 -345.120386 
L 314.57093 -345.528625 
L 312.941138 -345.765105 
L 311.311347 -346.404199 
L 309.681555 -346.915262 
L 308.051763 -346.766099 
L 306.421971 -346.555373 
L 304.792179 -347.223786 
L 303.162387 -347.674818 
L 301.532595 -347.240638 
L 299.902803 -346.458944 
L 298.273011 -347.091262 
L 296.643219 -347.732081 
L 295.013428 -348.083119 
L 293.383636 -348.339257 
L 291.753844 -347.876668 
L 290.124052 -348.147611 
L 288.49426 -348.52612 
L 286.864468 -347.342402 
L 285.234676 -346.062837 
L 283.604884 -346.05786 
L 281.975092 -346.628707 
L 280.345301 -347.207214 
L 278.715509 -346.338414 
L 277.085717 -345.555679 
L 275.455925 -346.159486 
L 273.826133 -346.68933 
L 272.196341 -347.270856 
L 270.566549 -346.363774 
L 268.936757 -346.846472 
L 267.306965 -346.261598 
L 265.677173 -346.019983 
L 264.047382 -346.609458 
L 262.41759 -347.238382 
L 260.787798 -347.537906 
L 259.158006 -346.860929 
L 257.528214 -347.146237 
L 255.898422 -347.832794 
L 254.26863 -348.480782 
L 252.638838 -349.002063 
L 251.009046 -349.632292 
L 249.379255 -349.243716 
L 247.749463 -349.975171 
L 246.119671 -350.381268 
L 244.489879 -351.029389 
L 242.860087 -351.742122 
L 241.230295 -352.473994 
L 239.600503 -352.732166 
L 237.970711 -353.345481 
L 236.340919 -353.136238 
L 234.711127 -353.713598 
L 233.081336 -354.35926 
L 231.451544 -354.884012 
L 229.821752 -355.659902 
L 228.19196 -356.065966 
L 226.562168 -356.274745 
L 224.932376 -356.018677 
L 223.302584 -356.685181 
L 221.672792 -357.442381 
L 220.043 -358.215807 
L 218.413209 -358.659708 
L 216.783417 -359.399647 
L 215.153625 -360.134546 
L 213.523833 -360.619582 
L 211.894041 -361.306448 
L 210.264249 -361.228457 
L 208.634457 -362.025779 
L 207.004665 -362.180621 
L 205.374873 -362.462808 
L 203.745081 -363.284006 
L 202.11529 -364.055176 
L 200.485498 -364.518469 
L 198.855706 -365.318999 
L 197.225914 -364.934356 
L 195.596122 -364.43791 
L 193.96633 -363.214489 
L 192.336538 -363.505185 
L 190.706746 -364.276353 
L 189.076954 -364.509191 
L 187.447163 -365.360844 
L 185.817371 -366.204898 
L 184.187579 -366.530587 
L 182.557787 -367.05446 
L 180.927995 -367.328196 
L 179.298203 -367.889174 
L 177.668411 -368.237294 
L 176.038619 -369.112901 
L 174.408827 -369.067954 
L 172.779035 -369.83224 
L 171.149244 -369.437197 
L 169.519452 -369.699565 
L 167.88966 -369.751223 
L 166.259868 -370.56125 
L 164.630076 -370.511302 
L 163.000284 -368.798765 
z
" id="m7340cfcac6" style="stroke:#ff0000;stroke-opacity:0.3;"/>
    </defs>
    <g clip-path="url(#p33f7c44ce8)">
     <use style="fill:#ff0000;fill-opacity:0.3;stroke:#ff0000;stroke-opacity:0.3;" x="0" xlink:href="#m7340cfcac6" y="392.88125"/>
    </g>
   </g>
   <g id="PolyCollection_2">
    <defs>
     <path d="M 163.000284 -84.021232 
L 163.000284 -84.021232 
L 164.630076 -83.132398 
L 166.259868 -83.471705 
L 167.88966 -82.697098 
L 169.519452 -81.877321 
L 171.149244 -81.106766 
L 172.779035 -80.759753 
L 174.408827 -79.900127 
L 176.038619 -79.040352 
L 177.668411 -79.698042 
L 179.298203 -78.872273 
L 180.927995 -78.033131 
L 182.557787 -80.530276 
L 184.187579 -80.511169 
L 185.817371 -80.212684 
L 187.447163 -79.363427 
L 189.076954 -78.517599 
L 190.706746 -78.941495 
L 192.336538 -78.10001 
L 193.96633 -78.804341 
L 195.596122 -78.038779 
L 197.225914 -79.441147 
L 198.855706 -78.662334 
L 200.485498 -77.830665 
L 202.11529 -77.301539 
L 203.745081 -76.623996 
L 205.374873 -75.819139 
L 207.004665 -76.341957 
L 208.634457 -76.493834 
L 210.264249 -76.013129 
L 211.894041 -75.979857 
L 213.523833 -75.397967 
L 215.153625 -74.686267 
L 216.783417 -73.955283 
L 218.413209 -73.237779 
L 220.043 -72.44434 
L 221.672792 -71.651729 
L 223.302584 -72.522633 
L 224.932376 -71.908274 
L 226.562168 -71.238937 
L 228.19196 -70.532939 
L 229.821752 -71.172434 
L 231.451544 -70.425413 
L 233.081336 -69.663631 
L 234.711127 -68.92804 
L 236.340919 -68.16125 
L 237.970711 -74.119608 
L 239.600503 -76.725163 
L 241.230295 -76.127019 
L 242.860087 -77.740001 
L 244.489879 -78.965299 
L 246.119671 -78.906971 
L 247.749463 -79.559134 
L 249.379255 -80.083405 
L 251.009046 -81.287802 
L 252.638838 -80.550571 
L 254.26863 -79.808823 
L 255.898422 -79.107332 
L 257.528214 -78.370297 
L 259.158006 -78.080399 
L 260.787798 -77.349155 
L 262.41759 -76.797907 
L 264.047382 -76.071356 
L 265.677173 -75.566353 
L 267.306965 -74.855475 
L 268.936757 -74.153341 
L 270.566549 -73.4372 
L 272.196341 -73.890721 
L 273.826133 -74.655791 
L 275.455925 -73.950304 
L 277.085717 -78.288255 
L 278.715509 -77.791545 
L 280.345301 -77.386347 
L 281.975092 -76.685166 
L 283.604884 -75.984258 
L 285.234676 -75.292326 
L 286.864468 -75.654678 
L 288.49426 -75.027127 
L 290.124052 -74.336086 
L 291.753844 -75.208694 
L 293.383636 -74.714393 
L 295.013428 -74.046725 
L 296.643219 -74.510835 
L 298.273011 -73.833542 
L 299.902803 -73.225068 
L 301.532595 -72.547464 
L 303.162387 -72.011868 
L 304.792179 -71.338284 
L 306.421971 -71.123772 
L 308.051763 -71.175383 
L 309.681555 -70.634221 
L 311.311347 -69.992737 
L 312.941138 -71.102299 
L 314.57093 -72.48321 
L 316.200722 -72.45534 
L 317.830514 -71.813477 
L 319.460306 -71.1575 
L 321.090098 -70.623671 
L 322.71989 -70.604388 
L 324.349682 -70.289472 
L 325.979474 -69.662715 
L 327.609265 -70.686924 
L 329.239057 -70.072224 
L 330.868849 -69.483867 
L 332.498641 -70.466594 
L 334.128433 -71.470185 
L 335.758225 -71.506469 
L 337.388017 -71.537642 
L 339.017809 -70.968153 
L 340.647601 -70.48669 
L 342.277393 -71.871316 
L 343.907184 -71.467398 
L 345.536976 -71.112659 
L 347.166768 -71.600901 
L 348.79656 -73.866463 
L 350.426352 -73.446359 
L 352.056144 -73.154571 
L 353.685936 -72.920589 
L 355.315728 -73.858288 
L 356.94552 -75.704274 
L 358.575311 -75.097325 
L 360.205103 -77.377682 
L 361.834895 -76.805945 
L 363.464687 -76.294121 
L 365.094479 -76.556398 
L 366.724271 -75.966406 
L 368.354063 -78.610367 
L 369.983855 -78.956413 
L 371.613647 -78.369818 
L 373.243439 -77.783725 
L 374.87323 -79.265699 
L 376.503022 -80.608462 
L 378.132814 -81.078134 
L 379.762606 -81.542204 
L 381.392398 -81.397779 
L 383.02219 -80.807614 
L 384.651982 -80.234044 
L 386.281774 -79.677153 
L 387.911566 -79.094898 
L 389.541357 -78.637846 
L 391.171149 -78.105619 
L 392.800941 -77.593401 
L 394.430733 -78.352078 
L 396.060525 -77.866448 
L 397.690317 -77.316308 
L 399.320109 -79.02321 
L 400.949901 -81.635689 
L 402.579693 -82.668149 
L 404.209485 -82.564333 
L 405.839276 -81.995109 
L 407.469068 -81.429972 
L 409.09886 -81.55168 
L 410.728652 -81.536414 
L 412.358444 -81.007983 
L 413.988236 -80.77851 
L 415.618028 -81.023265 
L 417.24782 -80.511121 
L 418.877612 -80.237179 
L 420.507403 -79.729987 
L 422.137195 -79.19212 
L 423.766987 -78.645276 
L 425.396779 -78.092779 
L 427.026571 -77.710971 
L 428.656363 -77.24936 
L 430.286155 -76.805146 
L 431.915947 -77.285163 
L 433.545739 -80.394797 
L 435.175531 -79.911199 
L 436.805322 -79.377796 
L 438.435114 -79.414108 
L 440.064906 -78.896354 
L 441.694698 -78.363924 
L 443.32449 -77.826065 
L 444.954282 -77.289956 
L 446.584074 -79.056607 
L 448.213866 -78.527483 
L 449.843658 -78.612021 
L 451.473449 -78.082441 
L 453.103241 -77.585055 
L 454.733033 -77.062094 
L 456.362825 -79.070394 
L 457.992617 -78.680668 
L 459.622409 -78.346227 
L 461.252201 -77.821412 
L 462.881993 -77.413666 
L 464.511785 -76.891396 
L 466.141577 -76.507912 
L 467.771368 -76.038056 
L 469.40116 -75.533291 
L 471.030952 -75.033381 
L 472.660744 -75.79966 
L 474.290536 -75.791914 
L 475.920328 -82.645001 
L 477.55012 -84.032244 
L 479.179912 -84.200102 
L 480.809704 -83.784114 
L 482.439495 -83.276958 
L 484.069287 -83.709426 
L 485.699079 -84.748814 
L 487.328871 -92.88246 
L 488.958663 -92.405167 
L 490.588455 -92.834806 
L 492.218247 -92.347506 
L 493.848039 -91.870986 
L 495.477831 -91.393912 
L 497.107623 -90.946814 
L 498.737414 -90.448616 
L 500.367206 -91.341823 
L 501.996998 -90.861271 
L 503.62679 -90.703745 
L 505.256582 -90.26449 
L 506.886374 -89.771568 
L 508.516166 -89.284328 
L 510.145958 -88.794654 
L 511.77575 -88.676159 
L 513.405541 -88.210274 
L 515.035333 -87.826132 
L 516.665125 -87.445517 
L 518.294917 -87.289359 
L 519.924709 -88.580411 
L 521.554501 -89.143585 
L 523.184293 -89.502172 
L 524.814085 -89.323997 
L 526.443877 -91.667794 
L 528.073669 -91.199917 
L 529.70346 -90.737846 
L 531.333252 -90.28385 
L 532.963044 -89.926664 
L 534.592836 -90.627237 
L 536.222628 -90.213903 
L 537.85242 -90.024748 
L 539.482212 -90.542133 
L 541.112004 -90.207962 
L 542.741796 -89.739314 
L 544.371587 -89.286278 
L 546.001379 -89.743801 
L 547.631171 -89.862647 
L 549.260963 -89.777649 
L 550.890755 -89.646546 
L 552.520547 -90.820839 
L 554.150339 -90.358364 
L 555.780131 -89.905827 
L 557.409923 -89.485769 
L 559.039715 -89.270258 
L 560.669506 -89.412309 
L 562.299298 -89.034648 
L 563.92909 -88.576861 
L 565.558882 -88.12065 
L 567.188674 -87.695956 
L 568.818466 -87.249874 
L 568.818466 -87.249874 
L 568.818466 -134.478016 
L 567.188674 -134.907691 
L 565.558882 -131.407692 
L 563.92909 -131.825993 
L 562.299298 -132.282843 
L 560.669506 -132.737733 
L 559.039715 -133.196762 
L 557.409923 -133.638806 
L 555.780131 -131.646843 
L 554.150339 -131.762375 
L 552.520547 -132.155074 
L 550.890755 -129.081442 
L 549.260963 -129.331591 
L 547.631171 -129.787285 
L 546.001379 -130.245269 
L 544.371587 -130.706353 
L 542.741796 -131.146685 
L 541.112004 -131.557684 
L 539.482212 -131.194467 
L 537.85242 -129.81023 
L 536.222628 -129.019214 
L 534.592836 -129.458314 
L 532.963044 -129.809655 
L 531.333252 -130.256124 
L 529.70346 -130.147421 
L 528.073669 -130.396271 
L 526.443877 -130.875471 
L 524.814085 -131.04454 
L 523.184293 -131.379274 
L 521.554501 -128.431672 
L 519.924709 -128.905172 
L 518.294917 -128.996822 
L 516.665125 -129.479227 
L 515.035333 -129.818949 
L 513.405541 -128.563808 
L 511.77575 -129.042543 
L 510.145958 -128.938112 
L 508.516166 -128.868117 
L 506.886374 -128.733626 
L 505.256582 -129.220737 
L 503.62679 -129.090401 
L 501.996998 -129.476112 
L 500.367206 -129.734374 
L 498.737414 -129.631478 
L 497.107623 -128.930974 
L 495.477831 -128.79075 
L 493.848039 -121.046895 
L 492.218247 -121.538257 
L 490.588455 -121.771046 
L 488.958663 -121.192633 
L 487.328871 -121.488759 
L 485.699079 -121.579171 
L 484.069287 -121.802861 
L 482.439495 -122.021382 
L 480.809704 -121.5776 
L 479.179912 -120.539916 
L 477.55012 -120.548818 
L 475.920328 -121.049858 
L 474.290536 -121.559248 
L 472.660744 -121.286992 
L 471.030952 -121.660008 
L 469.40116 -122.165978 
L 467.771368 -121.75756 
L 466.141577 -122.20871 
L 464.511785 -122.116932 
L 462.881993 -122.628057 
L 461.252201 -123.122246 
L 459.622409 -123.621683 
L 457.992617 -123.871844 
L 456.362825 -124.379471 
L 454.733033 -124.897989 
L 453.103241 -124.50925 
L 451.473449 -123.123681 
L 449.843658 -119.00301 
L 448.213866 -119.472091 
L 446.584074 -120.00153 
L 444.954282 -119.568761 
L 443.32449 -120.0131 
L 441.694698 -120.192515 
L 440.064906 -119.868754 
L 438.435114 -118.562683 
L 436.805322 -117.556502 
L 435.175531 -117.986947 
L 433.545739 -118.483582 
L 431.915947 -117.933335 
L 430.286155 -118.295191 
L 428.656363 -118.833069 
L 427.026571 -119.32474 
L 425.396779 -118.978601 
L 423.766987 -119.494467 
L 422.137195 -120.025652 
L 420.507403 -120.272049 
L 418.877612 -120.666827 
L 417.24782 -121.22333 
L 415.618028 -121.719637 
L 413.988236 -122.251037 
L 412.358444 -122.302068 
L 410.728652 -122.862045 
L 409.09886 -123.421881 
L 407.469068 -123.984316 
L 405.839276 -124.523537 
L 404.209485 -124.957812 
L 402.579693 -125.314524 
L 400.949901 -125.402019 
L 399.320109 -123.69466 
L 397.690317 -124.210895 
L 396.060525 -124.774418 
L 394.430733 -125.339689 
L 392.800941 -125.8015 
L 391.171149 -125.515245 
L 389.541357 -126.063878 
L 387.911566 -126.524966 
L 386.281774 -127.104143 
L 384.651982 -127.68634 
L 383.02219 -127.917205 
L 381.392398 -127.595472 
L 379.762606 -126.804087 
L 378.132814 -127.194713 
L 376.503022 -127.753354 
L 374.87323 -128.014503 
L 373.243439 -128.547031 
L 371.613647 -129.126967 
L 369.983855 -129.586951 
L 368.354063 -130.184067 
L 366.724271 -130.781457 
L 365.094479 -131.328462 
L 363.464687 -131.921374 
L 361.834895 -129.664947 
L 360.205103 -127.722885 
L 358.575311 -128.297947 
L 356.94552 -128.910468 
L 355.315728 -129.523707 
L 353.685936 -130.139049 
L 352.056144 -129.524309 
L 350.426352 -129.719933 
L 348.79656 -124.25054 
L 347.166768 -124.271303 
L 345.536976 -124.473589 
L 343.907184 -125.020871 
L 342.277393 -125.560297 
L 340.647601 -125.711651 
L 339.017809 -126.343106 
L 337.388017 -126.369778 
L 335.758225 -126.519279 
L 334.128433 -127.157099 
L 332.498641 -127.122886 
L 330.868849 -126.369197 
L 329.239057 -126.929723 
L 327.609265 -126.300377 
L 325.979474 -126.493962 
L 324.349682 -121.512377 
L 322.71989 -121.046812 
L 321.090098 -121.10643 
L 319.460306 -116.933856 
L 317.830514 -116.949857 
L 316.200722 -117.354561 
L 314.57093 -117.902509 
L 312.941138 -118.552021 
L 311.311347 -119.212219 
L 309.681555 -119.871686 
L 308.051763 -118.747267 
L 306.421971 -119.34069 
L 304.792179 -119.491128 
L 303.162387 -119.915071 
L 301.532595 -119.947221 
L 299.902803 -120.588388 
L 298.273011 -121.266004 
L 296.643219 -121.948036 
L 295.013428 -122.631663 
L 293.383636 -123.217946 
L 291.753844 -123.225156 
L 290.124052 -123.865847 
L 288.49426 -123.702072 
L 286.864468 -123.645376 
L 285.234676 -124.285323 
L 283.604884 -124.968688 
L 281.975092 -125.287404 
L 280.345301 -125.867081 
L 278.715509 -124.804049 
L 277.085717 -125.419843 
L 275.455925 -122.99759 
L 273.826133 -123.270216 
L 272.196341 -123.970119 
L 270.566549 -124.675556 
L 268.936757 -125.380961 
L 267.306965 -125.66565 
L 265.677173 -126.386764 
L 264.047382 -126.358185 
L 262.41759 -127.058442 
L 260.787798 -127.478377 
L 259.158006 -126.552306 
L 257.528214 -124.645176 
L 255.898422 -125.248731 
L 254.26863 -125.64651 
L 252.638838 -125.516968 
L 251.009046 -126.245276 
L 249.379255 -126.856054 
L 247.749463 -127.420118 
L 246.119671 -128.159343 
L 244.489879 -128.036635 
L 242.860087 -128.777362 
L 241.230295 -129.406896 
L 239.600503 -128.670425 
L 237.970711 -128.205192 
L 236.340919 -123.477591 
L 234.711127 -124.22649 
L 233.081336 -122.132364 
L 231.451544 -120.482177 
L 229.821752 -120.271279 
L 228.19196 -118.839027 
L 226.562168 -118.567466 
L 224.932376 -118.920934 
L 223.302584 -119.514651 
L 221.672792 -120.22206 
L 220.043 -120.812276 
L 218.413209 -119.840068 
L 216.783417 -120.379799 
L 215.153625 -120.160453 
L 213.523833 -119.600977 
L 211.894041 -120.229668 
L 210.264249 -120.990107 
L 208.634457 -121.759843 
L 207.004665 -119.952408 
L 205.374873 -119.952407 
L 203.745081 -111.77425 
L 202.11529 -112.593598 
L 200.485498 -112.39726 
L 198.855706 -113.221425 
L 197.225914 -113.052768 
L 195.596122 -111.011142 
L 193.96633 -111.776912 
L 192.336538 -111.162034 
L 190.706746 -108.919344 
L 189.076954 -106.003541 
L 187.447163 -104.458011 
L 185.817371 -104.422471 
L 184.187579 -105.234879 
L 182.557787 -106.087468 
L 180.927995 -106.407208 
L 179.298203 -106.32055 
L 177.668411 -102.960993 
L 176.038619 -103.802042 
L 174.408827 -98.052334 
L 172.779035 -98.765043 
L 171.149244 -99.309913 
L 169.519452 -98.492125 
L 167.88966 -99.252965 
L 166.259868 -99.941505 
L 164.630076 -100.636211 
L 163.000284 -100.941865 
z
" id="m6fe36f2c9b" style="stroke:#0000ff;stroke-opacity:0.3;"/>
    </defs>
    <g clip-path="url(#p33f7c44ce8)">
     <use style="fill:#0000ff;fill-opacity:0.3;stroke:#0000ff;stroke-opacity:0.3;" x="0" xlink:href="#m6fe36f2c9b" y="392.88125"/>
    </g>
   </g>
   <g id="matplotlib.axis_1">
    <g id="xtick_1">
     <g id="line2d_1">
      <defs>
       <path d="M 0 0 
L 0 3.5 
" id="mbdd718bbef" style="stroke:#000000;stroke-width:0.8;"/>
      </defs>
      <g>
       <use style="stroke:#000000;stroke-width:0.8;" x="163.000284" xlink:href="#mbdd718bbef" y="339.84"/>
      </g>
     </g>
     <g id="text_1">
      <!-- 250 -->
      <defs>
       <path d="M 19.1875 8.296875 
L 53.609375 8.296875 
L 53.609375 0 
L 7.328125 0 
L 7.328125 8.296875 
Q 12.9375 14.109375 22.625 23.890625 
Q 32.328125 33.6875 34.8125 36.53125 
Q 39.546875 41.84375 41.421875 45.53125 
Q 43.3125 49.21875 43.3125 52.78125 
Q 43.3125 58.59375 39.234375 62.25 
Q 35.15625 65.921875 28.609375 65.921875 
Q 23.96875 65.921875 18.8125 64.3125 
Q 13.671875 62.703125 7.8125 59.421875 
L 7.8125 69.390625 
Q 13.765625 71.78125 18.9375 73 
Q 24.125 74.21875 28.421875 74.21875 
Q 39.75 74.21875 46.484375 68.546875 
Q 53.21875 62.890625 53.21875 53.421875 
Q 53.21875 48.921875 51.53125 44.890625 
Q 49.859375 40.875 45.40625 35.40625 
Q 44.1875 33.984375 37.640625 27.21875 
Q 31.109375 20.453125 19.1875 8.296875 
z
" id="DejaVuSans-50"/>
       <path d="M 10.796875 72.90625 
L 49.515625 72.90625 
L 49.515625 64.59375 
L 19.828125 64.59375 
L 19.828125 46.734375 
Q 21.96875 47.46875 24.109375 47.828125 
Q 26.265625 48.1875 28.421875 48.1875 
Q 40.625 48.1875 47.75 41.5 
Q 54.890625 34.8125 54.890625 23.390625 
Q 54.890625 11.625 47.5625 5.09375 
Q 40.234375 -1.421875 26.90625 -1.421875 
Q 22.3125 -1.421875 17.546875 -0.640625 
Q 12.796875 0.140625 7.71875 1.703125 
L 7.71875 11.625 
Q 12.109375 9.234375 16.796875 8.0625 
Q 21.484375 6.890625 26.703125 6.890625 
Q 35.15625 6.890625 40.078125 11.328125 
Q 45.015625 15.765625 45.015625 23.390625 
Q 45.015625 31 40.078125 35.4375 
Q 35.15625 39.890625 26.703125 39.890625 
Q 22.75 39.890625 18.8125 39.015625 
Q 14.890625 38.140625 10.796875 36.28125 
z
" id="DejaVuSans-53"/>
       <path d="M 31.78125 66.40625 
Q 24.171875 66.40625 20.328125 58.90625 
Q 16.5 51.421875 16.5 36.375 
Q 16.5 21.390625 20.328125 13.890625 
Q 24.171875 6.390625 31.78125 6.390625 
Q 39.453125 6.390625 43.28125 13.890625 
Q 47.125 21.390625 47.125 36.375 
Q 47.125 51.421875 43.28125 58.90625 
Q 39.453125 66.40625 31.78125 66.40625 
z
M 31.78125 74.21875 
Q 44.046875 74.21875 50.515625 64.515625 
Q 56.984375 54.828125 56.984375 36.375 
Q 56.984375 17.96875 50.515625 8.265625 
Q 44.046875 -1.421875 31.78125 -1.421875 
Q 19.53125 -1.421875 13.0625 8.265625 
Q 6.59375 17.96875 6.59375 36.375 
Q 6.59375 54.828125 13.0625 64.515625 
Q 19.53125 74.21875 31.78125 74.21875 
z
" id="DejaVuSans-48"/>
      </defs>
      <g transform="translate(145.821534 360.517188)scale(0.18 -0.18)">
       <use xlink:href="#DejaVuSans-50"/>
       <use x="63.623047" xlink:href="#DejaVuSans-53"/>
       <use x="127.246094" xlink:href="#DejaVuSans-48"/>
      </g>
     </g>
    </g>
    <g id="xtick_2">
     <g id="line2d_2">
      <g>
       <use style="stroke:#000000;stroke-width:0.8;" x="244.489879" xlink:href="#mbdd718bbef" y="339.84"/>
      </g>
     </g>
     <g id="text_2">
      <!-- 300 -->
      <defs>
       <path d="M 40.578125 39.3125 
Q 47.65625 37.796875 51.625 33 
Q 55.609375 28.21875 55.609375 21.1875 
Q 55.609375 10.40625 48.1875 4.484375 
Q 40.765625 -1.421875 27.09375 -1.421875 
Q 22.515625 -1.421875 17.65625 -0.515625 
Q 12.796875 0.390625 7.625 2.203125 
L 7.625 11.71875 
Q 11.71875 9.328125 16.59375 8.109375 
Q 21.484375 6.890625 26.8125 6.890625 
Q 36.078125 6.890625 40.9375 10.546875 
Q 45.796875 14.203125 45.796875 21.1875 
Q 45.796875 27.640625 41.28125 31.265625 
Q 36.765625 34.90625 28.71875 34.90625 
L 20.21875 34.90625 
L 20.21875 43.015625 
L 29.109375 43.015625 
Q 36.375 43.015625 40.234375 45.921875 
Q 44.09375 48.828125 44.09375 54.296875 
Q 44.09375 59.90625 40.109375 62.90625 
Q 36.140625 65.921875 28.71875 65.921875 
Q 24.65625 65.921875 20.015625 65.03125 
Q 15.375 64.15625 9.8125 62.3125 
L 9.8125 71.09375 
Q 15.4375 72.65625 20.34375 73.4375 
Q 25.25 74.21875 29.59375 74.21875 
Q 40.828125 74.21875 47.359375 69.109375 
Q 53.90625 64.015625 53.90625 55.328125 
Q 53.90625 49.265625 50.4375 45.09375 
Q 46.96875 40.921875 40.578125 39.3125 
z
" id="DejaVuSans-51"/>
      </defs>
      <g transform="translate(227.311129 360.517188)scale(0.18 -0.18)">
       <use xlink:href="#DejaVuSans-51"/>
       <use x="63.623047" xlink:href="#DejaVuSans-48"/>
       <use x="127.246094" xlink:href="#DejaVuSans-48"/>
      </g>
     </g>
    </g>
    <g id="xtick_3">
     <g id="line2d_3">
      <g>
       <use style="stroke:#000000;stroke-width:0.8;" x="325.979474" xlink:href="#mbdd718bbef" y="339.84"/>
      </g>
     </g>
     <g id="text_3">
      <!-- 350 -->
      <g transform="translate(308.800724 360.517188)scale(0.18 -0.18)">
       <use xlink:href="#DejaVuSans-51"/>
       <use x="63.623047" xlink:href="#DejaVuSans-53"/>
       <use x="127.246094" xlink:href="#DejaVuSans-48"/>
      </g>
     </g>
    </g>
    <g id="xtick_4">
     <g id="line2d_4">
      <g>
       <use style="stroke:#000000;stroke-width:0.8;" x="407.469068" xlink:href="#mbdd718bbef" y="339.84"/>
      </g>
     </g>
     <g id="text_4">
      <!-- 400 -->
      <defs>
       <path d="M 37.796875 64.3125 
L 12.890625 25.390625 
L 37.796875 25.390625 
z
M 35.203125 72.90625 
L 47.609375 72.90625 
L 47.609375 25.390625 
L 58.015625 25.390625 
L 58.015625 17.1875 
L 47.609375 17.1875 
L 47.609375 0 
L 37.796875 0 
L 37.796875 17.1875 
L 4.890625 17.1875 
L 4.890625 26.703125 
z
" id="DejaVuSans-52"/>
      </defs>
      <g transform="translate(390.290318 360.517188)scale(0.18 -0.18)">
       <use xlink:href="#DejaVuSans-52"/>
       <use x="63.623047" xlink:href="#DejaVuSans-48"/>
       <use x="127.246094" xlink:href="#DejaVuSans-48"/>
      </g>
     </g>
    </g>
    <g id="xtick_5">
     <g id="line2d_5">
      <g>
       <use style="stroke:#000000;stroke-width:0.8;" x="488.958663" xlink:href="#mbdd718bbef" y="339.84"/>
      </g>
     </g>
     <g id="text_5">
      <!-- 450 -->
      <g transform="translate(471.779913 360.517188)scale(0.18 -0.18)">
       <use xlink:href="#DejaVuSans-52"/>
       <use x="63.623047" xlink:href="#DejaVuSans-53"/>
       <use x="127.246094" xlink:href="#DejaVuSans-48"/>
      </g>
     </g>
    </g>
    <g id="xtick_6">
     <g id="line2d_6">
      <g>
       <use style="stroke:#000000;stroke-width:0.8;" x="570.448258" xlink:href="#mbdd718bbef" y="339.84"/>
      </g>
     </g>
     <g id="text_6">
      <!-- 500 -->
      <g transform="translate(553.269508 360.517188)scale(0.18 -0.18)">
       <use xlink:href="#DejaVuSans-53"/>
       <use x="63.623047" xlink:href="#DejaVuSans-48"/>
       <use x="127.246094" xlink:href="#DejaVuSans-48"/>
      </g>
     </g>
    </g>
    <g id="text_7">
     <!-- Samples -->
     <defs>
      <path d="M 53.515625 70.515625 
L 53.515625 60.890625 
Q 47.90625 63.578125 42.921875 64.890625 
Q 37.9375 66.21875 33.296875 66.21875 
Q 25.25 66.21875 20.875 63.09375 
Q 16.5 59.96875 16.5 54.203125 
Q 16.5 49.359375 19.40625 46.890625 
Q 22.3125 44.4375 30.421875 42.921875 
L 36.375 41.703125 
Q 47.40625 39.59375 52.65625 34.296875 
Q 57.90625 29 57.90625 20.125 
Q 57.90625 9.515625 50.796875 4.046875 
Q 43.703125 -1.421875 29.984375 -1.421875 
Q 24.8125 -1.421875 18.96875 -0.25 
Q 13.140625 0.921875 6.890625 3.21875 
L 6.890625 13.375 
Q 12.890625 10.015625 18.65625 8.296875 
Q 24.421875 6.59375 29.984375 6.59375 
Q 38.421875 6.59375 43.015625 9.90625 
Q 47.609375 13.234375 47.609375 19.390625 
Q 47.609375 24.75 44.3125 27.78125 
Q 41.015625 30.8125 33.5 32.328125 
L 27.484375 33.5 
Q 16.453125 35.6875 11.515625 40.375 
Q 6.59375 45.0625 6.59375 53.421875 
Q 6.59375 63.09375 13.40625 68.65625 
Q 20.21875 74.21875 32.171875 74.21875 
Q 37.3125 74.21875 42.625 73.28125 
Q 47.953125 72.359375 53.515625 70.515625 
z
" id="DejaVuSans-83"/>
      <path d="M 34.28125 27.484375 
Q 23.390625 27.484375 19.1875 25 
Q 14.984375 22.515625 14.984375 16.5 
Q 14.984375 11.71875 18.140625 8.90625 
Q 21.296875 6.109375 26.703125 6.109375 
Q 34.1875 6.109375 38.703125 11.40625 
Q 43.21875 16.703125 43.21875 25.484375 
L 43.21875 27.484375 
z
M 52.203125 31.203125 
L 52.203125 0 
L 43.21875 0 
L 43.21875 8.296875 
Q 40.140625 3.328125 35.546875 0.953125 
Q 30.953125 -1.421875 24.3125 -1.421875 
Q 15.921875 -1.421875 10.953125 3.296875 
Q 6 8.015625 6 15.921875 
Q 6 25.140625 12.171875 29.828125 
Q 18.359375 34.515625 30.609375 34.515625 
L 43.21875 34.515625 
L 43.21875 35.40625 
Q 43.21875 41.609375 39.140625 45 
Q 35.0625 48.390625 27.6875 48.390625 
Q 23 48.390625 18.546875 47.265625 
Q 14.109375 46.140625 10.015625 43.890625 
L 10.015625 52.203125 
Q 14.9375 54.109375 19.578125 55.046875 
Q 24.21875 56 28.609375 56 
Q 40.484375 56 46.34375 49.84375 
Q 52.203125 43.703125 52.203125 31.203125 
z
" id="DejaVuSans-97"/>
      <path d="M 52 44.1875 
Q 55.375 50.25 60.0625 53.125 
Q 64.75 56 71.09375 56 
Q 79.640625 56 84.28125 50.015625 
Q 88.921875 44.046875 88.921875 33.015625 
L 88.921875 0 
L 79.890625 0 
L 79.890625 32.71875 
Q 79.890625 40.578125 77.09375 44.375 
Q 74.3125 48.1875 68.609375 48.1875 
Q 61.625 48.1875 57.5625 43.546875 
Q 53.515625 38.921875 53.515625 30.90625 
L 53.515625 0 
L 44.484375 0 
L 44.484375 32.71875 
Q 44.484375 40.625 41.703125 44.40625 
Q 38.921875 48.1875 33.109375 48.1875 
Q 26.21875 48.1875 22.15625 43.53125 
Q 18.109375 38.875 18.109375 30.90625 
L 18.109375 0 
L 9.078125 0 
L 9.078125 54.6875 
L 18.109375 54.6875 
L 18.109375 46.1875 
Q 21.1875 51.21875 25.484375 53.609375 
Q 29.78125 56 35.6875 56 
Q 41.65625 56 45.828125 52.96875 
Q 50 49.953125 52 44.1875 
z
" id="DejaVuSans-109"/>
      <path d="M 18.109375 8.203125 
L 18.109375 -20.796875 
L 9.078125 -20.796875 
L 9.078125 54.6875 
L 18.109375 54.6875 
L 18.109375 46.390625 
Q 20.953125 51.265625 25.265625 53.625 
Q 29.59375 56 35.59375 56 
Q 45.5625 56 51.78125 48.09375 
Q 58.015625 40.1875 58.015625 27.296875 
Q 58.015625 14.40625 51.78125 6.484375 
Q 45.5625 -1.421875 35.59375 -1.421875 
Q 29.59375 -1.421875 25.265625 0.953125 
Q 20.953125 3.328125 18.109375 8.203125 
z
M 48.6875 27.296875 
Q 48.6875 37.203125 44.609375 42.84375 
Q 40.53125 48.484375 33.40625 48.484375 
Q 26.265625 48.484375 22.1875 42.84375 
Q 18.109375 37.203125 18.109375 27.296875 
Q 18.109375 17.390625 22.1875 11.75 
Q 26.265625 6.109375 33.40625 6.109375 
Q 40.53125 6.109375 44.609375 11.75 
Q 48.6875 17.390625 48.6875 27.296875 
z
" id="DejaVuSans-112"/>
      <path d="M 9.421875 75.984375 
L 18.40625 75.984375 
L 18.40625 0 
L 9.421875 0 
z
" id="DejaVuSans-108"/>
      <path d="M 56.203125 29.59375 
L 56.203125 25.203125 
L 14.890625 25.203125 
Q 15.484375 15.921875 20.484375 11.0625 
Q 25.484375 6.203125 34.421875 6.203125 
Q 39.59375 6.203125 44.453125 7.46875 
Q 49.3125 8.734375 54.109375 11.28125 
L 54.109375 2.78125 
Q 49.265625 0.734375 44.1875 -0.34375 
Q 39.109375 -1.421875 33.890625 -1.421875 
Q 20.796875 -1.421875 13.15625 6.1875 
Q 5.515625 13.8125 5.515625 26.8125 
Q 5.515625 40.234375 12.765625 48.109375 
Q 20.015625 56 32.328125 56 
Q 43.359375 56 49.78125 48.890625 
Q 56.203125 41.796875 56.203125 29.59375 
z
M 47.21875 32.234375 
Q 47.125 39.59375 43.09375 43.984375 
Q 39.0625 48.390625 32.421875 48.390625 
Q 24.90625 48.390625 20.390625 44.140625 
Q 15.875 39.890625 15.1875 32.171875 
z
" id="DejaVuSans-101"/>
      <path d="M 44.28125 53.078125 
L 44.28125 44.578125 
Q 40.484375 46.53125 36.375 47.5 
Q 32.28125 48.484375 27.875 48.484375 
Q 21.1875 48.484375 17.84375 46.4375 
Q 14.5 44.390625 14.5 40.28125 
Q 14.5 37.15625 16.890625 35.375 
Q 19.28125 33.59375 26.515625 31.984375 
L 29.59375 31.296875 
Q 39.15625 29.25 43.1875 25.515625 
Q 47.21875 21.78125 47.21875 15.09375 
Q 47.21875 7.46875 41.1875 3.015625 
Q 35.15625 -1.421875 24.609375 -1.421875 
Q 20.21875 -1.421875 15.453125 -0.5625 
Q 10.6875 0.296875 5.421875 2 
L 5.421875 11.28125 
Q 10.40625 8.6875 15.234375 7.390625 
Q 20.0625 6.109375 24.8125 6.109375 
Q 31.15625 6.109375 34.5625 8.28125 
Q 37.984375 10.453125 37.984375 14.40625 
Q 37.984375 18.0625 35.515625 20.015625 
Q 33.0625 21.96875 24.703125 23.78125 
L 21.578125 24.515625 
Q 13.234375 26.265625 9.515625 29.90625 
Q 5.8125 33.546875 5.8125 39.890625 
Q 5.8125 47.609375 11.28125 51.796875 
Q 16.75 56 26.8125 56 
Q 31.78125 56 36.171875 55.265625 
Q 40.578125 54.546875 44.28125 53.078125 
z
" id="DejaVuSans-115"/>
     </defs>
     <g transform="translate(327.47375 381.937813)scale(0.18 -0.18)">
      <use xlink:href="#DejaVuSans-83"/>
      <use x="63.476562" xlink:href="#DejaVuSans-97"/>
      <use x="124.755859" xlink:href="#DejaVuSans-109"/>
      <use x="222.167969" xlink:href="#DejaVuSans-112"/>
      <use x="285.644531" xlink:href="#DejaVuSans-108"/>
      <use x="313.427734" xlink:href="#DejaVuSans-101"/>
      <use x="374.951172" xlink:href="#DejaVuSans-115"/>
     </g>
    </g>
   </g>
   <g id="matplotlib.axis_2">
    <g id="ytick_1">
     <g id="line2d_7">
      <defs>
       <path d="M 0 0 
L -3.5 0 
" id="m9141a4c511" style="stroke:#000000;stroke-width:0.8;"/>
      </defs>
      <g>
       <use style="stroke:#000000;stroke-width:0.8;" x="142.709375" xlink:href="#m9141a4c511" y="337.248646"/>
      </g>
     </g>
     <g id="text_8">
      <!-- -1.306e+02 -->
      <defs>
       <path d="M 4.890625 31.390625 
L 31.203125 31.390625 
L 31.203125 23.390625 
L 4.890625 23.390625 
z
" id="DejaVuSans-45"/>
       <path d="M 12.40625 8.296875 
L 28.515625 8.296875 
L 28.515625 63.921875 
L 10.984375 60.40625 
L 10.984375 69.390625 
L 28.421875 72.90625 
L 38.28125 72.90625 
L 38.28125 8.296875 
L 54.390625 8.296875 
L 54.390625 0 
L 12.40625 0 
z
" id="DejaVuSans-49"/>
       <path d="M 10.6875 12.40625 
L 21 12.40625 
L 21 0 
L 10.6875 0 
z
" id="DejaVuSans-46"/>
       <path d="M 33.015625 40.375 
Q 26.375 40.375 22.484375 35.828125 
Q 18.609375 31.296875 18.609375 23.390625 
Q 18.609375 15.53125 22.484375 10.953125 
Q 26.375 6.390625 33.015625 6.390625 
Q 39.65625 6.390625 43.53125 10.953125 
Q 47.40625 15.53125 47.40625 23.390625 
Q 47.40625 31.296875 43.53125 35.828125 
Q 39.65625 40.375 33.015625 40.375 
z
M 52.59375 71.296875 
L 52.59375 62.3125 
Q 48.875 64.0625 45.09375 64.984375 
Q 41.3125 65.921875 37.59375 65.921875 
Q 27.828125 65.921875 22.671875 59.328125 
Q 17.53125 52.734375 16.796875 39.40625 
Q 19.671875 43.65625 24.015625 45.921875 
Q 28.375 48.1875 33.59375 48.1875 
Q 44.578125 48.1875 50.953125 41.515625 
Q 57.328125 34.859375 57.328125 23.390625 
Q 57.328125 12.15625 50.6875 5.359375 
Q 44.046875 -1.421875 33.015625 -1.421875 
Q 20.359375 -1.421875 13.671875 8.265625 
Q 6.984375 17.96875 6.984375 36.375 
Q 6.984375 53.65625 15.1875 63.9375 
Q 23.390625 74.21875 37.203125 74.21875 
Q 40.921875 74.21875 44.703125 73.484375 
Q 48.484375 72.75 52.59375 71.296875 
z
" id="DejaVuSans-54"/>
       <path d="M 46 62.703125 
L 46 35.5 
L 73.1875 35.5 
L 73.1875 27.203125 
L 46 27.203125 
L 46 0 
L 37.796875 0 
L 37.796875 27.203125 
L 10.59375 27.203125 
L 10.59375 35.5 
L 37.796875 35.5 
L 37.796875 62.703125 
z
" id="DejaVuSans-43"/>
      </defs>
      <g transform="translate(28.620625 344.08724)scale(0.18 -0.18)">
       <use xlink:href="#DejaVuSans-45"/>
       <use x="36.083984" xlink:href="#DejaVuSans-49"/>
       <use x="99.707031" xlink:href="#DejaVuSans-46"/>
       <use x="131.494141" xlink:href="#DejaVuSans-51"/>
       <use x="195.117188" xlink:href="#DejaVuSans-48"/>
       <use x="258.740234" xlink:href="#DejaVuSans-54"/>
       <use x="322.363281" xlink:href="#DejaVuSans-101"/>
       <use x="383.886719" xlink:href="#DejaVuSans-43"/>
       <use x="467.675781" xlink:href="#DejaVuSans-48"/>
       <use x="531.298828" xlink:href="#DejaVuSans-50"/>
      </g>
     </g>
    </g>
    <g id="ytick_2">
     <g id="line2d_8">
      <g>
       <use style="stroke:#000000;stroke-width:0.8;" x="142.709375" xlink:href="#m9141a4c511" y="291.746918"/>
      </g>
     </g>
     <g id="text_9">
      <!-- -1.304e+02 -->
      <g transform="translate(28.620625 298.585512)scale(0.18 -0.18)">
       <use xlink:href="#DejaVuSans-45"/>
       <use x="36.083984" xlink:href="#DejaVuSans-49"/>
       <use x="99.707031" xlink:href="#DejaVuSans-46"/>
       <use x="131.494141" xlink:href="#DejaVuSans-51"/>
       <use x="195.117188" xlink:href="#DejaVuSans-48"/>
       <use x="258.740234" xlink:href="#DejaVuSans-52"/>
       <use x="322.363281" xlink:href="#DejaVuSans-101"/>
       <use x="383.886719" xlink:href="#DejaVuSans-43"/>
       <use x="467.675781" xlink:href="#DejaVuSans-48"/>
       <use x="531.298828" xlink:href="#DejaVuSans-50"/>
      </g>
     </g>
    </g>
    <g id="ytick_3">
     <g id="line2d_9">
      <g>
       <use style="stroke:#000000;stroke-width:0.8;" x="142.709375" xlink:href="#m9141a4c511" y="246.24519"/>
      </g>
     </g>
     <g id="text_10">
      <!-- -1.302e+02 -->
      <g transform="translate(28.620625 253.083784)scale(0.18 -0.18)">
       <use xlink:href="#DejaVuSans-45"/>
       <use x="36.083984" xlink:href="#DejaVuSans-49"/>
       <use x="99.707031" xlink:href="#DejaVuSans-46"/>
       <use x="131.494141" xlink:href="#DejaVuSans-51"/>
       <use x="195.117188" xlink:href="#DejaVuSans-48"/>
       <use x="258.740234" xlink:href="#DejaVuSans-50"/>
       <use x="322.363281" xlink:href="#DejaVuSans-101"/>
       <use x="383.886719" xlink:href="#DejaVuSans-43"/>
       <use x="467.675781" xlink:href="#DejaVuSans-48"/>
       <use x="531.298828" xlink:href="#DejaVuSans-50"/>
      </g>
     </g>
    </g>
    <g id="ytick_4">
     <g id="line2d_10">
      <g>
       <use style="stroke:#000000;stroke-width:0.8;" x="142.709375" xlink:href="#m9141a4c511" y="200.743462"/>
      </g>
     </g>
     <g id="text_11">
      <!-- -1.300e+02 -->
      <g transform="translate(28.620625 207.582056)scale(0.18 -0.18)">
       <use xlink:href="#DejaVuSans-45"/>
       <use x="36.083984" xlink:href="#DejaVuSans-49"/>
       <use x="99.707031" xlink:href="#DejaVuSans-46"/>
       <use x="131.494141" xlink:href="#DejaVuSans-51"/>
       <use x="195.117188" xlink:href="#DejaVuSans-48"/>
       <use x="258.740234" xlink:href="#DejaVuSans-48"/>
       <use x="322.363281" xlink:href="#DejaVuSans-101"/>
       <use x="383.886719" xlink:href="#DejaVuSans-43"/>
       <use x="467.675781" xlink:href="#DejaVuSans-48"/>
       <use x="531.298828" xlink:href="#DejaVuSans-50"/>
      </g>
     </g>
    </g>
    <g id="ytick_5">
     <g id="line2d_11">
      <g>
       <use style="stroke:#000000;stroke-width:0.8;" x="142.709375" xlink:href="#m9141a4c511" y="155.241735"/>
      </g>
     </g>
     <g id="text_12">
      <!-- -1.298e+02 -->
      <defs>
       <path d="M 10.984375 1.515625 
L 10.984375 10.5 
Q 14.703125 8.734375 18.5 7.8125 
Q 22.3125 6.890625 25.984375 6.890625 
Q 35.75 6.890625 40.890625 13.453125 
Q 46.046875 20.015625 46.78125 33.40625 
Q 43.953125 29.203125 39.59375 26.953125 
Q 35.25 24.703125 29.984375 24.703125 
Q 19.046875 24.703125 12.671875 31.3125 
Q 6.296875 37.9375 6.296875 49.421875 
Q 6.296875 60.640625 12.9375 67.421875 
Q 19.578125 74.21875 30.609375 74.21875 
Q 43.265625 74.21875 49.921875 64.515625 
Q 56.59375 54.828125 56.59375 36.375 
Q 56.59375 19.140625 48.40625 8.859375 
Q 40.234375 -1.421875 26.421875 -1.421875 
Q 22.703125 -1.421875 18.890625 -0.6875 
Q 15.09375 0.046875 10.984375 1.515625 
z
M 30.609375 32.421875 
Q 37.25 32.421875 41.125 36.953125 
Q 45.015625 41.5 45.015625 49.421875 
Q 45.015625 57.28125 41.125 61.84375 
Q 37.25 66.40625 30.609375 66.40625 
Q 23.96875 66.40625 20.09375 61.84375 
Q 16.21875 57.28125 16.21875 49.421875 
Q 16.21875 41.5 20.09375 36.953125 
Q 23.96875 32.421875 30.609375 32.421875 
z
" id="DejaVuSans-57"/>
       <path d="M 31.78125 34.625 
Q 24.75 34.625 20.71875 30.859375 
Q 16.703125 27.09375 16.703125 20.515625 
Q 16.703125 13.921875 20.71875 10.15625 
Q 24.75 6.390625 31.78125 6.390625 
Q 38.8125 6.390625 42.859375 10.171875 
Q 46.921875 13.96875 46.921875 20.515625 
Q 46.921875 27.09375 42.890625 30.859375 
Q 38.875 34.625 31.78125 34.625 
z
M 21.921875 38.8125 
Q 15.578125 40.375 12.03125 44.71875 
Q 8.5 49.078125 8.5 55.328125 
Q 8.5 64.0625 14.71875 69.140625 
Q 20.953125 74.21875 31.78125 74.21875 
Q 42.671875 74.21875 48.875 69.140625 
Q 55.078125 64.0625 55.078125 55.328125 
Q 55.078125 49.078125 51.53125 44.71875 
Q 48 40.375 41.703125 38.8125 
Q 48.828125 37.15625 52.796875 32.3125 
Q 56.78125 27.484375 56.78125 20.515625 
Q 56.78125 9.90625 50.3125 4.234375 
Q 43.84375 -1.421875 31.78125 -1.421875 
Q 19.734375 -1.421875 13.25 4.234375 
Q 6.78125 9.90625 6.78125 20.515625 
Q 6.78125 27.484375 10.78125 32.3125 
Q 14.796875 37.15625 21.921875 38.8125 
z
M 18.3125 54.390625 
Q 18.3125 48.734375 21.84375 45.5625 
Q 25.390625 42.390625 31.78125 42.390625 
Q 38.140625 42.390625 41.71875 45.5625 
Q 45.3125 48.734375 45.3125 54.390625 
Q 45.3125 60.0625 41.71875 63.234375 
Q 38.140625 66.40625 31.78125 66.40625 
Q 25.390625 66.40625 21.84375 63.234375 
Q 18.3125 60.0625 18.3125 54.390625 
z
" id="DejaVuSans-56"/>
      </defs>
      <g transform="translate(28.620625 162.080328)scale(0.18 -0.18)">
       <use xlink:href="#DejaVuSans-45"/>
       <use x="36.083984" xlink:href="#DejaVuSans-49"/>
       <use x="99.707031" xlink:href="#DejaVuSans-46"/>
       <use x="131.494141" xlink:href="#DejaVuSans-50"/>
       <use x="195.117188" xlink:href="#DejaVuSans-57"/>
       <use x="258.740234" xlink:href="#DejaVuSans-56"/>
       <use x="322.363281" xlink:href="#DejaVuSans-101"/>
       <use x="383.886719" xlink:href="#DejaVuSans-43"/>
       <use x="467.675781" xlink:href="#DejaVuSans-48"/>
       <use x="531.298828" xlink:href="#DejaVuSans-50"/>
      </g>
     </g>
    </g>
    <g id="ytick_6">
     <g id="line2d_12">
      <g>
       <use style="stroke:#000000;stroke-width:0.8;" x="142.709375" xlink:href="#m9141a4c511" y="109.740007"/>
      </g>
     </g>
     <g id="text_13">
      <!-- -1.296e+02 -->
      <g transform="translate(28.620625 116.578601)scale(0.18 -0.18)">
       <use xlink:href="#DejaVuSans-45"/>
       <use x="36.083984" xlink:href="#DejaVuSans-49"/>
       <use x="99.707031" xlink:href="#DejaVuSans-46"/>
       <use x="131.494141" xlink:href="#DejaVuSans-50"/>
       <use x="195.117188" xlink:href="#DejaVuSans-57"/>
       <use x="258.740234" xlink:href="#DejaVuSans-54"/>
       <use x="322.363281" xlink:href="#DejaVuSans-101"/>
       <use x="383.886719" xlink:href="#DejaVuSans-43"/>
       <use x="467.675781" xlink:href="#DejaVuSans-48"/>
       <use x="531.298828" xlink:href="#DejaVuSans-50"/>
      </g>
     </g>
    </g>
    <g id="ytick_7">
     <g id="line2d_13">
      <g>
       <use style="stroke:#000000;stroke-width:0.8;" x="142.709375" xlink:href="#m9141a4c511" y="64.238279"/>
      </g>
     </g>
     <g id="text_14">
      <!-- -1.294e+02 -->
      <g transform="translate(28.620625 71.076873)scale(0.18 -0.18)">
       <use xlink:href="#DejaVuSans-45"/>
       <use x="36.083984" xlink:href="#DejaVuSans-49"/>
       <use x="99.707031" xlink:href="#DejaVuSans-46"/>
       <use x="131.494141" xlink:href="#DejaVuSans-50"/>
       <use x="195.117188" xlink:href="#DejaVuSans-57"/>
       <use x="258.740234" xlink:href="#DejaVuSans-52"/>
       <use x="322.363281" xlink:href="#DejaVuSans-101"/>
       <use x="383.886719" xlink:href="#DejaVuSans-43"/>
       <use x="467.675781" xlink:href="#DejaVuSans-48"/>
       <use x="531.298828" xlink:href="#DejaVuSans-50"/>
      </g>
     </g>
    </g>
    <g id="ytick_8">
     <g id="line2d_14">
      <g>
       <use style="stroke:#000000;stroke-width:0.8;" x="142.709375" xlink:href="#m9141a4c511" y="18.736551"/>
      </g>
     </g>
     <g id="text_15">
      <!-- -1.292e+02 -->
      <g transform="translate(28.620625 25.575145)scale(0.18 -0.18)">
       <use xlink:href="#DejaVuSans-45"/>
       <use x="36.083984" xlink:href="#DejaVuSans-49"/>
       <use x="99.707031" xlink:href="#DejaVuSans-46"/>
       <use x="131.494141" xlink:href="#DejaVuSans-50"/>
       <use x="195.117188" xlink:href="#DejaVuSans-57"/>
       <use x="258.740234" xlink:href="#DejaVuSans-50"/>
       <use x="322.363281" xlink:href="#DejaVuSans-101"/>
       <use x="383.886719" xlink:href="#DejaVuSans-43"/>
       <use x="467.675781" xlink:href="#DejaVuSans-48"/>
       <use x="531.298828" xlink:href="#DejaVuSans-50"/>
      </g>
     </g>
    </g>
    <g id="text_16">
     <!-- Predictive Log Likelihood -->
     <defs>
      <path d="M 19.671875 64.796875 
L 19.671875 37.40625 
L 32.078125 37.40625 
Q 38.96875 37.40625 42.71875 40.96875 
Q 46.484375 44.53125 46.484375 51.125 
Q 46.484375 57.671875 42.71875 61.234375 
Q 38.96875 64.796875 32.078125 64.796875 
z
M 9.8125 72.90625 
L 32.078125 72.90625 
Q 44.34375 72.90625 50.609375 67.359375 
Q 56.890625 61.8125 56.890625 51.125 
Q 56.890625 40.328125 50.609375 34.8125 
Q 44.34375 29.296875 32.078125 29.296875 
L 19.671875 29.296875 
L 19.671875 0 
L 9.8125 0 
z
" id="DejaVuSans-80"/>
      <path d="M 41.109375 46.296875 
Q 39.59375 47.171875 37.8125 47.578125 
Q 36.03125 48 33.890625 48 
Q 26.265625 48 22.1875 43.046875 
Q 18.109375 38.09375 18.109375 28.8125 
L 18.109375 0 
L 9.078125 0 
L 9.078125 54.6875 
L 18.109375 54.6875 
L 18.109375 46.1875 
Q 20.953125 51.171875 25.484375 53.578125 
Q 30.03125 56 36.53125 56 
Q 37.453125 56 38.578125 55.875 
Q 39.703125 55.765625 41.0625 55.515625 
z
" id="DejaVuSans-114"/>
      <path d="M 45.40625 46.390625 
L 45.40625 75.984375 
L 54.390625 75.984375 
L 54.390625 0 
L 45.40625 0 
L 45.40625 8.203125 
Q 42.578125 3.328125 38.25 0.953125 
Q 33.9375 -1.421875 27.875 -1.421875 
Q 17.96875 -1.421875 11.734375 6.484375 
Q 5.515625 14.40625 5.515625 27.296875 
Q 5.515625 40.1875 11.734375 48.09375 
Q 17.96875 56 27.875 56 
Q 33.9375 56 38.25 53.625 
Q 42.578125 51.265625 45.40625 46.390625 
z
M 14.796875 27.296875 
Q 14.796875 17.390625 18.875 11.75 
Q 22.953125 6.109375 30.078125 6.109375 
Q 37.203125 6.109375 41.296875 11.75 
Q 45.40625 17.390625 45.40625 27.296875 
Q 45.40625 37.203125 41.296875 42.84375 
Q 37.203125 48.484375 30.078125 48.484375 
Q 22.953125 48.484375 18.875 42.84375 
Q 14.796875 37.203125 14.796875 27.296875 
z
" id="DejaVuSans-100"/>
      <path d="M 9.421875 54.6875 
L 18.40625 54.6875 
L 18.40625 0 
L 9.421875 0 
z
M 9.421875 75.984375 
L 18.40625 75.984375 
L 18.40625 64.59375 
L 9.421875 64.59375 
z
" id="DejaVuSans-105"/>
      <path d="M 48.78125 52.59375 
L 48.78125 44.1875 
Q 44.96875 46.296875 41.140625 47.34375 
Q 37.3125 48.390625 33.40625 48.390625 
Q 24.65625 48.390625 19.8125 42.84375 
Q 14.984375 37.3125 14.984375 27.296875 
Q 14.984375 17.28125 19.8125 11.734375 
Q 24.65625 6.203125 33.40625 6.203125 
Q 37.3125 6.203125 41.140625 7.25 
Q 44.96875 8.296875 48.78125 10.40625 
L 48.78125 2.09375 
Q 45.015625 0.34375 40.984375 -0.53125 
Q 36.96875 -1.421875 32.421875 -1.421875 
Q 20.0625 -1.421875 12.78125 6.34375 
Q 5.515625 14.109375 5.515625 27.296875 
Q 5.515625 40.671875 12.859375 48.328125 
Q 20.21875 56 33.015625 56 
Q 37.15625 56 41.109375 55.140625 
Q 45.0625 54.296875 48.78125 52.59375 
z
" id="DejaVuSans-99"/>
      <path d="M 18.3125 70.21875 
L 18.3125 54.6875 
L 36.8125 54.6875 
L 36.8125 47.703125 
L 18.3125 47.703125 
L 18.3125 18.015625 
Q 18.3125 11.328125 20.140625 9.421875 
Q 21.96875 7.515625 27.59375 7.515625 
L 36.8125 7.515625 
L 36.8125 0 
L 27.59375 0 
Q 17.1875 0 13.234375 3.875 
Q 9.28125 7.765625 9.28125 18.015625 
L 9.28125 47.703125 
L 2.6875 47.703125 
L 2.6875 54.6875 
L 9.28125 54.6875 
L 9.28125 70.21875 
z
" id="DejaVuSans-116"/>
      <path d="M 2.984375 54.6875 
L 12.5 54.6875 
L 29.59375 8.796875 
L 46.6875 54.6875 
L 56.203125 54.6875 
L 35.6875 0 
L 23.484375 0 
z
" id="DejaVuSans-118"/>
      <path id="DejaVuSans-32"/>
      <path d="M 9.8125 72.90625 
L 19.671875 72.90625 
L 19.671875 8.296875 
L 55.171875 8.296875 
L 55.171875 0 
L 9.8125 0 
z
" id="DejaVuSans-76"/>
      <path d="M 30.609375 48.390625 
Q 23.390625 48.390625 19.1875 42.75 
Q 14.984375 37.109375 14.984375 27.296875 
Q 14.984375 17.484375 19.15625 11.84375 
Q 23.34375 6.203125 30.609375 6.203125 
Q 37.796875 6.203125 41.984375 11.859375 
Q 46.1875 17.53125 46.1875 27.296875 
Q 46.1875 37.015625 41.984375 42.703125 
Q 37.796875 48.390625 30.609375 48.390625 
z
M 30.609375 56 
Q 42.328125 56 49.015625 48.375 
Q 55.71875 40.765625 55.71875 27.296875 
Q 55.71875 13.875 49.015625 6.21875 
Q 42.328125 -1.421875 30.609375 -1.421875 
Q 18.84375 -1.421875 12.171875 6.21875 
Q 5.515625 13.875 5.515625 27.296875 
Q 5.515625 40.765625 12.171875 48.375 
Q 18.84375 56 30.609375 56 
z
" id="DejaVuSans-111"/>
      <path d="M 45.40625 27.984375 
Q 45.40625 37.75 41.375 43.109375 
Q 37.359375 48.484375 30.078125 48.484375 
Q 22.859375 48.484375 18.828125 43.109375 
Q 14.796875 37.75 14.796875 27.984375 
Q 14.796875 18.265625 18.828125 12.890625 
Q 22.859375 7.515625 30.078125 7.515625 
Q 37.359375 7.515625 41.375 12.890625 
Q 45.40625 18.265625 45.40625 27.984375 
z
M 54.390625 6.78125 
Q 54.390625 -7.171875 48.1875 -13.984375 
Q 42 -20.796875 29.203125 -20.796875 
Q 24.46875 -20.796875 20.265625 -20.09375 
Q 16.0625 -19.390625 12.109375 -17.921875 
L 12.109375 -9.1875 
Q 16.0625 -11.328125 19.921875 -12.34375 
Q 23.78125 -13.375 27.78125 -13.375 
Q 36.625 -13.375 41.015625 -8.765625 
Q 45.40625 -4.15625 45.40625 5.171875 
L 45.40625 9.625 
Q 42.625 4.78125 38.28125 2.390625 
Q 33.9375 0 27.875 0 
Q 17.828125 0 11.671875 7.65625 
Q 5.515625 15.328125 5.515625 27.984375 
Q 5.515625 40.671875 11.671875 48.328125 
Q 17.828125 56 27.875 56 
Q 33.9375 56 38.28125 53.609375 
Q 42.625 51.21875 45.40625 46.390625 
L 45.40625 54.6875 
L 54.390625 54.6875 
z
" id="DejaVuSans-103"/>
      <path d="M 9.078125 75.984375 
L 18.109375 75.984375 
L 18.109375 31.109375 
L 44.921875 54.6875 
L 56.390625 54.6875 
L 27.390625 29.109375 
L 57.625 0 
L 45.90625 0 
L 18.109375 26.703125 
L 18.109375 0 
L 9.078125 0 
z
" id="DejaVuSans-107"/>
      <path d="M 54.890625 33.015625 
L 54.890625 0 
L 45.90625 0 
L 45.90625 32.71875 
Q 45.90625 40.484375 42.875 44.328125 
Q 39.84375 48.1875 33.796875 48.1875 
Q 26.515625 48.1875 22.3125 43.546875 
Q 18.109375 38.921875 18.109375 30.90625 
L 18.109375 0 
L 9.078125 0 
L 9.078125 75.984375 
L 18.109375 75.984375 
L 18.109375 46.1875 
Q 21.34375 51.125 25.703125 53.5625 
Q 30.078125 56 35.796875 56 
Q 45.21875 56 50.046875 50.171875 
Q 54.890625 44.34375 54.890625 33.015625 
z
" id="DejaVuSans-104"/>
     </defs>
     <g transform="translate(20.877187 285.882188)rotate(-90)scale(0.18 -0.18)">
      <use xlink:href="#DejaVuSans-80"/>
      <use x="60.287109" xlink:href="#DejaVuSans-114"/>
      <use x="101.369141" xlink:href="#DejaVuSans-101"/>
      <use x="162.892578" xlink:href="#DejaVuSans-100"/>
      <use x="226.369141" xlink:href="#DejaVuSans-105"/>
      <use x="254.152344" xlink:href="#DejaVuSans-99"/>
      <use x="309.132812" xlink:href="#DejaVuSans-116"/>
      <use x="348.341797" xlink:href="#DejaVuSans-105"/>
      <use x="376.125" xlink:href="#DejaVuSans-118"/>
      <use x="435.304688" xlink:href="#DejaVuSans-101"/>
      <use x="496.828125" xlink:href="#DejaVuSans-32"/>
      <use x="528.615234" xlink:href="#DejaVuSans-76"/>
      <use x="584.3125" xlink:href="#DejaVuSans-111"/>
      <use x="645.494141" xlink:href="#DejaVuSans-103"/>
      <use x="708.970703" xlink:href="#DejaVuSans-32"/>
      <use x="740.757812" xlink:href="#DejaVuSans-76"/>
      <use x="796.470703" xlink:href="#DejaVuSans-105"/>
      <use x="824.253906" xlink:href="#DejaVuSans-107"/>
      <use x="882.117188" xlink:href="#DejaVuSans-101"/>
      <use x="943.640625" xlink:href="#DejaVuSans-108"/>
      <use x="971.423828" xlink:href="#DejaVuSans-105"/>
      <use x="999.207031" xlink:href="#DejaVuSans-104"/>
      <use x="1062.585938" xlink:href="#DejaVuSans-111"/>
      <use x="1123.767578" xlink:href="#DejaVuSans-111"/>
      <use x="1184.949219" xlink:href="#DejaVuSans-100"/>
     </g>
    </g>
   </g>
   <g id="line2d_15">
    <path clip-path="url(#p33f7c44ce8)" d="M 163.000284 63.810783 
L 164.630076 63.295293 
L 166.259868 63.30653 
L 167.88966 64.082896 
L 171.149244 65.019965 
L 174.408827 64.505665 
L 176.038619 64.779374 
L 177.668411 65.636221 
L 179.298203 66.241632 
L 180.927995 65.35442 
L 182.557787 65.921025 
L 185.817371 66.678651 
L 187.447163 67.399484 
L 189.076954 68.244389 
L 190.706746 68.383771 
L 192.336538 69.159617 
L 193.96633 69.715626 
L 195.596122 68.35556 
L 197.225914 68.514546 
L 198.855706 68.375511 
L 200.485498 69.050815 
L 202.11529 69.396237 
L 203.745081 70.040374 
L 205.374873 69.78331 
L 207.004665 70.021343 
L 208.634457 70.067851 
L 210.264249 70.787112 
L 211.894041 70.730029 
L 213.523833 71.474779 
L 215.153625 72.026612 
L 218.413209 73.399468 
L 220.043 74.019158 
L 221.672792 74.784271 
L 224.932376 74.70226 
L 226.562168 73.3297 
L 228.19196 72.389161 
L 229.821752 72.676791 
L 234.711127 74.081646 
L 236.340919 74.35284 
L 237.970711 73.308204 
L 239.600503 73.937505 
L 241.230295 73.406552 
L 244.489879 74.693586 
L 246.119671 74.492243 
L 247.749463 74.847407 
L 249.379255 75.422682 
L 251.009046 75.533824 
L 255.898422 77.498468 
L 257.528214 77.539774 
L 259.158006 77.910779 
L 260.787798 77.561713 
L 262.41759 77.552325 
L 264.047382 78.062169 
L 265.677173 77.986112 
L 267.306965 77.175947 
L 268.936757 77.028714 
L 270.566549 77.609802 
L 272.196341 77.087334 
L 273.826133 77.038076 
L 275.455925 75.991233 
L 277.085717 75.907761 
L 278.715509 75.351723 
L 280.345301 75.172245 
L 281.975092 75.60285 
L 285.234676 75.575761 
L 286.864468 75.189266 
L 288.49426 74.93989 
L 290.124052 75.017092 
L 291.753844 75.388416 
L 293.383636 75.18697 
L 295.013428 75.63021 
L 296.643219 75.790783 
L 298.273011 76.155594 
L 299.902803 76.192839 
L 301.532595 75.422412 
L 303.162387 74.846759 
L 304.792179 74.436797 
L 306.421971 74.835035 
L 309.681555 75.090937 
L 311.311347 75.648193 
L 314.57093 76.279163 
L 316.200722 76.179447 
L 321.090098 77.501644 
L 322.71989 76.800665 
L 324.349682 77.381277 
L 325.979474 76.999036 
L 327.609265 77.341108 
L 329.239057 77.067974 
L 330.868849 77.049939 
L 332.498641 77.520587 
L 334.128433 78.128423 
L 335.758225 77.849712 
L 337.388017 78.270815 
L 339.017809 77.850984 
L 340.647601 78.004087 
L 345.536976 78.005577 
L 350.426352 79.417081 
L 353.685936 79.036049 
L 355.315728 79.295392 
L 356.94552 79.871024 
L 358.575311 80.02099 
L 365.094479 81.528023 
L 366.724271 81.20681 
L 368.354063 81.299339 
L 371.613647 82.112826 
L 373.243439 82.463341 
L 374.87323 81.77095 
L 378.132814 82.465409 
L 379.762606 82.75317 
L 381.392398 82.652087 
L 383.02219 81.817225 
L 384.651982 82.219322 
L 386.281774 82.501766 
L 387.911566 81.743725 
L 389.541357 81.761699 
L 391.171149 81.390965 
L 392.800941 81.781745 
L 394.430733 81.963748 
L 396.060525 80.93515 
L 399.320109 81.091294 
L 404.209485 82.479952 
L 405.839276 82.289105 
L 407.469068 82.378725 
L 409.09886 81.934191 
L 410.728652 81.347779 
L 413.988236 81.784119 
L 415.618028 80.804639 
L 417.24782 80.39674 
L 418.877612 80.826024 
L 422.137195 80.677662 
L 423.766987 81.151445 
L 425.396779 80.964253 
L 427.026571 81.393332 
L 428.656363 81.624113 
L 430.286155 81.400981 
L 431.915947 81.831823 
L 433.545739 81.63284 
L 435.175531 82.169021 
L 436.805322 81.880504 
L 440.064906 81.869256 
L 441.694698 82.143093 
L 443.32449 80.804657 
L 444.954282 80.479506 
L 449.843658 80.909299 
L 453.103241 80.888301 
L 454.733033 81.345234 
L 457.992617 81.966776 
L 461.252201 81.833159 
L 464.511785 82.454934 
L 466.141577 81.746454 
L 467.771368 82.006637 
L 469.40116 82.433864 
L 471.030952 81.835939 
L 474.290536 81.88189 
L 475.920328 81.74506 
L 477.55012 81.943657 
L 479.179912 82.441791 
L 480.809704 82.582098 
L 482.439495 81.710647 
L 484.069287 81.666482 
L 487.328871 82.136469 
L 488.958663 82.419868 
L 490.588455 81.61654 
L 492.218247 82.049156 
L 493.848039 81.509897 
L 495.477831 81.358531 
L 497.107623 81.09484 
L 498.737414 80.535862 
L 503.62679 81.536783 
L 508.516166 82.117373 
L 511.77575 82.574429 
L 513.405541 82.767752 
L 515.035333 83.161593 
L 516.665125 83.351379 
L 518.294917 83.171936 
L 519.924709 83.466926 
L 523.184293 83.866605 
L 526.443877 84.732949 
L 528.073669 84.796826 
L 531.333252 85.5302 
L 532.963044 85.534031 
L 534.592836 85.858709 
L 536.222628 85.052097 
L 537.85242 84.917148 
L 539.482212 85.326167 
L 541.112004 85.504701 
L 542.741796 85.445141 
L 544.371587 85.817797 
L 546.001379 85.978714 
L 547.631171 85.716348 
L 550.890755 86.29713 
L 552.520547 85.821792 
L 554.150339 86.095378 
L 555.780131 85.990798 
L 559.039715 85.23449 
L 560.669506 85.075294 
L 563.92909 85.79739 
L 565.558882 85.71979 
L 567.188674 85.781564 
L 568.818466 86.038879 
L 568.818466 86.038879 
" style="fill:none;stroke:#ff0000;stroke-linecap:square;stroke-width:1.5;"/>
   </g>
   <g id="line2d_16">
    <path clip-path="url(#p33f7c44ce8)" d="M 163.000284 300.399702 
L 164.630076 300.996946 
L 166.259868 301.174645 
L 169.519452 302.696527 
L 171.149244 302.67291 
L 172.779035 303.118852 
L 174.408827 303.90502 
L 176.038619 301.460053 
L 177.668411 301.551733 
L 179.298203 300.284838 
L 180.927995 300.66108 
L 182.557787 299.572378 
L 184.187579 300.008226 
L 185.817371 300.563672 
L 187.447163 300.970531 
L 189.076954 300.62068 
L 190.706746 298.950831 
L 193.96633 297.590623 
L 195.596122 298.356289 
L 197.225914 296.634292 
L 198.855706 296.93937 
L 200.485498 297.767287 
L 202.11529 297.933681 
L 203.745081 298.682127 
L 205.374873 294.995477 
L 207.004665 294.734067 
L 208.634457 293.754412 
L 210.264249 294.379632 
L 211.894041 294.776488 
L 213.523833 295.381778 
L 215.153625 295.45789 
L 216.783417 295.713709 
L 218.413209 296.342326 
L 220.043 296.252942 
L 221.672792 296.944356 
L 223.302584 296.862608 
L 226.562168 297.978048 
L 228.19196 298.195267 
L 229.821752 297.159393 
L 231.451544 297.427455 
L 233.081336 296.983253 
L 234.711127 296.303985 
L 236.340919 297.06183 
L 237.970711 291.71885 
L 239.600503 290.183456 
L 241.230295 290.114292 
L 242.860087 289.622568 
L 244.489879 289.380283 
L 247.749463 289.391624 
L 249.379255 289.411521 
L 251.009046 289.114711 
L 252.638838 289.84748 
L 254.26863 290.153584 
L 255.898422 290.703218 
L 257.528214 291.373514 
L 259.158006 290.564898 
L 260.787798 290.467484 
L 262.41759 290.953075 
L 264.047382 291.66648 
L 265.677173 291.904692 
L 267.306965 292.620687 
L 268.936757 293.114099 
L 270.566549 293.824872 
L 272.196341 293.95083 
L 273.826133 293.918246 
L 275.455925 294.407303 
L 277.085717 291.027201 
L 278.715509 291.583453 
L 280.345301 291.254536 
L 281.975092 291.894965 
L 283.604884 292.404777 
L 285.234676 293.092425 
L 286.864468 293.231223 
L 290.124052 293.780283 
L 291.753844 293.664325 
L 293.383636 293.91508 
L 295.013428 294.542056 
L 296.643219 294.651814 
L 301.532595 296.633907 
L 303.162387 296.917781 
L 304.792179 297.466544 
L 308.051763 297.919925 
L 309.681555 297.628297 
L 311.311347 298.278772 
L 312.941138 298.05409 
L 314.57093 297.68839 
L 316.200722 297.9763 
L 317.830514 298.499583 
L 319.460306 298.835572 
L 321.090098 297.0162 
L 322.71989 297.05565 
L 324.349682 296.980326 
L 325.979474 294.802912 
L 327.609265 294.387599 
L 329.239057 294.380277 
L 330.868849 294.954718 
L 332.498641 294.08651 
L 334.128433 293.567608 
L 335.758225 293.868376 
L 337.388017 293.92754 
L 339.017809 294.22562 
L 340.647601 294.78208 
L 342.277393 294.165443 
L 345.536976 295.088126 
L 347.166768 294.945148 
L 348.79656 293.822748 
L 350.426352 291.298104 
L 352.056144 291.54181 
L 355.315728 291.190253 
L 356.94552 290.573879 
L 358.575311 291.183614 
L 360.205103 290.330967 
L 361.834895 289.645804 
L 363.464687 288.773503 
L 365.094479 288.93882 
L 366.724271 289.507319 
L 368.354063 288.484033 
L 369.983855 288.609568 
L 373.243439 289.715872 
L 376.503022 288.700342 
L 379.762606 288.708104 
L 381.392398 288.384624 
L 383.02219 288.518841 
L 384.651982 288.921058 
L 389.541357 290.530388 
L 391.171149 291.070818 
L 392.800941 291.1838 
L 394.430733 291.035367 
L 397.690317 292.117648 
L 399.320109 291.522315 
L 400.949901 289.362396 
L 402.579693 288.889913 
L 404.209485 289.120178 
L 407.469068 290.174106 
L 410.728652 290.68202 
L 412.358444 291.226224 
L 415.618028 291.509799 
L 418.877612 292.429247 
L 425.396779 294.34556 
L 427.026571 294.363395 
L 430.286155 295.331081 
L 431.915947 295.272001 
L 433.545739 293.44206 
L 436.805322 294.414101 
L 438.435114 293.892855 
L 440.064906 293.498696 
L 441.694698 293.60303 
L 443.32449 293.961668 
L 444.954282 294.451891 
L 446.584074 293.352182 
L 448.213866 293.881463 
L 449.843658 294.073735 
L 451.473449 292.278189 
L 453.103241 291.834098 
L 454.733033 291.901208 
L 456.362825 291.156317 
L 457.992617 291.604994 
L 459.622409 291.897295 
L 464.511785 293.377086 
L 466.141577 293.522939 
L 467.771368 293.983442 
L 469.40116 294.031615 
L 471.030952 294.534556 
L 474.290536 294.205669 
L 475.920328 291.033821 
L 477.55012 290.590719 
L 479.179912 290.511241 
L 480.809704 290.200393 
L 482.439495 290.23208 
L 484.069287 290.125106 
L 485.699079 289.717257 
L 487.328871 285.69564 
L 488.958663 286.08235 
L 490.588455 285.578324 
L 492.218247 285.938369 
L 493.848039 286.42231 
L 495.477831 282.788919 
L 497.107623 282.942356 
L 498.737414 282.841203 
L 500.367206 282.343151 
L 503.62679 282.984177 
L 505.256582 283.138636 
L 506.886374 283.628653 
L 510.145958 284.014867 
L 511.77575 284.021899 
L 513.405541 284.494209 
L 515.035333 284.05871 
L 518.294917 284.73816 
L 519.924709 284.138458 
L 521.554501 284.093622 
L 523.184293 282.440527 
L 524.814085 282.696982 
L 526.443877 281.609618 
L 528.073669 282.083156 
L 529.70346 282.438617 
L 531.333252 282.611263 
L 532.963044 283.013091 
L 534.592836 282.838475 
L 536.222628 283.264692 
L 537.85242 282.963761 
L 539.482212 282.01295 
L 541.112004 281.998427 
L 544.371587 282.884935 
L 546.001379 282.886715 
L 549.260963 283.32663 
L 550.890755 283.517256 
L 552.520547 281.393294 
L 554.150339 281.82088 
L 555.780131 282.104915 
L 557.409923 281.318963 
L 559.039715 281.64774 
L 560.669506 281.806229 
L 565.558882 283.117079 
L 567.188674 281.579426 
L 568.818466 282.017305 
L 568.818466 282.017305 
" style="fill:none;stroke:#0000ff;stroke-linecap:square;stroke-width:1.5;"/>
   </g>
   <g id="patch_3">
    <path d="M 142.709375 339.84 
L 142.709375 7.2 
" style="fill:none;stroke:#000000;stroke-linecap:square;stroke-linejoin:miter;stroke-width:0.8;"/>
   </g>
   <g id="patch_4">
    <path d="M 589.109375 339.84 
L 589.109375 7.2 
" style="fill:none;stroke:#000000;stroke-linecap:square;stroke-linejoin:miter;stroke-width:0.8;"/>
   </g>
   <g id="patch_5">
    <path d="M 142.709375 339.84 
L 589.109375 339.84 
" style="fill:none;stroke:#000000;stroke-linecap:square;stroke-linejoin:miter;stroke-width:0.8;"/>
   </g>
   <g id="patch_6">
    <path d="M 142.709375 7.2 
L 589.109375 7.2 
" style="fill:none;stroke:#000000;stroke-linecap:square;stroke-linejoin:miter;stroke-width:0.8;"/>
   </g>
   <g id="legend_1">
    <g id="patch_7">
     <path d="M 398.39375 330.84 
L 576.509375 330.84 
Q 580.109375 330.84 580.109375 327.24 
L 580.109375 276.19875 
Q 580.109375 272.59875 576.509375 272.59875 
L 398.39375 272.59875 
Q 394.79375 272.59875 394.79375 276.19875 
L 394.79375 327.24 
Q 394.79375 330.84 398.39375 330.84 
z
" style="fill:#ffffff;opacity:0.8;stroke:#cccccc;stroke-linejoin:miter;"/>
    </g>
    <g id="line2d_17">
     <path d="M 401.99375 287.175938 
L 437.99375 287.175938 
" style="fill:none;stroke:#0000ff;stroke-linecap:square;stroke-width:1.5;"/>
    </g>
    <g id="line2d_18"/>
    <g id="text_17">
     <!-- stan-MCMC -->
     <defs>
      <path d="M 54.890625 33.015625 
L 54.890625 0 
L 45.90625 0 
L 45.90625 32.71875 
Q 45.90625 40.484375 42.875 44.328125 
Q 39.84375 48.1875 33.796875 48.1875 
Q 26.515625 48.1875 22.3125 43.546875 
Q 18.109375 38.921875 18.109375 30.90625 
L 18.109375 0 
L 9.078125 0 
L 9.078125 54.6875 
L 18.109375 54.6875 
L 18.109375 46.1875 
Q 21.34375 51.125 25.703125 53.5625 
Q 30.078125 56 35.796875 56 
Q 45.21875 56 50.046875 50.171875 
Q 54.890625 44.34375 54.890625 33.015625 
z
" id="DejaVuSans-110"/>
      <path d="M 9.8125 72.90625 
L 24.515625 72.90625 
L 43.109375 23.296875 
L 61.8125 72.90625 
L 76.515625 72.90625 
L 76.515625 0 
L 66.890625 0 
L 66.890625 64.015625 
L 48.09375 14.015625 
L 38.1875 14.015625 
L 19.390625 64.015625 
L 19.390625 0 
L 9.8125 0 
z
" id="DejaVuSans-77"/>
      <path d="M 64.40625 67.28125 
L 64.40625 56.890625 
Q 59.421875 61.53125 53.78125 63.8125 
Q 48.140625 66.109375 41.796875 66.109375 
Q 29.296875 66.109375 22.65625 58.46875 
Q 16.015625 50.828125 16.015625 36.375 
Q 16.015625 21.96875 22.65625 14.328125 
Q 29.296875 6.6875 41.796875 6.6875 
Q 48.140625 6.6875 53.78125 8.984375 
Q 59.421875 11.28125 64.40625 15.921875 
L 64.40625 5.609375 
Q 59.234375 2.09375 53.4375 0.328125 
Q 47.65625 -1.421875 41.21875 -1.421875 
Q 24.65625 -1.421875 15.125 8.703125 
Q 5.609375 18.84375 5.609375 36.375 
Q 5.609375 53.953125 15.125 64.078125 
Q 24.65625 74.21875 41.21875 74.21875 
Q 47.75 74.21875 53.53125 72.484375 
Q 59.328125 70.75 64.40625 67.28125 
z
" id="DejaVuSans-67"/>
     </defs>
     <g transform="translate(452.39375 293.475938)scale(0.18 -0.18)">
      <use xlink:href="#DejaVuSans-115"/>
      <use x="52.099609" xlink:href="#DejaVuSans-116"/>
      <use x="91.308594" xlink:href="#DejaVuSans-97"/>
      <use x="152.587891" xlink:href="#DejaVuSans-110"/>
      <use x="215.966797" xlink:href="#DejaVuSans-45"/>
      <use x="252.050781" xlink:href="#DejaVuSans-77"/>
      <use x="338.330078" xlink:href="#DejaVuSans-67"/>
      <use x="408.154297" xlink:href="#DejaVuSans-77"/>
      <use x="494.433594" xlink:href="#DejaVuSans-67"/>
     </g>
    </g>
    <g id="line2d_19">
     <path d="M 401.99375 313.596563 
L 437.99375 313.596563 
" style="fill:none;stroke:#ff0000;stroke-linecap:square;stroke-width:1.5;"/>
    </g>
    <g id="line2d_20"/>
    <g id="text_18">
     <!-- stan-VI-mean -->
     <defs>
      <path d="M 28.609375 0 
L 0.78125 72.90625 
L 11.078125 72.90625 
L 34.1875 11.53125 
L 57.328125 72.90625 
L 67.578125 72.90625 
L 39.796875 0 
z
" id="DejaVuSans-86"/>
      <path d="M 9.8125 72.90625 
L 19.671875 72.90625 
L 19.671875 0 
L 9.8125 0 
z
" id="DejaVuSans-73"/>
     </defs>
     <g transform="translate(452.39375 319.896563)scale(0.18 -0.18)">
      <use xlink:href="#DejaVuSans-115"/>
      <use x="52.099609" xlink:href="#DejaVuSans-116"/>
      <use x="91.308594" xlink:href="#DejaVuSans-97"/>
      <use x="152.587891" xlink:href="#DejaVuSans-110"/>
      <use x="215.966797" xlink:href="#DejaVuSans-45"/>
      <use x="251.972656" xlink:href="#DejaVuSans-86"/>
      <use x="320.380859" xlink:href="#DejaVuSans-73"/>
      <use x="349.873047" xlink:href="#DejaVuSans-45"/>
      <use x="385.957031" xlink:href="#DejaVuSans-109"/>
      <use x="483.369141" xlink:href="#DejaVuSans-101"/>
      <use x="544.892578" xlink:href="#DejaVuSans-97"/>
      <use x="606.171875" xlink:href="#DejaVuSans-110"/>
     </g>
    </g>
   </g>
  </g>
 </g>
 <defs>
  <clipPath id="p33f7c44ce8">
   <rect height="332.64" width="446.4" x="142.709375" y="7.2"/>
  </clipPath>
 </defs>
</svg>
