<?xml version="1.0" encoding="utf-8" standalone="no"?>
<!DOCTYPE svg PUBLIC "-//W3C//DTD SVG 1.1//EN"
  "http://www.w3.org/Graphics/SVG/1.1/DTD/svg11.dtd">
<svg xmlns:xlink="http://www.w3.org/1999/xlink" width="570.169426pt" height="390.121051pt" viewBox="0 0 570.169426 390.121051" xmlns="http://www.w3.org/2000/svg" version="1.1">
 <metadata>
  <rdf:RDF xmlns:dc="http://purl.org/dc/elements/1.1/" xmlns:cc="http://creativecommons.org/ns#" xmlns:rdf="http://www.w3.org/1999/02/22-rdf-syntax-ns#">
   <cc:Work>
    <dc:type rdf:resource="http://purl.org/dc/dcmitype/StillImage"/>
    <dc:date>2022-09-08T14:43:53.537180</dc:date>
    <dc:format>image/svg+xml</dc:format>
    <dc:creator>
     <cc:Agent>
      <dc:title>Matplotlib v3.5.3, https://matplotlib.org/</dc:title>
     </cc:Agent>
    </dc:creator>
   </cc:Work>
  </rdf:RDF>
 </metadata>
 <defs>
  <style type="text/css">*{stroke-linejoin: round; stroke-linecap: butt}</style>
 </defs>
 <g id="figure_1">
  <g id="patch_1">
   <path d="M 0 390.121051 
L 570.169426 390.121051 
L 570.169426 0 
L 0 0 
z
" style="fill: #ffffff"/>
  </g>
  <g id="axes_1">
   <g id="patch_2">
    <path d="M 116.569426 339.84 
L 562.969426 339.84 
L 562.969426 7.2 
L 116.569426 7.2 
z
" style="fill: #ffffff"/>
   </g>
   <g id="PolyCollection_1">
    <defs>
     <path id="md18909f533" d="M 136.860336 -364.918294 
L 136.860336 -364.918294 
L 137.673598 -364.694516 
L 138.486861 -364.438163 
L 139.300124 -364.457019 
L 140.113387 -364.308827 
L 140.92665 -364.20137 
L 141.739913 -364.102167 
L 142.553176 -364.013764 
L 143.366439 -364.774705 
L 144.179702 -365.567084 
L 144.992964 -365.503068 
L 145.806227 -365.482957 
L 146.61949 -365.433417 
L 147.432753 -365.387599 
L 148.246016 -365.341693 
L 149.059279 -365.298437 
L 149.872542 -365.257965 
L 150.685805 -365.219686 
L 151.499068 -365.336956 
L 152.31233 -365.303465 
L 153.125593 -365.275339 
L 153.938856 -365.25624 
L 154.752119 -365.226519 
L 155.565382 -365.227827 
L 156.378645 -365.200665 
L 157.191908 -365.17445 
L 158.005171 -365.149193 
L 158.818434 -365.22669 
L 159.631696 -365.21569 
L 160.444959 -365.195423 
L 161.258222 -365.173475 
L 162.071485 -365.152724 
L 162.884748 -365.132144 
L 163.698011 -365.11456 
L 164.511274 -365.095602 
L 165.324537 -365.122268 
L 166.1378 -365.103942 
L 166.951062 -365.086107 
L 167.764325 -365.068811 
L 168.577588 -365.070495 
L 169.390851 -365.058068 
L 170.204114 -365.048523 
L 171.017377 -365.033952 
L 171.83064 -365.018589 
L 172.643903 -365.007406 
L 173.457166 -364.993412 
L 174.270428 -365.033771 
L 175.083691 -365.025317 
L 175.896954 -365.011538 
L 176.710217 -364.998039 
L 177.52348 -364.987397 
L 178.336743 -365.012 
L 179.150006 -365.008876 
L 179.963269 -364.996799 
L 180.776532 -365.311842 
L 181.589794 -365.300026 
L 182.403057 -365.288167 
L 183.21632 -365.276566 
L 184.029583 -365.304377 
L 184.842846 -365.293467 
L 185.656109 -365.285135 
L 186.469372 -365.274246 
L 187.282635 -365.264004 
L 188.095898 -365.253921 
L 188.90916 -365.243607 
L 189.722423 -365.233442 
L 190.535686 -365.223372 
L 191.348949 -365.254289 
L 192.162212 -365.24451 
L 192.975475 -365.235111 
L 193.788738 -365.225613 
L 194.602001 -365.218184 
L 195.415264 -365.208949 
L 196.228526 -365.199842 
L 197.041789 -365.192121 
L 197.855052 -365.185403 
L 198.668315 -365.176784 
L 199.481578 -365.207301 
L 200.294841 -365.199619 
L 201.108104 -365.229722 
L 201.921367 -365.22141 
L 202.73463 -365.213195 
L 203.547892 -365.205306 
L 204.361155 -365.197292 
L 205.174418 -365.18937 
L 205.987681 -365.182207 
L 206.800944 -365.197352 
L 207.614207 -365.18994 
L 208.42747 -365.187729 
L 209.240733 -365.190252 
L 210.053996 -365.183097 
L 210.867258 -365.209923 
L 211.680521 -365.202857 
L 212.493784 -365.195697 
L 213.307047 -365.190347 
L 214.12031 -365.188802 
L 214.933573 -365.182074 
L 215.746836 -365.175354 
L 216.560099 -365.16906 
L 217.373362 -365.178344 
L 218.186624 -365.171685 
L 218.999887 -365.165106 
L 219.81315 -365.159217 
L 220.626413 -365.152902 
L 221.439676 -365.146499 
L 222.252939 -365.140291 
L 223.066202 -365.134514 
L 223.879465 -365.145268 
L 224.692728 -365.142816 
L 225.50599 -365.136705 
L 226.319253 -365.130723 
L 227.132516 -365.12646 
L 227.945779 -365.120514 
L 228.759042 -365.11462 
L 229.572305 -365.114054 
L 230.385568 -365.108263 
L 231.198831 -365.105372 
L 232.012094 -365.09968 
L 232.825356 -365.094191 
L 233.638619 -365.106945 
L 234.451882 -365.101395 
L 235.265145 -365.104921 
L 236.078408 -365.099844 
L 236.891671 -365.128788 
L 237.704934 -365.123509 
L 238.518197 -365.118192 
L 239.33146 -365.113015 
L 240.144722 -365.107831 
L 240.957985 -365.103504 
L 241.771248 -365.09835 
L 242.584511 -365.09323 
L 243.397774 -365.088144 
L 244.211037 -365.089692 
L 245.0243 -365.085435 
L 245.837563 -365.083335 
L 246.650826 -365.111257 
L 247.464088 -365.10697 
L 248.277351 -365.102106 
L 249.090614 -365.0974 
L 249.903877 -365.092611 
L 250.71714 -365.087874 
L 251.530403 -365.083286 
L 252.343666 -365.078594 
L 253.156929 -365.073967 
L 253.970192 -365.069341 
L 254.783454 -365.064746 
L 255.596717 -365.060187 
L 256.40998 -365.05581 
L 257.223243 -365.051309 
L 258.036506 -365.046837 
L 258.849769 -365.042465 
L 259.663032 -365.038054 
L 260.476295 -365.033672 
L 261.289558 -365.02932 
L 262.10282 -365.024994 
L 262.916083 -365.021181 
L 263.729346 -365.063681 
L 264.542609 -365.061625 
L 265.355872 -365.057407 
L 266.169135 -365.053381 
L 266.982398 -365.052435 
L 267.795661 -365.048296 
L 268.608924 -365.049651 
L 269.422186 -365.047456 
L 270.235449 -365.043804 
L 271.048712 -365.039766 
L 271.861975 -365.036413 
L 272.675238 -365.035936 
L 273.488501 -365.032137 
L 274.301764 -365.028234 
L 275.115027 -365.024314 
L 275.92829 -365.020417 
L 276.741552 -365.016543 
L 277.554815 -365.064879 
L 278.368078 -365.061055 
L 279.181341 -365.057725 
L 279.994604 -365.056327 
L 280.807867 -365.052561 
L 281.62113 -365.048816 
L 282.434393 -365.045588 
L 283.247656 -365.041885 
L 284.060918 -365.038204 
L 284.874181 -365.034958 
L 285.687444 -365.031328 
L 286.500707 -365.027708 
L 287.31397 -365.024106 
L 288.127233 -365.023499 
L 288.940496 -365.019935 
L 289.753759 -365.020946 
L 290.567022 -365.017419 
L 291.380284 -365.013934 
L 292.193547 -365.010444 
L 293.00681 -365.040166 
L 293.820073 -365.036773 
L 294.633336 -365.033349 
L 295.446599 -365.066786 
L 296.259862 -365.063386 
L 297.073125 -365.060131 
L 297.886388 -365.056769 
L 298.699651 -365.053496 
L 299.512913 -365.056159 
L 300.326176 -365.06217 
L 301.139439 -365.058937 
L 301.952702 -365.059035 
L 302.765965 -365.056579 
L 303.579228 -365.092372 
L 304.392491 -365.095788 
L 305.205754 -365.092584 
L 306.019017 -365.089723 
L 306.832279 -365.086531 
L 307.645542 -365.083425 
L 308.458805 -365.080283 
L 309.272068 -365.077137 
L 310.085331 -365.074005 
L 310.898594 -365.071212 
L 311.711857 -365.070241 
L 312.52512 -365.067272 
L 313.338383 -365.075241 
L 314.151645 -365.072186 
L 314.964908 -365.06914 
L 315.778171 -365.072153 
L 316.591434 -365.069148 
L 317.404697 -365.066152 
L 318.21796 -365.063167 
L 319.031223 -365.060203 
L 319.844486 -365.057243 
L 320.657749 -365.054292 
L 321.471011 -365.051424 
L 322.284274 -365.05616 
L 323.097537 -365.053934 
L 323.9108 -365.051034 
L 324.724063 -365.048161 
L 325.537326 -365.084911 
L 326.350589 -365.082049 
L 327.163852 -365.079218 
L 327.977115 -365.076554 
L 328.790377 -365.077939 
L 329.60364 -365.075184 
L 330.416903 -365.072381 
L 331.230166 -365.06959 
L 332.043429 -365.066811 
L 332.856692 -365.064084 
L 333.669955 -365.061332 
L 334.483218 -365.058909 
L 335.296481 -365.071706 
L 336.109743 -365.068983 
L 336.923006 -365.06627 
L 337.736269 -365.063686 
L 338.549532 -365.060996 
L 339.362795 -365.058425 
L 340.176058 -365.058295 
L 340.989321 -365.063051 
L 341.802584 -365.069718 
L 342.615847 -365.074506 
L 343.429109 -365.073605 
L 344.242372 -365.094587 
L 345.055635 -365.09851 
L 345.868898 -365.095913 
L 346.682161 -365.093389 
L 347.495424 -365.090812 
L 348.308687 -365.088528 
L 349.12195 -365.089721 
L 349.935213 -365.087508 
L 350.748475 -365.087299 
L 351.561738 -365.085396 
L 352.375001 -365.085705 
L 353.188264 -365.083571 
L 354.001527 -365.081745 
L 354.81479 -365.079256 
L 355.628053 -365.076775 
L 356.441316 -365.113813 
L 357.254579 -365.111354 
L 358.067841 -365.109224 
L 358.881104 -365.106832 
L 359.694367 -365.104453 
L 360.50763 -365.102028 
L 361.320893 -365.099609 
L 362.134156 -365.119442 
L 362.947419 -365.120582 
L 363.760682 -365.118189 
L 364.573945 -365.116184 
L 365.387207 -365.114041 
L 366.20047 -365.111673 
L 367.013733 -365.109314 
L 367.826996 -365.106963 
L 368.640259 -365.105249 
L 369.453522 -365.102926 
L 370.266785 -365.1006 
L 371.080048 -365.098287 
L 371.893311 -365.097823 
L 372.706573 -365.095521 
L 373.519836 -365.093242 
L 374.333099 -365.096005 
L 375.146362 -365.094475 
L 375.959625 -365.095333 
L 376.772888 -365.093069 
L 377.586151 -365.10761 
L 378.399414 -365.105362 
L 379.212677 -365.103366 
L 380.025939 -365.101375 
L 380.839202 -365.101637 
L 381.652465 -365.10078 
L 382.465728 -365.104553 
L 383.278991 -365.10252 
L 384.092254 -365.10144 
L 384.905517 -365.099251 
L 385.71878 -365.097198 
L 386.532043 -365.102074 
L 387.345305 -365.100536 
L 388.158568 -365.098418 
L 388.971831 -365.099737 
L 389.785094 -365.097591 
L 390.598357 -365.095451 
L 391.41162 -365.093356 
L 392.224883 -365.09123 
L 393.038146 -365.090643 
L 393.851409 -365.08853 
L 394.664671 -365.086893 
L 395.477934 -365.084852 
L 396.291197 -365.160913 
L 397.10446 -365.159068 
L 397.917723 -365.160857 
L 398.730986 -365.158791 
L 399.544249 -365.156792 
L 400.357512 -365.156983 
L 401.170775 -365.155052 
L 401.984037 -365.153846 
L 402.7973 -365.151807 
L 403.610563 -365.151805 
L 404.423826 -365.150143 
L 405.237089 -365.148132 
L 406.050352 -365.146116 
L 406.863615 -365.144631 
L 407.676878 -365.142763 
L 408.490141 -365.140766 
L 409.303403 -365.140575 
L 410.116666 -365.13872 
L 410.929929 -365.137152 
L 411.743192 -365.135268 
L 412.556455 -365.135558 
L 413.369718 -365.133679 
L 414.182981 -365.137114 
L 414.996244 -365.135161 
L 415.809507 -365.140355 
L 416.622769 -365.138413 
L 417.436032 -365.136652 
L 418.249295 -365.134724 
L 419.062558 -365.134469 
L 419.875821 -365.132549 
L 420.689084 -365.130822 
L 421.502347 -365.128914 
L 422.31561 -365.12799 
L 423.128873 -365.126101 
L 423.942135 -365.124787 
L 424.755398 -365.123209 
L 425.568661 -365.121328 
L 426.381924 -365.119452 
L 427.195187 -365.117638 
L 428.00845 -365.11817 
L 428.821713 -365.162272 
L 429.634976 -365.162714 
L 430.448239 -365.160979 
L 431.261501 -365.159134 
L 432.074764 -365.158009 
L 432.888027 -365.156409 
L 433.70129 -365.155789 
L 434.514553 -365.156164 
L 435.327816 -365.154345 
L 436.141079 -365.152853 
L 436.954342 -365.15324 
L 437.767605 -365.152106 
L 438.580867 -365.150309 
L 439.39413 -365.148513 
L 440.207393 -365.146721 
L 441.020656 -365.14494 
L 441.833919 -365.152656 
L 442.647182 -365.150879 
L 443.460445 -365.150563 
L 444.273708 -365.149058 
L 445.086971 -365.147295 
L 445.900233 -365.146309 
L 446.713496 -365.144662 
L 447.526759 -365.142912 
L 448.340022 -365.141195 
L 449.153285 -365.139564 
L 449.966548 -365.138104 
L 450.779811 -365.136373 
L 451.593074 -365.134863 
L 452.406337 -365.133211 
L 453.219599 -365.132352 
L 454.032862 -365.130645 
L 454.846125 -365.128949 
L 455.659388 -365.127245 
L 456.472651 -365.130724 
L 457.285914 -365.129049 
L 458.099177 -365.127558 
L 458.91244 -365.127316 
L 459.725703 -365.125636 
L 460.538965 -365.124007 
L 461.352228 -365.122403 
L 462.165491 -365.120828 
L 462.978754 -365.119175 
L 463.792017 -365.117975 
L 464.60528 -365.12165 
L 465.418543 -365.131067 
L 466.231806 -365.129417 
L 467.045069 -365.128634 
L 467.858332 -365.127385 
L 468.671594 -365.12613 
L 469.484857 -365.124503 
L 470.29812 -365.122875 
L 471.111383 -365.12125 
L 471.924646 -365.119628 
L 472.737909 -365.118598 
L 473.551172 -365.118163 
L 474.364435 -365.116555 
L 475.177698 -365.126499 
L 475.99096 -365.124896 
L 476.804223 -365.123384 
L 477.617486 -365.121789 
L 478.430749 -365.120205 
L 479.244012 -365.118997 
L 480.057275 -365.117414 
L 480.870538 -365.117566 
L 481.683801 -365.115991 
L 482.497064 -365.114422 
L 483.310326 -365.131844 
L 484.123589 -365.130279 
L 484.936852 -365.128736 
L 485.750115 -365.127182 
L 486.563378 -365.125629 
L 487.376641 -365.1241 
L 488.189904 -365.122563 
L 489.003167 -365.130557 
L 489.81643 -365.129927 
L 490.629692 -365.128391 
L 491.442955 -365.12933 
L 492.256218 -365.127822 
L 493.069481 -365.126319 
L 493.882744 -365.124828 
L 494.696007 -365.123309 
L 495.50927 -365.123212 
L 496.322533 -365.121701 
L 497.135796 -365.121788 
L 497.949058 -365.120284 
L 498.762321 -365.118786 
L 499.575584 -365.118719 
L 500.388847 -365.117225 
L 501.20211 -365.115736 
L 502.015373 -365.114249 
L 502.828636 -365.112764 
L 503.641899 -365.111661 
L 504.455162 -365.111142 
L 505.268424 -365.109668 
L 506.081687 -365.108955 
L 506.89495 -365.107486 
L 507.708213 -365.106021 
L 508.521476 -365.10456 
L 509.334739 -365.10314 
L 510.148002 -365.101685 
L 510.961265 -365.100241 
L 511.774528 -365.101786 
L 512.58779 -365.100339 
L 513.401053 -365.098986 
L 514.214316 -365.098269 
L 515.027579 -365.096842 
L 515.840842 -365.095428 
L 516.654105 -365.100365 
L 517.467368 -365.109039 
L 518.280631 -365.109894 
L 519.093894 -365.108481 
L 519.907156 -365.107721 
L 520.720419 -365.106318 
L 521.533682 -365.12288 
L 522.346945 -365.125767 
L 523.160208 -365.12436 
L 523.973471 -365.12303 
L 524.786734 -365.123251 
L 525.599997 -365.121929 
L 526.41326 -365.120706 
L 527.226522 -365.1196 
L 528.039785 -365.119416 
L 528.853048 -365.118313 
L 529.666311 -365.129136 
L 530.479574 -365.129701 
L 531.292837 -365.130675 
L 532.1061 -365.129432 
L 532.919363 -365.12806 
L 533.732626 -365.151698 
L 534.545888 -365.150552 
L 535.359151 -365.150144 
L 536.172414 -365.148783 
L 536.985677 -365.15357 
L 537.79894 -365.152214 
L 538.612203 -365.151221 
L 539.425466 -365.14987 
L 540.238729 -365.148543 
L 541.051992 -365.147225 
L 541.865254 -365.145931 
L 542.678517 -365.144591 
L 542.678517 -365.144591 
L 542.678517 -365.846161 
L 541.865254 -365.846993 
L 541.051992 -365.847686 
L 540.238729 -365.847826 
L 539.425466 -365.849078 
L 538.612203 -365.850269 
L 537.79894 -365.851543 
L 536.985677 -365.852068 
L 536.172414 -365.847383 
L 535.359151 -365.848197 
L 534.545888 -365.849569 
L 533.732626 -365.847563 
L 532.919363 -365.848942 
L 532.1061 -365.850322 
L 531.292837 -365.8504 
L 530.479574 -365.848711 
L 529.666311 -365.850052 
L 528.853048 -365.851446 
L 528.039785 -365.852836 
L 527.226522 -365.854236 
L 526.41326 -365.855552 
L 525.599997 -365.856936 
L 524.786734 -365.858158 
L 523.973471 -365.85937 
L 523.160208 -365.860745 
L 522.346945 -365.862006 
L 521.533682 -365.86306 
L 520.720419 -365.864422 
L 519.907156 -365.865845 
L 519.093894 -365.867273 
L 518.280631 -365.868576 
L 517.467368 -365.869953 
L 516.654105 -365.871391 
L 515.840842 -365.872797 
L 515.027579 -365.874019 
L 514.214316 -365.874872 
L 513.401053 -365.876219 
L 512.58779 -365.875974 
L 511.774528 -365.877418 
L 510.961265 -365.878477 
L 510.148002 -365.878427 
L 509.334739 -365.879613 
L 508.521476 -365.881047 
L 507.708213 -365.882496 
L 506.89495 -365.88326 
L 506.081687 -365.884058 
L 505.268424 -365.882654 
L 504.455162 -365.88315 
L 503.641899 -365.884639 
L 502.828636 -365.885944 
L 502.015373 -365.879101 
L 501.20211 -365.880595 
L 500.388847 -365.879292 
L 499.575584 -365.880607 
L 498.762321 -365.882111 
L 497.949058 -365.882344 
L 497.135796 -365.88386 
L 496.322533 -365.879175 
L 495.50927 -365.879428 
L 494.696007 -365.880723 
L 493.882744 -365.880639 
L 493.069481 -365.877821 
L 492.256218 -365.875905 
L 491.442955 -365.877445 
L 490.629692 -365.877011 
L 489.81643 -365.878555 
L 489.003167 -365.879912 
L 488.189904 -365.878785 
L 487.376641 -365.878665 
L 486.563378 -365.879853 
L 485.750115 -365.880301 
L 484.936852 -365.881855 
L 484.123589 -365.883177 
L 483.310326 -365.884225 
L 482.497064 -365.880637 
L 481.683801 -365.882221 
L 480.870538 -365.882501 
L 480.057275 -365.884071 
L 479.244012 -365.88345 
L 478.430749 -365.883424 
L 477.617486 -365.868058 
L 476.804223 -365.863336 
L 475.99096 -365.861665 
L 475.177698 -365.85009 
L 474.364435 -365.847717 
L 473.551172 -365.849048 
L 472.737909 -365.84991 
L 471.924646 -365.85154 
L 471.111383 -365.853172 
L 470.29812 -365.85478 
L 469.484857 -365.856233 
L 468.671594 -365.857314 
L 467.858332 -365.856817 
L 467.045069 -365.850182 
L 466.231806 -365.851749 
L 465.418543 -365.853408 
L 464.60528 -365.845779 
L 463.792017 -365.846445 
L 462.978754 -365.847621 
L 462.165491 -365.849152 
L 461.352228 -365.850834 
L 460.538965 -365.852397 
L 459.725703 -365.854011 
L 458.91244 -365.855164 
L 458.099177 -365.855981 
L 457.285914 -365.857667 
L 456.472651 -365.850031 
L 455.659388 -365.849547 
L 454.846125 -365.851243 
L 454.032862 -365.852955 
L 453.219599 -365.854129 
L 452.406337 -365.855858 
L 451.593074 -365.856222 
L 450.779811 -365.857953 
L 449.966548 -365.859688 
L 449.153285 -365.861435 
L 448.340022 -365.860316 
L 447.526759 -365.858559 
L 446.713496 -365.856352 
L 445.900233 -365.858109 
L 445.086971 -365.859876 
L 444.273708 -365.861651 
L 443.460445 -365.86105 
L 442.647182 -365.86271 
L 441.833919 -365.864476 
L 441.020656 -365.866229 
L 440.207393 -365.86778 
L 439.39413 -365.869221 
L 438.580867 -365.866241 
L 437.767605 -365.865317 
L 436.954342 -365.866086 
L 436.141079 -365.866645 
L 435.327816 -365.868363 
L 434.514553 -365.870196 
L 433.70129 -365.871101 
L 432.888027 -365.872837 
L 432.074764 -365.873753 
L 431.261501 -365.875607 
L 430.448239 -365.877225 
L 429.634976 -365.879045 
L 428.821713 -365.880846 
L 428.00845 -365.8827 
L 427.195187 -365.884401 
L 426.381924 -365.886181 
L 425.568661 -365.88796 
L 424.755398 -365.889408 
L 423.942135 -365.876558 
L 423.128873 -365.87836 
L 422.31561 -365.877855 
L 421.502347 -365.879756 
L 420.689084 -365.880666 
L 419.875821 -365.881831 
L 419.062558 -365.883537 
L 418.249295 -365.885469 
L 417.436032 -365.884987 
L 416.622769 -365.861718 
L 415.809507 -365.858849 
L 414.996244 -365.860791 
L 414.182981 -365.862543 
L 413.369718 -365.863961 
L 412.556455 -365.863637 
L 411.743192 -365.865618 
L 410.929929 -365.867232 
L 410.116666 -365.869228 
L 409.303403 -365.868492 
L 408.490141 -365.870311 
L 407.676878 -365.871871 
L 406.863615 -365.873874 
L 406.050352 -365.874739 
L 405.237089 -365.876747 
L 404.423826 -365.860119 
L 403.610563 -365.86214 
L 402.7973 -365.864132 
L 401.984037 -365.866183 
L 401.170775 -365.868085 
L 400.357512 -365.870155 
L 399.544249 -365.872203 
L 398.730986 -365.86553 
L 397.917723 -365.867571 
L 397.10446 -365.86891 
L 396.291197 -365.870535 
L 395.477934 -365.865797 
L 394.664671 -365.867906 
L 393.851409 -365.868116 
L 393.038146 -365.870157 
L 392.224883 -365.870911 
L 391.41162 -365.872513 
L 390.598357 -365.874663 
L 389.785094 -365.876761 
L 388.971831 -365.878148 
L 388.158568 -365.88023 
L 387.345305 -365.882407 
L 386.532043 -365.875472 
L 385.71878 -365.875998 
L 384.905517 -365.878194 
L 384.092254 -365.866864 
L 383.278991 -365.847189 
L 382.465728 -365.847498 
L 381.652465 -365.849724 
L 380.839202 -365.849906 
L 380.025939 -365.852007 
L 379.212677 -365.854188 
L 378.399414 -365.856287 
L 377.586151 -365.858521 
L 376.772888 -365.859835 
L 375.959625 -365.861522 
L 375.146362 -365.858754 
L 374.333099 -365.860925 
L 373.519836 -365.862824 
L 372.706573 -365.864339 
L 371.893311 -365.866104 
L 371.080048 -365.868432 
L 370.266785 -365.870241 
L 369.453522 -365.867267 
L 368.640259 -365.869588 
L 367.826996 -365.871913 
L 367.013733 -365.872617 
L 366.20047 -365.873226 
L 365.387207 -365.874963 
L 364.573945 -365.877356 
L 363.760682 -365.879752 
L 362.947419 -365.881535 
L 362.134156 -365.883895 
L 361.320893 -365.885586 
L 360.50763 -365.887959 
L 359.694367 -365.869199 
L 358.881104 -365.870658 
L 358.067841 -365.855167 
L 357.254579 -365.85638 
L 356.441316 -365.858768 
L 355.628053 -365.857975 
L 354.81479 -365.858739 
L 354.001527 -365.861032 
L 353.188264 -365.861693 
L 352.375001 -365.852589 
L 351.561738 -365.846696 
L 350.748475 -365.849242 
L 349.935213 -365.849074 
L 349.12195 -365.851432 
L 348.308687 -365.814422 
L 347.495424 -365.816642 
L 346.682161 -365.818625 
L 345.868898 -365.821045 
L 345.055635 -365.82363 
L 344.242372 -365.826059 
L 343.429109 -365.828381 
L 342.615847 -365.82749 
L 341.802584 -365.828384 
L 340.989321 -365.82796 
L 340.176058 -365.826654 
L 339.362795 -365.829174 
L 338.549532 -365.779879 
L 337.736269 -365.780161 
L 336.923006 -365.781115 
L 336.109743 -365.775125 
L 335.296481 -365.777764 
L 334.483218 -365.780396 
L 333.669955 -365.78302 
L 332.856692 -365.782333 
L 332.043429 -365.784942 
L 331.230166 -365.780106 
L 330.416903 -365.782607 
L 329.60364 -365.784579 
L 328.790377 -365.779486 
L 327.977115 -365.782323 
L 327.163852 -365.785182 
L 326.350589 -365.787818 
L 325.537326 -365.789891 
L 324.724063 -365.792787 
L 323.9108 -365.793719 
L 323.097537 -365.796516 
L 322.284274 -365.799297 
L 321.471011 -365.802116 
L 320.657749 -365.801841 
L 319.844486 -365.804124 
L 319.031223 -365.805837 
L 318.21796 -365.808603 
L 317.404697 -365.811615 
L 316.591434 -365.81165 
L 315.778171 -365.80065 
L 314.964908 -365.803589 
L 314.151645 -365.806548 
L 313.338383 -365.809618 
L 312.52512 -365.812704 
L 311.711857 -365.815812 
L 310.898594 -365.81725 
L 310.085331 -365.819697 
L 309.272068 -365.82284 
L 308.458805 -365.825988 
L 307.645542 -365.828865 
L 306.832279 -365.827358 
L 306.019017 -365.830534 
L 305.205754 -365.833722 
L 304.392491 -365.836969 
L 303.579228 -365.80983 
L 302.765965 -365.802185 
L 301.952702 -365.801452 
L 301.139439 -365.80475 
L 300.326176 -365.808054 
L 299.512913 -365.80211 
L 298.699651 -365.804082 
L 297.886388 -365.807393 
L 297.073125 -365.810419 
L 296.259862 -365.812887 
L 295.446599 -365.816302 
L 294.633336 -365.811701 
L 293.820073 -365.815159 
L 293.00681 -365.800515 
L 292.193547 -365.803991 
L 291.380284 -365.807478 
L 290.567022 -365.810671 
L 289.753759 -365.81415 
L 288.940496 -365.816952 
L 288.127233 -365.819143 
L 287.31397 -365.821697 
L 286.500707 -365.825202 
L 285.687444 -365.828362 
L 284.874181 -365.831637 
L 284.060918 -365.835141 
L 283.247656 -365.836515 
L 282.434393 -365.828029 
L 281.62113 -365.829607 
L 280.807867 -365.833087 
L 279.994604 -365.825029 
L 279.181341 -365.817505 
L 278.368078 -365.819227 
L 277.554815 -365.815056 
L 276.741552 -365.816256 
L 275.92829 -365.820152 
L 275.115027 -365.819336 
L 274.301764 -365.821283 
L 273.488501 -365.823826 
L 272.675238 -365.824998 
L 271.861975 -365.828974 
L 271.048712 -365.83121 
L 270.235449 -365.822535 
L 269.422186 -365.82663 
L 268.608924 -365.830592 
L 267.795661 -365.833463 
L 266.982398 -365.83369 
L 266.169135 -365.837144 
L 265.355872 -365.841348 
L 264.542609 -365.845451 
L 263.729346 -365.849501 
L 262.916083 -365.853454 
L 262.10282 -365.857762 
L 261.289558 -365.862072 
L 260.476295 -365.838891 
L 259.663032 -365.839712 
L 258.849769 -365.818301 
L 258.036506 -365.822749 
L 257.223243 -365.779083 
L 256.40998 -365.783582 
L 255.596717 -365.787339 
L 254.783454 -365.791926 
L 253.970192 -365.792837 
L 253.156929 -365.796896 
L 252.343666 -365.771846 
L 251.530403 -365.776442 
L 250.71714 -365.78115 
L 249.903877 -365.779714 
L 249.090614 -365.780363 
L 248.277351 -365.767955 
L 247.464088 -365.772616 
L 246.650826 -365.777514 
L 245.837563 -365.781639 
L 245.0243 -365.754702 
L 244.211037 -365.759634 
L 243.397774 -365.756786 
L 242.584511 -365.761896 
L 241.771248 -365.766901 
L 240.957985 -365.772053 
L 240.144722 -365.77658 
L 239.33146 -365.781656 
L 238.518197 -365.786963 
L 237.704934 -365.785771 
L 236.891671 -365.784403 
L 236.078408 -365.787892 
L 235.265145 -365.793355 
L 234.451882 -365.735966 
L 233.638619 -365.741535 
L 232.825356 -365.745398 
L 232.012094 -365.744651 
L 231.198831 -365.748242 
L 230.385568 -365.753545 
L 229.572305 -365.756834 
L 228.759042 -365.75163 
L 227.945779 -365.757161 
L 227.132516 -365.729536 
L 226.319253 -365.735114 
L 225.50599 -365.739434 
L 224.692728 -365.742062 
L 223.879465 -365.748251 
L 223.066202 -365.752982 
L 222.252939 -365.759079 
L 221.439676 -365.765133 
L 220.626413 -365.771558 
L 219.81315 -365.765561 
L 218.999887 -365.769392 
L 218.186624 -365.774254 
L 217.373362 -365.779855 
L 216.560099 -365.786618 
L 215.746836 -365.792495 
L 214.933573 -365.799361 
L 214.12031 -365.806033 
L 213.307047 -365.806145 
L 212.493784 -365.813131 
L 211.680521 -365.77992 
L 210.867258 -365.70527 
L 210.053996 -365.712607 
L 209.240733 -365.716971 
L 208.42747 -365.724475 
L 207.614207 -365.729234 
L 206.800944 -365.736882 
L 205.987681 -365.743608 
L 205.174418 -365.750611 
L 204.361155 -365.743146 
L 203.547892 -365.749269 
L 202.73463 -365.741341 
L 201.921367 -365.749502 
L 201.108104 -365.733676 
L 200.294841 -365.736629 
L 199.481578 -365.7452 
L 198.668315 -365.752233 
L 197.855052 -365.760811 
L 197.041789 -365.769727 
L 196.228526 -365.763876 
L 195.415264 -365.770441 
L 194.602001 -365.779723 
L 193.788738 -365.67454 
L 192.975475 -365.68408 
L 192.162212 -365.670337 
L 191.348949 -365.676453 
L 190.535686 -365.68577 
L 189.722423 -365.69481 
L 188.90916 -365.686877 
L 188.095898 -365.689347 
L 187.282635 -365.695718 
L 186.469372 -365.704368 
L 185.656109 -365.715095 
L 184.842846 -365.723639 
L 184.029583 -365.734478 
L 183.21632 -365.73969 
L 182.403057 -365.750604 
L 181.589794 -365.755553 
L 180.776532 -365.767521 
L 179.963269 -365.779874 
L 179.150006 -365.792343 
L 178.336743 -365.799036 
L 177.52348 -365.811019 
L 176.710217 -365.74873 
L 175.896954 -365.762315 
L 175.083691 -365.775745 
L 174.270428 -365.780487 
L 173.457166 -365.786019 
L 172.643903 -365.686512 
L 171.83064 -365.687552 
L 171.017377 -365.702232 
L 170.204114 -365.717967 
L 169.390851 -365.731911 
L 168.577588 -365.747742 
L 167.764325 -365.764783 
L 166.951062 -365.699123 
L 166.1378 -365.717042 
L 165.324537 -365.735442 
L 164.511274 -365.750131 
L 163.698011 -365.769274 
L 162.884748 -365.782183 
L 162.071485 -365.802848 
L 161.258222 -365.820074 
L 160.444959 -365.840887 
L 159.631696 -365.86089 
L 158.818434 -365.884447 
L 158.005171 -365.893126 
L 157.191908 -365.91822 
L 156.378645 -365.944662 
L 155.565382 -365.971729 
L 154.752119 -365.98001 
L 153.938856 -365.979287 
L 153.125593 -365.992084 
L 152.31233 -366.024411 
L 151.499068 -366.055716 
L 150.685805 -366.091071 
L 149.872542 -366.090812 
L 149.059279 -366.131757 
L 148.246016 -366.171261 
L 147.432753 -366.204422 
L 146.61949 -366.254075 
L 145.806227 -366.246653 
L 144.992964 -366.284335 
L 144.179702 -366.30739 
L 143.366439 -366.378684 
L 142.553176 -366.458467 
L 141.739913 -366.542314 
L 140.92665 -366.64627 
L 140.113387 -366.741983 
L 139.300124 -366.890434 
L 138.486861 -367.08639 
L 137.673598 -367.326611 
L 136.860336 -367.801051 
z
" style="stroke: #ff0000; stroke-opacity: 0.3"/>
    </defs>
    <g clip-path="url(#p189ae7d996)">
     <use xlink:href="#md18909f533" x="0" y="390.121051" style="fill: #ff0000; fill-opacity: 0.3; stroke: #ff0000; stroke-opacity: 0.3"/>
    </g>
   </g>
   <g id="PolyCollection_2">
    <defs>
     <path id="me28f454d38" d="M 136.860336 -65.401051 
L 136.860336 -65.401051 
L 137.673598 -65.401051 
L 138.486861 -65.401051 
L 139.300124 -65.401051 
L 140.113387 -199.478879 
L 140.92665 -227.643926 
L 141.739913 -231.81843 
L 142.553176 -234.180058 
L 143.366439 -243.315762 
L 144.179702 -243.435505 
L 144.992964 -245.405908 
L 145.806227 -315.559957 
L 146.61949 -316.171438 
L 147.432753 -335.249576 
L 148.246016 -335.514912 
L 149.059279 -338.425312 
L 149.872542 -341.509874 
L 150.685805 -347.021278 
L 151.499068 -349.374007 
L 152.31233 -350.828189 
L 153.125593 -352.945476 
L 153.938856 -357.105806 
L 154.752119 -359.851068 
L 155.565382 -360.305273 
L 156.378645 -363.461647 
L 157.191908 -363.438533 
L 158.005171 -363.465521 
L 158.818434 -363.509812 
L 159.631696 -363.880407 
L 160.444959 -363.86394 
L 161.258222 -363.848157 
L 162.071485 -363.827764 
L 162.884748 -363.845414 
L 163.698011 -363.825889 
L 164.511274 -364.198921 
L 165.324537 -364.254568 
L 166.1378 -364.263641 
L 166.951062 -364.26479 
L 167.764325 -364.342336 
L 168.577588 -364.334499 
L 169.390851 -364.322097 
L 170.204114 -364.397455 
L 171.017377 -364.635192 
L 171.83064 -364.812922 
L 172.643903 -364.811432 
L 173.457166 -364.837919 
L 174.270428 -364.864992 
L 175.083691 -364.876425 
L 175.896954 -364.905196 
L 176.710217 -364.894025 
L 177.52348 -364.891657 
L 178.336743 -365.097339 
L 179.150006 -365.151205 
L 179.963269 -365.14541 
L 180.776532 -365.139879 
L 181.589794 -365.129142 
L 182.403057 -365.140377 
L 183.21632 -365.152127 
L 184.029583 -365.165086 
L 184.842846 -365.156321 
L 185.656109 -365.14578 
L 186.469372 -365.158987 
L 187.282635 -365.182167 
L 188.095898 -365.520334 
L 188.90916 -365.514055 
L 189.722423 -365.505427 
L 190.535686 -365.517873 
L 191.348949 -365.512149 
L 192.162212 -365.503712 
L 192.975475 -365.495414 
L 193.788738 -365.499643 
L 194.602001 -365.502297 
L 195.415264 -365.493479 
L 196.228526 -365.507996 
L 197.041789 -365.506376 
L 197.855052 -365.508934 
L 198.668315 -365.502428 
L 199.481578 -365.495103 
L 200.294841 -365.486801 
L 201.108104 -365.481102 
L 201.921367 -365.476604 
L 202.73463 -365.470702 
L 203.547892 -365.468913 
L 204.361155 -365.49181 
L 205.174418 -365.573458 
L 205.987681 -365.673337 
L 206.800944 -365.673745 
L 207.614207 -365.673605 
L 208.42747 -365.666012 
L 209.240733 -365.659719 
L 210.053996 -365.652642 
L 210.867258 -365.645571 
L 211.680521 -365.638436 
L 212.493784 -365.633677 
L 213.307047 -365.663061 
L 214.12031 -365.656761 
L 214.933573 -365.649804 
L 215.746836 -365.67475 
L 216.560099 -365.67276 
L 217.373362 -365.693546 
L 218.186624 -365.706913 
L 218.999887 -365.719767 
L 219.81315 -365.71363 
L 220.626413 -365.708266 
L 221.439676 -365.701917 
L 222.252939 -365.695946 
L 223.066202 -365.691735 
L 223.879465 -365.69097 
L 224.692728 -365.68479 
L 225.50599 -365.681815 
L 226.319253 -365.67593 
L 227.132516 -365.671214 
L 227.945779 -365.665295 
L 228.759042 -365.659371 
L 229.572305 -365.653738 
L 230.385568 -365.648413 
L 231.198831 -365.642709 
L 232.012094 -365.637924 
L 232.825356 -365.632252 
L 233.638619 -365.626628 
L 234.451882 -365.621055 
L 235.265145 -365.620575 
L 236.078408 -365.624136 
L 236.891671 -365.618828 
L 237.704934 -365.61436 
L 238.518197 -365.613193 
L 239.33146 -365.625388 
L 240.144722 -365.631155 
L 240.957985 -365.636785 
L 241.771248 -365.642767 
L 242.584511 -365.646515 
L 243.397774 -365.642188 
L 244.211037 -365.638608 
L 245.0243 -365.633833 
L 245.837563 -365.631253 
L 246.650826 -365.631319 
L 247.464088 -365.627467 
L 248.277351 -365.62322 
L 249.090614 -365.619022 
L 249.903877 -365.616806 
L 250.71714 -365.636335 
L 251.530403 -365.649986 
L 252.343666 -365.64528 
L 253.156929 -365.640599 
L 253.970192 -365.635946 
L 254.783454 -365.631581 
L 255.596717 -365.627577 
L 256.40998 -365.671369 
L 257.223243 -365.675278 
L 258.036506 -365.677575 
L 258.849769 -365.674797 
L 259.663032 -365.671433 
L 260.476295 -365.668096 
L 261.289558 -365.666837 
L 262.10282 -365.665176 
L 262.916083 -365.662939 
L 263.729346 -365.678167 
L 264.542609 -365.674 
L 265.355872 -365.670779 
L 266.169135 -365.667512 
L 266.982398 -365.663412 
L 267.795661 -365.659629 
L 268.608924 -365.68947 
L 269.422186 -365.698969 
L 270.235449 -365.700723 
L 271.048712 -365.759819 
L 271.861975 -365.757193 
L 272.675238 -365.754067 
L 273.488501 -365.750493 
L 274.301764 -365.746637 
L 275.115027 -365.744599 
L 275.92829 -365.755614 
L 276.741552 -365.751733 
L 277.554815 -365.747885 
L 278.368078 -365.746453 
L 279.181341 -365.74427 
L 279.994604 -365.768162 
L 280.807867 -365.764927 
L 281.62113 -365.761242 
L 282.434393 -365.757569 
L 283.247656 -365.754436 
L 284.060918 -365.779014 
L 284.874181 -365.775601 
L 285.687444 -365.772813 
L 286.500707 -365.770567 
L 287.31397 -365.797033 
L 288.127233 -365.793435 
L 288.940496 -365.800244 
L 289.753759 -365.796709 
L 290.567022 -365.793156 
L 291.380284 -365.789653 
L 292.193547 -365.786137 
L 293.00681 -365.782639 
L 293.820073 -365.779274 
L 294.633336 -365.775817 
L 295.446599 -365.772376 
L 296.259862 -365.768963 
L 297.073125 -365.766237 
L 297.886388 -365.763846 
L 298.699651 -365.760637 
L 299.512913 -365.759167 
L 300.326176 -365.757709 
L 301.139439 -365.756262 
L 301.952702 -365.784027 
L 302.765965 -365.789984 
L 303.579228 -365.786727 
L 304.392491 -365.783478 
L 305.205754 -365.780288 
L 306.019017 -365.777113 
L 306.832279 -365.773944 
L 307.645542 -365.803765 
L 308.458805 -365.802072 
L 309.272068 -365.801 
L 310.085331 -365.833201 
L 310.898594 -365.830107 
L 311.711857 -365.848253 
L 312.52512 -365.845141 
L 313.338383 -365.842568 
L 314.151645 -365.839548 
L 314.964908 -365.836488 
L 315.778171 -365.833439 
L 316.591434 -365.830527 
L 317.404697 -365.828766 
L 318.21796 -365.825771 
L 319.031223 -365.834411 
L 319.844486 -365.835786 
L 320.657749 -365.832849 
L 321.471011 -365.829932 
L 322.284274 -365.836419 
L 323.097537 -365.833692 
L 323.9108 -365.832269 
L 324.724063 -365.829639 
L 325.537326 -365.826783 
L 326.350589 -365.833703 
L 327.163852 -365.830839 
L 327.977115 -365.828408 
L 328.790377 -365.827057 
L 329.60364 -365.825715 
L 330.416903 -365.826419 
L 331.230166 -365.828924 
L 332.043429 -365.828804 
L 332.856692 -365.841897 
L 333.669955 -365.851131 
L 334.483218 -365.905242 
L 335.296481 -365.902487 
L 336.109743 -365.899846 
L 336.923006 -365.898082 
L 337.736269 -365.897315 
L 338.549532 -365.895709 
L 339.362795 -365.894083 
L 340.176058 -365.891874 
L 340.989321 -365.889484 
L 341.802584 -365.890135 
L 342.615847 -365.890046 
L 343.429109 -365.887523 
L 344.242372 -365.889241 
L 345.055635 -365.889997 
L 345.868898 -365.892081 
L 346.682161 -365.889622 
L 347.495424 -365.887139 
L 348.308687 -365.884998 
L 349.12195 -365.882434 
L 349.935213 -365.880675 
L 350.748475 -365.881243 
L 351.561738 -365.890499 
L 352.375001 -365.898884 
L 353.188264 -365.927196 
L 354.001527 -365.925722 
L 354.81479 -365.925301 
L 355.628053 -365.924319 
L 356.441316 -365.922888 
L 357.254579 -365.920571 
L 358.067841 -365.918169 
L 358.881104 -365.915705 
L 359.694367 -365.917684 
L 360.50763 -365.922084 
L 361.320893 -365.923758 
L 362.134156 -365.921439 
L 362.947419 -365.923466 
L 363.760682 -365.921084 
L 364.573945 -365.919026 
L 365.387207 -365.91667 
L 366.20047 -365.914286 
L 367.013733 -365.912663 
L 367.826996 -365.91032 
L 368.640259 -365.91091 
L 369.453522 -365.909562 
L 370.266785 -365.907235 
L 371.080048 -365.905278 
L 371.893311 -365.9035 
L 372.706573 -365.901183 
L 373.519836 -365.918713 
L 374.333099 -365.916881 
L 375.146362 -365.915388 
L 375.959625 -365.913384 
L 376.772888 -365.911128 
L 377.586151 -365.908898 
L 378.399414 -365.907272 
L 379.212677 -365.90583 
L 380.025939 -365.904208 
L 380.839202 -365.902879 
L 381.652465 -365.901926 
L 382.465728 -365.900995 
L 383.278991 -365.899017 
L 384.092254 -365.899526 
L 384.905517 -365.907438 
L 385.71878 -365.905259 
L 386.532043 -365.903998 
L 387.345305 -365.906441 
L 388.158568 -365.904292 
L 388.971831 -365.907614 
L 389.785094 -365.907728 
L 390.598357 -365.9172 
L 391.41162 -365.922281 
L 392.224883 -365.92025 
L 393.038146 -365.918161 
L 393.851409 -365.916044 
L 394.664671 -365.913921 
L 395.477934 -365.911818 
L 396.291197 -365.909865 
L 397.10446 -365.909614 
L 397.917723 -365.908907 
L 398.730986 -365.907365 
L 399.544249 -365.905288 
L 400.357512 -365.903384 
L 401.170775 -365.901322 
L 401.984037 -365.900488 
L 402.7973 -365.90064 
L 403.610563 -365.898612 
L 404.423826 -365.89665 
L 405.237089 -365.914687 
L 406.050352 -365.925001 
L 406.863615 -365.940447 
L 407.676878 -365.96011 
L 408.490141 -365.958425 
L 409.303403 -365.95649 
L 410.116666 -365.962145 
L 410.929929 -365.964917 
L 411.743192 -365.963429 
L 412.556455 -365.963443 
L 413.369718 -365.961488 
L 414.182981 -365.962937 
L 414.996244 -365.96157 
L 415.809507 -365.959691 
L 416.622769 -365.957733 
L 417.436032 -365.955782 
L 418.249295 -365.953975 
L 419.062558 -365.95207 
L 419.875821 -365.950148 
L 420.689084 -365.948309 
L 421.502347 -365.947679 
L 422.31561 -365.948542 
L 423.128873 -365.947045 
L 423.942135 -365.945297 
L 424.755398 -365.94438 
L 425.568661 -365.943816 
L 426.381924 -365.94193 
L 427.195187 -365.945387 
L 428.00845 -365.945543 
L 428.821713 -365.944753 
L 429.634976 -365.942903 
L 430.448239 -365.951441 
L 431.261501 -365.949881 
L 432.074764 -365.948051 
L 432.888027 -365.946223 
L 433.70129 -365.944409 
L 434.514553 -365.942684 
L 435.327816 -365.94089 
L 436.141079 -365.939331 
L 436.954342 -365.937706 
L 437.767605 -365.935894 
L 438.580867 -365.941251 
L 439.39413 -365.939469 
L 440.207393 -365.940083 
L 441.020656 -365.939975 
L 441.833919 -365.938229 
L 442.647182 -365.937641 
L 443.460445 -365.93601 
L 444.273708 -365.934229 
L 445.086971 -365.938106 
L 445.900233 -365.936343 
L 446.713496 -365.935388 
L 447.526759 -365.934106 
L 448.340022 -365.932358 
L 449.153285 -365.931755 
L 449.966548 -365.930008 
L 450.779811 -365.929035 
L 451.593074 -365.92738 
L 452.406337 -365.925772 
L 453.219599 -365.924389 
L 454.032862 -365.92301 
L 454.846125 -365.921497 
L 455.659388 -365.919801 
L 456.472651 -365.918106 
L 457.285914 -365.916434 
L 458.099177 -365.917166 
L 458.91244 -365.915866 
L 459.725703 -365.915674 
L 460.538965 -365.914897 
L 461.352228 -365.915628 
L 462.165491 -365.940267 
L 462.978754 -365.940482 
L 463.792017 -365.939107 
L 464.60528 -365.938906 
L 465.418543 -365.938045 
L 466.231806 -365.939335 
L 467.045069 -365.937774 
L 467.858332 -365.937024 
L 468.671594 -365.936118 
L 469.484857 -365.934579 
L 470.29812 -365.933038 
L 471.111383 -365.931715 
L 471.924646 -365.931026 
L 472.737909 -365.929504 
L 473.551172 -365.928755 
L 474.364435 -365.92716 
L 475.177698 -365.925562 
L 475.99096 -365.924319 
L 476.804223 -365.922763 
L 477.617486 -365.923803 
L 478.430749 -365.92222 
L 479.244012 -365.922021 
L 480.057275 -365.920605 
L 480.870538 -365.919059 
L 481.683801 -365.921188 
L 482.497064 -365.919635 
L 483.310326 -365.918326 
L 484.123589 -365.918212 
L 484.936852 -365.91668 
L 485.750115 -365.915843 
L 486.563378 -365.91429 
L 487.376641 -365.912929 
L 488.189904 -365.911377 
L 489.003167 -365.909828 
L 489.81643 -365.908768 
L 490.629692 -365.921063 
L 491.442955 -365.919519 
L 492.256218 -365.918448 
L 493.069481 -365.918087 
L 493.882744 -365.925861 
L 494.696007 -365.924506 
L 495.50927 -365.92298 
L 496.322533 -365.921554 
L 497.135796 -365.920062 
L 497.949058 -365.918571 
L 498.762321 -365.91711 
L 499.575584 -365.91564 
L 500.388847 -365.914408 
L 501.20211 -365.913976 
L 502.015373 -365.913206 
L 502.828636 -365.91174 
L 503.641899 -365.910576 
L 504.455162 -365.909274 
L 505.268424 -365.907808 
L 506.081687 -365.906399 
L 506.89495 -365.904922 
L 507.708213 -365.903446 
L 508.521476 -365.902914 
L 509.334739 -365.901491 
L 510.148002 -365.900488 
L 510.961265 -365.899025 
L 511.774528 -365.897606 
L 512.58779 -365.896338 
L 513.401053 -365.899259 
L 514.214316 -365.898064 
L 515.027579 -365.896643 
L 515.840842 -365.895211 
L 516.654105 -365.893944 
L 517.467368 -365.892641 
L 518.280631 -365.891942 
L 519.093894 -365.890614 
L 519.907156 -365.889916 
L 520.720419 -365.888569 
L 521.533682 -365.887147 
L 522.346945 -365.894666 
L 523.160208 -365.893504 
L 523.973471 -365.895729 
L 524.786734 -365.895012 
L 525.599997 -365.893733 
L 526.41326 -365.892574 
L 527.226522 -365.891464 
L 528.039785 -365.890521 
L 528.853048 -365.889232 
L 529.666311 -365.887838 
L 530.479574 -365.887154 
L 531.292837 -365.88895 
L 532.1061 -365.887752 
L 532.919363 -365.886372 
L 533.732626 -365.884994 
L 534.545888 -365.885864 
L 535.359151 -365.884612 
L 536.172414 -365.893543 
L 536.985677 -365.892189 
L 537.79894 -365.890921 
L 538.612203 -365.88959 
L 539.425466 -365.888268 
L 540.238729 -365.886914 
L 541.051992 -365.88556 
L 541.865254 -365.884745 
L 542.678517 -365.88342 
L 542.678517 -365.88342 
L 542.678517 -365.977003 
L 541.865254 -365.978076 
L 541.051992 -365.977353 
L 540.238729 -365.978281 
L 539.425466 -365.978621 
L 538.612203 -365.979767 
L 537.79894 -365.981122 
L 536.985677 -365.979621 
L 536.172414 -365.979652 
L 535.359151 -365.980638 
L 534.545888 -365.982011 
L 533.732626 -365.981665 
L 532.919363 -365.980972 
L 532.1061 -365.982278 
L 531.292837 -365.983656 
L 530.479574 -365.984993 
L 529.666311 -365.985776 
L 528.853048 -365.978436 
L 528.039785 -365.960645 
L 527.226522 -365.962046 
L 526.41326 -365.963346 
L 525.599997 -365.964746 
L 524.786734 -365.965568 
L 523.973471 -365.966962 
L 523.160208 -365.967796 
L 522.346945 -365.956411 
L 521.533682 -365.95723 
L 520.720419 -365.958653 
L 519.907156 -365.958656 
L 519.093894 -365.959604 
L 518.280631 -365.961015 
L 517.467368 -365.960511 
L 516.654105 -365.960813 
L 515.840842 -365.962129 
L 515.027579 -365.963008 
L 514.214316 -365.964354 
L 513.401053 -365.965215 
L 512.58779 -365.966598 
L 511.774528 -365.96742 
L 510.961265 -365.96888 
L 510.148002 -365.969902 
L 509.334739 -365.970906 
L 508.521476 -365.972299 
L 507.708213 -365.973773 
L 506.89495 -365.975018 
L 506.081687 -365.972862 
L 505.268424 -365.97425 
L 504.455162 -365.975584 
L 503.641899 -365.965078 
L 502.828636 -365.964255 
L 502.015373 -365.965233 
L 501.20211 -365.965464 
L 500.388847 -365.966904 
L 499.575584 -365.968399 
L 498.762321 -365.969213 
L 497.949058 -365.970551 
L 497.135796 -365.971886 
L 496.322533 -365.973047 
L 495.50927 -365.974439 
L 494.696007 -365.975967 
L 493.882744 -365.976078 
L 493.069481 -365.976171 
L 492.256218 -365.977655 
L 491.442955 -365.979033 
L 490.629692 -365.974486 
L 489.81643 -365.975916 
L 489.003167 -365.974671 
L 488.189904 -365.976117 
L 487.376641 -365.977676 
L 486.563378 -365.978015 
L 485.750115 -365.979478 
L 484.936852 -365.980981 
L 484.123589 -365.982523 
L 483.310326 -365.979592 
L 482.497064 -365.980451 
L 481.683801 -365.980892 
L 480.870538 -365.976906 
L 480.057275 -365.978012 
L 479.244012 -365.979603 
L 478.430749 -365.98107 
L 477.617486 -365.981565 
L 476.804223 -365.959827 
L 475.99096 -365.961335 
L 475.177698 -365.95452 
L 474.364435 -365.953666 
L 473.551172 -365.954873 
L 472.737909 -365.9565 
L 471.924646 -365.957975 
L 471.111383 -365.959601 
L 470.29812 -365.958649 
L 469.484857 -365.959643 
L 468.671594 -365.944445 
L 467.858332 -365.942027 
L 467.045069 -365.943121 
L 466.231806 -365.944532 
L 465.418543 -365.940819 
L 464.60528 -365.942219 
L 463.792017 -365.942309 
L 462.978754 -365.943858 
L 462.165491 -365.945469 
L 461.352228 -365.939605 
L 460.538965 -365.939805 
L 459.725703 -365.941433 
L 458.91244 -365.943095 
L 458.099177 -365.944781 
L 457.285914 -365.945692 
L 456.472651 -365.947322 
L 455.659388 -365.948564 
L 454.846125 -365.950276 
L 454.032862 -365.945438 
L 453.219599 -365.946516 
L 452.406337 -365.947753 
L 451.593074 -365.948216 
L 450.779811 -365.945583 
L 449.966548 -365.947327 
L 449.153285 -365.94818 
L 448.340022 -365.948463 
L 447.526759 -365.94993 
L 446.713496 -365.950337 
L 445.900233 -365.951002 
L 445.086971 -365.952773 
L 444.273708 -365.946109 
L 443.460445 -365.947715 
L 442.647182 -365.948655 
L 441.833919 -365.947626 
L 441.020656 -365.94669 
L 440.207393 -365.947278 
L 439.39413 -365.947868 
L 438.580867 -365.949579 
L 437.767605 -365.951374 
L 436.954342 -365.952973 
L 436.141079 -365.954701 
L 435.327816 -365.956103 
L 434.514553 -365.957287 
L 433.70129 -365.95811 
L 432.888027 -365.959841 
L 432.074764 -365.956102 
L 431.261501 -365.95262 
L 430.448239 -365.953052 
L 429.634976 -365.95475 
L 428.821713 -365.95524 
L 428.00845 -365.952663 
L 427.195187 -365.954542 
L 426.381924 -365.952904 
L 425.568661 -365.954532 
L 424.755398 -365.955642 
L 423.942135 -365.957541 
L 423.128873 -365.959442 
L 422.31561 -365.961243 
L 421.502347 -365.963137 
L 420.689084 -365.965059 
L 419.875821 -365.963878 
L 419.062558 -365.965799 
L 418.249295 -365.967634 
L 417.436032 -365.969511 
L 416.622769 -365.962642 
L 415.809507 -365.964579 
L 414.996244 -365.965257 
L 414.182981 -365.967224 
L 413.369718 -365.962633 
L 412.556455 -365.964568 
L 411.743192 -365.966258 
L 410.929929 -365.968213 
L 410.116666 -365.96323 
L 409.303403 -365.96434 
L 408.490141 -365.965506 
L 407.676878 -365.967518 
L 406.863615 -365.967547 
L 406.050352 -365.968031 
L 405.237089 -365.969039 
L 404.423826 -365.970744 
L 403.610563 -365.972688 
L 402.7973 -365.974453 
L 401.984037 -365.976504 
L 401.170775 -365.978533 
L 400.357512 -365.979997 
L 399.544249 -365.980347 
L 398.730986 -365.978665 
L 397.917723 -365.979572 
L 397.10446 -365.98131 
L 396.291197 -365.983232 
L 395.477934 -365.983485 
L 394.664671 -365.984387 
L 393.851409 -365.986295 
L 393.038146 -365.986762 
L 392.224883 -365.986934 
L 391.41162 -365.984168 
L 390.598357 -365.98613 
L 389.785094 -365.988158 
L 388.971831 -365.990317 
L 388.158568 -365.982806 
L 387.345305 -365.984982 
L 386.532043 -365.987163 
L 385.71878 -365.989322 
L 384.905517 -365.990954 
L 384.092254 -365.992487 
L 383.278991 -365.994691 
L 382.465728 -365.996298 
L 381.652465 -365.998438 
L 380.839202 -366.00066 
L 380.025939 -366.002437 
L 379.212677 -365.998512 
L 378.399414 -366.000528 
L 377.586151 -366.002774 
L 376.772888 -366.004977 
L 375.959625 -365.999142 
L 375.146362 -365.992669 
L 374.333099 -365.994631 
L 373.519836 -365.994676 
L 372.706573 -365.995115 
L 371.893311 -365.997437 
L 371.080048 -365.999424 
L 370.266785 -366.001609 
L 369.453522 -366.001781 
L 368.640259 -366.003419 
L 367.826996 -366.005775 
L 367.013733 -366.007305 
L 366.20047 -366.009658 
L 365.387207 -366.012046 
L 364.573945 -366.013867 
L 363.760682 -366.016171 
L 362.947419 -366.017178 
L 362.134156 -366.017387 
L 361.320893 -366.018981 
L 360.50763 -366.019571 
L 359.694367 -366.02157 
L 358.881104 -366.023991 
L 358.067841 -366.026417 
L 357.254579 -366.028719 
L 356.441316 -366.030011 
L 355.628053 -366.03234 
L 354.81479 -366.034698 
L 354.001527 -366.037149 
L 353.188264 -366.038952 
L 352.375001 -366.040775 
L 351.561738 -366.042408 
L 350.748475 -366.044307 
L 349.935213 -366.045191 
L 349.12195 -366.046603 
L 348.308687 -366.047332 
L 347.495424 -366.02104 
L 346.682161 -366.023354 
L 345.868898 -366.025878 
L 345.055635 -366.020574 
L 344.242372 -366.020063 
L 343.429109 -365.983578 
L 342.615847 -365.982743 
L 341.802584 -365.985392 
L 340.989321 -365.986643 
L 340.176058 -365.988972 
L 339.362795 -365.991364 
L 338.549532 -365.992283 
L 337.736269 -365.994625 
L 336.923006 -365.993759 
L 336.109743 -365.995954 
L 335.296481 -365.994893 
L 334.483218 -365.981655 
L 333.669955 -365.968042 
L 332.856692 -365.952466 
L 332.043429 -365.94267 
L 331.230166 -365.945464 
L 330.416903 -365.948242 
L 329.60364 -365.951007 
L 328.790377 -365.949482 
L 327.977115 -365.949114 
L 327.163852 -365.951496 
L 326.350589 -365.954282 
L 325.537326 -365.956264 
L 324.724063 -365.955018 
L 323.9108 -365.95568 
L 323.097537 -365.956348 
L 322.284274 -365.95872 
L 321.471011 -365.960508 
L 320.657749 -365.963464 
L 319.844486 -365.966253 
L 319.031223 -365.969055 
L 318.21796 -365.972051 
L 317.404697 -365.974989 
L 316.591434 -365.977989 
L 315.778171 -365.940997 
L 314.964908 -365.943736 
L 314.151645 -365.944996 
L 313.338383 -365.947987 
L 312.52512 -365.950992 
L 311.711857 -365.948578 
L 310.898594 -365.938553 
L 310.085331 -365.940431 
L 309.272068 -365.940428 
L 308.458805 -365.940424 
L 307.645542 -365.943493 
L 306.832279 -365.945542 
L 306.019017 -365.947995 
L 305.205754 -365.95043 
L 304.392491 -365.953549 
L 303.579228 -365.956696 
L 302.765965 -365.912463 
L 301.952702 -365.915726 
L 301.139439 -365.910461 
L 300.326176 -365.913789 
L 299.512913 -365.916706 
L 298.699651 -365.919639 
L 297.886388 -365.923014 
L 297.073125 -365.926411 
L 296.259862 -365.929825 
L 295.446599 -365.933256 
L 294.633336 -365.936627 
L 293.820073 -365.92209 
L 293.00681 -365.92483 
L 292.193547 -365.912977 
L 291.380284 -365.899913 
L 290.567022 -365.901864 
L 289.753759 -365.905326 
L 288.940496 -365.908056 
L 288.127233 -365.909482 
L 287.31397 -365.910681 
L 286.500707 -365.912433 
L 285.687444 -365.916035 
L 284.874181 -365.919553 
L 284.060918 -365.92317 
L 283.247656 -365.926733 
L 282.434393 -365.924509 
L 281.62113 -365.928206 
L 280.807867 -365.91745 
L 279.994604 -365.921109 
L 279.181341 -365.924089 
L 278.368078 -365.925789 
L 277.554815 -365.929469 
L 276.741552 -365.928349 
L 275.92829 -365.929471 
L 275.115027 -365.930605 
L 274.301764 -365.919608 
L 273.488501 -365.921684 
L 272.675238 -365.925677 
L 271.861975 -365.925747 
L 271.048712 -365.929357 
L 270.235449 -365.933139 
L 269.422186 -365.93684 
L 268.608924 -365.939677 
L 267.795661 -365.943634 
L 266.982398 -365.943252 
L 266.169135 -365.942865 
L 265.355872 -365.94675 
L 264.542609 -365.949351 
L 263.729346 -365.945332 
L 262.916083 -365.946687 
L 262.10282 -365.949437 
L 261.289558 -365.936463 
L 260.476295 -365.940855 
L 259.663032 -365.945276 
L 258.849769 -365.949479 
L 258.036506 -365.953159 
L 257.223243 -365.957194 
L 256.40998 -365.961191 
L 255.596717 -365.965746 
L 254.783454 -365.970261 
L 253.970192 -365.973966 
L 253.156929 -365.977991 
L 252.343666 -365.982352 
L 251.530403 -365.98627 
L 250.71714 -365.990969 
L 249.903877 -365.994895 
L 249.090614 -365.998282 
L 248.277351 -365.99767 
L 247.464088 -365.989001 
L 246.650826 -365.990914 
L 245.837563 -365.995524 
L 245.0243 -365.922755 
L 244.211037 -365.839932 
L 243.397774 -365.844317 
L 242.584511 -365.837832 
L 241.771248 -365.821154 
L 240.957985 -365.824757 
L 240.144722 -365.701315 
L 239.33146 -365.705901 
L 238.518197 -365.710529 
L 237.704934 -365.715886 
L 236.891671 -365.717678 
L 236.078408 -365.720901 
L 235.265145 -365.725725 
L 234.451882 -365.730779 
L 233.638619 -365.736212 
L 232.825356 -365.735531 
L 232.012094 -365.741185 
L 231.198831 -365.746902 
L 230.385568 -365.736276 
L 229.572305 -365.740951 
L 228.759042 -365.74546 
L 227.945779 -365.749967 
L 227.132516 -365.737821 
L 226.319253 -365.696756 
L 225.50599 -365.702806 
L 224.692728 -365.708803 
L 223.879465 -365.715004 
L 223.066202 -365.72124 
L 222.252939 -365.727292 
L 221.439676 -365.724367 
L 220.626413 -365.729824 
L 219.81315 -365.735463 
L 218.999887 -365.727103 
L 218.186624 -365.731217 
L 217.373362 -365.735388 
L 216.560099 -365.739616 
L 215.746836 -365.745017 
L 214.933573 -365.750755 
L 214.12031 -365.745964 
L 213.307047 -365.740846 
L 212.493784 -365.74395 
L 211.680521 -365.751063 
L 210.867258 -365.749606 
L 210.053996 -365.707475 
L 209.240733 -365.661515 
L 208.42747 -365.667815 
L 207.614207 -365.674395 
L 206.800944 -365.678202 
L 205.987681 -365.678313 
L 205.174418 -365.675864 
L 204.361155 -365.682915 
L 203.547892 -365.681484 
L 202.73463 -365.689581 
L 201.921367 -365.693492 
L 201.108104 -365.701085 
L 200.294841 -365.708358 
L 199.481578 -365.715792 
L 198.668315 -365.718899 
L 197.855052 -365.723921 
L 197.041789 -365.730843 
L 196.228526 -365.73788 
L 195.415264 -365.746597 
L 194.602001 -365.743376 
L 193.788738 -365.742701 
L 192.975475 -365.750977 
L 192.162212 -365.760596 
L 191.348949 -365.722223 
L 190.535686 -365.705737 
L 189.722423 -365.715745 
L 188.90916 -365.725797 
L 188.095898 -365.735782 
L 187.282635 -365.724479 
L 186.469372 -365.733916 
L 185.656109 -365.734045 
L 184.842846 -365.721453 
L 184.029583 -365.729309 
L 183.21632 -365.738855 
L 182.403057 -365.735301 
L 181.589794 -365.7316 
L 180.776532 -365.739705 
L 179.963269 -365.744735 
L 179.150006 -365.756836 
L 178.336743 -365.760953 
L 177.52348 -365.768262 
L 176.710217 -365.778631 
L 175.896954 -365.792052 
L 175.083691 -365.805117 
L 174.270428 -365.818476 
L 173.457166 -365.832673 
L 172.643903 -365.845983 
L 171.83064 -365.80912 
L 171.017377 -365.742849 
L 170.204114 -365.65486 
L 169.390851 -365.548356 
L 168.577588 -365.552604 
L 167.764325 -365.52692 
L 166.951062 -365.336336 
L 166.1378 -365.35409 
L 165.324537 -365.159302 
L 164.511274 -364.864428 
L 163.698011 -364.875904 
L 162.884748 -364.888199 
L 162.071485 -364.90774 
L 161.258222 -364.927886 
L 160.444959 -364.94873 
L 159.631696 -364.970485 
L 158.818434 -364.816958 
L 158.005171 -364.756043 
L 157.191908 -364.748314 
L 156.378645 -364.739864 
L 155.565382 -364.752845 
L 154.752119 -363.173636 
L 153.938856 -359.439728 
L 153.125593 -356.485429 
L 152.31233 -351.08093 
L 151.499068 -350.81379 
L 150.685805 -350.258559 
L 149.872542 -346.95973 
L 149.059279 -338.804714 
L 148.246016 -337.284751 
L 147.432753 -336.269903 
L 146.61949 -334.430631 
L 145.806227 -332.819529 
L 144.992964 -329.415411 
L 144.179702 -324.281043 
L 143.366439 -323.069662 
L 142.553176 -321.579258 
L 141.739913 -316.812428 
L 140.92665 -304.722834 
L 140.113387 -300.791621 
L 139.300124 -152.965304 
L 138.486861 -152.965304 
L 137.673598 -152.965304 
L 136.860336 -152.965304 
z
" style="stroke: #0000ff; stroke-opacity: 0.3"/>
    </defs>
    <g clip-path="url(#p189ae7d996)">
     <use xlink:href="#me28f454d38" x="0" y="390.121051" style="fill: #0000ff; fill-opacity: 0.3; stroke: #0000ff; stroke-opacity: 0.3"/>
    </g>
   </g>
   <g id="matplotlib.axis_1">
    <g id="xtick_1">
     <g id="line2d_1">
      <path d="M 136.860336 339.84 
L 136.860336 7.2 
" clip-path="url(#p189ae7d996)" style="fill: none; stroke: #b0b0b0; stroke-width: 0.8; stroke-linecap: square"/>
     </g>
     <g id="line2d_2">
      <defs>
       <path id="mf5d0be429a" d="M 0 0 
L 0 3.5 
" style="stroke: #000000; stroke-width: 0.8"/>
      </defs>
      <g>
       <use xlink:href="#mf5d0be429a" x="136.860336" y="339.84" style="stroke: #000000; stroke-width: 0.8"/>
      </g>
     </g>
     <g id="text_1">
      <!-- $\mathdefault{0}$ -->
      <g transform="translate(132.377147 358.998234)scale(0.18 -0.18)">
       <defs>
        <path id="NimbusRomNo9L-Regu-30" d="M 1626 4352 
C 1274 4352 1005 4243 768 4019 
C 397 3661 154 2924 154 2176 
C 154 1478 365 729 666 371 
C 902 89 1229 -64 1600 -64 
C 1926 -64 2202 44 2432 268 
C 2803 620 3046 1363 3046 2137 
C 3046 3449 2464 4352 1626 4352 
z
M 1606 4185 
C 2144 4185 2432 3462 2432 2124 
C 2432 787 2150 102 1600 102 
C 1050 102 768 787 768 2118 
C 768 3475 1056 4185 1606 4185 
z
" transform="scale(0.015625)"/>
       </defs>
       <use xlink:href="#NimbusRomNo9L-Regu-30" transform="scale(0.996264)"/>
      </g>
     </g>
    </g>
    <g id="xtick_2">
     <g id="line2d_3">
      <path d="M 218.186624 339.84 
L 218.186624 7.2 
" clip-path="url(#p189ae7d996)" style="fill: none; stroke: #b0b0b0; stroke-width: 0.8; stroke-linecap: square"/>
     </g>
     <g id="line2d_4">
      <g>
       <use xlink:href="#mf5d0be429a" x="218.186624" y="339.84" style="stroke: #000000; stroke-width: 0.8"/>
      </g>
     </g>
     <g id="text_2">
      <!-- $\mathdefault{100}$ -->
      <g transform="translate(204.73706 358.998234)scale(0.18 -0.18)">
       <defs>
        <path id="NimbusRomNo9L-Regu-31" d="M 1862 4352 
L 710 3776 
L 710 3686 
C 787 3718 858 3743 883 3756 
C 998 3801 1107 3826 1171 3826 
C 1306 3826 1363 3731 1363 3525 
L 1363 599 
C 1363 386 1312 238 1210 179 
C 1114 121 1024 102 755 96 
L 755 0 
L 2522 0 
L 2522 96 
C 2016 102 1914 167 1914 477 
L 1914 4339 
L 1862 4352 
z
" transform="scale(0.015625)"/>
       </defs>
       <use xlink:href="#NimbusRomNo9L-Regu-31" transform="scale(0.996264)"/>
       <use xlink:href="#NimbusRomNo9L-Regu-30" transform="translate(49.8132 0)scale(0.996264)"/>
       <use xlink:href="#NimbusRomNo9L-Regu-30" transform="translate(99.626401 0)scale(0.996264)"/>
      </g>
     </g>
    </g>
    <g id="xtick_3">
     <g id="line2d_5">
      <path d="M 299.512913 339.84 
L 299.512913 7.2 
" clip-path="url(#p189ae7d996)" style="fill: none; stroke: #b0b0b0; stroke-width: 0.8; stroke-linecap: square"/>
     </g>
     <g id="line2d_6">
      <g>
       <use xlink:href="#mf5d0be429a" x="299.512913" y="339.84" style="stroke: #000000; stroke-width: 0.8"/>
      </g>
     </g>
     <g id="text_3">
      <!-- $\mathdefault{200}$ -->
      <g transform="translate(286.063349 358.998234)scale(0.18 -0.18)">
       <defs>
        <path id="NimbusRomNo9L-Regu-32" d="M 3040 879 
L 2957 912 
C 2720 544 2637 486 2349 486 
L 819 486 
L 1894 1621 
C 2464 2221 2714 2711 2714 3214 
C 2714 3858 2195 4352 1530 4352 
C 1178 4352 845 4211 608 3955 
C 403 3736 307 3530 198 3072 
L 333 3039 
C 589 3671 819 3878 1261 3878 
C 1798 3878 2163 3510 2163 2969 
C 2163 2466 1869 1866 1331 1292 
L 192 76 
L 192 0 
L 2688 0 
L 3040 879 
z
" transform="scale(0.015625)"/>
       </defs>
       <use xlink:href="#NimbusRomNo9L-Regu-32" transform="scale(0.996264)"/>
       <use xlink:href="#NimbusRomNo9L-Regu-30" transform="translate(49.8132 0)scale(0.996264)"/>
       <use xlink:href="#NimbusRomNo9L-Regu-30" transform="translate(99.626401 0)scale(0.996264)"/>
      </g>
     </g>
    </g>
    <g id="xtick_4">
     <g id="line2d_7">
      <path d="M 380.839202 339.84 
L 380.839202 7.2 
" clip-path="url(#p189ae7d996)" style="fill: none; stroke: #b0b0b0; stroke-width: 0.8; stroke-linecap: square"/>
     </g>
     <g id="line2d_8">
      <g>
       <use xlink:href="#mf5d0be429a" x="380.839202" y="339.84" style="stroke: #000000; stroke-width: 0.8"/>
      </g>
     </g>
     <g id="text_4">
      <!-- $\mathdefault{300}$ -->
      <g transform="translate(367.389638 358.998234)scale(0.18 -0.18)">
       <defs>
        <path id="NimbusRomNo9L-Regu-33" d="M 979 2137 
C 1357 2137 1504 2124 1658 2067 
C 2054 1926 2304 1561 2304 1120 
C 2304 582 1939 166 1466 166 
C 1293 166 1165 211 928 364 
C 736 480 627 524 518 524 
C 371 524 275 435 275 300 
C 275 76 550 -64 998 -64 
C 1491 -64 1997 102 2298 364 
C 2598 627 2765 998 2765 1427 
C 2765 1753 2662 2054 2477 2252 
C 2349 2393 2227 2470 1946 2592 
C 2387 2892 2547 3129 2547 3475 
C 2547 3993 2138 4352 1549 4352 
C 1229 4352 947 4243 717 4038 
C 525 3865 429 3699 288 3315 
L 384 3289 
C 646 3757 934 3967 1338 3967 
C 1754 3967 2042 3686 2042 3283 
C 2042 3052 1946 2822 1786 2662 
C 1594 2470 1414 2374 979 2220 
L 979 2137 
z
" transform="scale(0.015625)"/>
       </defs>
       <use xlink:href="#NimbusRomNo9L-Regu-33" transform="scale(0.996264)"/>
       <use xlink:href="#NimbusRomNo9L-Regu-30" transform="translate(49.8132 0)scale(0.996264)"/>
       <use xlink:href="#NimbusRomNo9L-Regu-30" transform="translate(99.626401 0)scale(0.996264)"/>
      </g>
     </g>
    </g>
    <g id="xtick_5">
     <g id="line2d_9">
      <path d="M 462.165491 339.84 
L 462.165491 7.2 
" clip-path="url(#p189ae7d996)" style="fill: none; stroke: #b0b0b0; stroke-width: 0.8; stroke-linecap: square"/>
     </g>
     <g id="line2d_10">
      <g>
       <use xlink:href="#mf5d0be429a" x="462.165491" y="339.84" style="stroke: #000000; stroke-width: 0.8"/>
      </g>
     </g>
     <g id="text_5">
      <!-- $\mathdefault{400}$ -->
      <g transform="translate(448.715927 358.998234)scale(0.18 -0.18)">
       <defs>
        <path id="NimbusRomNo9L-Regu-34" d="M 3021 1497 
L 2368 1497 
L 2368 4352 
L 2086 4352 
L 77 1497 
L 77 1088 
L 1875 1088 
L 1875 0 
L 2368 0 
L 2368 1088 
L 3021 1088 
L 3021 1497 
z
M 1869 1497 
L 333 1497 
L 1869 3697 
L 1869 1497 
z
" transform="scale(0.015625)"/>
       </defs>
       <use xlink:href="#NimbusRomNo9L-Regu-34" transform="scale(0.996264)"/>
       <use xlink:href="#NimbusRomNo9L-Regu-30" transform="translate(49.8132 0)scale(0.996264)"/>
       <use xlink:href="#NimbusRomNo9L-Regu-30" transform="translate(99.626401 0)scale(0.996264)"/>
      </g>
     </g>
    </g>
    <g id="xtick_6">
     <g id="line2d_11">
      <path d="M 543.49178 339.84 
L 543.49178 7.2 
" clip-path="url(#p189ae7d996)" style="fill: none; stroke: #b0b0b0; stroke-width: 0.8; stroke-linecap: square"/>
     </g>
     <g id="line2d_12">
      <g>
       <use xlink:href="#mf5d0be429a" x="543.49178" y="339.84" style="stroke: #000000; stroke-width: 0.8"/>
      </g>
     </g>
     <g id="text_6">
      <!-- $\mathdefault{500}$ -->
      <g transform="translate(530.042216 358.998234)scale(0.18 -0.18)">
       <defs>
        <path id="NimbusRomNo9L-Regu-35" d="M 1158 3718 
L 2413 3718 
C 2515 3718 2541 3731 2560 3775 
L 2803 4345 
L 2746 4390 
C 2650 4256 2586 4224 2451 4224 
L 1114 4224 
L 416 2717 
C 410 2705 410 2698 410 2686 
C 410 2654 435 2635 486 2635 
C 691 2635 947 2591 1210 2508 
C 1946 2274 2285 1882 2285 1255 
C 2285 647 1894 172 1395 172 
C 1267 172 1158 217 966 356 
C 762 502 614 565 480 565 
C 294 565 205 489 205 331 
C 205 89 506 -64 986 -64 
C 1523 -64 1984 108 2304 432 
C 2598 717 2733 1078 2733 1559 
C 2733 2015 2611 2306 2291 2622 
C 2010 2901 1645 3047 890 3180 
L 1158 3718 
z
" transform="scale(0.015625)"/>
       </defs>
       <use xlink:href="#NimbusRomNo9L-Regu-35" transform="scale(0.996264)"/>
       <use xlink:href="#NimbusRomNo9L-Regu-30" transform="translate(49.8132 0)scale(0.996264)"/>
       <use xlink:href="#NimbusRomNo9L-Regu-30" transform="translate(99.626401 0)scale(0.996264)"/>
      </g>
     </g>
    </g>
    <g id="text_7">
     <!-- Samples -->
     <g transform="translate(309.382812 379.038759)scale(0.18 -0.18)">
      <defs>
       <path id="NimbusRomNo9L-Regu-53" d="M 2861 4313 
L 2726 4313 
C 2701 4166 2630 4095 2522 4095 
C 2458 4095 2349 4121 2240 4172 
C 2003 4300 1766 4352 1562 4352 
C 1286 4352 1005 4243 794 4057 
C 570 3859 454 3590 454 3257 
C 454 2745 736 2387 1453 2009 
C 1914 1766 2246 1504 2406 1260 
C 2464 1177 2496 1043 2496 889 
C 2496 460 2176 166 1709 166 
C 1139 166 736 518 416 1299 
L 269 1299 
L 461 -58 
L 602 -58 
C 608 38 685 128 781 128 
C 851 128 960 102 1082 57 
C 1325 -13 1581 -64 1837 -64 
C 2573 -64 3142 441 3142 1100 
C 3142 1625 2790 2041 1946 2496 
C 1274 2867 1005 3148 1005 3494 
C 1005 3846 1274 4089 1670 4089 
C 1958 4089 2227 3968 2451 3737 
C 2650 3533 2739 3366 2842 2988 
L 3002 2988 
L 2861 4313 
z
" transform="scale(0.015625)"/>
       <path id="NimbusRomNo9L-Regu-61" d="M 2829 422 
C 2720 332 2643 300 2547 300 
C 2400 300 2355 390 2355 672 
L 2355 1920 
C 2355 2252 2323 2438 2227 2592 
C 2086 2822 1811 2944 1434 2944 
C 832 2944 358 2630 358 2227 
C 358 2080 486 1952 634 1952 
C 787 1952 922 2080 922 2220 
C 922 2246 915 2278 909 2323 
C 896 2380 890 2432 890 2476 
C 890 2649 1094 2790 1350 2790 
C 1664 2790 1837 2604 1837 2259 
L 1837 1868 
C 851 1472 742 1420 467 1177 
C 326 1049 237 832 237 620 
C 237 217 518 -64 909 -64 
C 1190 -64 1453 70 1843 403 
C 1875 70 1990 -64 2253 -64 
C 2470 -64 2605 12 2829 256 
L 2829 422 
z
M 1837 787 
C 1837 588 1805 531 1670 454 
C 1517 364 1338 307 1203 307 
C 979 307 800 524 800 800 
L 800 825 
C 800 1203 1062 1433 1837 1715 
L 1837 787 
z
" transform="scale(0.015625)"/>
       <path id="NimbusRomNo9L-Regu-6d" d="M 122 2547 
C 205 2566 256 2572 326 2572 
C 493 2572 550 2470 550 2163 
L 550 544 
C 550 198 461 102 102 96 
L 102 0 
L 1523 0 
L 1523 96 
C 1184 108 1088 179 1088 428 
L 1088 2233 
C 1088 2246 1139 2310 1184 2355 
C 1344 2502 1619 2611 1843 2611 
C 2125 2611 2266 2387 2266 1939 
L 2266 550 
C 2266 192 2195 121 1830 96 
L 1830 0 
L 3264 0 
L 3264 96 
C 2899 102 2803 211 2803 608 
L 2803 2220 
C 2995 2496 3206 2611 3501 2611 
C 3866 2611 3981 2438 3981 1907 
L 3981 556 
C 3981 192 3930 140 3558 96 
L 3558 0 
L 4960 0 
L 4960 96 
L 4794 108 
C 4602 121 4518 236 4518 486 
L 4518 1804 
C 4518 2560 4269 2944 3776 2944 
C 3405 2944 3078 2777 2733 2406 
C 2618 2771 2400 2944 2054 2944 
C 1773 2944 1594 2854 1062 2451 
L 1062 2931 
L 1018 2944 
C 691 2822 474 2751 122 2655 
L 122 2547 
z
" transform="scale(0.015625)"/>
       <path id="NimbusRomNo9L-Regu-70" d="M 58 2515 
C 115 2521 160 2521 218 2521 
C 435 2521 480 2457 480 2157 
L 480 -839 
C 480 -1172 410 -1242 32 -1280 
L 32 -1389 
L 1581 -1389 
L 1581 -1280 
C 1101 -1274 1018 -1203 1018 -798 
L 1018 211 
C 1242 0 1395 -64 1664 -64 
C 2419 -64 3008 652 3008 1580 
C 3008 2374 2560 2944 1939 2944 
C 1581 2944 1299 2783 1018 2438 
L 1018 2931 
L 979 2944 
C 634 2809 410 2726 58 2617 
L 58 2515 
z
M 1018 2137 
C 1018 2329 1376 2559 1670 2559 
C 2144 2559 2458 2073 2458 1331 
C 2458 620 2144 140 1683 140 
C 1382 140 1018 371 1018 563 
L 1018 2137 
z
" transform="scale(0.015625)"/>
       <path id="NimbusRomNo9L-Regu-6c" d="M 122 3987 
L 160 3987 
C 230 3993 307 4000 358 4000 
C 563 4000 627 3910 627 3609 
L 627 556 
C 627 211 538 128 134 96 
L 134 0 
L 1645 0 
L 1645 96 
C 1242 121 1165 185 1165 537 
L 1165 4358 
L 1139 4371 
C 806 4262 563 4198 122 4089 
L 122 3987 
z
" transform="scale(0.015625)"/>
       <path id="NimbusRomNo9L-Regu-65" d="M 2611 1052 
C 2304 564 2029 377 1619 377 
C 1254 377 979 564 794 930 
C 678 1174 634 1386 621 1779 
L 2592 1779 
C 2541 2193 2477 2377 2317 2580 
C 2125 2809 1830 2944 1498 2944 
C 1178 2944 877 2828 634 2612 
C 333 2351 160 1900 160 1374 
C 160 486 621 -64 1357 -64 
C 1965 -64 2445 313 2714 1007 
L 2611 1052 
z
M 634 1984 
C 704 2478 922 2713 1312 2713 
C 1702 2713 1856 2535 1939 1984 
L 634 1984 
z
" transform="scale(0.015625)"/>
       <path id="NimbusRomNo9L-Regu-73" d="M 2016 2009 
L 1990 2880 
L 1920 2880 
L 1907 2867 
C 1850 2822 1843 2815 1818 2815 
C 1779 2815 1715 2828 1645 2860 
C 1504 2918 1363 2944 1197 2944 
C 691 2944 326 2617 326 2155 
C 326 1796 531 1539 1075 1231 
L 1446 1019 
C 1670 891 1779 737 1779 538 
C 1779 256 1574 76 1248 76 
C 1030 76 832 160 710 301 
C 576 461 518 609 435 974 
L 333 974 
L 333 -26 
L 416 -26 
C 461 38 486 51 563 51 
C 621 51 710 38 858 0 
C 1037 -39 1210 -64 1325 -64 
C 1818 -64 2227 307 2227 756 
C 2227 1077 2074 1289 1690 1520 
L 998 1930 
C 819 2033 723 2193 723 2366 
C 723 2623 922 2803 1216 2803 
C 1581 2803 1773 2585 1920 2014 
L 2016 2009 
z
" transform="scale(0.015625)"/>
      </defs>
      <use xlink:href="#NimbusRomNo9L-Regu-53" transform="scale(0.996264)"/>
      <use xlink:href="#NimbusRomNo9L-Regu-61" transform="translate(55.391677 0)scale(0.996264)"/>
      <use xlink:href="#NimbusRomNo9L-Regu-6d" transform="translate(99.625246 0)scale(0.996264)"/>
      <use xlink:href="#NimbusRomNo9L-Regu-70" transform="translate(177.133616 0)scale(0.996264)"/>
      <use xlink:href="#NimbusRomNo9L-Regu-6c" transform="translate(226.946816 0)scale(0.996264)"/>
      <use xlink:href="#NimbusRomNo9L-Regu-65" transform="translate(254.641986 0)scale(0.996264)"/>
      <use xlink:href="#NimbusRomNo9L-Regu-73" transform="translate(298.875555 0)scale(0.996264)"/>
     </g>
    </g>
   </g>
   <g id="matplotlib.axis_2">
    <g id="ytick_1">
     <g id="line2d_13">
      <path d="M 116.569426 329.676897 
L 562.969426 329.676897 
" clip-path="url(#p189ae7d996)" style="fill: none; stroke: #b0b0b0; stroke-width: 0.8; stroke-linecap: square"/>
     </g>
     <g id="line2d_14">
      <defs>
       <path id="m1c86bab382" d="M 0 0 
L -3.5 0 
" style="stroke: #000000; stroke-width: 0.8"/>
      </defs>
      <g>
       <use xlink:href="#m1c86bab382" x="116.569426" y="329.676897" style="stroke: #000000; stroke-width: 0.8"/>
      </g>
     </g>
     <g id="text_8">
      <!-- -3.000e+03 -->
      <g transform="translate(27.240526 335.756014)scale(0.18 -0.18)">
       <defs>
        <path id="NimbusRomNo9L-Regu-2d" d="M 250 1664 
L 250 1260 
L 1824 1260 
L 1824 1664 
L 250 1664 
z
" transform="scale(0.015625)"/>
        <path id="NimbusRomNo9L-Regu-2e" d="M 800 646 
C 608 646 448 480 448 281 
C 448 96 608 -64 794 -64 
C 992 -64 1158 96 1158 281 
C 1158 480 992 646 800 646 
z
" transform="scale(0.015625)"/>
        <path id="NimbusRomNo9L-Regu-2b" d="M 1594 1830 
L 192 1830 
L 192 1408 
L 1594 1408 
L 1594 0 
L 2016 0 
L 2016 1408 
L 3418 1408 
L 3418 1830 
L 2016 1830 
L 2016 3238 
L 1594 3238 
L 1594 1830 
z
" transform="scale(0.015625)"/>
       </defs>
       <use xlink:href="#NimbusRomNo9L-Regu-2d" transform="scale(0.996264)"/>
       <use xlink:href="#NimbusRomNo9L-Regu-33" transform="translate(33.17523 0)scale(0.996264)"/>
       <use xlink:href="#NimbusRomNo9L-Regu-2e" transform="translate(82.98843 0)scale(0.996264)"/>
       <use xlink:href="#NimbusRomNo9L-Regu-30" transform="translate(107.89503 0)scale(0.996264)"/>
       <use xlink:href="#NimbusRomNo9L-Regu-30" transform="translate(157.708231 0)scale(0.996264)"/>
       <use xlink:href="#NimbusRomNo9L-Regu-30" transform="translate(207.521431 0)scale(0.996264)"/>
       <use xlink:href="#NimbusRomNo9L-Regu-65" transform="translate(257.334632 0)scale(0.996264)"/>
       <use xlink:href="#NimbusRomNo9L-Regu-2b" transform="translate(301.568201 0)scale(0.996264)"/>
       <use xlink:href="#NimbusRomNo9L-Regu-30" transform="translate(357.756451 0)scale(0.996264)"/>
       <use xlink:href="#NimbusRomNo9L-Regu-33" transform="translate(407.569652 0)scale(0.996264)"/>
      </g>
     </g>
    </g>
    <g id="ytick_2">
     <g id="line2d_15">
      <path d="M 116.569426 311.00785 
L 562.969426 311.00785 
" clip-path="url(#p189ae7d996)" style="fill: none; stroke: #b0b0b0; stroke-width: 0.8; stroke-linecap: square"/>
     </g>
     <g id="line2d_16">
      <g>
       <use xlink:href="#m1c86bab382" x="116.569426" y="311.00785" style="stroke: #000000; stroke-width: 0.8"/>
      </g>
     </g>
     <g id="text_9">
      <!-- -2.500e+03 -->
      <g transform="translate(27.240526 317.086967)scale(0.18 -0.18)">
       <use xlink:href="#NimbusRomNo9L-Regu-2d" transform="scale(0.996264)"/>
       <use xlink:href="#NimbusRomNo9L-Regu-32" transform="translate(33.17523 0)scale(0.996264)"/>
       <use xlink:href="#NimbusRomNo9L-Regu-2e" transform="translate(82.98843 0)scale(0.996264)"/>
       <use xlink:href="#NimbusRomNo9L-Regu-35" transform="translate(107.89503 0)scale(0.996264)"/>
       <use xlink:href="#NimbusRomNo9L-Regu-30" transform="translate(157.708231 0)scale(0.996264)"/>
       <use xlink:href="#NimbusRomNo9L-Regu-30" transform="translate(207.521431 0)scale(0.996264)"/>
       <use xlink:href="#NimbusRomNo9L-Regu-65" transform="translate(257.334632 0)scale(0.996264)"/>
       <use xlink:href="#NimbusRomNo9L-Regu-2b" transform="translate(301.568201 0)scale(0.996264)"/>
       <use xlink:href="#NimbusRomNo9L-Regu-30" transform="translate(357.756451 0)scale(0.996264)"/>
       <use xlink:href="#NimbusRomNo9L-Regu-33" transform="translate(407.569652 0)scale(0.996264)"/>
      </g>
     </g>
    </g>
    <g id="ytick_3">
     <g id="line2d_17">
      <path d="M 116.569426 288.158783 
L 562.969426 288.158783 
" clip-path="url(#p189ae7d996)" style="fill: none; stroke: #b0b0b0; stroke-width: 0.8; stroke-linecap: square"/>
     </g>
     <g id="line2d_18">
      <g>
       <use xlink:href="#m1c86bab382" x="116.569426" y="288.158783" style="stroke: #000000; stroke-width: 0.8"/>
      </g>
     </g>
     <g id="text_10">
      <!-- -2.000e+03 -->
      <g transform="translate(27.240526 294.2379)scale(0.18 -0.18)">
       <use xlink:href="#NimbusRomNo9L-Regu-2d" transform="scale(0.996264)"/>
       <use xlink:href="#NimbusRomNo9L-Regu-32" transform="translate(33.17523 0)scale(0.996264)"/>
       <use xlink:href="#NimbusRomNo9L-Regu-2e" transform="translate(82.98843 0)scale(0.996264)"/>
       <use xlink:href="#NimbusRomNo9L-Regu-30" transform="translate(107.89503 0)scale(0.996264)"/>
       <use xlink:href="#NimbusRomNo9L-Regu-30" transform="translate(157.708231 0)scale(0.996264)"/>
       <use xlink:href="#NimbusRomNo9L-Regu-30" transform="translate(207.521431 0)scale(0.996264)"/>
       <use xlink:href="#NimbusRomNo9L-Regu-65" transform="translate(257.334632 0)scale(0.996264)"/>
       <use xlink:href="#NimbusRomNo9L-Regu-2b" transform="translate(301.568201 0)scale(0.996264)"/>
       <use xlink:href="#NimbusRomNo9L-Regu-30" transform="translate(357.756451 0)scale(0.996264)"/>
       <use xlink:href="#NimbusRomNo9L-Regu-33" transform="translate(407.569652 0)scale(0.996264)"/>
      </g>
     </g>
    </g>
    <g id="ytick_4">
     <g id="line2d_19">
      <path d="M 116.569426 258.701213 
L 562.969426 258.701213 
" clip-path="url(#p189ae7d996)" style="fill: none; stroke: #b0b0b0; stroke-width: 0.8; stroke-linecap: square"/>
     </g>
     <g id="line2d_20">
      <g>
       <use xlink:href="#m1c86bab382" x="116.569426" y="258.701213" style="stroke: #000000; stroke-width: 0.8"/>
      </g>
     </g>
     <g id="text_11">
      <!-- -1.500e+03 -->
      <g transform="translate(27.240526 264.78033)scale(0.18 -0.18)">
       <use xlink:href="#NimbusRomNo9L-Regu-2d" transform="scale(0.996264)"/>
       <use xlink:href="#NimbusRomNo9L-Regu-31" transform="translate(33.17523 0)scale(0.996264)"/>
       <use xlink:href="#NimbusRomNo9L-Regu-2e" transform="translate(82.98843 0)scale(0.996264)"/>
       <use xlink:href="#NimbusRomNo9L-Regu-35" transform="translate(107.89503 0)scale(0.996264)"/>
       <use xlink:href="#NimbusRomNo9L-Regu-30" transform="translate(157.708231 0)scale(0.996264)"/>
       <use xlink:href="#NimbusRomNo9L-Regu-30" transform="translate(207.521431 0)scale(0.996264)"/>
       <use xlink:href="#NimbusRomNo9L-Regu-65" transform="translate(257.334632 0)scale(0.996264)"/>
       <use xlink:href="#NimbusRomNo9L-Regu-2b" transform="translate(301.568201 0)scale(0.996264)"/>
       <use xlink:href="#NimbusRomNo9L-Regu-30" transform="translate(357.756451 0)scale(0.996264)"/>
       <use xlink:href="#NimbusRomNo9L-Regu-33" transform="translate(407.569652 0)scale(0.996264)"/>
      </g>
     </g>
    </g>
    <g id="ytick_5">
     <g id="line2d_21">
      <path d="M 116.569426 217.183099 
L 562.969426 217.183099 
" clip-path="url(#p189ae7d996)" style="fill: none; stroke: #b0b0b0; stroke-width: 0.8; stroke-linecap: square"/>
     </g>
     <g id="line2d_22">
      <g>
       <use xlink:href="#m1c86bab382" x="116.569426" y="217.183099" style="stroke: #000000; stroke-width: 0.8"/>
      </g>
     </g>
     <g id="text_12">
      <!-- -1.000e+03 -->
      <g transform="translate(27.240526 223.262216)scale(0.18 -0.18)">
       <use xlink:href="#NimbusRomNo9L-Regu-2d" transform="scale(0.996264)"/>
       <use xlink:href="#NimbusRomNo9L-Regu-31" transform="translate(33.17523 0)scale(0.996264)"/>
       <use xlink:href="#NimbusRomNo9L-Regu-2e" transform="translate(82.98843 0)scale(0.996264)"/>
       <use xlink:href="#NimbusRomNo9L-Regu-30" transform="translate(107.89503 0)scale(0.996264)"/>
       <use xlink:href="#NimbusRomNo9L-Regu-30" transform="translate(157.708231 0)scale(0.996264)"/>
       <use xlink:href="#NimbusRomNo9L-Regu-30" transform="translate(207.521431 0)scale(0.996264)"/>
       <use xlink:href="#NimbusRomNo9L-Regu-65" transform="translate(257.334632 0)scale(0.996264)"/>
       <use xlink:href="#NimbusRomNo9L-Regu-2b" transform="translate(301.568201 0)scale(0.996264)"/>
       <use xlink:href="#NimbusRomNo9L-Regu-30" transform="translate(357.756451 0)scale(0.996264)"/>
       <use xlink:href="#NimbusRomNo9L-Regu-33" transform="translate(407.569652 0)scale(0.996264)"/>
      </g>
     </g>
    </g>
    <g id="ytick_6">
     <g id="line2d_23">
      <path d="M 116.569426 146.207415 
L 562.969426 146.207415 
" clip-path="url(#p189ae7d996)" style="fill: none; stroke: #b0b0b0; stroke-width: 0.8; stroke-linecap: square"/>
     </g>
     <g id="line2d_24">
      <g>
       <use xlink:href="#m1c86bab382" x="116.569426" y="146.207415" style="stroke: #000000; stroke-width: 0.8"/>
      </g>
     </g>
     <g id="text_13">
      <!-- -5.000e+02 -->
      <g transform="translate(27.240526 152.286532)scale(0.18 -0.18)">
       <use xlink:href="#NimbusRomNo9L-Regu-2d" transform="scale(0.996264)"/>
       <use xlink:href="#NimbusRomNo9L-Regu-35" transform="translate(33.17523 0)scale(0.996264)"/>
       <use xlink:href="#NimbusRomNo9L-Regu-2e" transform="translate(82.98843 0)scale(0.996264)"/>
       <use xlink:href="#NimbusRomNo9L-Regu-30" transform="translate(107.89503 0)scale(0.996264)"/>
       <use xlink:href="#NimbusRomNo9L-Regu-30" transform="translate(157.708231 0)scale(0.996264)"/>
       <use xlink:href="#NimbusRomNo9L-Regu-30" transform="translate(207.521431 0)scale(0.996264)"/>
       <use xlink:href="#NimbusRomNo9L-Regu-65" transform="translate(257.334632 0)scale(0.996264)"/>
       <use xlink:href="#NimbusRomNo9L-Regu-2b" transform="translate(301.568201 0)scale(0.996264)"/>
       <use xlink:href="#NimbusRomNo9L-Regu-30" transform="translate(357.756451 0)scale(0.996264)"/>
       <use xlink:href="#NimbusRomNo9L-Regu-32" transform="translate(407.569652 0)scale(0.996264)"/>
      </g>
     </g>
    </g>
    <g id="text_14">
     <!-- Predictive Log Likelihood -->
     <g transform="translate(19.358234 267.711004)rotate(-90)scale(0.18 -0.18)">
      <defs>
       <path id="NimbusRomNo9L-Regu-50" d="M 1293 1875 
C 1459 1862 1568 1855 1734 1855 
C 2234 1855 2579 1919 2854 2073 
C 3238 2276 3469 2661 3469 3077 
C 3469 3343 3379 3583 3206 3766 
C 2950 4044 2394 4224 1792 4224 
L 102 4224 
L 102 4102 
C 576 4051 640 3987 640 3528 
L 640 765 
C 640 230 589 166 102 121 
L 102 0 
L 1894 0 
L 1894 121 
C 1389 140 1293 230 1293 695 
L 1293 1875 
z
M 1293 3772 
C 1293 3942 1338 3987 1510 3987 
C 2374 3987 2771 3690 2771 3040 
C 2771 2427 2394 2112 1658 2112 
C 1530 2112 1440 2118 1293 2130 
L 1293 3772 
z
" transform="scale(0.015625)"/>
       <path id="NimbusRomNo9L-Regu-72" d="M 45 2496 
C 134 2515 192 2521 269 2521 
C 429 2521 486 2419 486 2137 
L 486 537 
C 486 217 442 172 32 96 
L 32 0 
L 1568 0 
L 1568 96 
C 1133 115 1024 211 1024 576 
L 1024 2016 
C 1024 2220 1299 2540 1472 2540 
C 1510 2540 1568 2508 1638 2444 
C 1741 2355 1811 2316 1894 2316 
C 2048 2316 2144 2425 2144 2604 
C 2144 2815 2010 2944 1792 2944 
C 1523 2944 1338 2796 1024 2342 
L 1024 2931 
L 992 2944 
C 653 2803 422 2720 45 2598 
L 45 2496 
z
" transform="scale(0.015625)"/>
       <path id="NimbusRomNo9L-Regu-64" d="M 2202 -64 
L 3142 268 
L 3142 371 
C 3027 364 3014 364 2995 364 
C 2765 364 2714 435 2714 729 
L 2714 4358 
L 2682 4371 
C 2374 4262 2150 4198 1741 4089 
L 1741 3987 
C 1792 3993 1830 3993 1882 3993 
C 2118 3993 2176 3929 2176 3667 
L 2176 2668 
C 1933 2873 1760 2944 1504 2944 
C 768 2944 173 2220 173 1312 
C 173 492 653 -64 1357 -64 
C 1715 -64 1958 64 2176 364 
L 2176 -45 
L 2202 -64 
z
M 2176 652 
C 2176 608 2131 531 2067 460 
C 1952 332 1792 268 1606 268 
C 1075 268 723 780 723 1568 
C 723 2291 1037 2764 1523 2764 
C 1862 2764 2176 2464 2176 2124 
L 2176 652 
z
" transform="scale(0.015625)"/>
       <path id="NimbusRomNo9L-Regu-69" d="M 1120 2944 
L 128 2592 
L 128 2496 
L 179 2502 
C 256 2515 339 2521 397 2521 
C 550 2521 608 2419 608 2137 
L 608 652 
C 608 192 544 121 102 96 
L 102 0 
L 1619 0 
L 1619 96 
C 1197 128 1146 192 1146 652 
L 1146 2924 
L 1120 2944 
z
M 819 4352 
C 646 4352 499 4204 499 4025 
C 499 3846 640 3699 819 3699 
C 1005 3699 1152 3839 1152 4025 
C 1152 4204 1005 4352 819 4352 
z
" transform="scale(0.015625)"/>
       <path id="NimbusRomNo9L-Regu-63" d="M 2547 998 
C 2240 550 2010 396 1645 396 
C 1062 396 653 908 653 1644 
C 653 2303 1005 2758 1523 2758 
C 1754 2758 1837 2687 1901 2451 
L 1939 2310 
C 1990 2131 2106 2015 2240 2015 
C 2406 2015 2547 2137 2547 2284 
C 2547 2643 2099 2944 1562 2944 
C 1248 2944 922 2815 659 2585 
C 339 2303 160 1868 160 1363 
C 160 531 666 -64 1376 -64 
C 1664 -64 1920 38 2150 236 
C 2323 390 2445 563 2637 940 
L 2547 998 
z
" transform="scale(0.015625)"/>
       <path id="NimbusRomNo9L-Regu-74" d="M 1632 2880 
L 986 2880 
L 986 3622 
C 986 3686 979 3705 941 3705 
C 896 3648 858 3590 813 3526 
C 570 3174 294 2867 192 2841 
C 122 2796 83 2751 83 2719 
C 83 2700 90 2687 109 2675 
L 448 2675 
L 448 748 
C 448 211 640 -64 1018 -64 
C 1331 -64 1574 89 1786 422 
L 1702 492 
C 1568 332 1459 268 1318 268 
C 1082 268 986 441 986 844 
L 986 2675 
L 1632 2675 
L 1632 2880 
z
" transform="scale(0.015625)"/>
       <path id="NimbusRomNo9L-Regu-76" d="M 3053 2880 
L 2163 2880 
L 2163 2783 
C 2368 2764 2464 2701 2464 2580 
C 2464 2517 2451 2454 2426 2390 
L 1792 748 
L 1139 2371 
C 1101 2460 1082 2549 1082 2606 
C 1082 2720 1152 2764 1376 2783 
L 1376 2880 
L 122 2880 
L 122 2783 
C 365 2771 410 2707 704 2054 
L 1472 235 
C 1485 197 1504 152 1523 102 
C 1562 -13 1600 -64 1638 -64 
C 1677 -64 1722 19 1818 254 
L 2637 2289 
C 2822 2720 2861 2764 3053 2783 
L 3053 2880 
z
" transform="scale(0.015625)"/>
       <path id="NimbusRomNo9L-Regu-4c" d="M 3667 1110 
C 3558 868 3469 721 3373 613 
C 3149 364 2797 249 2266 249 
L 1837 249 
C 1370 249 1286 287 1286 511 
L 1286 3528 
C 1286 3981 1376 4070 1882 4102 
L 1882 4224 
L 77 4224 
L 77 4102 
C 550 4064 634 3974 634 3528 
L 634 696 
C 634 249 544 153 77 121 
L 77 0 
L 3520 0 
L 3827 1113 
L 3667 1110 
z
" transform="scale(0.015625)"/>
       <path id="NimbusRomNo9L-Regu-6f" d="M 1600 2944 
C 768 2944 186 2329 186 1446 
C 186 582 781 -64 1587 -64 
C 2394 -64 3008 614 3008 1497 
C 3008 2336 2419 2944 1600 2944 
z
M 1517 2764 
C 2054 2764 2432 2150 2432 1273 
C 2432 550 2144 115 1664 115 
C 1414 115 1178 268 1043 524 
C 864 857 762 1305 762 1760 
C 762 2368 1062 2764 1517 2764 
z
" transform="scale(0.015625)"/>
       <path id="NimbusRomNo9L-Regu-67" d="M 3008 2438 
L 3008 2688 
L 2515 2688 
C 2387 2688 2291 2734 2163 2796 
L 2022 2847 
C 1850 2911 1677 2944 1510 2944 
C 915 2944 442 2438 442 1877 
C 442 1489 614 1255 1037 1049 
C 915 934 800 826 762 794 
C 550 610 467 483 467 356 
C 467 223 544 147 806 19 
C 352 -316 179 -529 179 -767 
C 179 -1108 678 -1389 1286 -1389 
C 1766 -1389 2266 -1223 2598 -954 
C 2842 -754 2950 -548 2950 -303 
C 2950 96 2650 363 2176 382 
L 1350 420 
C 1011 432 851 490 851 591 
C 851 718 1062 941 1235 992 
C 1293 985 1338 979 1357 979 
C 1478 966 1562 960 1600 960 
C 1837 960 2093 1056 2291 1224 
C 2502 1397 2598 1612 2598 1920 
C 2598 2099 2566 2241 2477 2438 
L 3008 2438 
z
M 941 0 
C 1152 -46 1664 -84 1978 -84 
C 2560 -84 2771 -168 2771 -400 
C 2771 -773 2285 -1024 1562 -1024 
C 998 -1024 627 -838 627 -554 
C 627 -406 672 -322 941 0 
z
M 973 2130 
C 973 2495 1152 2764 1446 2764 
C 1645 2764 1811 2611 1914 2419 
C 2029 2204 2106 1920 2106 1680 
C 2106 1335 1920 1120 1626 1120 
C 1242 1120 973 1520 973 2111 
L 973 2130 
z
" transform="scale(0.015625)"/>
       <path id="NimbusRomNo9L-Regu-6b" d="M 45 3987 
C 128 3993 186 4000 250 4000 
C 461 4000 525 3916 525 3609 
L 525 524 
C 525 192 506 172 45 96 
L 45 0 
L 1542 0 
L 1542 96 
L 1414 102 
C 1158 115 1062 204 1062 428 
L 1062 1606 
L 1958 409 
L 1978 384 
C 1990 364 2003 345 2022 326 
C 2074 262 2093 224 2093 192 
C 2093 134 2035 96 1958 96 
L 1837 96 
L 1837 0 
L 3232 0 
L 3232 96 
C 2950 115 2752 236 2483 563 
L 1504 1804 
L 1690 1977 
C 2144 2400 2541 2694 2726 2745 
C 2822 2771 2912 2783 3021 2783 
L 3072 2783 
L 3072 2880 
L 1766 2880 
L 1766 2790 
C 2016 2783 2086 2758 2086 2668 
C 2086 2617 2029 2528 1939 2451 
L 1062 1670 
L 1062 4358 
L 1037 4371 
C 794 4294 608 4243 237 4140 
L 45 4089 
L 45 3987 
z
" transform="scale(0.015625)"/>
       <path id="NimbusRomNo9L-Regu-68" d="M 1005 2195 
C 1274 2489 1466 2598 1715 2598 
C 2035 2598 2195 2368 2195 1920 
L 2195 652 
C 2195 217 2131 134 1760 96 
L 1760 0 
L 3117 0 
L 3117 96 
C 2771 160 2733 211 2733 652 
L 2733 1926 
C 2733 2598 2464 2944 1946 2944 
C 1568 2944 1299 2790 1005 2406 
L 1005 4352 
L 973 4371 
C 755 4294 595 4243 237 4140 
L 64 4089 
L 64 3987 
C 90 3993 109 3993 141 3993 
C 416 3993 467 3942 467 3667 
L 467 652 
C 467 204 429 147 58 96 
L 58 0 
L 1440 0 
L 1440 96 
C 1069 134 1005 211 1005 652 
L 1005 2195 
z
" transform="scale(0.015625)"/>
      </defs>
      <use xlink:href="#NimbusRomNo9L-Regu-50" transform="scale(0.996264)"/>
      <use xlink:href="#NimbusRomNo9L-Regu-72" transform="translate(55.391677 0)scale(0.996264)"/>
      <use xlink:href="#NimbusRomNo9L-Regu-65" transform="translate(88.566907 0)scale(0.996264)"/>
      <use xlink:href="#NimbusRomNo9L-Regu-64" transform="translate(132.800475 0)scale(0.996264)"/>
      <use xlink:href="#NimbusRomNo9L-Regu-69" transform="translate(182.613676 0)scale(0.996264)"/>
      <use xlink:href="#NimbusRomNo9L-Regu-63" transform="translate(210.308845 0)scale(0.996264)"/>
      <use xlink:href="#NimbusRomNo9L-Regu-74" transform="translate(254.542414 0)scale(0.996264)"/>
      <use xlink:href="#NimbusRomNo9L-Regu-69" transform="translate(282.237584 0)scale(0.996264)"/>
      <use xlink:href="#NimbusRomNo9L-Regu-76" transform="translate(307.442124 0)scale(0.996264)"/>
      <use xlink:href="#NimbusRomNo9L-Regu-65" transform="translate(355.761932 0)scale(0.996264)"/>
      <use xlink:href="#NimbusRomNo9L-Regu-4c" transform="translate(424.902101 0)scale(0.996264)"/>
      <use xlink:href="#NimbusRomNo9L-Regu-6f" transform="translate(485.773731 0)scale(0.996264)"/>
      <use xlink:href="#NimbusRomNo9L-Regu-67" transform="translate(535.586932 0)scale(0.996264)"/>
      <use xlink:href="#NimbusRomNo9L-Regu-4c" transform="translate(610.306732 0)scale(0.996264)"/>
      <use xlink:href="#NimbusRomNo9L-Regu-69" transform="translate(671.178363 0)scale(0.996264)"/>
      <use xlink:href="#NimbusRomNo9L-Regu-6b" transform="translate(698.873533 0)scale(0.996264)"/>
      <use xlink:href="#NimbusRomNo9L-Regu-65" transform="translate(747.690636 0)scale(0.996264)"/>
      <use xlink:href="#NimbusRomNo9L-Regu-6c" transform="translate(791.924205 0)scale(0.996264)"/>
      <use xlink:href="#NimbusRomNo9L-Regu-69" transform="translate(819.619375 0)scale(0.996264)"/>
      <use xlink:href="#NimbusRomNo9L-Regu-68" transform="translate(847.314544 0)scale(0.996264)"/>
      <use xlink:href="#NimbusRomNo9L-Regu-6f" transform="translate(897.127745 0)scale(0.996264)"/>
      <use xlink:href="#NimbusRomNo9L-Regu-6f" transform="translate(946.940945 0)scale(0.996264)"/>
      <use xlink:href="#NimbusRomNo9L-Regu-64" transform="translate(996.754146 0)scale(0.996264)"/>
     </g>
    </g>
   </g>
   <g id="line2d_25">
    <path d="M 136.860336 23.771523 
L 138.486861 24.367335 
L 142.553176 24.892231 
L 144.179702 24.184483 
L 150.685805 24.4666 
L 152.31233 24.457748 
L 158.005171 24.600567 
L 160.444959 24.603404 
L 168.577588 24.712493 
L 176.710217 24.748354 
L 184.029583 24.601849 
L 193.788738 24.671221 
L 195.415264 24.631741 
L 210.053996 24.673541 
L 219.81315 24.659111 
L 542.678517 24.626276 
L 542.678517 24.626276 
" clip-path="url(#p189ae7d996)" style="fill: none; stroke: #ff0000; stroke-width: 1.5; stroke-linecap: square"/>
   </g>
   <g id="line2d_26">
    <path d="M 136.860336 290.025927 
L 139.300124 290.025927 
L 140.113387 152.035849 
L 140.92665 131.025294 
L 141.739913 124.382168 
L 142.553176 121.296192 
L 143.366439 114.504449 
L 144.179702 114.04257 
L 144.992964 111.094619 
L 145.806227 66.294531 
L 146.61949 65.226474 
L 147.432753 54.362582 
L 148.246016 53.725043 
L 149.059279 51.506214 
L 149.872542 45.922502 
L 150.685805 41.493926 
L 151.499068 40.029683 
L 152.31233 39.166569 
L 153.938856 31.854934 
L 154.752119 28.622174 
L 155.565382 27.616138 
L 156.378645 26.02229 
L 158.818434 25.959752 
L 159.631696 25.697055 
L 163.698011 25.7715 
L 166.1378 25.313637 
L 166.951062 25.32189 
L 167.764325 25.188136 
L 170.204114 25.096824 
L 171.83064 24.811241 
L 183.21632 24.67598 
L 187.282635 24.668087 
L 188.095898 24.49305 
L 203.547892 24.545908 
L 219.81315 24.396505 
L 240.144722 24.454822 
L 241.771248 24.38913 
L 257.223243 24.304912 
L 309.272068 24.250361 
L 314.964908 24.230953 
L 333.669955 24.211481 
L 336.923006 24.175142 
L 542.678517 24.19085 
L 542.678517 24.19085 
" clip-path="url(#p189ae7d996)" style="fill: none; stroke: #0000ff; stroke-width: 1.5; stroke-linecap: square"/>
   </g>
   <g id="patch_3">
    <path d="M 116.569426 339.84 
L 116.569426 7.2 
" style="fill: none; stroke: #000000; stroke-width: 0.8; stroke-linejoin: miter; stroke-linecap: square"/>
   </g>
   <g id="patch_4">
    <path d="M 562.969426 339.84 
L 562.969426 7.2 
" style="fill: none; stroke: #000000; stroke-width: 0.8; stroke-linejoin: miter; stroke-linecap: square"/>
   </g>
   <g id="patch_5">
    <path d="M 116.569426 339.84 
L 562.969426 339.84 
" style="fill: none; stroke: #000000; stroke-width: 0.8; stroke-linejoin: miter; stroke-linecap: square"/>
   </g>
   <g id="patch_6">
    <path d="M 116.569426 7.2 
L 562.969426 7.2 
" style="fill: none; stroke: #000000; stroke-width: 0.8; stroke-linejoin: miter; stroke-linecap: square"/>
   </g>
   <g id="legend_1">
    <g id="patch_7">
     <path d="M 394.176291 330.84 
L 550.369426 330.84 
Q 553.969426 330.84 553.969426 327.24 
L 553.969426 278.075416 
Q 553.969426 274.475416 550.369426 274.475416 
L 394.176291 274.475416 
Q 390.576291 274.475416 390.576291 278.075416 
L 390.576291 327.24 
Q 390.576291 330.84 394.176291 330.84 
z
" style="fill: #ffffff; opacity: 0.8; stroke: #cccccc; stroke-linejoin: miter"/>
    </g>
    <g id="line2d_27">
     <path d="M 397.776291 287.975416 
L 415.776291 287.975416 
L 433.776291 287.975416 
" style="fill: none; stroke: #0000ff; stroke-width: 1.5; stroke-linecap: square"/>
    </g>
    <g id="text_15">
     <!-- stan-MCMC -->
     <g transform="translate(448.176291 294.275416)scale(0.18 -0.18)">
      <defs>
       <path id="NimbusRomNo9L-Regu-6e" d="M 102 2547 
C 141 2566 205 2572 275 2572 
C 454 2572 512 2476 512 2163 
L 512 576 
C 512 211 442 121 115 96 
L 115 0 
L 1472 0 
L 1472 96 
C 1146 121 1050 198 1050 428 
L 1050 2227 
C 1357 2515 1498 2591 1709 2591 
C 2022 2591 2176 2393 2176 1971 
L 2176 633 
C 2176 230 2093 121 1773 96 
L 1773 0 
L 3104 0 
L 3104 96 
C 2790 128 2714 204 2714 518 
L 2714 1984 
C 2714 2585 2432 2944 1958 2944 
C 1664 2944 1466 2835 1030 2425 
L 1030 2931 
L 986 2944 
C 672 2828 454 2758 102 2655 
L 102 2547 
z
" transform="scale(0.015625)"/>
       <path id="NimbusRomNo9L-Regu-4d" d="M 4314 3656 
L 4314 765 
C 4314 236 4237 153 3731 121 
L 3731 0 
L 5523 0 
L 5523 121 
C 5056 153 4966 242 4966 695 
L 4966 3528 
C 4966 3981 5050 4064 5523 4102 
L 5523 4224 
L 4250 4224 
L 2835 1002 
L 1357 4224 
L 90 4224 
L 90 4102 
C 614 4070 698 3994 698 3528 
L 698 938 
C 698 281 608 159 77 121 
L 77 0 
L 1581 0 
L 1581 121 
C 1088 147 979 293 979 938 
L 979 3509 
L 2586 0 
L 2675 0 
L 4314 3656 
z
" transform="scale(0.015625)"/>
       <path id="NimbusRomNo9L-Regu-43" d="M 3968 2905 
L 3910 4352 
L 3776 4352 
C 3738 4217 3635 4140 3507 4140 
C 3450 4140 3354 4159 3258 4198 
C 2944 4300 2624 4352 2323 4352 
C 1798 4352 1267 4153 870 3801 
C 422 3405 179 2809 179 2105 
C 179 1510 371 960 698 595 
C 1082 179 1670 -64 2304 -64 
C 3027 -64 3661 230 4051 748 
L 3936 864 
C 3462 409 3040 217 2509 217 
C 2106 217 1747 345 1472 588 
C 1120 902 922 1478 922 2188 
C 922 3347 1517 4095 2445 4095 
C 2810 4095 3142 3961 3398 3705 
C 3603 3501 3699 3321 3821 2905 
L 3968 2905 
z
" transform="scale(0.015625)"/>
      </defs>
      <use xlink:href="#NimbusRomNo9L-Regu-73" transform="scale(0.996264)"/>
      <use xlink:href="#NimbusRomNo9L-Regu-74" transform="translate(38.753706 0)scale(0.996264)"/>
      <use xlink:href="#NimbusRomNo9L-Regu-61" transform="translate(66.448876 0)scale(0.996264)"/>
      <use xlink:href="#NimbusRomNo9L-Regu-6e" transform="translate(110.682444 0)scale(0.996264)"/>
      <use xlink:href="#NimbusRomNo9L-Regu-2d" transform="translate(160.495645 0)scale(0.996264)"/>
      <use xlink:href="#NimbusRomNo9L-Regu-4d" transform="translate(193.670875 0)scale(0.996264)"/>
      <use xlink:href="#NimbusRomNo9L-Regu-43" transform="translate(282.237781 0)scale(0.996264)"/>
      <use xlink:href="#NimbusRomNo9L-Regu-4d" transform="translate(348.687813 0)scale(0.996264)"/>
      <use xlink:href="#NimbusRomNo9L-Regu-43" transform="translate(437.254719 0)scale(0.996264)"/>
     </g>
    </g>
    <g id="line2d_28">
     <path d="M 397.776291 313.457708 
L 415.776291 313.457708 
L 433.776291 313.457708 
" style="fill: none; stroke: #ff0000; stroke-width: 1.5; stroke-linecap: square"/>
    </g>
    <g id="text_16">
     <!-- stan-VI-mean -->
     <g transform="translate(448.176291 319.757708)scale(0.18 -0.18)">
      <defs>
       <path id="NimbusRomNo9L-Regu-56" d="M 4461 4224 
L 3149 4224 
L 3149 4102 
C 3501 4083 3616 4013 3616 3835 
C 3616 3733 3571 3561 3494 3370 
L 2554 1032 
L 1587 3185 
C 1376 3650 1325 3796 1325 3892 
C 1325 4013 1414 4077 1619 4089 
C 1645 4089 1715 4095 1805 4102 
L 1805 4224 
L 102 4224 
L 102 4102 
C 416 4089 506 4000 781 3433 
L 2355 -64 
L 2451 -64 
L 3872 3510 
C 4083 4013 4154 4083 4461 4102 
L 4461 4224 
z
" transform="scale(0.015625)"/>
       <path id="NimbusRomNo9L-Regu-49" d="M 736 695 
C 736 217 653 140 115 121 
L 115 0 
L 2016 0 
L 2016 121 
C 1491 140 1389 230 1389 695 
L 1389 3528 
C 1389 3994 1478 4077 2016 4102 
L 2016 4224 
L 115 4224 
L 115 4102 
C 659 4070 736 4000 736 3528 
L 736 695 
z
" transform="scale(0.015625)"/>
      </defs>
      <use xlink:href="#NimbusRomNo9L-Regu-73" transform="scale(0.996264)"/>
      <use xlink:href="#NimbusRomNo9L-Regu-74" transform="translate(38.753706 0)scale(0.996264)"/>
      <use xlink:href="#NimbusRomNo9L-Regu-61" transform="translate(66.448876 0)scale(0.996264)"/>
      <use xlink:href="#NimbusRomNo9L-Regu-6e" transform="translate(110.682444 0)scale(0.996264)"/>
      <use xlink:href="#NimbusRomNo9L-Regu-2d" transform="translate(160.495645 0)scale(0.996264)"/>
      <use xlink:href="#NimbusRomNo9L-Regu-56" transform="translate(193.670875 0)scale(0.996264)"/>
      <use xlink:href="#NimbusRomNo9L-Regu-49" transform="translate(265.60086 0)scale(0.996264)"/>
      <use xlink:href="#NimbusRomNo9L-Regu-2d" transform="translate(298.776089 0)scale(0.996264)"/>
      <use xlink:href="#NimbusRomNo9L-Regu-6d" transform="translate(331.951319 0)scale(0.996264)"/>
      <use xlink:href="#NimbusRomNo9L-Regu-65" transform="translate(409.459689 0)scale(0.996264)"/>
      <use xlink:href="#NimbusRomNo9L-Regu-61" transform="translate(453.693258 0)scale(0.996264)"/>
      <use xlink:href="#NimbusRomNo9L-Regu-6e" transform="translate(497.926827 0)scale(0.996264)"/>
     </g>
    </g>
   </g>
  </g>
 </g>
 <defs>
  <clipPath id="p189ae7d996">
   <rect x="116.569426" y="7.2" width="446.4" height="332.64"/>
  </clipPath>
 </defs>
</svg>
