<?xml version="1.0" encoding="utf-8"?>
<!-- Generator: Adobe Illustrator 24.1.2, SVG Export Plug-In . SVG Version: 6.00 Build 0)  -->
<svg version="1.1" id="Layer_1" xmlns="http://www.w3.org/2000/svg" xmlns:xlink="http://www.w3.org/1999/xlink" x="0px" y="0px"
	 viewBox="0 0 525.2 291" style="enable-background:new 0 0 525.2 291;" xml:space="preserve">
<style type="text/css">
	.st0{fill:#434143;}
	.st1{fill:#F15B27;}
	.st2{fill:#FFFFFF;}
</style>
<path class="st0" d="M192.7,40.6C223.9,2,280.4-4.1,319,27.1c11.7,9.4,20.9,21.7,26.6,35.6c-15.1-0.7-30.3,0.1-45.2,2.5
	c-4.3,0.8-8.6,1.6-12.8,2.3c-14.5,2.8-29.5,5.7-44.3,4.9C223.8,71.3,204.8,59.3,192.7,40.6z"/>
<path class="st1" d="M351,80.7c-31.5-2.5-64.1,9.9-85.7,33c-4.4,4.9-8.4,10.1-12.1,15.5c-6.7,9.3-12.9,18-21.9,23.5
	c-11.2,6.8-26.1,7.1-38.2,1.3c-24.7-30.1-27.1-72.6-6.2-105.3c13.8,19.5,34.5,31.8,55.8,33c1.9,0.1,3.8,0.2,5.7,0.2
	c13.9,0,27.6-2.6,40.9-5.1c4.2-0.8,8.4-1.6,12.6-2.3c15.5-2.4,31.2-3.2,46.9-2.3C349.7,74.8,350.4,77.8,351,80.7z"/>
<path class="st0" d="M352.4,97c0,49.6-40.2,89.8-89.7,89.8c-20.6,0-40.5-7-56.5-20c1.7,0.2,3.5,0.3,5.2,0.3c8.7,0,17.2-2.3,24.6-6.7
	c10.6-6.4,17.6-16.3,24.5-25.9c3.5-5.1,7.3-10,11.5-14.7C292,98.3,322.7,87,352.1,90C352.4,92.3,352.4,94.6,352.4,97z"/>
<path class="st2" d="M0,289.8v-83.4h25.3c18.3,0,28.2,10.1,28.2,26.4c0,16.1-9.9,25.6-28.2,25.6H9.9v31.5L0,289.8z M9.9,214.7V250
	h15.4c11.6,0,18-6,18-17.3c0-11.6-6.7-18-18-18H9.9z"/>
<path class="st2" d="M67.8,289.8v-83.4h25.3c18.4,0,28.2,10.1,28.2,26.4c0,16.1-9.9,25.6-28.2,25.6H77.7v31.5L67.8,289.8z
	 M77.7,214.7V250h15.4c11.6,0,18-6,18-17.3c0-11.6-6.7-18-18-18H77.7z"/>
<path class="st2" d="M182,289.8h-46.3v-83.4h9.9v75H182L182,289.8z"/>
<path class="st2" d="M221.2,206.4h27.4c16.8,0,26.7,8.3,26.7,21.3c0,9.5-4.4,15.4-12.2,18.2c10.1,2.6,15.8,9.3,15.8,21
	c0,15.6-11.4,22.9-29.3,22.9h-28.5V206.4z M231.1,214.7v27.5h17.5c10.1,0,16.3-4.1,16.3-14.1c0-8.5-6.1-13.5-16.3-13.5H231.1z
	 M231.1,250.4v31h18.6c12.2,0,19.1-3.9,19.1-15s-6.2-16-17.9-16L231.1,250.4z"/>
<path class="st2" d="M298.9,264.9c1.5,11.1,9.1,18.1,20,18.1c6.6,0,14.8-1.6,21.3-6l3.3,7.4c-7.5,4.3-14.6,6.6-24.8,6.6
	c-18.1,0-29.6-12.4-29.6-29.9c0-18.2,11.6-30.4,27.4-30.4s28.2,12,28.2,30.9c0,1.1-0.1,2.2-0.2,3.3H298.9z M298.8,257.8h36.3
	c-1.2-11.6-8.5-19.1-18.2-19.1C306.6,238.7,299.7,246.4,298.8,257.8L298.8,257.8z"/>
<path class="st2" d="M366.9,289.8h-9.2v-57.4h9.2v7.4c5.5-5.3,12-9.1,19.7-9.1c11.3,0,18.5,7.6,18.5,21.1v38h-9.3v-36.9
	c0-9.8-4.3-14.3-11.2-14.3c-6.7,0-12.2,3.3-17.6,9.1L366.9,289.8z"/>
<path class="st2" d="M447.9,238.6c-13,0-21,9.2-21,22.4c0,13.2,8,22.1,20.7,22.1c5.6-0.1,11.1-1.4,16.1-3.8l3.2,7.3
	c-6,3-12.6,4.5-19.3,4.5c-19.2,0-30.3-12.5-30.3-30c0-18.2,12-30.3,30.6-30.3c6.3-0.1,12.5,1.4,18.1,4.3l-3.3,7.5
	C458.9,239.9,452.7,238.6,447.9,238.6z"/>
<path class="st2" d="M487.1,289.8h-9.2v-87.5l9.2-2v39.5c5.5-5.3,12-9.1,19.7-9.1c11.3,0,18.5,7.6,18.5,21.1v38h-9.3v-36.9
	c0-9.8-4.3-14.3-11.2-14.3c-6.7,0-12.2,3.3-17.6,9.1L487.1,289.8z"/>
</svg>
