<?xml version="1.0" encoding="utf-8"?>
<!-- Generator: Adobe Illustrator 24.1.2, SVG Export Plug-In . SVG Version: 6.00 Build 0)  -->
<svg version="1.1" id="Capa_1" xmlns="http://www.w3.org/2000/svg" xmlns:xlink="http://www.w3.org/1999/xlink" x="0px" y="0px"
	 viewBox="0 0 628.3 613.5" style="enable-background:new 0 0 628.3 613.5;" xml:space="preserve">
<style type="text/css">
	.st0{fill:#F15A24;}
</style>
<g>
	<g>
		<g>
			<g>
				<path class="st0" d="M99.8,446.1c-6.7,12-12,30.1-12,41.5c0,2.6,0,6,0.7,10.7l-83.7-144C2,349.6,0,342.9,0,336.9
					c0-6,2-13.4,4.7-18.1l40.2-70.3L0,223.1l146-2.7l71,127.9l-45.5-26.1L99.8,446.1z M164.1,40.2C176.8,18.1,197.6,6,223,6
					c27.5,0,48.9,12.7,64.3,38.8L310.1,83l-79.1,136.7l-127.9-74.4L164.1,40.2z M173.4,561.9c-38.2,0-69.6-31.5-69.6-69.6
					c0-10.7,4.7-28.8,11.4-40.2l21.4-38.2h158.8v148L173.4,561.9L173.4,561.9z M300.7,36.2c-10-17.4-23.4-29.5-39.5-36.2H426
					c14.7,0,26.1,6,32.8,17.4l40.9,69.6L543.8,61l-71,127.3l-145.3-2l44.9-25.4L300.7,36.2z M554.6,415.3c20.1,0,36.8-5.4,50.9-16.1
					l-83.1,144.6c-6.7,11.4-18.7,18.1-32.8,18.1h-78.4v51.6l-75-125.2l75-125.3v52.3L554.6,415.3L554.6,415.3z M618.8,294.7
					c6,10.7,9.4,22.1,9.4,34.2c0,24.1-15.4,49.6-36.8,61.6c-10.1,5.4-24.1,8.8-38.2,8.8H509l-79-136.7l127.9-73L618.8,294.7z"/>
			</g>
		</g>
	</g>
</g>
</svg>
