<?xml version="1.0" encoding="utf-8" standalone="no"?>
<!DOCTYPE svg PUBLIC "-//W3C//DTD SVG 1.1//EN"
  "http://www.w3.org/Graphics/SVG/1.1/DTD/svg11.dtd">
<svg xmlns:xlink="http://www.w3.org/1999/xlink" width="570.169426pt" height="390.121051pt" viewBox="0 0 570.169426 390.121051" xmlns="http://www.w3.org/2000/svg" version="1.1">
 <metadata>
  <rdf:RDF xmlns:dc="http://purl.org/dc/elements/1.1/" xmlns:cc="http://creativecommons.org/ns#" xmlns:rdf="http://www.w3.org/1999/02/22-rdf-syntax-ns#">
   <cc:Work>
    <dc:type rdf:resource="http://purl.org/dc/dcmitype/StillImage"/>
    <dc:date>2022-09-08T14:44:05.184508</dc:date>
    <dc:format>image/svg+xml</dc:format>
    <dc:creator>
     <cc:Agent>
      <dc:title>Matplotlib v3.5.3, https://matplotlib.org/</dc:title>
     </cc:Agent>
    </dc:creator>
   </cc:Work>
  </rdf:RDF>
 </metadata>
 <defs>
  <style type="text/css">*{stroke-linejoin: round; stroke-linecap: butt}</style>
 </defs>
 <g id="figure_1">
  <g id="patch_1">
   <path d="M 0 390.121051 
L 570.169426 390.121051 
L 570.169426 0 
L 0 0 
z
" style="fill: #ffffff"/>
  </g>
  <g id="axes_1">
   <g id="patch_2">
    <path d="M 116.569426 339.84 
L 562.969426 339.84 
L 562.969426 7.2 
L 116.569426 7.2 
z
" style="fill: #ffffff"/>
   </g>
   <g id="PolyCollection_1">
    <defs>
     <path id="m7957296167" d="M 136.860336 -65.401051 
L 136.860336 -65.401051 
L 138.490127 -66.855063 
L 140.119919 -68.893618 
L 141.749711 -70.357699 
L 143.379503 -70.082028 
L 145.009295 -76.49733 
L 146.639087 -77.696755 
L 148.268879 -76.902812 
L 149.898671 -76.131133 
L 151.528463 -75.343335 
L 153.158254 -74.644942 
L 154.788046 -75.00963 
L 156.417838 -74.333063 
L 158.04763 -74.269109 
L 159.677422 -73.687177 
L 161.307214 -73.781855 
L 162.937006 -73.129361 
L 164.566798 -72.570811 
L 166.19659 -71.810014 
L 167.826382 -71.051444 
L 169.456173 -82.375788 
L 171.085965 -81.624013 
L 172.715757 -80.97284 
L 174.345549 -80.241481 
L 175.975341 -79.513816 
L 177.605133 -78.772377 
L 179.234925 -78.032813 
L 180.864717 -84.096738 
L 182.494509 -84.445456 
L 184.1243 -83.713719 
L 185.754092 -83.100823 
L 187.383884 -82.445475 
L 189.013676 -81.721524 
L 190.643468 -81.000243 
L 192.27326 -80.281419 
L 193.903052 -79.757443 
L 195.532844 -79.047101 
L 197.162636 -78.335876 
L 198.792428 -77.62883 
L 200.422219 -77.486751 
L 202.052011 -76.782848 
L 203.681803 -76.086037 
L 205.311595 -76.930827 
L 206.941387 -76.463301 
L 208.571179 -76.725374 
L 210.200971 -76.033398 
L 211.830763 -80.479171 
L 213.460555 -79.791774 
L 215.090346 -79.181676 
L 216.720138 -78.572715 
L 218.34993 -78.65284 
L 219.979722 -78.391059 
L 221.609514 -79.544451 
L 223.239306 -78.922857 
L 224.869098 -78.592791 
L 226.49889 -77.92352 
L 228.128682 -77.295822 
L 229.758474 -78.786544 
L 231.388265 -78.316272 
L 233.018057 -77.668809 
L 234.647849 -78.0721 
L 236.277641 -77.415964 
L 237.907433 -76.761618 
L 239.537225 -76.120981 
L 241.167017 -75.470893 
L 242.796809 -75.291506 
L 244.426601 -74.645476 
L 246.056392 -74.144811 
L 247.686184 -73.520995 
L 249.315976 -96.776571 
L 250.945768 -96.212743 
L 252.57556 -96.759503 
L 254.205352 -96.128012 
L 255.835144 -95.51669 
L 257.464936 -95.575173 
L 259.094728 -94.984566 
L 260.72452 -94.615836 
L 262.354311 -93.99245 
L 263.984103 -93.991987 
L 265.613895 -93.483619 
L 267.243687 -92.868844 
L 268.873479 -92.25238 
L 270.503271 -91.798361 
L 272.133063 -91.227269 
L 273.762855 -90.616728 
L 275.392647 -90.558207 
L 277.022438 -89.991117 
L 278.65223 -89.51169 
L 280.282022 -88.935821 
L 281.911814 -89.024495 
L 283.541606 -88.449815 
L 285.171398 -89.500136 
L 286.80119 -88.902873 
L 288.430982 -90.491091 
L 290.060774 -89.897312 
L 291.690566 -89.358939 
L 293.320357 -88.76945 
L 294.950149 -88.691261 
L 296.579941 -88.104296 
L 298.209733 -87.576428 
L 299.839525 -86.993003 
L 301.469317 -86.710528 
L 303.099109 -86.132886 
L 304.728901 -85.731052 
L 306.358693 -85.24857 
L 307.988484 -84.673508 
L 309.618276 -84.099789 
L 311.248068 -83.545225 
L 312.87786 -83.708 
L 314.507652 -97.19221 
L 316.137444 -97.327272 
L 317.767236 -96.796873 
L 319.397028 -96.232647 
L 321.02682 -95.888737 
L 322.656612 -95.399742 
L 324.286403 -95.210175 
L 325.916195 -95.324574 
L 327.545987 -94.768548 
L 329.175779 -94.31228 
L 330.805571 -94.430784 
L 332.435363 -94.083995 
L 334.065155 -93.534467 
L 335.694947 -92.985372 
L 337.324739 -92.437619 
L 338.95453 -91.892861 
L 340.584322 -94.252185 
L 342.214114 -93.708783 
L 343.843906 -93.612072 
L 345.473698 -93.152105 
L 347.10349 -92.613088 
L 348.733282 -92.311416 
L 350.363074 -91.807803 
L 351.992866 -91.27299 
L 353.622658 -90.747947 
L 355.252449 -90.249157 
L 356.882241 -89.802856 
L 358.512033 -89.273581 
L 360.141825 -88.811795 
L 361.771617 -88.306778 
L 363.401409 -88.044049 
L 365.031201 -87.522259 
L 366.660993 -87.003644 
L 368.290785 -86.48251 
L 369.920576 -87.546379 
L 371.550368 -87.034365 
L 373.18016 -86.578407 
L 374.809952 -86.504493 
L 376.439744 -85.99084 
L 378.069536 -85.492697 
L 379.699328 -85.0023 
L 381.32912 -84.520608 
L 382.958912 -84.015148 
L 384.588704 -83.648483 
L 386.218495 -84.77196 
L 387.848287 -87.65119 
L 389.478079 -87.14675 
L 391.107871 -86.90727 
L 392.737663 -86.525525 
L 394.367455 -86.141814 
L 395.997247 -85.644137 
L 397.627039 -85.146672 
L 399.256831 -84.649626 
L 400.886622 -84.153795 
L 402.516414 -83.838928 
L 404.146206 -83.705852 
L 405.775998 -83.214276 
L 407.40579 -86.25445 
L 409.035582 -85.764542 
L 410.665374 -85.302093 
L 412.295166 -84.814601 
L 413.924958 -84.330065 
L 415.55475 -83.960862 
L 417.184541 -83.476833 
L 418.814333 -83.523274 
L 420.444125 -83.041646 
L 422.073917 -82.561965 
L 423.703709 -87.888914 
L 425.333501 -87.410428 
L 426.963293 -86.938611 
L 428.593085 -86.463471 
L 430.222877 -85.988514 
L 431.852668 -85.521006 
L 433.48246 -85.05109 
L 435.112252 -87.495311 
L 436.742044 -87.3028 
L 438.371836 -86.833167 
L 440.001628 -87.120136 
L 441.63142 -86.659028 
L 443.261212 -86.199432 
L 444.891004 -85.743611 
L 446.520796 -85.279279 
L 448.150587 -85.24951 
L 449.780379 -84.78755 
L 451.410171 -84.814103 
L 453.039963 -84.354398 
L 454.669755 -83.896276 
L 456.299547 -83.875876 
L 457.929339 -83.419069 
L 459.559131 -82.963652 
L 461.188923 -82.509061 
L 462.818714 -82.055124 
L 464.448506 -81.717813 
L 466.078298 -81.559102 
L 467.70809 -81.108345 
L 469.337882 -80.890414 
L 470.967674 -80.44145 
L 472.597466 -79.993468 
L 474.227258 -79.546578 
L 475.85705 -79.112596 
L 477.486842 -78.667558 
L 479.116633 -78.226109 
L 480.746425 -78.698365 
L 482.376217 -78.25622 
L 484.006009 -77.842435 
L 485.635801 -77.62304 
L 487.265593 -77.18675 
L 488.895385 -76.754451 
L 490.525177 -78.263946 
L 492.154969 -80.91611 
L 493.78476 -81.177548 
L 495.414552 -80.74552 
L 497.044344 -80.513193 
L 498.674136 -80.084293 
L 500.303928 -85.148056 
L 501.93372 -86.030826 
L 503.563512 -85.600668 
L 505.193304 -85.194031 
L 506.823096 -85.261624 
L 508.452888 -84.857237 
L 510.082679 -84.483263 
L 511.712471 -84.145284 
L 513.342263 -84.088847 
L 514.972055 -83.751713 
L 516.601847 -87.060752 
L 518.231639 -87.233679 
L 519.861431 -87.531394 
L 521.491223 -87.151323 
L 523.121015 -86.731927 
L 524.750806 -93.959178 
L 526.380598 -93.608829 
L 528.01039 -93.484126 
L 529.640182 -93.067871 
L 531.269974 -94.531498 
L 532.899766 -94.116919 
L 534.529558 -93.813303 
L 536.15935 -93.40042 
L 537.789142 -92.994701 
L 539.418934 -92.591616 
L 541.048725 -92.195797 
L 542.678517 -91.786267 
L 542.678517 -91.786267 
L 542.678517 -306.292749 
L 541.048725 -306.547179 
L 539.418934 -306.75906 
L 537.789142 -306.801848 
L 536.15935 -307.184598 
L 534.529558 -307.548864 
L 532.899766 -307.938149 
L 531.269974 -308.098735 
L 529.640182 -306.666398 
L 528.01039 -306.91512 
L 526.380598 -307.334849 
L 524.750806 -306.721285 
L 523.121015 -307.14294 
L 521.491223 -307.564861 
L 519.861431 -307.588733 
L 518.231639 -307.072472 
L 516.601847 -307.482562 
L 514.972055 -307.90857 
L 513.342263 -308.33376 
L 511.712471 -308.761585 
L 510.082679 -309.164119 
L 508.452888 -309.58711 
L 506.823096 -309.960923 
L 505.193304 -310.33154 
L 503.563512 -310.751853 
L 501.93372 -311.137458 
L 500.303928 -311.459578 
L 498.674136 -311.876189 
L 497.044344 -312.31105 
L 495.414552 -312.747716 
L 493.78476 -313.146016 
L 492.154969 -313.567198 
L 490.525177 -314.006974 
L 488.895385 -314.436831 
L 487.265593 -314.81029 
L 485.635801 -315.071096 
L 484.006009 -315.483152 
L 482.376217 -315.408236 
L 480.746425 -315.849713 
L 479.116633 -316.173283 
L 477.486842 -316.158092 
L 475.85705 -316.520882 
L 474.227258 -316.959243 
L 472.597466 -317.402363 
L 470.967674 -317.635864 
L 469.337882 -317.879824 
L 467.70809 -317.450625 
L 466.078298 -317.602263 
L 464.448506 -318.057568 
L 462.818714 -318.45635 
L 461.188923 -316.364084 
L 459.559131 -316.821037 
L 457.929339 -316.422475 
L 456.299547 -316.824762 
L 454.669755 -317.284487 
L 453.039963 -317.355879 
L 451.410171 -317.819366 
L 449.780379 -316.386862 
L 448.150587 -316.464204 
L 446.520796 -316.860146 
L 444.891004 -316.834547 
L 443.261212 -315.972789 
L 441.63142 -315.386979 
L 440.001628 -315.857813 
L 438.371836 -315.725094 
L 436.742044 -316.19732 
L 435.112252 -316.612034 
L 433.48246 -316.267505 
L 431.852668 -316.230991 
L 430.222877 -316.594124 
L 428.593085 -316.731045 
L 426.963293 -317.206263 
L 425.333501 -317.610558 
L 423.703709 -317.930833 
L 422.073917 -316.833805 
L 420.444125 -317.318054 
L 418.814333 -317.403912 
L 417.184541 -317.883845 
L 415.55475 -317.693932 
L 413.924958 -317.686041 
L 412.295166 -312.987672 
L 410.665374 -311.544126 
L 409.035582 -311.033021 
L 407.40579 -307.494149 
L 405.775998 -306.768396 
L 404.146206 -307.175398 
L 402.516414 -307.439072 
L 400.886622 -307.937245 
L 399.256831 -308.43648 
L 397.627039 -308.928067 
L 395.997247 -309.372339 
L 394.367455 -309.702645 
L 392.737663 -309.55089 
L 391.107871 -307.52221 
L 389.478079 -308.001306 
L 387.848287 -308.50843 
L 386.218495 -306.175975 
L 384.588704 -306.379552 
L 382.958912 -306.738985 
L 381.32912 -307.207102 
L 379.699328 -307.721432 
L 378.069536 -308.199372 
L 376.439744 -308.692894 
L 374.809952 -309.045566 
L 373.18016 -309.295147 
L 371.550368 -309.810836 
L 369.920576 -307.475984 
L 368.290785 -307.328111 
L 366.660993 -307.846437 
L 365.031201 -308.369996 
L 363.401409 -308.728922 
L 361.771617 -309.257537 
L 360.141825 -309.369034 
L 358.512033 -309.898213 
L 356.882241 -310.428522 
L 355.252449 -310.962932 
L 353.622658 -310.620761 
L 351.992866 -310.083566 
L 350.363074 -309.40868 
L 348.733282 -309.945828 
L 347.10349 -310.486086 
L 345.473698 -311.028946 
L 343.843906 -310.845101 
L 342.214114 -311.352715 
L 340.584322 -311.892649 
L 338.95453 -312.428675 
L 337.324739 -312.902646 
L 335.694947 -313.343368 
L 334.065155 -312.432389 
L 332.435363 -312.149631 
L 330.805571 -312.384979 
L 329.175779 -312.555613 
L 327.545987 -313.081064 
L 325.916195 -313.641638 
L 324.286403 -313.918332 
L 322.656612 -314.448849 
L 321.02682 -314.729099 
L 319.397028 -315.29593 
L 317.767236 -315.790756 
L 316.137444 -316.346983 
L 314.507652 -316.897891 
L 312.87786 -317.46475 
L 311.248068 -317.984649 
L 309.618276 -318.528836 
L 307.988484 -319.072853 
L 306.358693 -319.515562 
L 304.728901 -315.586547 
L 303.099109 -316.137541 
L 301.469317 -315.983244 
L 299.839525 -316.564626 
L 298.209733 -316.842761 
L 296.579941 -317.198901 
L 294.950149 -317.72055 
L 293.320357 -318.311235 
L 291.690566 -318.163812 
L 290.060774 -311.049429 
L 288.430982 -310.172001 
L 286.80119 -310.765999 
L 285.171398 -311.301645 
L 283.541606 -311.735205 
L 281.911814 -311.635948 
L 280.282022 -312.241738 
L 278.65223 -312.735155 
L 277.022438 -313.345542 
L 275.392647 -313.120595 
L 273.762855 -313.676797 
L 272.133063 -314.153683 
L 270.503271 -314.766087 
L 268.873479 -315.030405 
L 267.243687 -315.644553 
L 265.613895 -310.560388 
L 263.984103 -311.1785 
L 262.354311 -311.787455 
L 260.72452 -312.414454 
L 259.094728 -312.996056 
L 257.464936 -313.628923 
L 255.835144 -314.255121 
L 254.205352 -312.214976 
L 252.57556 -312.838957 
L 250.945768 -313.248274 
L 249.315976 -313.745169 
L 247.686184 -312.296486 
L 246.056392 -312.941375 
L 244.426601 -313.005398 
L 242.796809 -313.629708 
L 241.167017 -313.860048 
L 239.537225 -314.350037 
L 237.907433 -315.007143 
L 236.277641 -315.648734 
L 234.647849 -316.072937 
L 233.018057 -316.709279 
L 231.388265 -317.375048 
L 229.758474 -315.254771 
L 228.128682 -315.415475 
L 226.49889 -316.0869 
L 224.869098 -312.622839 
L 223.239306 -306.607003 
L 221.609514 -306.701582 
L 219.979722 -307.382147 
L 218.34993 -307.437912 
L 216.720138 -308.080164 
L 215.090346 -308.747014 
L 213.460555 -309.388907 
L 211.830763 -310.071975 
L 210.200971 -310.473725 
L 208.571179 -310.989501 
L 206.941387 -310.143108 
L 205.311595 -310.806964 
L 203.681803 -311.387432 
L 202.052011 -311.850712 
L 200.422219 -312.390355 
L 198.792428 -313.102011 
L 197.162636 -313.655112 
L 195.532844 -312.745869 
L 193.903052 -313.455657 
L 192.27326 -314.166518 
L 190.643468 -314.381696 
L 189.013676 -314.567811 
L 187.383884 -315.098884 
L 185.754092 -315.830733 
L 184.1243 -316.563378 
L 182.494509 -317.108447 
L 180.864717 -317.829879 
L 179.234925 -318.347006 
L 177.605133 -319.072533 
L 175.975341 -313.336511 
L 174.345549 -313.782651 
L 172.715757 -309.046261 
L 171.085965 -309.417102 
L 169.456173 -310.147348 
L 167.826382 -309.904786 
L 166.19659 -310.13857 
L 164.566798 -310.839574 
L 162.937006 -311.041681 
L 161.307214 -308.258126 
L 159.677422 -306.456292 
L 158.04763 -307.234879 
L 156.417838 -307.183301 
L 154.788046 -307.904492 
L 153.158254 -296.588367 
L 151.528463 -297.267196 
L 149.898671 -297.873519 
L 148.268879 -298.61343 
L 146.639087 -299.403776 
L 145.009295 -300.146503 
L 143.379503 -300.856556 
L 141.749711 -300.58391 
L 140.119919 -300.857444 
L 138.490127 -300.727841 
L 136.860336 -300.328422 
z
" style="stroke: #ff0000; stroke-opacity: 0.3"/>
    </defs>
    <g clip-path="url(#pd3345e1e86)">
     <use xlink:href="#m7957296167" x="0" y="390.121051" style="fill: #ff0000; fill-opacity: 0.3; stroke: #ff0000; stroke-opacity: 0.3"/>
    </g>
   </g>
   <g id="PolyCollection_2">
    <defs>
     <path id="mb4b8613f0a" d="M 136.860336 -320.269518 
L 136.860336 -320.269518 
L 138.490127 -319.538952 
L 140.119919 -319.737812 
L 141.749711 -319.710729 
L 143.379503 -318.939397 
L 145.009295 -319.464586 
L 146.639087 -319.695817 
L 148.268879 -320.332924 
L 149.898671 -319.581161 
L 151.528463 -318.821893 
L 153.158254 -318.167203 
L 154.788046 -317.383327 
L 156.417838 -316.845338 
L 158.04763 -317.018998 
L 159.677422 -319.849205 
L 161.307214 -322.412919 
L 162.937006 -331.069448 
L 164.566798 -330.618729 
L 166.19659 -330.489862 
L 167.826382 -330.189614 
L 169.456173 -329.75214 
L 171.085965 -329.043787 
L 172.715757 -328.309319 
L 174.345549 -327.556032 
L 175.975341 -328.16094 
L 177.605133 -329.506305 
L 179.234925 -330.018255 
L 180.864717 -329.309175 
L 182.494509 -329.928903 
L 184.1243 -329.200694 
L 185.754092 -328.571359 
L 187.383884 -327.850999 
L 189.013676 -327.122097 
L 190.643468 -326.625747 
L 192.27326 -325.909382 
L 193.903052 -326.089816 
L 195.532844 -325.677698 
L 197.162636 -324.966304 
L 198.792428 -324.367791 
L 200.422219 -323.824292 
L 202.052011 -323.115951 
L 203.681803 -328.475548 
L 205.311595 -327.915574 
L 206.941387 -327.459163 
L 208.571179 -326.846214 
L 210.200971 -326.15655 
L 211.830763 -325.474721 
L 213.460555 -324.977532 
L 215.090346 -324.536773 
L 216.720138 -324.040664 
L 218.34993 -323.634261 
L 219.979722 -323.342866 
L 221.609514 -323.058216 
L 223.239306 -322.453553 
L 224.869098 -322.609151 
L 226.49889 -325.028215 
L 228.128682 -324.36198 
L 229.758474 -323.976484 
L 231.388265 -324.723467 
L 233.018057 -324.066343 
L 234.647849 -325.082053 
L 236.277641 -325.117049 
L 237.907433 -328.01293 
L 239.537225 -329.566703 
L 241.167017 -328.945528 
L 242.796809 -328.306764 
L 244.426601 -327.659642 
L 246.056392 -327.010528 
L 247.686184 -326.367459 
L 249.315976 -325.770411 
L 250.945768 -325.69371 
L 252.57556 -325.47758 
L 254.205352 -325.005848 
L 255.835144 -324.371087 
L 257.464936 -323.788767 
L 259.094728 -323.158273 
L 260.72452 -322.903405 
L 262.354311 -322.94975 
L 263.984103 -322.329721 
L 265.613895 -321.729756 
L 267.243687 -327.244836 
L 268.873479 -330.398222 
L 270.503271 -335.12095 
L 272.133063 -341.132902 
L 273.762855 -340.617585 
L 275.392647 -340.025929 
L 277.022438 -341.755005 
L 278.65223 -342.602535 
L 280.282022 -342.147629 
L 281.911814 -342.152022 
L 283.541606 -341.554071 
L 285.171398 -341.997112 
L 286.80119 -341.579202 
L 288.430982 -341.00478 
L 290.060774 -340.406233 
L 291.690566 -339.809448 
L 293.320357 -339.257106 
L 294.950149 -338.674713 
L 296.579941 -338.086928 
L 298.209733 -337.524715 
L 299.839525 -337.332167 
L 301.469317 -337.595799 
L 303.099109 -337.138171 
L 304.728901 -336.603849 
L 306.358693 -336.323332 
L 307.988484 -336.151079 
L 309.618276 -335.574349 
L 311.248068 -336.631178 
L 312.87786 -336.678972 
L 314.507652 -336.437481 
L 316.137444 -335.87184 
L 317.767236 -338.48239 
L 319.397028 -338.005294 
L 321.02682 -337.445905 
L 322.656612 -336.887018 
L 324.286403 -336.332282 
L 325.916195 -335.804695 
L 327.545987 -335.256381 
L 329.175779 -334.77966 
L 330.805571 -334.282787 
L 332.435363 -333.728761 
L 334.065155 -335.366613 
L 335.694947 -334.821899 
L 337.324739 -335.0097 
L 338.95453 -334.976555 
L 340.584322 -334.442621 
L 342.214114 -334.262924 
L 343.843906 -333.764131 
L 345.473698 -333.219703 
L 347.10349 -334.405032 
L 348.733282 -333.865965 
L 350.363074 -333.574074 
L 351.992866 -333.181956 
L 353.622658 -332.647702 
L 355.252449 -332.46316 
L 356.882241 -331.929257 
L 358.512033 -331.631513 
L 360.141825 -331.125479 
L 361.771617 -330.633892 
L 363.401409 -330.211074 
L 365.031201 -329.789562 
L 366.660993 -329.326994 
L 368.290785 -328.808406 
L 369.920576 -328.290025 
L 371.550368 -327.778788 
L 373.18016 -328.002623 
L 374.809952 -327.605198 
L 376.439744 -327.546447 
L 378.069536 -327.30877 
L 379.699328 -327.532409 
L 381.32912 -335.065846 
L 382.958912 -335.131516 
L 384.588704 -334.711024 
L 386.218495 -334.649783 
L 387.848287 -334.386532 
L 389.478079 -334.780754 
L 391.107871 -334.303697 
L 392.737663 -334.074364 
L 394.367455 -333.797245 
L 395.997247 -333.326864 
L 397.627039 -332.855493 
L 399.256831 -332.450947 
L 400.886622 -332.24047 
L 402.516414 -331.775114 
L 404.146206 -331.546044 
L 405.775998 -331.058209 
L 407.40579 -330.569674 
L 409.035582 -330.189769 
L 410.665374 -329.713858 
L 412.295166 -330.03206 
L 413.924958 -329.548075 
L 415.55475 -329.487199 
L 417.184541 -329.054209 
L 418.814333 -328.581563 
L 420.444125 -329.23248 
L 422.073917 -328.75743 
L 423.703709 -328.357421 
L 425.333501 -328.322551 
L 426.963293 -327.854046 
L 428.593085 -327.598291 
L 430.222877 -327.123278 
L 431.852668 -326.707327 
L 433.48246 -326.232633 
L 435.112252 -325.759087 
L 436.742044 -325.43483 
L 438.371836 -329.194162 
L 440.001628 -328.722245 
L 441.63142 -328.394646 
L 443.261212 -328.284332 
L 444.891004 -330.661107 
L 446.520796 -330.246886 
L 448.150587 -329.780223 
L 449.780379 -329.34428 
L 451.410171 -328.888012 
L 453.039963 -328.432236 
L 454.669755 -327.985434 
L 456.299547 -327.536015 
L 457.929339 -327.159483 
L 459.559131 -327.027191 
L 461.188923 -326.79202 
L 462.818714 -326.343736 
L 464.448506 -325.987683 
L 466.078298 -325.589781 
L 467.70809 -325.141504 
L 469.337882 -324.710595 
L 470.967674 -324.259044 
L 472.597466 -323.807633 
L 474.227258 -323.645107 
L 475.85705 -323.209932 
L 477.486842 -322.903235 
L 479.116633 -322.455995 
L 480.746425 -322.022014 
L 482.376217 -321.634584 
L 484.006009 -322.527674 
L 485.635801 -322.162154 
L 487.265593 -321.727593 
L 488.895385 -321.289936 
L 490.525177 -320.902376 
L 492.154969 -320.504039 
L 493.78476 -320.290498 
L 495.414552 -319.8843 
L 497.044344 -319.67093 
L 498.674136 -319.258988 
L 500.303928 -318.824382 
L 501.93372 -321.123159 
L 503.563512 -320.768033 
L 505.193304 -321.448168 
L 506.823096 -321.229027 
L 508.452888 -320.837937 
L 510.082679 -320.483734 
L 511.712471 -320.144185 
L 513.342263 -319.856006 
L 514.972055 -319.461729 
L 516.601847 -319.035522 
L 518.231639 -318.826541 
L 519.861431 -319.375421 
L 521.491223 -319.009133 
L 523.121015 -318.587397 
L 524.750806 -318.166137 
L 526.380598 -318.43215 
L 528.01039 -318.049172 
L 529.640182 -320.779847 
L 531.269974 -320.365749 
L 532.899766 -319.978097 
L 534.529558 -319.571094 
L 536.15935 -319.166941 
L 537.789142 -318.753029 
L 539.418934 -318.339 
L 541.048725 -318.0898 
L 542.678517 -317.684869 
L 542.678517 -317.684869 
L 542.678517 -346.297853 
L 541.048725 -346.625979 
L 539.418934 -346.404833 
L 537.789142 -346.688666 
L 536.15935 -346.792613 
L 534.529558 -347.142982 
L 532.899766 -347.557391 
L 531.269974 -347.09842 
L 529.640182 -347.107781 
L 528.01039 -347.409426 
L 526.380598 -347.829259 
L 524.750806 -347.723497 
L 523.121015 -347.511506 
L 521.491223 -347.910725 
L 519.861431 -348.332132 
L 518.231639 -348.740793 
L 516.601847 -348.980261 
L 514.972055 -346.736087 
L 513.342263 -341.296583 
L 511.712471 -341.724717 
L 510.082679 -342.122256 
L 508.452888 -342.550262 
L 506.823096 -342.801806 
L 505.193304 -343.227898 
L 503.563512 -343.48277 
L 501.93372 -340.001815 
L 500.303928 -340.252266 
L 498.674136 -340.687391 
L 497.044344 -340.688174 
L 495.414552 -340.978106 
L 493.78476 -341.409533 
L 492.154969 -341.255415 
L 490.525177 -341.347898 
L 488.895385 -341.750148 
L 487.265593 -342.019063 
L 485.635801 -342.430428 
L 484.006009 -342.693764 
L 482.376217 -343.116457 
L 480.746425 -343.367926 
L 479.116633 -343.814348 
L 477.486842 -344.126921 
L 475.85705 -344.433729 
L 474.227258 -344.859662 
L 472.597466 -345.310455 
L 470.967674 -345.691113 
L 469.337882 -345.031933 
L 467.70809 -345.456179 
L 466.078298 -345.863956 
L 464.448506 -342.651742 
L 462.818714 -342.400281 
L 461.188923 -342.699141 
L 459.559131 -342.770026 
L 457.929339 -343.210138 
L 456.299547 -343.667132 
L 454.669755 -343.916156 
L 453.039963 -344.325113 
L 451.410171 -344.733272 
L 449.780379 -345.088436 
L 448.150587 -345.513919 
L 446.520796 -345.981053 
L 444.891004 -346.015074 
L 443.261212 -346.043534 
L 441.63142 -346.497323 
L 440.001628 -346.918699 
L 438.371836 -345.528433 
L 436.742044 -345.965731 
L 435.112252 -345.584894 
L 433.48246 -346.027069 
L 431.852668 -346.503792 
L 430.222877 -346.607279 
L 428.593085 -347.054652 
L 426.963293 -347.514298 
L 425.333501 -347.985596 
L 423.703709 -347.089537 
L 422.073917 -347.352144 
L 420.444125 -347.48717 
L 418.814333 -346.268143 
L 417.184541 -346.60633 
L 415.55475 -347.093029 
L 413.924958 -347.541399 
L 412.295166 -347.692946 
L 410.665374 -341.046318 
L 409.035582 -341.507449 
L 407.40579 -339.423832 
L 405.775998 -339.16272 
L 404.146206 -339.531625 
L 402.516414 -340.029042 
L 400.886622 -340.479951 
L 399.256831 -340.977175 
L 397.627039 -340.686272 
L 395.997247 -340.990063 
L 394.367455 -336.343124 
L 392.737663 -335.60385 
L 391.107871 -335.938507 
L 389.478079 -336.370025 
L 387.848287 -335.234758 
L 386.218495 -335.662734 
L 384.588704 -335.690102 
L 382.958912 -336.163742 
L 381.32912 -336.65622 
L 379.699328 -334.863401 
L 378.069536 -334.924505 
L 376.439744 -335.422468 
L 374.809952 -335.930575 
L 373.18016 -336.445996 
L 371.550368 -336.724458 
L 369.920576 -337.222999 
L 368.290785 -337.602802 
L 366.660993 -338.126195 
L 365.031201 -336.646959 
L 363.401409 -336.976639 
L 361.771617 -337.354677 
L 360.141825 -337.496205 
L 358.512033 -336.691256 
L 356.882241 -337.224488 
L 355.252449 -337.485204 
L 353.622658 -337.571796 
L 351.992866 -338.020424 
L 350.363074 -338.144653 
L 348.733282 -338.348045 
L 347.10349 -338.889518 
L 345.473698 -336.852053 
L 343.843906 -337.343156 
L 342.214114 -337.63052 
L 340.584322 -337.315874 
L 338.95453 -337.029813 
L 337.324739 -337.209416 
L 335.694947 -337.389826 
L 334.065155 -337.913084 
L 332.435363 -338.461795 
L 330.805571 -338.950706 
L 329.175779 -339.47913 
L 327.545987 -339.907748 
L 325.916195 -340.269733 
L 324.286403 -340.521335 
L 322.656612 -341.050658 
L 321.02682 -339.907406 
L 319.397028 -338.842801 
L 317.767236 -338.974886 
L 316.137444 -339.494032 
L 314.507652 -339.644004 
L 312.87786 -338.855845 
L 311.248068 -339.430309 
L 309.618276 -338.929605 
L 307.988484 -339.427417 
L 306.358693 -339.766807 
L 304.728901 -340.347417 
L 303.099109 -340.928652 
L 301.469317 -341.479413 
L 299.839525 -342.058508 
L 298.209733 -342.645977 
L 296.579941 -342.285108 
L 294.950149 -342.872211 
L 293.320357 -343.433495 
L 291.690566 -344.007399 
L 290.060774 -341.907082 
L 288.430982 -342.499237 
L 286.80119 -342.706524 
L 285.171398 -343.308018 
L 283.541606 -341.904447 
L 281.911814 -342.49603 
L 280.282022 -343.012679 
L 278.65223 -343.610405 
L 277.022438 -342.086831 
L 275.392647 -342.426102 
L 273.762855 -342.782636 
L 272.133063 -343.39775 
L 270.503271 -343.406619 
L 268.873479 -343.554866 
L 267.243687 -343.863017 
L 265.613895 -344.3844 
L 263.984103 -344.978765 
L 262.354311 -345.518205 
L 260.72452 -346.145295 
L 259.094728 -346.765778 
L 257.464936 -347.213425 
L 255.835144 -347.320246 
L 254.205352 -346.80619 
L 252.57556 -347.083278 
L 250.945768 -347.614966 
L 249.315976 -348.202503 
L 247.686184 -348.279731 
L 246.056392 -348.555769 
L 244.426601 -349.138937 
L 242.796809 -349.281795 
L 241.167017 -349.334525 
L 239.537225 -348.488761 
L 237.907433 -349.088554 
L 236.277641 -349.708648 
L 234.647849 -350.36873 
L 233.018057 -348.072112 
L 231.388265 -348.737454 
L 229.758474 -349.404523 
L 228.128682 -350.064454 
L 226.49889 -350.563485 
L 224.869098 -351.032195 
L 223.239306 -351.70622 
L 221.609514 -352.197505 
L 219.979722 -352.851781 
L 218.34993 -353.531065 
L 216.720138 -354.074469 
L 215.090346 -352.87448 
L 213.460555 -353.49091 
L 211.830763 -354.177474 
L 210.200971 -354.851148 
L 208.571179 -353.067131 
L 206.941387 -351.08798 
L 205.311595 -351.687857 
L 203.681803 -351.701486 
L 202.052011 -351.83583 
L 200.422219 -352.545827 
L 198.792428 -353.153292 
L 197.162636 -353.82126 
L 195.532844 -353.873914 
L 193.903052 -354.374839 
L 192.27326 -355.094978 
L 190.643468 -355.562904 
L 189.013676 -356.28231 
L 187.383884 -357.01254 
L 185.754092 -357.569099 
L 184.1243 -358.273692 
L 182.494509 -358.581532 
L 180.864717 -358.645324 
L 179.234925 -359.13279 
L 177.605133 -359.313315 
L 175.975341 -359.924374 
L 174.345549 -360.664702 
L 172.715757 -361.406383 
L 171.085965 -362.11012 
L 169.456173 -362.50518 
L 167.826382 -363.217381 
L 166.19659 -363.938433 
L 164.566798 -364.687666 
L 162.937006 -365.239091 
L 161.307214 -365.796494 
L 159.677422 -366.295542 
L 158.04763 -366.876387 
L 156.417838 -367.1466 
L 154.788046 -367.578399 
L 153.158254 -367.801051 
L 151.528463 -359.762252 
L 149.898671 -360.469926 
L 148.268879 -361.241696 
L 146.639087 -359.619854 
L 145.009295 -359.463687 
L 143.379503 -348.308363 
L 141.749711 -348.052821 
L 140.119919 -348.862894 
L 138.490127 -349.245507 
L 136.860336 -349.957597 
z
" style="stroke: #0000ff; stroke-opacity: 0.3"/>
    </defs>
    <g clip-path="url(#pd3345e1e86)">
     <use xlink:href="#mb4b8613f0a" x="0" y="390.121051" style="fill: #0000ff; fill-opacity: 0.3; stroke: #0000ff; stroke-opacity: 0.3"/>
    </g>
   </g>
   <g id="matplotlib.axis_1">
    <g id="xtick_1">
     <g id="line2d_1">
      <path d="M 136.860336 339.84 
L 136.860336 7.2 
" clip-path="url(#pd3345e1e86)" style="fill: none; stroke: #b0b0b0; stroke-width: 0.8; stroke-linecap: square"/>
     </g>
     <g id="line2d_2">
      <defs>
       <path id="m966dec6b04" d="M 0 0 
L 0 3.5 
" style="stroke: #000000; stroke-width: 0.8"/>
      </defs>
      <g>
       <use xlink:href="#m966dec6b04" x="136.860336" y="339.84" style="stroke: #000000; stroke-width: 0.8"/>
      </g>
     </g>
     <g id="text_1">
      <!-- $\mathdefault{250}$ -->
      <g transform="translate(123.410771 358.998234)scale(0.18 -0.18)">
       <defs>
        <path id="NimbusRomNo9L-Regu-32" d="M 3040 879 
L 2957 912 
C 2720 544 2637 486 2349 486 
L 819 486 
L 1894 1621 
C 2464 2221 2714 2711 2714 3214 
C 2714 3858 2195 4352 1530 4352 
C 1178 4352 845 4211 608 3955 
C 403 3736 307 3530 198 3072 
L 333 3039 
C 589 3671 819 3878 1261 3878 
C 1798 3878 2163 3510 2163 2969 
C 2163 2466 1869 1866 1331 1292 
L 192 76 
L 192 0 
L 2688 0 
L 3040 879 
z
" transform="scale(0.015625)"/>
        <path id="NimbusRomNo9L-Regu-35" d="M 1158 3718 
L 2413 3718 
C 2515 3718 2541 3731 2560 3775 
L 2803 4345 
L 2746 4390 
C 2650 4256 2586 4224 2451 4224 
L 1114 4224 
L 416 2717 
C 410 2705 410 2698 410 2686 
C 410 2654 435 2635 486 2635 
C 691 2635 947 2591 1210 2508 
C 1946 2274 2285 1882 2285 1255 
C 2285 647 1894 172 1395 172 
C 1267 172 1158 217 966 356 
C 762 502 614 565 480 565 
C 294 565 205 489 205 331 
C 205 89 506 -64 986 -64 
C 1523 -64 1984 108 2304 432 
C 2598 717 2733 1078 2733 1559 
C 2733 2015 2611 2306 2291 2622 
C 2010 2901 1645 3047 890 3180 
L 1158 3718 
z
" transform="scale(0.015625)"/>
        <path id="NimbusRomNo9L-Regu-30" d="M 1626 4352 
C 1274 4352 1005 4243 768 4019 
C 397 3661 154 2924 154 2176 
C 154 1478 365 729 666 371 
C 902 89 1229 -64 1600 -64 
C 1926 -64 2202 44 2432 268 
C 2803 620 3046 1363 3046 2137 
C 3046 3449 2464 4352 1626 4352 
z
M 1606 4185 
C 2144 4185 2432 3462 2432 2124 
C 2432 787 2150 102 1600 102 
C 1050 102 768 787 768 2118 
C 768 3475 1056 4185 1606 4185 
z
" transform="scale(0.015625)"/>
       </defs>
       <use xlink:href="#NimbusRomNo9L-Regu-32" transform="scale(0.996264)"/>
       <use xlink:href="#NimbusRomNo9L-Regu-35" transform="translate(49.8132 0)scale(0.996264)"/>
       <use xlink:href="#NimbusRomNo9L-Regu-30" transform="translate(99.626401 0)scale(0.996264)"/>
      </g>
     </g>
    </g>
    <g id="xtick_2">
     <g id="line2d_3">
      <path d="M 218.34993 339.84 
L 218.34993 7.2 
" clip-path="url(#pd3345e1e86)" style="fill: none; stroke: #b0b0b0; stroke-width: 0.8; stroke-linecap: square"/>
     </g>
     <g id="line2d_4">
      <g>
       <use xlink:href="#m966dec6b04" x="218.34993" y="339.84" style="stroke: #000000; stroke-width: 0.8"/>
      </g>
     </g>
     <g id="text_2">
      <!-- $\mathdefault{300}$ -->
      <g transform="translate(204.900366 358.998234)scale(0.18 -0.18)">
       <defs>
        <path id="NimbusRomNo9L-Regu-33" d="M 979 2137 
C 1357 2137 1504 2124 1658 2067 
C 2054 1926 2304 1561 2304 1120 
C 2304 582 1939 166 1466 166 
C 1293 166 1165 211 928 364 
C 736 480 627 524 518 524 
C 371 524 275 435 275 300 
C 275 76 550 -64 998 -64 
C 1491 -64 1997 102 2298 364 
C 2598 627 2765 998 2765 1427 
C 2765 1753 2662 2054 2477 2252 
C 2349 2393 2227 2470 1946 2592 
C 2387 2892 2547 3129 2547 3475 
C 2547 3993 2138 4352 1549 4352 
C 1229 4352 947 4243 717 4038 
C 525 3865 429 3699 288 3315 
L 384 3289 
C 646 3757 934 3967 1338 3967 
C 1754 3967 2042 3686 2042 3283 
C 2042 3052 1946 2822 1786 2662 
C 1594 2470 1414 2374 979 2220 
L 979 2137 
z
" transform="scale(0.015625)"/>
       </defs>
       <use xlink:href="#NimbusRomNo9L-Regu-33" transform="scale(0.996264)"/>
       <use xlink:href="#NimbusRomNo9L-Regu-30" transform="translate(49.8132 0)scale(0.996264)"/>
       <use xlink:href="#NimbusRomNo9L-Regu-30" transform="translate(99.626401 0)scale(0.996264)"/>
      </g>
     </g>
    </g>
    <g id="xtick_3">
     <g id="line2d_5">
      <path d="M 299.839525 339.84 
L 299.839525 7.2 
" clip-path="url(#pd3345e1e86)" style="fill: none; stroke: #b0b0b0; stroke-width: 0.8; stroke-linecap: square"/>
     </g>
     <g id="line2d_6">
      <g>
       <use xlink:href="#m966dec6b04" x="299.839525" y="339.84" style="stroke: #000000; stroke-width: 0.8"/>
      </g>
     </g>
     <g id="text_3">
      <!-- $\mathdefault{350}$ -->
      <g transform="translate(286.389961 358.998234)scale(0.18 -0.18)">
       <use xlink:href="#NimbusRomNo9L-Regu-33" transform="scale(0.996264)"/>
       <use xlink:href="#NimbusRomNo9L-Regu-35" transform="translate(49.8132 0)scale(0.996264)"/>
       <use xlink:href="#NimbusRomNo9L-Regu-30" transform="translate(99.626401 0)scale(0.996264)"/>
      </g>
     </g>
    </g>
    <g id="xtick_4">
     <g id="line2d_7">
      <path d="M 381.32912 339.84 
L 381.32912 7.2 
" clip-path="url(#pd3345e1e86)" style="fill: none; stroke: #b0b0b0; stroke-width: 0.8; stroke-linecap: square"/>
     </g>
     <g id="line2d_8">
      <g>
       <use xlink:href="#m966dec6b04" x="381.32912" y="339.84" style="stroke: #000000; stroke-width: 0.8"/>
      </g>
     </g>
     <g id="text_4">
      <!-- $\mathdefault{400}$ -->
      <g transform="translate(367.879556 358.998234)scale(0.18 -0.18)">
       <defs>
        <path id="NimbusRomNo9L-Regu-34" d="M 3021 1497 
L 2368 1497 
L 2368 4352 
L 2086 4352 
L 77 1497 
L 77 1088 
L 1875 1088 
L 1875 0 
L 2368 0 
L 2368 1088 
L 3021 1088 
L 3021 1497 
z
M 1869 1497 
L 333 1497 
L 1869 3697 
L 1869 1497 
z
" transform="scale(0.015625)"/>
       </defs>
       <use xlink:href="#NimbusRomNo9L-Regu-34" transform="scale(0.996264)"/>
       <use xlink:href="#NimbusRomNo9L-Regu-30" transform="translate(49.8132 0)scale(0.996264)"/>
       <use xlink:href="#NimbusRomNo9L-Regu-30" transform="translate(99.626401 0)scale(0.996264)"/>
      </g>
     </g>
    </g>
    <g id="xtick_5">
     <g id="line2d_9">
      <path d="M 462.818714 339.84 
L 462.818714 7.2 
" clip-path="url(#pd3345e1e86)" style="fill: none; stroke: #b0b0b0; stroke-width: 0.8; stroke-linecap: square"/>
     </g>
     <g id="line2d_10">
      <g>
       <use xlink:href="#m966dec6b04" x="462.818714" y="339.84" style="stroke: #000000; stroke-width: 0.8"/>
      </g>
     </g>
     <g id="text_5">
      <!-- $\mathdefault{450}$ -->
      <g transform="translate(449.36915 358.998234)scale(0.18 -0.18)">
       <use xlink:href="#NimbusRomNo9L-Regu-34" transform="scale(0.996264)"/>
       <use xlink:href="#NimbusRomNo9L-Regu-35" transform="translate(49.8132 0)scale(0.996264)"/>
       <use xlink:href="#NimbusRomNo9L-Regu-30" transform="translate(99.626401 0)scale(0.996264)"/>
      </g>
     </g>
    </g>
    <g id="xtick_6">
     <g id="line2d_11">
      <path d="M 544.308309 339.84 
L 544.308309 7.2 
" clip-path="url(#pd3345e1e86)" style="fill: none; stroke: #b0b0b0; stroke-width: 0.8; stroke-linecap: square"/>
     </g>
     <g id="line2d_12">
      <g>
       <use xlink:href="#m966dec6b04" x="544.308309" y="339.84" style="stroke: #000000; stroke-width: 0.8"/>
      </g>
     </g>
     <g id="text_6">
      <!-- $\mathdefault{500}$ -->
      <g transform="translate(530.858745 358.998234)scale(0.18 -0.18)">
       <use xlink:href="#NimbusRomNo9L-Regu-35" transform="scale(0.996264)"/>
       <use xlink:href="#NimbusRomNo9L-Regu-30" transform="translate(49.8132 0)scale(0.996264)"/>
       <use xlink:href="#NimbusRomNo9L-Regu-30" transform="translate(99.626401 0)scale(0.996264)"/>
      </g>
     </g>
    </g>
    <g id="text_7">
     <!-- Samples -->
     <g transform="translate(309.382812 379.038759)scale(0.18 -0.18)">
      <defs>
       <path id="NimbusRomNo9L-Regu-53" d="M 2861 4313 
L 2726 4313 
C 2701 4166 2630 4095 2522 4095 
C 2458 4095 2349 4121 2240 4172 
C 2003 4300 1766 4352 1562 4352 
C 1286 4352 1005 4243 794 4057 
C 570 3859 454 3590 454 3257 
C 454 2745 736 2387 1453 2009 
C 1914 1766 2246 1504 2406 1260 
C 2464 1177 2496 1043 2496 889 
C 2496 460 2176 166 1709 166 
C 1139 166 736 518 416 1299 
L 269 1299 
L 461 -58 
L 602 -58 
C 608 38 685 128 781 128 
C 851 128 960 102 1082 57 
C 1325 -13 1581 -64 1837 -64 
C 2573 -64 3142 441 3142 1100 
C 3142 1625 2790 2041 1946 2496 
C 1274 2867 1005 3148 1005 3494 
C 1005 3846 1274 4089 1670 4089 
C 1958 4089 2227 3968 2451 3737 
C 2650 3533 2739 3366 2842 2988 
L 3002 2988 
L 2861 4313 
z
" transform="scale(0.015625)"/>
       <path id="NimbusRomNo9L-Regu-61" d="M 2829 422 
C 2720 332 2643 300 2547 300 
C 2400 300 2355 390 2355 672 
L 2355 1920 
C 2355 2252 2323 2438 2227 2592 
C 2086 2822 1811 2944 1434 2944 
C 832 2944 358 2630 358 2227 
C 358 2080 486 1952 634 1952 
C 787 1952 922 2080 922 2220 
C 922 2246 915 2278 909 2323 
C 896 2380 890 2432 890 2476 
C 890 2649 1094 2790 1350 2790 
C 1664 2790 1837 2604 1837 2259 
L 1837 1868 
C 851 1472 742 1420 467 1177 
C 326 1049 237 832 237 620 
C 237 217 518 -64 909 -64 
C 1190 -64 1453 70 1843 403 
C 1875 70 1990 -64 2253 -64 
C 2470 -64 2605 12 2829 256 
L 2829 422 
z
M 1837 787 
C 1837 588 1805 531 1670 454 
C 1517 364 1338 307 1203 307 
C 979 307 800 524 800 800 
L 800 825 
C 800 1203 1062 1433 1837 1715 
L 1837 787 
z
" transform="scale(0.015625)"/>
       <path id="NimbusRomNo9L-Regu-6d" d="M 122 2547 
C 205 2566 256 2572 326 2572 
C 493 2572 550 2470 550 2163 
L 550 544 
C 550 198 461 102 102 96 
L 102 0 
L 1523 0 
L 1523 96 
C 1184 108 1088 179 1088 428 
L 1088 2233 
C 1088 2246 1139 2310 1184 2355 
C 1344 2502 1619 2611 1843 2611 
C 2125 2611 2266 2387 2266 1939 
L 2266 550 
C 2266 192 2195 121 1830 96 
L 1830 0 
L 3264 0 
L 3264 96 
C 2899 102 2803 211 2803 608 
L 2803 2220 
C 2995 2496 3206 2611 3501 2611 
C 3866 2611 3981 2438 3981 1907 
L 3981 556 
C 3981 192 3930 140 3558 96 
L 3558 0 
L 4960 0 
L 4960 96 
L 4794 108 
C 4602 121 4518 236 4518 486 
L 4518 1804 
C 4518 2560 4269 2944 3776 2944 
C 3405 2944 3078 2777 2733 2406 
C 2618 2771 2400 2944 2054 2944 
C 1773 2944 1594 2854 1062 2451 
L 1062 2931 
L 1018 2944 
C 691 2822 474 2751 122 2655 
L 122 2547 
z
" transform="scale(0.015625)"/>
       <path id="NimbusRomNo9L-Regu-70" d="M 58 2515 
C 115 2521 160 2521 218 2521 
C 435 2521 480 2457 480 2157 
L 480 -839 
C 480 -1172 410 -1242 32 -1280 
L 32 -1389 
L 1581 -1389 
L 1581 -1280 
C 1101 -1274 1018 -1203 1018 -798 
L 1018 211 
C 1242 0 1395 -64 1664 -64 
C 2419 -64 3008 652 3008 1580 
C 3008 2374 2560 2944 1939 2944 
C 1581 2944 1299 2783 1018 2438 
L 1018 2931 
L 979 2944 
C 634 2809 410 2726 58 2617 
L 58 2515 
z
M 1018 2137 
C 1018 2329 1376 2559 1670 2559 
C 2144 2559 2458 2073 2458 1331 
C 2458 620 2144 140 1683 140 
C 1382 140 1018 371 1018 563 
L 1018 2137 
z
" transform="scale(0.015625)"/>
       <path id="NimbusRomNo9L-Regu-6c" d="M 122 3987 
L 160 3987 
C 230 3993 307 4000 358 4000 
C 563 4000 627 3910 627 3609 
L 627 556 
C 627 211 538 128 134 96 
L 134 0 
L 1645 0 
L 1645 96 
C 1242 121 1165 185 1165 537 
L 1165 4358 
L 1139 4371 
C 806 4262 563 4198 122 4089 
L 122 3987 
z
" transform="scale(0.015625)"/>
       <path id="NimbusRomNo9L-Regu-65" d="M 2611 1052 
C 2304 564 2029 377 1619 377 
C 1254 377 979 564 794 930 
C 678 1174 634 1386 621 1779 
L 2592 1779 
C 2541 2193 2477 2377 2317 2580 
C 2125 2809 1830 2944 1498 2944 
C 1178 2944 877 2828 634 2612 
C 333 2351 160 1900 160 1374 
C 160 486 621 -64 1357 -64 
C 1965 -64 2445 313 2714 1007 
L 2611 1052 
z
M 634 1984 
C 704 2478 922 2713 1312 2713 
C 1702 2713 1856 2535 1939 1984 
L 634 1984 
z
" transform="scale(0.015625)"/>
       <path id="NimbusRomNo9L-Regu-73" d="M 2016 2009 
L 1990 2880 
L 1920 2880 
L 1907 2867 
C 1850 2822 1843 2815 1818 2815 
C 1779 2815 1715 2828 1645 2860 
C 1504 2918 1363 2944 1197 2944 
C 691 2944 326 2617 326 2155 
C 326 1796 531 1539 1075 1231 
L 1446 1019 
C 1670 891 1779 737 1779 538 
C 1779 256 1574 76 1248 76 
C 1030 76 832 160 710 301 
C 576 461 518 609 435 974 
L 333 974 
L 333 -26 
L 416 -26 
C 461 38 486 51 563 51 
C 621 51 710 38 858 0 
C 1037 -39 1210 -64 1325 -64 
C 1818 -64 2227 307 2227 756 
C 2227 1077 2074 1289 1690 1520 
L 998 1930 
C 819 2033 723 2193 723 2366 
C 723 2623 922 2803 1216 2803 
C 1581 2803 1773 2585 1920 2014 
L 2016 2009 
z
" transform="scale(0.015625)"/>
      </defs>
      <use xlink:href="#NimbusRomNo9L-Regu-53" transform="scale(0.996264)"/>
      <use xlink:href="#NimbusRomNo9L-Regu-61" transform="translate(55.391677 0)scale(0.996264)"/>
      <use xlink:href="#NimbusRomNo9L-Regu-6d" transform="translate(99.625246 0)scale(0.996264)"/>
      <use xlink:href="#NimbusRomNo9L-Regu-70" transform="translate(177.133616 0)scale(0.996264)"/>
      <use xlink:href="#NimbusRomNo9L-Regu-6c" transform="translate(226.946816 0)scale(0.996264)"/>
      <use xlink:href="#NimbusRomNo9L-Regu-65" transform="translate(254.641986 0)scale(0.996264)"/>
      <use xlink:href="#NimbusRomNo9L-Regu-73" transform="translate(298.875555 0)scale(0.996264)"/>
     </g>
    </g>
   </g>
   <g id="matplotlib.axis_2">
    <g id="ytick_1">
     <g id="line2d_13">
      <path d="M 116.569426 332.001928 
L 562.969426 332.001928 
" clip-path="url(#pd3345e1e86)" style="fill: none; stroke: #b0b0b0; stroke-width: 0.8; stroke-linecap: square"/>
     </g>
     <g id="line2d_14">
      <defs>
       <path id="mb5cac876f4" d="M 0 0 
L -3.5 0 
" style="stroke: #000000; stroke-width: 0.8"/>
      </defs>
      <g>
       <use xlink:href="#mb5cac876f4" x="116.569426" y="332.001928" style="stroke: #000000; stroke-width: 0.8"/>
      </g>
     </g>
     <g id="text_8">
      <!-- -1.532e+02 -->
      <g transform="translate(27.240526 338.081045)scale(0.18 -0.18)">
       <defs>
        <path id="NimbusRomNo9L-Regu-2d" d="M 250 1664 
L 250 1260 
L 1824 1260 
L 1824 1664 
L 250 1664 
z
" transform="scale(0.015625)"/>
        <path id="NimbusRomNo9L-Regu-31" d="M 1862 4352 
L 710 3776 
L 710 3686 
C 787 3718 858 3743 883 3756 
C 998 3801 1107 3826 1171 3826 
C 1306 3826 1363 3731 1363 3525 
L 1363 599 
C 1363 386 1312 238 1210 179 
C 1114 121 1024 102 755 96 
L 755 0 
L 2522 0 
L 2522 96 
C 2016 102 1914 167 1914 477 
L 1914 4339 
L 1862 4352 
z
" transform="scale(0.015625)"/>
        <path id="NimbusRomNo9L-Regu-2e" d="M 800 646 
C 608 646 448 480 448 281 
C 448 96 608 -64 794 -64 
C 992 -64 1158 96 1158 281 
C 1158 480 992 646 800 646 
z
" transform="scale(0.015625)"/>
        <path id="NimbusRomNo9L-Regu-2b" d="M 1594 1830 
L 192 1830 
L 192 1408 
L 1594 1408 
L 1594 0 
L 2016 0 
L 2016 1408 
L 3418 1408 
L 3418 1830 
L 2016 1830 
L 2016 3238 
L 1594 3238 
L 1594 1830 
z
" transform="scale(0.015625)"/>
       </defs>
       <use xlink:href="#NimbusRomNo9L-Regu-2d" transform="scale(0.996264)"/>
       <use xlink:href="#NimbusRomNo9L-Regu-31" transform="translate(33.17523 0)scale(0.996264)"/>
       <use xlink:href="#NimbusRomNo9L-Regu-2e" transform="translate(82.98843 0)scale(0.996264)"/>
       <use xlink:href="#NimbusRomNo9L-Regu-35" transform="translate(107.89503 0)scale(0.996264)"/>
       <use xlink:href="#NimbusRomNo9L-Regu-33" transform="translate(157.708231 0)scale(0.996264)"/>
       <use xlink:href="#NimbusRomNo9L-Regu-32" transform="translate(207.521431 0)scale(0.996264)"/>
       <use xlink:href="#NimbusRomNo9L-Regu-65" transform="translate(257.334632 0)scale(0.996264)"/>
       <use xlink:href="#NimbusRomNo9L-Regu-2b" transform="translate(301.568201 0)scale(0.996264)"/>
       <use xlink:href="#NimbusRomNo9L-Regu-30" transform="translate(357.756451 0)scale(0.996264)"/>
       <use xlink:href="#NimbusRomNo9L-Regu-32" transform="translate(407.569652 0)scale(0.996264)"/>
      </g>
     </g>
    </g>
    <g id="ytick_2">
     <g id="line2d_15">
      <path d="M 116.569426 291.103328 
L 562.969426 291.103328 
" clip-path="url(#pd3345e1e86)" style="fill: none; stroke: #b0b0b0; stroke-width: 0.8; stroke-linecap: square"/>
     </g>
     <g id="line2d_16">
      <g>
       <use xlink:href="#mb5cac876f4" x="116.569426" y="291.103328" style="stroke: #000000; stroke-width: 0.8"/>
      </g>
     </g>
     <g id="text_9">
      <!-- -1.530e+02 -->
      <g transform="translate(27.240526 297.182445)scale(0.18 -0.18)">
       <use xlink:href="#NimbusRomNo9L-Regu-2d" transform="scale(0.996264)"/>
       <use xlink:href="#NimbusRomNo9L-Regu-31" transform="translate(33.17523 0)scale(0.996264)"/>
       <use xlink:href="#NimbusRomNo9L-Regu-2e" transform="translate(82.98843 0)scale(0.996264)"/>
       <use xlink:href="#NimbusRomNo9L-Regu-35" transform="translate(107.89503 0)scale(0.996264)"/>
       <use xlink:href="#NimbusRomNo9L-Regu-33" transform="translate(157.708231 0)scale(0.996264)"/>
       <use xlink:href="#NimbusRomNo9L-Regu-30" transform="translate(207.521431 0)scale(0.996264)"/>
       <use xlink:href="#NimbusRomNo9L-Regu-65" transform="translate(257.334632 0)scale(0.996264)"/>
       <use xlink:href="#NimbusRomNo9L-Regu-2b" transform="translate(301.568201 0)scale(0.996264)"/>
       <use xlink:href="#NimbusRomNo9L-Regu-30" transform="translate(357.756451 0)scale(0.996264)"/>
       <use xlink:href="#NimbusRomNo9L-Regu-32" transform="translate(407.569652 0)scale(0.996264)"/>
      </g>
     </g>
    </g>
    <g id="ytick_3">
     <g id="line2d_17">
      <path d="M 116.569426 250.151231 
L 562.969426 250.151231 
" clip-path="url(#pd3345e1e86)" style="fill: none; stroke: #b0b0b0; stroke-width: 0.8; stroke-linecap: square"/>
     </g>
     <g id="line2d_18">
      <g>
       <use xlink:href="#mb5cac876f4" x="116.569426" y="250.151231" style="stroke: #000000; stroke-width: 0.8"/>
      </g>
     </g>
     <g id="text_10">
      <!-- -1.528e+02 -->
      <g transform="translate(27.240526 256.230348)scale(0.18 -0.18)">
       <defs>
        <path id="NimbusRomNo9L-Regu-38" d="M 1856 2400 
C 2490 2739 2714 3008 2714 3443 
C 2714 3968 2253 4352 1613 4352 
C 915 4352 397 3923 397 3341 
C 397 2924 518 2739 1190 2150 
C 499 1625 358 1427 358 992 
C 358 371 864 -64 1587 -64 
C 2355 -64 2848 358 2848 1017 
C 2848 1510 2630 1824 1856 2400 
z
M 1741 1740 
C 2208 1408 2362 1177 2362 819 
C 2362 403 2074 115 1658 115 
C 1171 115 845 486 845 1043 
C 845 1452 986 1721 1357 2022 
L 1741 1740 
z
M 1670 2515 
C 1101 2886 870 3180 870 3539 
C 870 3910 1158 4172 1562 4172 
C 1997 4172 2272 3891 2272 3449 
C 2272 3084 2093 2796 1728 2553 
C 1696 2534 1696 2534 1670 2515 
z
" transform="scale(0.015625)"/>
       </defs>
       <use xlink:href="#NimbusRomNo9L-Regu-2d" transform="scale(0.996264)"/>
       <use xlink:href="#NimbusRomNo9L-Regu-31" transform="translate(33.17523 0)scale(0.996264)"/>
       <use xlink:href="#NimbusRomNo9L-Regu-2e" transform="translate(82.98843 0)scale(0.996264)"/>
       <use xlink:href="#NimbusRomNo9L-Regu-35" transform="translate(107.89503 0)scale(0.996264)"/>
       <use xlink:href="#NimbusRomNo9L-Regu-32" transform="translate(157.708231 0)scale(0.996264)"/>
       <use xlink:href="#NimbusRomNo9L-Regu-38" transform="translate(207.521431 0)scale(0.996264)"/>
       <use xlink:href="#NimbusRomNo9L-Regu-65" transform="translate(257.334632 0)scale(0.996264)"/>
       <use xlink:href="#NimbusRomNo9L-Regu-2b" transform="translate(301.568201 0)scale(0.996264)"/>
       <use xlink:href="#NimbusRomNo9L-Regu-30" transform="translate(357.756451 0)scale(0.996264)"/>
       <use xlink:href="#NimbusRomNo9L-Regu-32" transform="translate(407.569652 0)scale(0.996264)"/>
      </g>
     </g>
    </g>
    <g id="ytick_4">
     <g id="line2d_19">
      <path d="M 116.569426 209.145497 
L 562.969426 209.145497 
" clip-path="url(#pd3345e1e86)" style="fill: none; stroke: #b0b0b0; stroke-width: 0.8; stroke-linecap: square"/>
     </g>
     <g id="line2d_20">
      <g>
       <use xlink:href="#mb5cac876f4" x="116.569426" y="209.145497" style="stroke: #000000; stroke-width: 0.8"/>
      </g>
     </g>
     <g id="text_11">
      <!-- -1.526e+02 -->
      <g transform="translate(27.240526 215.224614)scale(0.18 -0.18)">
       <defs>
        <path id="NimbusRomNo9L-Regu-36" d="M 2854 4390 
C 2125 4326 1754 4204 1286 3878 
C 595 3385 218 2655 218 1801 
C 218 1248 390 688 666 369 
C 909 89 1254 -64 1651 -64 
C 2445 -64 2995 541 2995 1420 
C 2995 2234 2528 2752 1792 2752 
C 1510 2752 1376 2707 973 2463 
C 1146 3430 1862 4121 2867 4288 
L 2854 4390 
z
M 1549 2457 
C 2099 2457 2419 1999 2419 1203 
C 2419 503 2170 115 1722 115 
C 1158 115 813 713 813 1700 
C 813 2024 864 2203 992 2298 
C 1126 2400 1325 2457 1549 2457 
z
" transform="scale(0.015625)"/>
       </defs>
       <use xlink:href="#NimbusRomNo9L-Regu-2d" transform="scale(0.996264)"/>
       <use xlink:href="#NimbusRomNo9L-Regu-31" transform="translate(33.17523 0)scale(0.996264)"/>
       <use xlink:href="#NimbusRomNo9L-Regu-2e" transform="translate(82.98843 0)scale(0.996264)"/>
       <use xlink:href="#NimbusRomNo9L-Regu-35" transform="translate(107.89503 0)scale(0.996264)"/>
       <use xlink:href="#NimbusRomNo9L-Regu-32" transform="translate(157.708231 0)scale(0.996264)"/>
       <use xlink:href="#NimbusRomNo9L-Regu-36" transform="translate(207.521431 0)scale(0.996264)"/>
       <use xlink:href="#NimbusRomNo9L-Regu-65" transform="translate(257.334632 0)scale(0.996264)"/>
       <use xlink:href="#NimbusRomNo9L-Regu-2b" transform="translate(301.568201 0)scale(0.996264)"/>
       <use xlink:href="#NimbusRomNo9L-Regu-30" transform="translate(357.756451 0)scale(0.996264)"/>
       <use xlink:href="#NimbusRomNo9L-Regu-32" transform="translate(407.569652 0)scale(0.996264)"/>
      </g>
     </g>
    </g>
    <g id="ytick_5">
     <g id="line2d_21">
      <path d="M 116.569426 168.085984 
L 562.969426 168.085984 
" clip-path="url(#pd3345e1e86)" style="fill: none; stroke: #b0b0b0; stroke-width: 0.8; stroke-linecap: square"/>
     </g>
     <g id="line2d_22">
      <g>
       <use xlink:href="#mb5cac876f4" x="116.569426" y="168.085984" style="stroke: #000000; stroke-width: 0.8"/>
      </g>
     </g>
     <g id="text_12">
      <!-- -1.524e+02 -->
      <g transform="translate(27.240526 174.165101)scale(0.18 -0.18)">
       <use xlink:href="#NimbusRomNo9L-Regu-2d" transform="scale(0.996264)"/>
       <use xlink:href="#NimbusRomNo9L-Regu-31" transform="translate(33.17523 0)scale(0.996264)"/>
       <use xlink:href="#NimbusRomNo9L-Regu-2e" transform="translate(82.98843 0)scale(0.996264)"/>
       <use xlink:href="#NimbusRomNo9L-Regu-35" transform="translate(107.89503 0)scale(0.996264)"/>
       <use xlink:href="#NimbusRomNo9L-Regu-32" transform="translate(157.708231 0)scale(0.996264)"/>
       <use xlink:href="#NimbusRomNo9L-Regu-34" transform="translate(207.521431 0)scale(0.996264)"/>
       <use xlink:href="#NimbusRomNo9L-Regu-65" transform="translate(257.334632 0)scale(0.996264)"/>
       <use xlink:href="#NimbusRomNo9L-Regu-2b" transform="translate(301.568201 0)scale(0.996264)"/>
       <use xlink:href="#NimbusRomNo9L-Regu-30" transform="translate(357.756451 0)scale(0.996264)"/>
       <use xlink:href="#NimbusRomNo9L-Regu-32" transform="translate(407.569652 0)scale(0.996264)"/>
      </g>
     </g>
    </g>
    <g id="ytick_6">
     <g id="line2d_23">
      <path d="M 116.569426 126.972553 
L 562.969426 126.972553 
" clip-path="url(#pd3345e1e86)" style="fill: none; stroke: #b0b0b0; stroke-width: 0.8; stroke-linecap: square"/>
     </g>
     <g id="line2d_24">
      <g>
       <use xlink:href="#mb5cac876f4" x="116.569426" y="126.972553" style="stroke: #000000; stroke-width: 0.8"/>
      </g>
     </g>
     <g id="text_13">
      <!-- -1.522e+02 -->
      <g transform="translate(27.240526 133.051669)scale(0.18 -0.18)">
       <use xlink:href="#NimbusRomNo9L-Regu-2d" transform="scale(0.996264)"/>
       <use xlink:href="#NimbusRomNo9L-Regu-31" transform="translate(33.17523 0)scale(0.996264)"/>
       <use xlink:href="#NimbusRomNo9L-Regu-2e" transform="translate(82.98843 0)scale(0.996264)"/>
       <use xlink:href="#NimbusRomNo9L-Regu-35" transform="translate(107.89503 0)scale(0.996264)"/>
       <use xlink:href="#NimbusRomNo9L-Regu-32" transform="translate(157.708231 0)scale(0.996264)"/>
       <use xlink:href="#NimbusRomNo9L-Regu-32" transform="translate(207.521431 0)scale(0.996264)"/>
       <use xlink:href="#NimbusRomNo9L-Regu-65" transform="translate(257.334632 0)scale(0.996264)"/>
       <use xlink:href="#NimbusRomNo9L-Regu-2b" transform="translate(301.568201 0)scale(0.996264)"/>
       <use xlink:href="#NimbusRomNo9L-Regu-30" transform="translate(357.756451 0)scale(0.996264)"/>
       <use xlink:href="#NimbusRomNo9L-Regu-32" transform="translate(407.569652 0)scale(0.996264)"/>
      </g>
     </g>
    </g>
    <g id="ytick_7">
     <g id="line2d_25">
      <path d="M 116.569426 85.80506 
L 562.969426 85.80506 
" clip-path="url(#pd3345e1e86)" style="fill: none; stroke: #b0b0b0; stroke-width: 0.8; stroke-linecap: square"/>
     </g>
     <g id="line2d_26">
      <g>
       <use xlink:href="#mb5cac876f4" x="116.569426" y="85.80506" style="stroke: #000000; stroke-width: 0.8"/>
      </g>
     </g>
     <g id="text_14">
      <!-- -1.520e+02 -->
      <g transform="translate(27.240526 91.884177)scale(0.18 -0.18)">
       <use xlink:href="#NimbusRomNo9L-Regu-2d" transform="scale(0.996264)"/>
       <use xlink:href="#NimbusRomNo9L-Regu-31" transform="translate(33.17523 0)scale(0.996264)"/>
       <use xlink:href="#NimbusRomNo9L-Regu-2e" transform="translate(82.98843 0)scale(0.996264)"/>
       <use xlink:href="#NimbusRomNo9L-Regu-35" transform="translate(107.89503 0)scale(0.996264)"/>
       <use xlink:href="#NimbusRomNo9L-Regu-32" transform="translate(157.708231 0)scale(0.996264)"/>
       <use xlink:href="#NimbusRomNo9L-Regu-30" transform="translate(207.521431 0)scale(0.996264)"/>
       <use xlink:href="#NimbusRomNo9L-Regu-65" transform="translate(257.334632 0)scale(0.996264)"/>
       <use xlink:href="#NimbusRomNo9L-Regu-2b" transform="translate(301.568201 0)scale(0.996264)"/>
       <use xlink:href="#NimbusRomNo9L-Regu-30" transform="translate(357.756451 0)scale(0.996264)"/>
       <use xlink:href="#NimbusRomNo9L-Regu-32" transform="translate(407.569652 0)scale(0.996264)"/>
      </g>
     </g>
    </g>
    <g id="ytick_8">
     <g id="line2d_27">
      <path d="M 116.569426 44.583364 
L 562.969426 44.583364 
" clip-path="url(#pd3345e1e86)" style="fill: none; stroke: #b0b0b0; stroke-width: 0.8; stroke-linecap: square"/>
     </g>
     <g id="line2d_28">
      <g>
       <use xlink:href="#mb5cac876f4" x="116.569426" y="44.583364" style="stroke: #000000; stroke-width: 0.8"/>
      </g>
     </g>
     <g id="text_15">
      <!-- -1.518e+02 -->
      <g transform="translate(27.240526 50.66248)scale(0.18 -0.18)">
       <use xlink:href="#NimbusRomNo9L-Regu-2d" transform="scale(0.996264)"/>
       <use xlink:href="#NimbusRomNo9L-Regu-31" transform="translate(33.17523 0)scale(0.996264)"/>
       <use xlink:href="#NimbusRomNo9L-Regu-2e" transform="translate(82.98843 0)scale(0.996264)"/>
       <use xlink:href="#NimbusRomNo9L-Regu-35" transform="translate(107.89503 0)scale(0.996264)"/>
       <use xlink:href="#NimbusRomNo9L-Regu-31" transform="translate(157.708231 0)scale(0.996264)"/>
       <use xlink:href="#NimbusRomNo9L-Regu-38" transform="translate(207.521431 0)scale(0.996264)"/>
       <use xlink:href="#NimbusRomNo9L-Regu-65" transform="translate(257.334632 0)scale(0.996264)"/>
       <use xlink:href="#NimbusRomNo9L-Regu-2b" transform="translate(301.568201 0)scale(0.996264)"/>
       <use xlink:href="#NimbusRomNo9L-Regu-30" transform="translate(357.756451 0)scale(0.996264)"/>
       <use xlink:href="#NimbusRomNo9L-Regu-32" transform="translate(407.569652 0)scale(0.996264)"/>
      </g>
     </g>
    </g>
    <g id="text_16">
     <!-- Predictive Log Likelihood -->
     <g transform="translate(19.358234 267.711004)rotate(-90)scale(0.18 -0.18)">
      <defs>
       <path id="NimbusRomNo9L-Regu-50" d="M 1293 1875 
C 1459 1862 1568 1855 1734 1855 
C 2234 1855 2579 1919 2854 2073 
C 3238 2276 3469 2661 3469 3077 
C 3469 3343 3379 3583 3206 3766 
C 2950 4044 2394 4224 1792 4224 
L 102 4224 
L 102 4102 
C 576 4051 640 3987 640 3528 
L 640 765 
C 640 230 589 166 102 121 
L 102 0 
L 1894 0 
L 1894 121 
C 1389 140 1293 230 1293 695 
L 1293 1875 
z
M 1293 3772 
C 1293 3942 1338 3987 1510 3987 
C 2374 3987 2771 3690 2771 3040 
C 2771 2427 2394 2112 1658 2112 
C 1530 2112 1440 2118 1293 2130 
L 1293 3772 
z
" transform="scale(0.015625)"/>
       <path id="NimbusRomNo9L-Regu-72" d="M 45 2496 
C 134 2515 192 2521 269 2521 
C 429 2521 486 2419 486 2137 
L 486 537 
C 486 217 442 172 32 96 
L 32 0 
L 1568 0 
L 1568 96 
C 1133 115 1024 211 1024 576 
L 1024 2016 
C 1024 2220 1299 2540 1472 2540 
C 1510 2540 1568 2508 1638 2444 
C 1741 2355 1811 2316 1894 2316 
C 2048 2316 2144 2425 2144 2604 
C 2144 2815 2010 2944 1792 2944 
C 1523 2944 1338 2796 1024 2342 
L 1024 2931 
L 992 2944 
C 653 2803 422 2720 45 2598 
L 45 2496 
z
" transform="scale(0.015625)"/>
       <path id="NimbusRomNo9L-Regu-64" d="M 2202 -64 
L 3142 268 
L 3142 371 
C 3027 364 3014 364 2995 364 
C 2765 364 2714 435 2714 729 
L 2714 4358 
L 2682 4371 
C 2374 4262 2150 4198 1741 4089 
L 1741 3987 
C 1792 3993 1830 3993 1882 3993 
C 2118 3993 2176 3929 2176 3667 
L 2176 2668 
C 1933 2873 1760 2944 1504 2944 
C 768 2944 173 2220 173 1312 
C 173 492 653 -64 1357 -64 
C 1715 -64 1958 64 2176 364 
L 2176 -45 
L 2202 -64 
z
M 2176 652 
C 2176 608 2131 531 2067 460 
C 1952 332 1792 268 1606 268 
C 1075 268 723 780 723 1568 
C 723 2291 1037 2764 1523 2764 
C 1862 2764 2176 2464 2176 2124 
L 2176 652 
z
" transform="scale(0.015625)"/>
       <path id="NimbusRomNo9L-Regu-69" d="M 1120 2944 
L 128 2592 
L 128 2496 
L 179 2502 
C 256 2515 339 2521 397 2521 
C 550 2521 608 2419 608 2137 
L 608 652 
C 608 192 544 121 102 96 
L 102 0 
L 1619 0 
L 1619 96 
C 1197 128 1146 192 1146 652 
L 1146 2924 
L 1120 2944 
z
M 819 4352 
C 646 4352 499 4204 499 4025 
C 499 3846 640 3699 819 3699 
C 1005 3699 1152 3839 1152 4025 
C 1152 4204 1005 4352 819 4352 
z
" transform="scale(0.015625)"/>
       <path id="NimbusRomNo9L-Regu-63" d="M 2547 998 
C 2240 550 2010 396 1645 396 
C 1062 396 653 908 653 1644 
C 653 2303 1005 2758 1523 2758 
C 1754 2758 1837 2687 1901 2451 
L 1939 2310 
C 1990 2131 2106 2015 2240 2015 
C 2406 2015 2547 2137 2547 2284 
C 2547 2643 2099 2944 1562 2944 
C 1248 2944 922 2815 659 2585 
C 339 2303 160 1868 160 1363 
C 160 531 666 -64 1376 -64 
C 1664 -64 1920 38 2150 236 
C 2323 390 2445 563 2637 940 
L 2547 998 
z
" transform="scale(0.015625)"/>
       <path id="NimbusRomNo9L-Regu-74" d="M 1632 2880 
L 986 2880 
L 986 3622 
C 986 3686 979 3705 941 3705 
C 896 3648 858 3590 813 3526 
C 570 3174 294 2867 192 2841 
C 122 2796 83 2751 83 2719 
C 83 2700 90 2687 109 2675 
L 448 2675 
L 448 748 
C 448 211 640 -64 1018 -64 
C 1331 -64 1574 89 1786 422 
L 1702 492 
C 1568 332 1459 268 1318 268 
C 1082 268 986 441 986 844 
L 986 2675 
L 1632 2675 
L 1632 2880 
z
" transform="scale(0.015625)"/>
       <path id="NimbusRomNo9L-Regu-76" d="M 3053 2880 
L 2163 2880 
L 2163 2783 
C 2368 2764 2464 2701 2464 2580 
C 2464 2517 2451 2454 2426 2390 
L 1792 748 
L 1139 2371 
C 1101 2460 1082 2549 1082 2606 
C 1082 2720 1152 2764 1376 2783 
L 1376 2880 
L 122 2880 
L 122 2783 
C 365 2771 410 2707 704 2054 
L 1472 235 
C 1485 197 1504 152 1523 102 
C 1562 -13 1600 -64 1638 -64 
C 1677 -64 1722 19 1818 254 
L 2637 2289 
C 2822 2720 2861 2764 3053 2783 
L 3053 2880 
z
" transform="scale(0.015625)"/>
       <path id="NimbusRomNo9L-Regu-4c" d="M 3667 1110 
C 3558 868 3469 721 3373 613 
C 3149 364 2797 249 2266 249 
L 1837 249 
C 1370 249 1286 287 1286 511 
L 1286 3528 
C 1286 3981 1376 4070 1882 4102 
L 1882 4224 
L 77 4224 
L 77 4102 
C 550 4064 634 3974 634 3528 
L 634 696 
C 634 249 544 153 77 121 
L 77 0 
L 3520 0 
L 3827 1113 
L 3667 1110 
z
" transform="scale(0.015625)"/>
       <path id="NimbusRomNo9L-Regu-6f" d="M 1600 2944 
C 768 2944 186 2329 186 1446 
C 186 582 781 -64 1587 -64 
C 2394 -64 3008 614 3008 1497 
C 3008 2336 2419 2944 1600 2944 
z
M 1517 2764 
C 2054 2764 2432 2150 2432 1273 
C 2432 550 2144 115 1664 115 
C 1414 115 1178 268 1043 524 
C 864 857 762 1305 762 1760 
C 762 2368 1062 2764 1517 2764 
z
" transform="scale(0.015625)"/>
       <path id="NimbusRomNo9L-Regu-67" d="M 3008 2438 
L 3008 2688 
L 2515 2688 
C 2387 2688 2291 2734 2163 2796 
L 2022 2847 
C 1850 2911 1677 2944 1510 2944 
C 915 2944 442 2438 442 1877 
C 442 1489 614 1255 1037 1049 
C 915 934 800 826 762 794 
C 550 610 467 483 467 356 
C 467 223 544 147 806 19 
C 352 -316 179 -529 179 -767 
C 179 -1108 678 -1389 1286 -1389 
C 1766 -1389 2266 -1223 2598 -954 
C 2842 -754 2950 -548 2950 -303 
C 2950 96 2650 363 2176 382 
L 1350 420 
C 1011 432 851 490 851 591 
C 851 718 1062 941 1235 992 
C 1293 985 1338 979 1357 979 
C 1478 966 1562 960 1600 960 
C 1837 960 2093 1056 2291 1224 
C 2502 1397 2598 1612 2598 1920 
C 2598 2099 2566 2241 2477 2438 
L 3008 2438 
z
M 941 0 
C 1152 -46 1664 -84 1978 -84 
C 2560 -84 2771 -168 2771 -400 
C 2771 -773 2285 -1024 1562 -1024 
C 998 -1024 627 -838 627 -554 
C 627 -406 672 -322 941 0 
z
M 973 2130 
C 973 2495 1152 2764 1446 2764 
C 1645 2764 1811 2611 1914 2419 
C 2029 2204 2106 1920 2106 1680 
C 2106 1335 1920 1120 1626 1120 
C 1242 1120 973 1520 973 2111 
L 973 2130 
z
" transform="scale(0.015625)"/>
       <path id="NimbusRomNo9L-Regu-6b" d="M 45 3987 
C 128 3993 186 4000 250 4000 
C 461 4000 525 3916 525 3609 
L 525 524 
C 525 192 506 172 45 96 
L 45 0 
L 1542 0 
L 1542 96 
L 1414 102 
C 1158 115 1062 204 1062 428 
L 1062 1606 
L 1958 409 
L 1978 384 
C 1990 364 2003 345 2022 326 
C 2074 262 2093 224 2093 192 
C 2093 134 2035 96 1958 96 
L 1837 96 
L 1837 0 
L 3232 0 
L 3232 96 
C 2950 115 2752 236 2483 563 
L 1504 1804 
L 1690 1977 
C 2144 2400 2541 2694 2726 2745 
C 2822 2771 2912 2783 3021 2783 
L 3072 2783 
L 3072 2880 
L 1766 2880 
L 1766 2790 
C 2016 2783 2086 2758 2086 2668 
C 2086 2617 2029 2528 1939 2451 
L 1062 1670 
L 1062 4358 
L 1037 4371 
C 794 4294 608 4243 237 4140 
L 45 4089 
L 45 3987 
z
" transform="scale(0.015625)"/>
       <path id="NimbusRomNo9L-Regu-68" d="M 1005 2195 
C 1274 2489 1466 2598 1715 2598 
C 2035 2598 2195 2368 2195 1920 
L 2195 652 
C 2195 217 2131 134 1760 96 
L 1760 0 
L 3117 0 
L 3117 96 
C 2771 160 2733 211 2733 652 
L 2733 1926 
C 2733 2598 2464 2944 1946 2944 
C 1568 2944 1299 2790 1005 2406 
L 1005 4352 
L 973 4371 
C 755 4294 595 4243 237 4140 
L 64 4089 
L 64 3987 
C 90 3993 109 3993 141 3993 
C 416 3993 467 3942 467 3667 
L 467 652 
C 467 204 429 147 58 96 
L 58 0 
L 1440 0 
L 1440 96 
C 1069 134 1005 211 1005 652 
L 1005 2195 
z
" transform="scale(0.015625)"/>
      </defs>
      <use xlink:href="#NimbusRomNo9L-Regu-50" transform="scale(0.996264)"/>
      <use xlink:href="#NimbusRomNo9L-Regu-72" transform="translate(55.391677 0)scale(0.996264)"/>
      <use xlink:href="#NimbusRomNo9L-Regu-65" transform="translate(88.566907 0)scale(0.996264)"/>
      <use xlink:href="#NimbusRomNo9L-Regu-64" transform="translate(132.800475 0)scale(0.996264)"/>
      <use xlink:href="#NimbusRomNo9L-Regu-69" transform="translate(182.613676 0)scale(0.996264)"/>
      <use xlink:href="#NimbusRomNo9L-Regu-63" transform="translate(210.308845 0)scale(0.996264)"/>
      <use xlink:href="#NimbusRomNo9L-Regu-74" transform="translate(254.542414 0)scale(0.996264)"/>
      <use xlink:href="#NimbusRomNo9L-Regu-69" transform="translate(282.237584 0)scale(0.996264)"/>
      <use xlink:href="#NimbusRomNo9L-Regu-76" transform="translate(307.442124 0)scale(0.996264)"/>
      <use xlink:href="#NimbusRomNo9L-Regu-65" transform="translate(355.761932 0)scale(0.996264)"/>
      <use xlink:href="#NimbusRomNo9L-Regu-4c" transform="translate(424.902101 0)scale(0.996264)"/>
      <use xlink:href="#NimbusRomNo9L-Regu-6f" transform="translate(485.773731 0)scale(0.996264)"/>
      <use xlink:href="#NimbusRomNo9L-Regu-67" transform="translate(535.586932 0)scale(0.996264)"/>
      <use xlink:href="#NimbusRomNo9L-Regu-4c" transform="translate(610.306732 0)scale(0.996264)"/>
      <use xlink:href="#NimbusRomNo9L-Regu-69" transform="translate(671.178363 0)scale(0.996264)"/>
      <use xlink:href="#NimbusRomNo9L-Regu-6b" transform="translate(698.873533 0)scale(0.996264)"/>
      <use xlink:href="#NimbusRomNo9L-Regu-65" transform="translate(747.690636 0)scale(0.996264)"/>
      <use xlink:href="#NimbusRomNo9L-Regu-6c" transform="translate(791.924205 0)scale(0.996264)"/>
      <use xlink:href="#NimbusRomNo9L-Regu-69" transform="translate(819.619375 0)scale(0.996264)"/>
      <use xlink:href="#NimbusRomNo9L-Regu-68" transform="translate(847.314544 0)scale(0.996264)"/>
      <use xlink:href="#NimbusRomNo9L-Regu-6f" transform="translate(897.127745 0)scale(0.996264)"/>
      <use xlink:href="#NimbusRomNo9L-Regu-6f" transform="translate(946.940945 0)scale(0.996264)"/>
      <use xlink:href="#NimbusRomNo9L-Regu-64" transform="translate(996.754146 0)scale(0.996264)"/>
     </g>
    </g>
   </g>
   <g id="line2d_29">
    <path d="M 136.860336 207.476669 
L 138.490127 206.54798 
L 140.119919 205.46035 
L 141.749711 204.86187 
L 143.379503 204.864393 
L 145.009295 201.99884 
L 146.639087 201.767037 
L 149.898671 203.31504 
L 153.158254 204.701067 
L 154.788046 198.880548 
L 156.417838 199.579344 
L 158.04763 199.585747 
L 159.677422 200.265641 
L 162.937006 198.26152 
L 164.566798 198.642526 
L 166.19659 199.373541 
L 167.826382 199.870718 
L 169.456173 194.066618 
L 171.085965 194.807668 
L 172.715757 195.319186 
L 174.345549 193.326747 
L 175.975341 193.914175 
L 177.605133 191.429145 
L 179.234925 192.161717 
L 180.864717 189.375863 
L 182.494509 189.560227 
L 190.643468 192.647546 
L 192.27326 193.115487 
L 195.532844 194.442622 
L 197.162636 194.346648 
L 198.792428 194.97701 
L 200.422219 195.402809 
L 203.681803 196.605374 
L 205.311595 196.470543 
L 206.941387 197.035867 
L 208.571179 196.482726 
L 210.200971 197.086931 
L 211.830763 195.055939 
L 216.720138 197.004916 
L 218.34993 197.284658 
L 219.979722 197.443807 
L 221.609514 197.204054 
L 223.239306 197.563097 
L 224.869098 194.731911 
L 226.49889 193.342309 
L 228.128682 193.991787 
L 229.758474 193.323648 
L 231.388265 192.503564 
L 233.018057 193.160145 
L 234.647849 193.274691 
L 237.907433 194.463294 
L 241.167017 195.682477 
L 242.796809 195.887244 
L 244.426601 196.522455 
L 246.056392 196.805631 
L 247.686184 197.439943 
L 249.315976 185.048134 
L 250.945768 185.578611 
L 252.57556 185.508237 
L 254.205352 186.135986 
L 255.835144 185.426177 
L 257.464936 185.708841 
L 259.094728 186.320504 
L 260.72452 186.7953 
L 262.354311 187.420486 
L 263.984103 187.724138 
L 265.613895 188.287188 
L 267.243687 186.062502 
L 268.873479 186.677811 
L 270.503271 187.037317 
L 273.762855 188.172944 
L 275.392647 188.479419 
L 277.022438 188.651901 
L 280.282022 189.731364 
L 283.541606 190.227597 
L 285.171398 189.91658 
L 286.80119 190.483144 
L 288.430982 189.982186 
L 290.060774 189.842952 
L 291.690566 186.568695 
L 294.950149 187.124575 
L 298.209733 188.12132 
L 301.469317 188.98404 
L 303.099109 189.197054 
L 304.728901 189.673195 
L 306.358693 187.958103 
L 311.248068 189.575555 
L 312.87786 189.75284 
L 314.507652 183.268726 
L 316.137444 183.475447 
L 321.02682 185.003343 
L 324.286403 185.747777 
L 325.916195 185.828241 
L 329.175779 186.877273 
L 330.805571 186.902834 
L 332.435363 187.194096 
L 334.065155 187.328934 
L 335.694947 187.150552 
L 338.95453 188.154467 
L 340.584322 187.237753 
L 342.214114 187.779427 
L 343.843906 188.080876 
L 345.473698 188.220055 
L 347.10349 188.760987 
L 350.363074 189.70186 
L 353.622658 189.629715 
L 355.252449 189.709504 
L 360.141825 191.224859 
L 363.401409 191.929012 
L 366.660993 192.890736 
L 368.290785 193.410471 
L 369.920576 192.802988 
L 371.550368 191.896601 
L 373.18016 192.382318 
L 374.809952 192.543753 
L 379.699328 193.957233 
L 382.958912 194.942041 
L 384.588704 195.305103 
L 386.218495 194.8428 
L 387.848287 192.235991 
L 389.478079 192.741769 
L 391.107871 193.100634 
L 392.737663 192.281437 
L 394.367455 192.398369 
L 397.627039 193.283623 
L 402.516414 194.681669 
L 404.146206 194.879811 
L 405.775998 195.329251 
L 407.40579 193.442177 
L 409.035582 191.924877 
L 410.665374 191.902304 
L 412.295166 191.427781 
L 413.924958 189.330415 
L 420.444125 190.160336 
L 422.073917 190.642293 
L 423.703709 187.422463 
L 431.852668 189.457567 
L 433.48246 189.675202 
L 435.112252 188.276968 
L 436.742044 188.580174 
L 438.371836 189.051098 
L 440.001628 188.840973 
L 441.63142 189.306926 
L 443.261212 189.245733 
L 444.891004 189.045188 
L 449.780379 189.748001 
L 451.410171 189.02108 
L 453.039963 189.482669 
L 456.299547 189.987391 
L 457.929339 190.417039 
L 459.559131 190.447059 
L 461.188923 190.902826 
L 462.818714 190.088442 
L 466.078298 190.762822 
L 467.70809 191.064583 
L 469.337882 190.960172 
L 474.227258 192.093182 
L 477.486842 192.933416 
L 479.116633 193.147411 
L 480.746425 193.071559 
L 482.376217 193.513371 
L 484.006009 193.683731 
L 487.265593 194.347973 
L 488.895385 194.750964 
L 490.525177 194.207478 
L 492.154969 193.095502 
L 493.78476 193.174108 
L 498.674136 194.355322 
L 500.303928 192.021722 
L 501.93372 191.739226 
L 505.193304 192.560638 
L 506.823096 192.711363 
L 511.712471 193.869053 
L 513.342263 194.110518 
L 514.972055 194.491523 
L 516.601847 193.043377 
L 518.231639 193.160934 
L 519.861431 192.75433 
L 521.491223 192.956928 
L 523.121015 193.377582 
L 524.750806 189.961555 
L 526.380598 189.831589 
L 529.640182 190.436076 
L 531.269974 188.988041 
L 534.529558 189.622361 
L 537.789142 190.405292 
L 541.048725 190.933009 
L 542.678517 191.265255 
L 542.678517 191.265255 
" clip-path="url(#pd3345e1e86)" style="fill: none; stroke: #ff0000; stroke-width: 1.5; stroke-linecap: square"/>
   </g>
   <g id="line2d_30">
    <path d="M 136.860336 55.011012 
L 138.490127 55.732345 
L 140.119919 55.824085 
L 141.749711 56.242483 
L 143.379503 56.500615 
L 145.009295 50.663302 
L 146.639087 50.469579 
L 148.268879 49.340423 
L 151.528463 50.835671 
L 153.158254 47.14676 
L 156.417838 48.135184 
L 158.04763 48.183284 
L 161.307214 46.023859 
L 162.937006 41.971443 
L 171.085965 44.548463 
L 174.345549 46.015061 
L 175.975341 46.082422 
L 177.605133 45.714788 
L 179.234925 45.548913 
L 180.864717 46.147238 
L 182.494509 45.869111 
L 184.1243 46.387233 
L 192.27326 49.622272 
L 193.903052 49.891918 
L 198.792428 51.363818 
L 200.422219 51.939285 
L 202.052011 52.648454 
L 203.681803 50.034688 
L 205.311595 50.321592 
L 206.941387 50.849709 
L 208.571179 50.167124 
L 210.200971 49.620489 
L 213.460555 50.890076 
L 215.090346 51.418631 
L 216.720138 51.067086 
L 223.239306 53.044581 
L 224.869098 53.303603 
L 226.49889 52.327804 
L 229.758474 53.433129 
L 231.388265 53.392893 
L 233.018057 54.054124 
L 234.647849 52.398212 
L 236.277641 52.710617 
L 237.907433 51.572082 
L 239.537225 51.094748 
L 241.167017 50.982684 
L 244.426601 51.723603 
L 246.056392 52.339756 
L 247.686184 52.799373 
L 254.205352 54.216929 
L 255.835144 54.277487 
L 257.464936 54.622146 
L 260.72452 55.598858 
L 262.354311 55.889107 
L 265.613895 57.066022 
L 267.243687 54.568227 
L 268.873479 53.145198 
L 270.503271 50.85754 
L 272.133063 47.855745 
L 275.392647 48.895059 
L 277.022438 48.200134 
L 278.65223 47.014585 
L 280.282022 47.5409 
L 281.911814 47.797026 
L 283.541606 48.391793 
L 285.171398 47.468493 
L 286.80119 47.978193 
L 288.430982 48.369052 
L 290.060774 48.964403 
L 291.690566 48.212698 
L 296.579941 49.935103 
L 298.209733 50.03581 
L 299.839525 50.425803 
L 301.469317 50.583505 
L 306.358693 52.076029 
L 307.988484 52.331846 
L 309.618276 52.869119 
L 311.248068 52.090339 
L 312.87786 52.353661 
L 314.507652 52.08035 
L 316.137444 52.438167 
L 317.767236 51.392414 
L 319.397028 51.697006 
L 322.656612 51.152282 
L 324.286403 51.694312 
L 327.545987 52.539073 
L 330.805571 53.504391 
L 332.435363 54.025862 
L 334.065155 53.481229 
L 335.694947 54.015215 
L 338.95453 54.117884 
L 340.584322 54.241836 
L 342.214114 54.174374 
L 343.843906 54.567459 
L 345.473698 55.085226 
L 347.10349 53.473856 
L 348.733282 54.014126 
L 351.992866 54.519954 
L 353.622658 55.011399 
L 355.252449 55.14697 
L 358.512033 55.959769 
L 360.141825 55.810371 
L 363.401409 56.527377 
L 365.031201 56.902978 
L 366.660993 56.394766 
L 371.550368 57.869748 
L 373.18016 57.897026 
L 374.809952 58.353442 
L 378.069536 59.004645 
L 379.699328 58.923361 
L 381.32912 54.260028 
L 382.958912 54.473426 
L 384.588704 54.920492 
L 386.218495 54.964796 
L 387.848287 55.310409 
L 389.478079 54.545672 
L 391.107871 54.99996 
L 392.737663 55.281954 
L 394.367455 55.050893 
L 395.997247 52.962822 
L 397.627039 53.350413 
L 399.256831 53.40728 
L 404.146206 54.582471 
L 405.775998 55.010849 
L 407.40579 55.124611 
L 409.035582 54.272954 
L 410.665374 54.741476 
L 412.295166 51.259794 
L 417.184541 52.292012 
L 418.814333 52.697447 
L 420.444125 51.762557 
L 423.703709 52.398973 
L 425.333501 51.968522 
L 428.593085 52.796091 
L 430.222877 53.257288 
L 431.852668 53.517057 
L 435.112252 54.45063 
L 436.742044 54.422454 
L 438.371836 52.760819 
L 440.001628 52.301901 
L 443.261212 52.958377 
L 444.891004 51.783901 
L 446.520796 52.00807 
L 451.410171 53.311411 
L 457.929339 54.937269 
L 459.559131 55.223432 
L 461.188923 55.376481 
L 462.818714 55.750072 
L 464.448506 55.802447 
L 466.078298 54.395824 
L 469.337882 55.251436 
L 470.967674 55.147806 
L 475.85705 56.301019 
L 479.116633 56.987701 
L 480.746425 57.4279 
L 482.376217 57.747373 
L 484.006009 57.511956 
L 487.265593 58.249367 
L 492.154969 59.243044 
L 493.78476 59.272816 
L 495.414552 59.691624 
L 498.674136 60.149695 
L 500.303928 60.58456 
L 501.93372 59.559987 
L 503.563512 57.99771 
L 505.193304 57.784912 
L 511.712471 59.188459 
L 513.342263 59.546592 
L 514.972055 57.025113 
L 516.601847 56.11674 
L 518.231639 56.340957 
L 519.861431 56.270622 
L 523.121015 57.07494 
L 524.750806 57.179722 
L 526.380598 56.993797 
L 528.01039 57.395194 
L 529.640182 56.180004 
L 531.269974 56.39182 
L 532.899766 56.356344 
L 536.15935 57.144321 
L 539.418934 57.752279 
L 541.048725 57.766413 
L 542.678517 58.132958 
L 542.678517 58.132958 
" clip-path="url(#pd3345e1e86)" style="fill: none; stroke: #0000ff; stroke-width: 1.5; stroke-linecap: square"/>
   </g>
   <g id="patch_3">
    <path d="M 116.569426 339.84 
L 116.569426 7.2 
" style="fill: none; stroke: #000000; stroke-width: 0.8; stroke-linejoin: miter; stroke-linecap: square"/>
   </g>
   <g id="patch_4">
    <path d="M 562.969426 339.84 
L 562.969426 7.2 
" style="fill: none; stroke: #000000; stroke-width: 0.8; stroke-linejoin: miter; stroke-linecap: square"/>
   </g>
   <g id="patch_5">
    <path d="M 116.569426 339.84 
L 562.969426 339.84 
" style="fill: none; stroke: #000000; stroke-width: 0.8; stroke-linejoin: miter; stroke-linecap: square"/>
   </g>
   <g id="patch_6">
    <path d="M 116.569426 7.2 
L 562.969426 7.2 
" style="fill: none; stroke: #000000; stroke-width: 0.8; stroke-linejoin: miter; stroke-linecap: square"/>
   </g>
   <g id="legend_1">
    <g id="patch_7">
     <path d="M 394.176291 330.84 
L 550.369426 330.84 
Q 553.969426 330.84 553.969426 327.24 
L 553.969426 278.075416 
Q 553.969426 274.475416 550.369426 274.475416 
L 394.176291 274.475416 
Q 390.576291 274.475416 390.576291 278.075416 
L 390.576291 327.24 
Q 390.576291 330.84 394.176291 330.84 
z
" style="fill: #ffffff; opacity: 0.8; stroke: #cccccc; stroke-linejoin: miter"/>
    </g>
    <g id="line2d_31">
     <path d="M 397.776291 287.975416 
L 415.776291 287.975416 
L 433.776291 287.975416 
" style="fill: none; stroke: #0000ff; stroke-width: 1.5; stroke-linecap: square"/>
    </g>
    <g id="text_17">
     <!-- stan-MCMC -->
     <g transform="translate(448.176291 294.275416)scale(0.18 -0.18)">
      <defs>
       <path id="NimbusRomNo9L-Regu-6e" d="M 102 2547 
C 141 2566 205 2572 275 2572 
C 454 2572 512 2476 512 2163 
L 512 576 
C 512 211 442 121 115 96 
L 115 0 
L 1472 0 
L 1472 96 
C 1146 121 1050 198 1050 428 
L 1050 2227 
C 1357 2515 1498 2591 1709 2591 
C 2022 2591 2176 2393 2176 1971 
L 2176 633 
C 2176 230 2093 121 1773 96 
L 1773 0 
L 3104 0 
L 3104 96 
C 2790 128 2714 204 2714 518 
L 2714 1984 
C 2714 2585 2432 2944 1958 2944 
C 1664 2944 1466 2835 1030 2425 
L 1030 2931 
L 986 2944 
C 672 2828 454 2758 102 2655 
L 102 2547 
z
" transform="scale(0.015625)"/>
       <path id="NimbusRomNo9L-Regu-4d" d="M 4314 3656 
L 4314 765 
C 4314 236 4237 153 3731 121 
L 3731 0 
L 5523 0 
L 5523 121 
C 5056 153 4966 242 4966 695 
L 4966 3528 
C 4966 3981 5050 4064 5523 4102 
L 5523 4224 
L 4250 4224 
L 2835 1002 
L 1357 4224 
L 90 4224 
L 90 4102 
C 614 4070 698 3994 698 3528 
L 698 938 
C 698 281 608 159 77 121 
L 77 0 
L 1581 0 
L 1581 121 
C 1088 147 979 293 979 938 
L 979 3509 
L 2586 0 
L 2675 0 
L 4314 3656 
z
" transform="scale(0.015625)"/>
       <path id="NimbusRomNo9L-Regu-43" d="M 3968 2905 
L 3910 4352 
L 3776 4352 
C 3738 4217 3635 4140 3507 4140 
C 3450 4140 3354 4159 3258 4198 
C 2944 4300 2624 4352 2323 4352 
C 1798 4352 1267 4153 870 3801 
C 422 3405 179 2809 179 2105 
C 179 1510 371 960 698 595 
C 1082 179 1670 -64 2304 -64 
C 3027 -64 3661 230 4051 748 
L 3936 864 
C 3462 409 3040 217 2509 217 
C 2106 217 1747 345 1472 588 
C 1120 902 922 1478 922 2188 
C 922 3347 1517 4095 2445 4095 
C 2810 4095 3142 3961 3398 3705 
C 3603 3501 3699 3321 3821 2905 
L 3968 2905 
z
" transform="scale(0.015625)"/>
      </defs>
      <use xlink:href="#NimbusRomNo9L-Regu-73" transform="scale(0.996264)"/>
      <use xlink:href="#NimbusRomNo9L-Regu-74" transform="translate(38.753706 0)scale(0.996264)"/>
      <use xlink:href="#NimbusRomNo9L-Regu-61" transform="translate(66.448876 0)scale(0.996264)"/>
      <use xlink:href="#NimbusRomNo9L-Regu-6e" transform="translate(110.682444 0)scale(0.996264)"/>
      <use xlink:href="#NimbusRomNo9L-Regu-2d" transform="translate(160.495645 0)scale(0.996264)"/>
      <use xlink:href="#NimbusRomNo9L-Regu-4d" transform="translate(193.670875 0)scale(0.996264)"/>
      <use xlink:href="#NimbusRomNo9L-Regu-43" transform="translate(282.237781 0)scale(0.996264)"/>
      <use xlink:href="#NimbusRomNo9L-Regu-4d" transform="translate(348.687813 0)scale(0.996264)"/>
      <use xlink:href="#NimbusRomNo9L-Regu-43" transform="translate(437.254719 0)scale(0.996264)"/>
     </g>
    </g>
    <g id="line2d_32">
     <path d="M 397.776291 313.457708 
L 415.776291 313.457708 
L 433.776291 313.457708 
" style="fill: none; stroke: #ff0000; stroke-width: 1.5; stroke-linecap: square"/>
    </g>
    <g id="text_18">
     <!-- stan-VI-mean -->
     <g transform="translate(448.176291 319.757708)scale(0.18 -0.18)">
      <defs>
       <path id="NimbusRomNo9L-Regu-56" d="M 4461 4224 
L 3149 4224 
L 3149 4102 
C 3501 4083 3616 4013 3616 3835 
C 3616 3733 3571 3561 3494 3370 
L 2554 1032 
L 1587 3185 
C 1376 3650 1325 3796 1325 3892 
C 1325 4013 1414 4077 1619 4089 
C 1645 4089 1715 4095 1805 4102 
L 1805 4224 
L 102 4224 
L 102 4102 
C 416 4089 506 4000 781 3433 
L 2355 -64 
L 2451 -64 
L 3872 3510 
C 4083 4013 4154 4083 4461 4102 
L 4461 4224 
z
" transform="scale(0.015625)"/>
       <path id="NimbusRomNo9L-Regu-49" d="M 736 695 
C 736 217 653 140 115 121 
L 115 0 
L 2016 0 
L 2016 121 
C 1491 140 1389 230 1389 695 
L 1389 3528 
C 1389 3994 1478 4077 2016 4102 
L 2016 4224 
L 115 4224 
L 115 4102 
C 659 4070 736 4000 736 3528 
L 736 695 
z
" transform="scale(0.015625)"/>
      </defs>
      <use xlink:href="#NimbusRomNo9L-Regu-73" transform="scale(0.996264)"/>
      <use xlink:href="#NimbusRomNo9L-Regu-74" transform="translate(38.753706 0)scale(0.996264)"/>
      <use xlink:href="#NimbusRomNo9L-Regu-61" transform="translate(66.448876 0)scale(0.996264)"/>
      <use xlink:href="#NimbusRomNo9L-Regu-6e" transform="translate(110.682444 0)scale(0.996264)"/>
      <use xlink:href="#NimbusRomNo9L-Regu-2d" transform="translate(160.495645 0)scale(0.996264)"/>
      <use xlink:href="#NimbusRomNo9L-Regu-56" transform="translate(193.670875 0)scale(0.996264)"/>
      <use xlink:href="#NimbusRomNo9L-Regu-49" transform="translate(265.60086 0)scale(0.996264)"/>
      <use xlink:href="#NimbusRomNo9L-Regu-2d" transform="translate(298.776089 0)scale(0.996264)"/>
      <use xlink:href="#NimbusRomNo9L-Regu-6d" transform="translate(331.951319 0)scale(0.996264)"/>
      <use xlink:href="#NimbusRomNo9L-Regu-65" transform="translate(409.459689 0)scale(0.996264)"/>
      <use xlink:href="#NimbusRomNo9L-Regu-61" transform="translate(453.693258 0)scale(0.996264)"/>
      <use xlink:href="#NimbusRomNo9L-Regu-6e" transform="translate(497.926827 0)scale(0.996264)"/>
     </g>
    </g>
   </g>
  </g>
 </g>
 <defs>
  <clipPath id="pd3345e1e86">
   <rect x="116.569426" y="7.2" width="446.4" height="332.64"/>
  </clipPath>
 </defs>
</svg>
