<svg version="1.1" id="Layer_1" xmlns="http://www.w3.org/2000/svg" x="0" y="0" viewBox="0 0 525.2 291" xml:space="preserve"><style>.st0{fill:#434143}</style><path class="st0" d="M192.7 40.6C223.9 2 280.4-4.1 319 27.1a89.18 89.18 0 0126.6 35.6c-15.1-.7-30.3.1-45.2 2.5-4.3.8-8.6 1.6-12.8 2.3-14.5 2.8-29.5 5.7-44.3 4.9-19.5-1.1-38.5-13.1-50.6-31.8z"/><path d="M351 80.7c-31.5-2.5-64.1 9.9-85.7 33-4.4 4.9-8.4 10.1-12.1 15.5-6.7 9.3-12.9 18-21.9 23.5-11.2 6.8-26.1 7.1-38.2 1.3-24.7-30.1-27.1-72.6-6.2-105.3 13.8 19.5 34.5 31.8 55.8 33 1.9.1 3.8.2 5.7.2 13.9 0 27.6-2.6 40.9-5.1 4.2-.8 8.4-1.6 12.6-2.3 15.5-2.4 31.2-3.2 46.9-2.3.9 2.6 1.6 5.6 2.2 8.5z" fill="#f15b27"/><path class="st0" d="M352.4 97c0 49.6-40.2 89.8-89.7 89.8-20.6 0-40.5-7-56.5-20 1.7.2 3.5.3 5.2.3 8.7 0 17.2-2.3 24.6-6.7 10.6-6.4 17.6-16.3 24.5-25.9 3.5-5.1 7.3-10 11.5-14.7C292 98.3 322.7 87 352.1 90c.3 2.3.3 4.6.3 7z"/><path d="M0 289.8v-83.4h25.3c18.3 0 28.2 10.1 28.2 26.4 0 16.1-9.9 25.6-28.2 25.6H9.9v31.5l-9.9-.1zm9.9-75.1V250h15.4c11.6 0 18-6 18-17.3 0-11.6-6.7-18-18-18H9.9zm57.9 75.1v-83.4h25.3c18.4 0 28.2 10.1 28.2 26.4 0 16.1-9.9 25.6-28.2 25.6H77.7v31.5l-9.9-.1zm9.9-75.1V250h15.4c11.6 0 18-6 18-17.3 0-11.6-6.7-18-18-18H77.7zM182 289.8h-46.3v-83.4h9.9v75H182v8.4zm39.2-83.4h27.4c16.8 0 26.7 8.3 26.7 21.3 0 9.5-4.4 15.4-12.2 18.2 10.1 2.6 15.8 9.3 15.8 21 0 15.6-11.4 22.9-29.3 22.9h-28.5v-83.4zm9.9 8.3v27.5h17.5c10.1 0 16.3-4.1 16.3-14.1 0-8.5-6.1-13.5-16.3-13.5h-17.5zm0 35.7v31h18.6c12.2 0 19.1-3.9 19.1-15s-6.2-16-17.9-16h-19.8zm67.8 14.5c1.5 11.1 9.1 18.1 20 18.1 6.6 0 14.8-1.6 21.3-6l3.3 7.4c-7.5 4.3-14.6 6.6-24.8 6.6-18.1 0-29.6-12.4-29.6-29.9 0-18.2 11.6-30.4 27.4-30.4s28.2 12 28.2 30.9c0 1.1-.1 2.2-.2 3.3h-45.6zm-.1-7.1h36.3c-1.2-11.6-8.5-19.1-18.2-19.1-10.3 0-17.2 7.7-18.1 19.1zm68.1 32h-9.2v-57.4h9.2v7.4c5.5-5.3 12-9.1 19.7-9.1 11.3 0 18.5 7.6 18.5 21.1v38h-9.3v-36.9c0-9.8-4.3-14.3-11.2-14.3-6.7 0-12.2 3.3-17.6 9.1l-.1 42.1zm81-51.2c-13 0-21 9.2-21 22.4s8 22.1 20.7 22.1c5.6-.1 11.1-1.4 16.1-3.8l3.2 7.3c-6 3-12.6 4.5-19.3 4.5-19.2 0-30.3-12.5-30.3-30 0-18.2 12-30.3 30.6-30.3 6.3-.1 12.5 1.4 18.1 4.3l-3.3 7.5c-3.8-2.7-10-4-14.8-4zm39.2 51.2h-9.2v-87.5l9.2-2v39.5c5.5-5.3 12-9.1 19.7-9.1 11.3 0 18.5 7.6 18.5 21.1v38H516v-36.9c0-9.8-4.3-14.3-11.2-14.3-6.7 0-12.2 3.3-17.6 9.1l-.1 42.1z" fill="#fff"/></svg>