<svg xmlns="http://www.w3.org/2000/svg" viewBox="0 0 628.3 613.5"><path d="M99.8 446.1c-6.7 12-12 30.1-12 41.5 0 2.6 0 6 .7 10.7l-83.7-144C2 349.6 0 342.9 0 336.9c0-6 2-13.4 4.7-18.1l40.2-70.3L0 223.1l146-2.7 71 127.9-45.5-26.1-71.7 123.9zm64.3-405.9C176.8 18.1 197.6 6 223 6c27.5 0 48.9 12.7 64.3 38.8L310.1 83 231 219.7l-127.9-74.4 61-105.1zm9.3 521.7c-38.2 0-69.6-31.5-69.6-69.6 0-10.7 4.7-28.8 11.4-40.2l21.4-38.2h158.8v148h-122zM300.7 36.2c-10-17.4-23.4-29.5-39.5-36.2H426c14.7 0 26.1 6 32.8 17.4L499.7 87l44.1-26-71 127.3-145.3-2 44.9-25.4-71.7-124.7zm253.9 379.1c20.1 0 36.8-5.4 50.9-16.1l-83.1 144.6c-6.7 11.4-18.7 18.1-32.8 18.1h-78.4v51.6l-75-125.2 75-125.3v52.3h143.4zm64.2-120.6c6 10.7 9.4 22.1 9.4 34.2 0 24.1-15.4 49.6-36.8 61.6-10.1 5.4-24.1 8.8-38.2 8.8H509l-79-136.7 127.9-73 60.9 105.1z" fill="#f15a24"/></svg>