<?xml version="1.0" encoding="utf-8" standalone="no"?>
<!DOCTYPE svg PUBLIC "-//W3C//DTD SVG 1.1//EN"
  "http://www.w3.org/Graphics/SVG/1.1/DTD/svg11.dtd">
<!-- Created with matplotlib (https://matplotlib.org/) -->
<svg height="392.88125pt" version="1.1" viewBox="0 0 596.309375 392.88125" width="596.309375pt" xmlns="http://www.w3.org/2000/svg" xmlns:xlink="http://www.w3.org/1999/xlink">
 <defs>
  <style type="text/css">
*{stroke-linecap:butt;stroke-linejoin:round;}
  </style>
 </defs>
 <g id="figure_1">
  <g id="patch_1">
   <path d="M 0 392.88125 
L 596.309375 392.88125 
L 596.309375 0 
L 0 0 
z
" style="fill:#ffffff;"/>
  </g>
  <g id="axes_1">
   <g id="patch_2">
    <path d="M 142.709375 339.84 
L 589.109375 339.84 
L 589.109375 7.2 
L 142.709375 7.2 
z
" style="fill:#ffffff;"/>
   </g>
   <g id="PolyCollection_1">
    <defs>
     <path d="M 163.000284 -369.868585 
L 163.000284 -369.868585 
L 163.813547 -370.059827 
L 164.62681 -370.276302 
L 165.440073 -370.431375 
L 166.253336 -370.487208 
L 167.066599 -370.487308 
L 167.879861 -370.458405 
L 168.693124 -370.442818 
L 169.506387 -370.439189 
L 170.31965 -370.46176 
L 171.132913 -370.446771 
L 171.946176 -370.430702 
L 172.759439 -370.424917 
L 173.572702 -370.417888 
L 174.385965 -370.4072 
L 175.199227 -370.398741 
L 176.01249 -370.39682 
L 176.825753 -370.408032 
L 177.639016 -370.408371 
L 178.452279 -370.402074 
L 179.265542 -370.404841 
L 180.078805 -370.399777 
L 180.892068 -370.421364 
L 181.705331 -370.418772 
L 182.518593 -370.412317 
L 183.331856 -370.410915 
L 184.145119 -370.40525 
L 184.958382 -370.404022 
L 185.771645 -370.407556 
L 186.584908 -370.408756 
L 187.398171 -370.43036 
L 188.211434 -370.427433 
L 189.024697 -370.429665 
L 189.837959 -370.435859 
L 190.651222 -370.431447 
L 191.464485 -370.428664 
L 192.277748 -370.426374 
L 193.091011 -370.435602 
L 193.904274 -370.431906 
L 194.717537 -370.427358 
L 195.5308 -370.4228 
L 196.344063 -370.42594 
L 197.157325 -370.424309 
L 197.970588 -370.430348 
L 198.783851 -370.426515 
L 199.597114 -370.422587 
L 200.410377 -370.421622 
L 201.22364 -370.419338 
L 202.036903 -370.415741 
L 202.850166 -370.412711 
L 203.663429 -370.411398 
L 204.476691 -370.40778 
L 205.289954 -370.405074 
L 206.103217 -370.401789 
L 206.91648 -370.39866 
L 207.729743 -370.406415 
L 208.543006 -370.41097 
L 209.356269 -370.408485 
L 210.169532 -370.415837 
L 210.982795 -370.413197 
L 211.796057 -370.410158 
L 212.60932 -370.4184 
L 213.422583 -370.417744 
L 214.235846 -370.418365 
L 215.049109 -370.419216 
L 215.862372 -370.417034 
L 216.675635 -370.415413 
L 217.488898 -370.415111 
L 218.302161 -370.414456 
L 219.115423 -370.411762 
L 219.928686 -370.409816 
L 220.741949 -370.408217 
L 221.555212 -370.406476 
L 222.368475 -370.405118 
L 223.181738 -370.409458 
L 223.995001 -370.408375 
L 224.808264 -370.405995 
L 225.621527 -370.405887 
L 226.434789 -370.405677 
L 227.248052 -370.407834 
L 228.061315 -370.410905 
L 228.874578 -370.413033 
L 229.687841 -370.411089 
L 230.501104 -370.41414 
L 231.314367 -370.413479 
L 232.12763 -370.413784 
L 232.940893 -370.412769 
L 233.754155 -370.411105 
L 234.567418 -370.412044 
L 235.380681 -370.417472 
L 236.193944 -370.415804 
L 237.007207 -370.417501 
L 237.82047 -370.415639 
L 238.633733 -370.416283 
L 239.446996 -370.415748 
L 240.260259 -370.416834 
L 241.073521 -370.415407 
L 241.886784 -370.414036 
L 242.700047 -370.412209 
L 243.51331 -370.410333 
L 244.326573 -370.41764 
L 245.139836 -370.416245 
L 245.953099 -370.414483 
L 246.766362 -370.417077 
L 247.579625 -370.42191 
L 248.392887 -370.424668 
L 249.20615 -370.422938 
L 250.019413 -370.422002 
L 250.832676 -370.420971 
L 251.645939 -370.419496 
L 252.459202 -370.419216 
L 253.272465 -370.418649 
L 254.085728 -370.41762 
L 254.898991 -370.416741 
L 255.712253 -370.416789 
L 256.525516 -370.415639 
L 257.338779 -370.414045 
L 258.152042 -370.413999 
L 258.965305 -370.412854 
L 259.778568 -370.411626 
L 260.591831 -370.410138 
L 261.405094 -370.411068 
L 262.218357 -370.40958 
L 263.031619 -370.40885 
L 263.844882 -370.408839 
L 264.658145 -370.407425 
L 265.471408 -370.406186 
L 266.284671 -370.404712 
L 267.097934 -370.403978 
L 267.911197 -370.402527 
L 268.72446 -370.401087 
L 269.537723 -370.399835 
L 270.350985 -370.399066 
L 271.164248 -370.397707 
L 271.977511 -370.397986 
L 272.790774 -370.396829 
L 273.604037 -370.396167 
L 274.4173 -370.395035 
L 275.230563 -370.393927 
L 276.043826 -370.394161 
L 276.857089 -370.39351 
L 277.670351 -370.392974 
L 278.483614 -370.392295 
L 279.296877 -370.391106 
L 280.11014 -370.392965 
L 280.923403 -370.391749 
L 281.736666 -370.393058 
L 282.549929 -370.394598 
L 283.363192 -370.394726 
L 284.176455 -370.394853 
L 284.989718 -370.393704 
L 285.80298 -370.393399 
L 286.616243 -370.392274 
L 287.429506 -370.39171 
L 288.242769 -370.390907 
L 289.056032 -370.390584 
L 289.869295 -370.389642 
L 290.682558 -370.389618 
L 291.495821 -370.388706 
L 292.309084 -370.388573 
L 293.122346 -370.391488 
L 293.935609 -370.390773 
L 294.748872 -370.390562 
L 295.562135 -370.389457 
L 296.375398 -370.388649 
L 297.188661 -370.388436 
L 298.001924 -370.389268 
L 298.815187 -370.388335 
L 299.62845 -370.390896 
L 300.441712 -370.391412 
L 301.254975 -370.390314 
L 302.068238 -370.390669 
L 302.881501 -370.39129 
L 303.694764 -370.391008 
L 304.508027 -370.393016 
L 305.32129 -370.392698 
L 306.134553 -370.392286 
L 306.947816 -370.391281 
L 307.761078 -370.391392 
L 308.574341 -370.393904 
L 309.387604 -370.393565 
L 310.200867 -370.396826 
L 311.01413 -370.395868 
L 311.827393 -370.399308 
L 312.640656 -370.399879 
L 313.453919 -370.399139 
L 314.267182 -370.398232 
L 315.080444 -370.398988 
L 315.893707 -370.398194 
L 316.70697 -370.399964 
L 317.520233 -370.399274 
L 318.333496 -370.400955 
L 319.146759 -370.402145 
L 319.960022 -370.40121 
L 320.773285 -370.402877 
L 321.586548 -370.403174 
L 322.39981 -370.402287 
L 323.213073 -370.401452 
L 324.026336 -370.400534 
L 324.839599 -370.399802 
L 325.652862 -370.401277 
L 326.466125 -370.404337 
L 327.279388 -370.404191 
L 328.092651 -370.403642 
L 328.905914 -370.40273 
L 329.719176 -370.402726 
L 330.532439 -370.401816 
L 331.345702 -370.401277 
L 332.158965 -370.401817 
L 332.972228 -370.401554 
L 333.785491 -370.400722 
L 334.598754 -370.400208 
L 335.412017 -370.399443 
L 336.22528 -370.398593 
L 337.038542 -370.401689 
L 337.851805 -370.401796 
L 338.665068 -370.401528 
L 339.478331 -370.40067 
L 340.291594 -370.402385 
L 341.104857 -370.402299 
L 341.91812 -370.401961 
L 342.731383 -370.40127 
L 343.544646 -370.402206 
L 344.357908 -370.404554 
L 345.171171 -370.40609 
L 345.984434 -370.406411 
L 346.797697 -370.408049 
L 347.61096 -370.407321 
L 348.424223 -370.407268 
L 349.237486 -370.406555 
L 350.050749 -370.408299 
L 350.864012 -370.410965 
L 351.677274 -370.410529 
L 352.490537 -370.41122 
L 353.3038 -370.411195 
L 354.117063 -370.410578 
L 354.930326 -370.410009 
L 355.743589 -370.410229 
L 356.556852 -370.409556 
L 357.370115 -370.40896 
L 358.183378 -370.40838 
L 358.99664 -370.407696 
L 359.809903 -370.407185 
L 360.623166 -370.40822 
L 361.436429 -370.407856 
L 362.249692 -370.407092 
L 363.062955 -370.406441 
L 363.876218 -370.405682 
L 364.689481 -370.405351 
L 365.502744 -370.406964 
L 366.316006 -370.40677 
L 367.129269 -370.406207 
L 367.942532 -370.406147 
L 368.755795 -370.405533 
L 369.569058 -370.404809 
L 370.382321 -370.404244 
L 371.195584 -370.404275 
L 372.008847 -370.405399 
L 372.82211 -370.40491 
L 373.635372 -370.404217 
L 374.448635 -370.403505 
L 375.261898 -370.405434 
L 376.075161 -370.404724 
L 376.888424 -370.404437 
L 377.701687 -370.404174 
L 378.51495 -370.40368 
L 379.328213 -370.402988 
L 380.141476 -370.40295 
L 380.954738 -370.402305 
L 381.768001 -370.401627 
L 382.581264 -370.402863 
L 383.394527 -370.40219 
L 384.20779 -370.402102 
L 385.021053 -370.401648 
L 385.834316 -370.40146 
L 386.647579 -370.401033 
L 387.460842 -370.402136 
L 388.274104 -370.401976 
L 389.087367 -370.402027 
L 389.90063 -370.401497 
L 390.713893 -370.401527 
L 391.527156 -370.400864 
L 392.340419 -370.400353 
L 393.153682 -370.399748 
L 393.966945 -370.399303 
L 394.780208 -370.398646 
L 395.59347 -370.39802 
L 396.406733 -370.398764 
L 397.219996 -370.399332 
L 398.033259 -370.401388 
L 398.846522 -370.403115 
L 399.659785 -370.402975 
L 400.473048 -370.402849 
L 401.286311 -370.402482 
L 402.099574 -370.402262 
L 402.912836 -370.402291 
L 403.726099 -370.403844 
L 404.539362 -370.403311 
L 405.352625 -370.404401 
L 406.165888 -370.404015 
L 406.979151 -370.403468 
L 407.792414 -370.404336 
L 408.605677 -370.404085 
L 409.41894 -370.403739 
L 410.232202 -370.403234 
L 411.045465 -370.40263 
L 411.858728 -370.402076 
L 412.671991 -370.401475 
L 413.485254 -370.401974 
L 414.298517 -370.401596 
L 415.11178 -370.401614 
L 415.925043 -370.401877 
L 416.738306 -370.401554 
L 417.551568 -370.402167 
L 418.364831 -370.403306 
L 419.178094 -370.403066 
L 419.991357 -370.402504 
L 420.80462 -370.402618 
L 421.617883 -370.40318 
L 422.431146 -370.405347 
L 423.244409 -370.405984 
L 424.057672 -370.406256 
L 424.870934 -370.405835 
L 425.684197 -370.405601 
L 426.49746 -370.40601 
L 427.310723 -370.406114 
L 428.123986 -370.405695 
L 428.937249 -370.405129 
L 429.750512 -370.405314 
L 430.563775 -370.404925 
L 431.377038 -370.404875 
L 432.1903 -370.404355 
L 433.003563 -370.404379 
L 433.816826 -370.404306 
L 434.630089 -370.404767 
L 435.443352 -370.405394 
L 436.256615 -370.405987 
L 437.069878 -370.407036 
L 437.883141 -370.406931 
L 438.696404 -370.406486 
L 439.509666 -370.406211 
L 440.322929 -370.405712 
L 441.136192 -370.405784 
L 441.949455 -370.405393 
L 442.762718 -370.405895 
L 443.575981 -370.405737 
L 444.389244 -370.405299 
L 445.202507 -370.404907 
L 446.01577 -370.404509 
L 446.829032 -370.404085 
L 447.642295 -370.404509 
L 448.455558 -370.404099 
L 449.268821 -370.403577 
L 450.082084 -370.403526 
L 450.895347 -370.403005 
L 451.70861 -370.402497 
L 452.521873 -370.402468 
L 453.335136 -370.40229 
L 454.148399 -370.402231 
L 454.961661 -370.401831 
L 455.774924 -370.401587 
L 456.588187 -370.401806 
L 457.40145 -370.401937 
L 458.214713 -370.401441 
L 459.027976 -370.40106 
L 459.841239 -370.40063 
L 460.654502 -370.400735 
L 461.467765 -370.401394 
L 462.281027 -370.401379 
L 463.09429 -370.400922 
L 463.907553 -370.400623 
L 464.720816 -370.400274 
L 465.534079 -370.399909 
L 466.347342 -370.399422 
L 467.160605 -370.399318 
L 467.973868 -370.39942 
L 468.787131 -370.399709 
L 469.600393 -370.399382 
L 470.413656 -370.399153 
L 471.226919 -370.399069 
L 472.040182 -370.400568 
L 472.853445 -370.400087 
L 473.666708 -370.399826 
L 474.479971 -370.399662 
L 475.293234 -370.399181 
L 476.106497 -370.398961 
L 476.919759 -370.398687 
L 477.733022 -370.398678 
L 478.546285 -370.398848 
L 479.359548 -370.399209 
L 480.172811 -370.399608 
L 480.986074 -370.399407 
L 481.799337 -370.399463 
L 482.6126 -370.400559 
L 483.425863 -370.400085 
L 484.239125 -370.399625 
L 485.052388 -370.399211 
L 485.865651 -370.39875 
L 486.678914 -370.398557 
L 487.492177 -370.399053 
L 488.30544 -370.399042 
L 489.118703 -370.398578 
L 489.931966 -370.399287 
L 490.745229 -370.399215 
L 491.558491 -370.399207 
L 492.371754 -370.400976 
L 493.185017 -370.400514 
L 493.99828 -370.400093 
L 494.811543 -370.40003 
L 495.624806 -370.400065 
L 496.438069 -370.39961 
L 497.251332 -370.400006 
L 498.064595 -370.399614 
L 498.877857 -370.399377 
L 499.69112 -370.399472 
L 500.504383 -370.399086 
L 501.317646 -370.39893 
L 502.130909 -370.398493 
L 502.944172 -370.399159 
L 503.757435 -370.398908 
L 504.570698 -370.398482 
L 505.383961 -370.398414 
L 506.197223 -370.399839 
L 507.010486 -370.399402 
L 507.823749 -370.399336 
L 508.637012 -370.398903 
L 509.450275 -370.398577 
L 510.263538 -370.398301 
L 511.076801 -370.398104 
L 511.890064 -370.397786 
L 512.703327 -370.39735 
L 513.516589 -370.3971 
L 514.329852 -370.396714 
L 515.143115 -370.396373 
L 515.956378 -370.396135 
L 516.769641 -370.395713 
L 517.582904 -370.395299 
L 518.396167 -370.394946 
L 519.20943 -370.394562 
L 520.022693 -370.395913 
L 520.835955 -370.395999 
L 521.649218 -370.395698 
L 522.462481 -370.395952 
L 523.275744 -370.395565 
L 524.089007 -370.395164 
L 524.90227 -370.395069 
L 525.715533 -370.396008 
L 526.528796 -370.395699 
L 527.342059 -370.395744 
L 528.155321 -370.395329 
L 528.968584 -370.394934 
L 529.781847 -370.396085 
L 530.59511 -370.395734 
L 531.408373 -370.395319 
L 532.221636 -370.395123 
L 533.034899 -370.395697 
L 533.848162 -370.396921 
L 534.661425 -370.396549 
L 535.474687 -370.396182 
L 536.28795 -370.395821 
L 537.101213 -370.395469 
L 537.914476 -370.395134 
L 538.727739 -370.39493 
L 539.541002 -370.394767 
L 540.354265 -370.394393 
L 541.167528 -370.393995 
L 541.980791 -370.393601 
L 542.794053 -370.393659 
L 543.607316 -370.393779 
L 544.420579 -370.393516 
L 545.233842 -370.39323 
L 546.047105 -370.392833 
L 546.860368 -370.39244 
L 547.673631 -370.392133 
L 548.486894 -370.392422 
L 549.300157 -370.39204 
L 550.113419 -370.391763 
L 550.926682 -370.391882 
L 551.739945 -370.391489 
L 552.553208 -370.39315 
L 553.366471 -370.393449 
L 554.179734 -370.393155 
L 554.992997 -370.392807 
L 555.80626 -370.39315 
L 556.619523 -370.392778 
L 557.432785 -370.392851 
L 558.246048 -370.39349 
L 559.059311 -370.393306 
L 559.872574 -370.392948 
L 560.685837 -370.394081 
L 561.4991 -370.393741 
L 562.312363 -370.393376 
L 563.125626 -370.393354 
L 563.938889 -370.393485 
L 564.752151 -370.39379 
L 565.565414 -370.39356 
L 566.378677 -370.393183 
L 567.19194 -370.393455 
L 568.005203 -370.393304 
L 568.818466 -370.393049 
L 568.818466 -370.393049 
L 568.818466 -370.449405 
L 568.005203 -370.449575 
L 567.19194 -370.449526 
L 566.378677 -370.449671 
L 565.565414 -370.449894 
L 564.752151 -370.450256 
L 563.938889 -370.450299 
L 563.125626 -370.449889 
L 562.312363 -370.449158 
L 561.4991 -370.44862 
L 560.685837 -370.448732 
L 559.872574 -370.44908 
L 559.059311 -370.449113 
L 558.246048 -370.449497 
L 557.432785 -370.449703 
L 556.619523 -370.450042 
L 555.80626 -370.450285 
L 554.992997 -370.45053 
L 554.179734 -370.450477 
L 553.366471 -370.450859 
L 552.553208 -370.450935 
L 551.739945 -370.451263 
L 550.926682 -370.451407 
L 550.113419 -370.451532 
L 549.300157 -370.451871 
L 548.486894 -370.452084 
L 547.673631 -370.45248 
L 546.860368 -370.452843 
L 546.047105 -370.453211 
L 545.233842 -370.453225 
L 544.420579 -370.453188 
L 543.607316 -370.453412 
L 542.794053 -370.453236 
L 541.980791 -370.453608 
L 541.167528 -370.453864 
L 540.354265 -370.453785 
L 539.541002 -370.45373 
L 538.727739 -370.454004 
L 537.914476 -370.454113 
L 537.101213 -370.454138 
L 536.28795 -370.454072 
L 535.474687 -370.454161 
L 534.661425 -370.454413 
L 533.848162 -370.454626 
L 533.034899 -370.454927 
L 532.221636 -370.455065 
L 531.408373 -370.454618 
L 530.59511 -370.453313 
L 529.781847 -370.453677 
L 528.968584 -370.4535 
L 528.155321 -370.453573 
L 527.342059 -370.453604 
L 526.528796 -370.45398 
L 525.715533 -370.453598 
L 524.90227 -370.453097 
L 524.089007 -370.453233 
L 523.275744 -370.453656 
L 522.462481 -370.453597 
L 521.649218 -370.453625 
L 520.835955 -370.453339 
L 520.022693 -370.453486 
L 519.20943 -370.453849 
L 518.396167 -370.454171 
L 517.582904 -370.454247 
L 516.769641 -370.452663 
L 515.956378 -370.452753 
L 515.143115 -370.45303 
L 514.329852 -370.452613 
L 513.516589 -370.452083 
L 512.703327 -370.452432 
L 511.890064 -370.452423 
L 511.076801 -370.452861 
L 510.263538 -370.452652 
L 509.450275 -370.452353 
L 508.637012 -370.452014 
L 507.823749 -370.452029 
L 507.010486 -370.452238 
L 506.197223 -370.451263 
L 505.383961 -370.450477 
L 504.570698 -370.450861 
L 503.757435 -370.450339 
L 502.944172 -370.450166 
L 502.130909 -370.450356 
L 501.317646 -370.450804 
L 500.504383 -370.45032 
L 499.69112 -370.450645 
L 498.877857 -370.450372 
L 498.064595 -370.450516 
L 497.251332 -370.450833 
L 496.438069 -370.45092 
L 495.624806 -370.451248 
L 494.811543 -370.45108 
L 493.99828 -370.450975 
L 493.185017 -370.451263 
L 492.371754 -370.450127 
L 491.558491 -370.450278 
L 490.745229 -370.450719 
L 489.931966 -370.450918 
L 489.118703 -370.450658 
L 488.30544 -370.44946 
L 487.492177 -370.449597 
L 486.678914 -370.449778 
L 485.865651 -370.450219 
L 485.052388 -370.450679 
L 484.239125 -370.451004 
L 483.425863 -370.450701 
L 482.6126 -370.450328 
L 481.799337 -370.449725 
L 480.986074 -370.450081 
L 480.172811 -370.450526 
L 479.359548 -370.450313 
L 478.546285 -370.450703 
L 477.733022 -370.44962 
L 476.919759 -370.450078 
L 476.106497 -370.450468 
L 475.293234 -370.448869 
L 474.479971 -370.448221 
L 473.666708 -370.448533 
L 472.853445 -370.44877 
L 472.040182 -370.448939 
L 471.226919 -370.449294 
L 470.413656 -370.449788 
L 469.600393 -370.450149 
L 468.787131 -370.450577 
L 467.973868 -370.451018 
L 467.160605 -370.450589 
L 466.347342 -370.451058 
L 465.534079 -370.451141 
L 464.720816 -370.451471 
L 463.907553 -370.451774 
L 463.09429 -370.451724 
L 462.281027 -370.452217 
L 461.467765 -370.452631 
L 460.654502 -370.452971 
L 459.841239 -370.452765 
L 459.027976 -370.452957 
L 458.214713 -370.453468 
L 457.40145 -370.45379 
L 456.588187 -370.453982 
L 455.774924 -370.454175 
L 454.961661 -370.453899 
L 454.148399 -370.453752 
L 453.335136 -370.452999 
L 452.521873 -370.453517 
L 451.70861 -370.453028 
L 450.895347 -370.453524 
L 450.082084 -370.453781 
L 449.268821 -370.4537 
L 448.455558 -370.452727 
L 447.642295 -370.452882 
L 446.829032 -370.452674 
L 446.01577 -370.453209 
L 445.202507 -370.451653 
L 444.389244 -370.452012 
L 443.575981 -370.45234 
L 442.762718 -370.45285 
L 441.949455 -370.453187 
L 441.136192 -370.453383 
L 440.322929 -370.45391 
L 439.509666 -370.454333 
L 438.696404 -370.454209 
L 437.883141 -370.454035 
L 437.069878 -370.454588 
L 436.256615 -370.45496 
L 435.443352 -370.454602 
L 434.630089 -370.453956 
L 433.816826 -370.454478 
L 433.003563 -370.455008 
L 432.1903 -370.455298 
L 431.377038 -370.455509 
L 430.563775 -370.455127 
L 429.750512 -370.455351 
L 428.937249 -370.455663 
L 428.123986 -370.454686 
L 427.310723 -370.453628 
L 426.49746 -370.453624 
L 425.684197 -370.454096 
L 424.870934 -370.454574 
L 424.057672 -370.453856 
L 423.244409 -370.45321 
L 422.431146 -370.453708 
L 421.617883 -370.454146 
L 420.80462 -370.454626 
L 419.991357 -370.453877 
L 419.178094 -370.454276 
L 418.364831 -370.453793 
L 417.551568 -370.453593 
L 416.738306 -370.45408 
L 415.925043 -370.4546 
L 415.11178 -370.454847 
L 414.298517 -370.454288 
L 413.485254 -370.454524 
L 412.671991 -370.455091 
L 411.858728 -370.455626 
L 411.045465 -370.456057 
L 410.232202 -370.456577 
L 409.41894 -370.456256 
L 408.605677 -370.456861 
L 407.792414 -370.457196 
L 406.979151 -370.457732 
L 406.165888 -370.45832 
L 405.352625 -370.458925 
L 404.539362 -370.459138 
L 403.726099 -370.459645 
L 402.912836 -370.459472 
L 402.099574 -370.459949 
L 401.286311 -370.460482 
L 400.473048 -370.460916 
L 399.659785 -370.461557 
L 398.846522 -370.461892 
L 398.033259 -370.462065 
L 397.219996 -370.461853 
L 396.406733 -370.462404 
L 395.59347 -370.463029 
L 394.780208 -370.463668 
L 393.966945 -370.464035 
L 393.153682 -370.464646 
L 392.340419 -370.465254 
L 391.527156 -370.465654 
L 390.713893 -370.466222 
L 389.90063 -370.466157 
L 389.087367 -370.466816 
L 388.274104 -370.466944 
L 387.460842 -370.467177 
L 386.647579 -370.467855 
L 385.834316 -370.468493 
L 385.021053 -370.468875 
L 384.20779 -370.469537 
L 383.394527 -370.469219 
L 382.581264 -370.468809 
L 381.768001 -370.467798 
L 380.954738 -370.468038 
L 380.141476 -370.468675 
L 379.328213 -370.468868 
L 378.51495 -370.469571 
L 377.701687 -370.470269 
L 376.888424 -370.470538 
L 376.075161 -370.47097 
L 375.261898 -370.471196 
L 374.448635 -370.47166 
L 373.635372 -370.471948 
L 372.82211 -370.472671 
L 372.008847 -370.472634 
L 371.195584 -370.473265 
L 370.382321 -370.472939 
L 369.569058 -370.473156 
L 368.755795 -370.473198 
L 367.942532 -370.473867 
L 367.129269 -370.473826 
L 366.316006 -370.472411 
L 365.502744 -370.472893 
L 364.689481 -370.472766 
L 363.876218 -370.472436 
L 363.062955 -370.472253 
L 362.249692 -370.471994 
L 361.436429 -370.472642 
L 360.623166 -370.472314 
L 359.809903 -370.472821 
L 358.99664 -370.473592 
L 358.183378 -370.473746 
L 357.370115 -370.474177 
L 356.556852 -370.473772 
L 355.743589 -370.472033 
L 354.930326 -370.47263 
L 354.117063 -370.472419 
L 353.3038 -370.472901 
L 352.490537 -370.472071 
L 351.677274 -370.4707 
L 350.864012 -370.468816 
L 350.050749 -370.469276 
L 349.237486 -370.469827 
L 348.424223 -370.469998 
L 347.61096 -370.470013 
L 346.797697 -370.470821 
L 345.984434 -370.470397 
L 345.171171 -370.468272 
L 344.357908 -370.468624 
L 343.544646 -370.469038 
L 342.731383 -370.469164 
L 341.91812 -370.46913 
L 341.104857 -370.469941 
L 340.291594 -370.467283 
L 339.478331 -370.467729 
L 338.665068 -370.466016 
L 337.851805 -370.465318 
L 337.038542 -370.465793 
L 336.22528 -370.465637 
L 335.412017 -370.463961 
L 334.598754 -370.464239 
L 333.785491 -370.464527 
L 332.972228 -370.464799 
L 332.158965 -370.465639 
L 331.345702 -370.466429 
L 330.532439 -370.465532 
L 329.719176 -370.465824 
L 328.905914 -370.46517 
L 328.092651 -370.465491 
L 327.279388 -370.466303 
L 326.466125 -370.467093 
L 325.652862 -370.465677 
L 324.839599 -370.464541 
L 324.026336 -370.4652 
L 323.213073 -370.465688 
L 322.39981 -370.465299 
L 321.586548 -370.466008 
L 320.773285 -370.466963 
L 319.960022 -370.466094 
L 319.146759 -370.464484 
L 318.333496 -370.465459 
L 317.520233 -370.466279 
L 316.70697 -370.466653 
L 315.893707 -370.46561 
L 315.080444 -370.466467 
L 314.267182 -370.465425 
L 313.453919 -370.466365 
L 312.640656 -370.465622 
L 311.827393 -370.463095 
L 311.01413 -370.46325 
L 310.200867 -370.462521 
L 309.387604 -370.46146 
L 308.574341 -370.460356 
L 307.761078 -370.461073 
L 306.947816 -370.461207 
L 306.134553 -370.461316 
L 305.32129 -370.461285 
L 304.508027 -370.461341 
L 303.694764 -370.459992 
L 302.881501 -370.460794 
L 302.068238 -370.461471 
L 301.254975 -370.462562 
L 300.441712 -370.463349 
L 299.62845 -370.464179 
L 298.815187 -370.465266 
L 298.001924 -370.463947 
L 297.188661 -370.463873 
L 296.375398 -370.464916 
L 295.562135 -370.465714 
L 294.748872 -370.466863 
L 293.935609 -370.467973 
L 293.122346 -370.46913 
L 292.309084 -370.469985 
L 291.495821 -370.470144 
L 290.682558 -370.471174 
L 289.869295 -370.472121 
L 289.056032 -370.473294 
L 288.242769 -370.474002 
L 287.429506 -370.475204 
L 286.616243 -370.476095 
L 285.80298 -370.476396 
L 284.989718 -370.475541 
L 284.176455 -370.473258 
L 283.363192 -370.473212 
L 282.549929 -370.473918 
L 281.736666 -370.47386 
L 280.923403 -370.475017 
L 280.11014 -370.474368 
L 279.296877 -370.474471 
L 278.483614 -370.475772 
L 277.670351 -370.475969 
L 276.857089 -370.472479 
L 276.043826 -370.473762 
L 275.230563 -370.470239 
L 274.4173 -370.471592 
L 273.604037 -370.472924 
L 272.790774 -370.471866 
L 271.977511 -370.471711 
L 271.164248 -370.471988 
L 270.350985 -370.472843 
L 269.537723 -370.473982 
L 268.72446 -370.473611 
L 267.911197 -370.472606 
L 267.097934 -370.473726 
L 266.284671 -370.473436 
L 265.471408 -370.474796 
L 264.658145 -370.473486 
L 263.844882 -370.474924 
L 263.031619 -370.476119 
L 262.218357 -370.47746 
L 261.405094 -370.478871 
L 260.591831 -370.477817 
L 259.778568 -370.476027 
L 258.965305 -370.474917 
L 258.152042 -370.475786 
L 257.338779 -370.474738 
L 256.525516 -370.476333 
L 255.712253 -370.477851 
L 254.898991 -370.478635 
L 254.085728 -370.479933 
L 253.272465 -370.47721 
L 252.459202 -370.478303 
L 251.645939 -370.479153 
L 250.832676 -370.480602 
L 250.019413 -370.478644 
L 249.20615 -370.479941 
L 248.392887 -370.481183 
L 247.579625 -370.477394 
L 246.766362 -370.478831 
L 245.953099 -370.478088 
L 245.139836 -370.479666 
L 244.326573 -370.474402 
L 243.51331 -370.475804 
L 242.700047 -370.47328 
L 241.886784 -370.475049 
L 241.073521 -370.475447 
L 240.260259 -370.476599 
L 239.446996 -370.475884 
L 238.633733 -370.477132 
L 237.82047 -370.47386 
L 237.007207 -370.472536 
L 236.193944 -370.474589 
L 235.380681 -370.475279 
L 234.567418 -370.476959 
L 233.754155 -370.472923 
L 232.940893 -370.474943 
L 232.12763 -370.474663 
L 231.314367 -370.476016 
L 230.501104 -370.477482 
L 229.687841 -370.478657 
L 228.874578 -370.479801 
L 228.061315 -370.476204 
L 227.248052 -370.478125 
L 226.434789 -370.475893 
L 225.621527 -370.477627 
L 224.808264 -370.480023 
L 223.995001 -370.477658 
L 223.181738 -370.48002 
L 222.368475 -370.478882 
L 221.555212 -370.47857 
L 220.741949 -370.479752 
L 219.928686 -370.482271 
L 219.115423 -370.484935 
L 218.302161 -370.487639 
L 217.488898 -370.490144 
L 216.675635 -370.487624 
L 215.862372 -370.483148 
L 215.049109 -370.482964 
L 214.235846 -370.477559 
L 213.422583 -370.480115 
L 212.60932 -370.47429 
L 211.796057 -370.476668 
L 210.982795 -370.469552 
L 210.169532 -370.472693 
L 209.356269 -370.475115 
L 208.543006 -370.477 
L 207.729743 -370.474058 
L 206.91648 -370.477146 
L 206.103217 -370.479277 
L 205.289954 -370.481161 
L 204.476691 -370.479655 
L 203.663429 -370.482572 
L 202.850166 -370.47547 
L 202.036903 -370.476936 
L 201.22364 -370.469841 
L 200.410377 -370.4589 
L 199.597114 -370.461371 
L 198.783851 -370.462964 
L 197.970588 -370.460277 
L 197.157325 -370.450888 
L 196.344063 -370.449086 
L 195.5308 -370.440272 
L 194.717537 -370.443582 
L 193.904274 -370.438827 
L 193.091011 -370.441195 
L 192.277748 -370.443977 
L 191.464485 -370.441839 
L 190.651222 -370.442303 
L 189.837959 -370.441287 
L 189.024697 -370.431573 
L 188.211434 -370.432 
L 187.398171 -370.430372 
L 186.584908 -370.42575 
L 185.771645 -370.429179 
L 184.958382 -370.43528 
L 184.145119 -370.437711 
L 183.331856 -370.421376 
L 182.518593 -370.418356 
L 181.705331 -370.423859 
L 180.892068 -370.43185 
L 180.078805 -370.429685 
L 179.265542 -370.433673 
L 178.452279 -370.436769 
L 177.639016 -370.444388 
L 176.825753 -370.452608 
L 176.01249 -370.461083 
L 175.199227 -370.457646 
L 174.385965 -370.467146 
L 173.572702 -370.433504 
L 172.759439 -370.445795 
L 171.946176 -370.460545 
L 171.132913 -370.453925 
L 170.31965 -370.47153 
L 169.506387 -370.48782 
L 168.693124 -370.509212 
L 167.879861 -370.534307 
L 167.066599 -370.56125 
L 166.253336 -370.509563 
L 165.440073 -370.474256 
L 164.62681 -370.351632 
L 163.813547 -370.245872 
L 163.000284 -369.945493 
z
" id="me79bc805a4" style="stroke:#ff0000;stroke-opacity:0.3;"/>
    </defs>
    <g clip-path="url(#pf2d1c38c9c)">
     <use style="fill:#ff0000;fill-opacity:0.3;stroke:#ff0000;stroke-opacity:0.3;" x="0" xlink:href="#me79bc805a4" y="392.88125"/>
    </g>
   </g>
   <g id="PolyCollection_2">
    <defs>
     <path d="M 163.000284 -68.16125 
L 163.000284 -68.16125 
L 163.813547 -68.16125 
L 164.62681 -68.16125 
L 165.440073 -68.16125 
L 166.253336 -115.256919 
L 167.066599 -214.431719 
L 167.879861 -253.782908 
L 168.693124 -259.582073 
L 169.506387 -262.465369 
L 170.31965 -318.718672 
L 171.132913 -325.391405 
L 171.946176 -327.730167 
L 172.759439 -327.964412 
L 173.572702 -357.001825 
L 174.385965 -361.662943 
L 175.199227 -364.040134 
L 176.01249 -366.085973 
L 176.825753 -366.498523 
L 177.639016 -367.124514 
L 178.452279 -367.153766 
L 179.265542 -368.127404 
L 180.078805 -369.496269 
L 180.892068 -369.644058 
L 181.705331 -369.636384 
L 182.518593 -369.628725 
L 183.331856 -369.621458 
L 184.145119 -369.614572 
L 184.958382 -369.621728 
L 185.771645 -369.628154 
L 186.584908 -369.646925 
L 187.398171 -369.648067 
L 188.211434 -369.924164 
L 189.024697 -370.054126 
L 189.837959 -370.102927 
L 190.651222 -370.11005 
L 191.464485 -370.160923 
L 192.277748 -370.157041 
L 193.091011 -370.15517 
L 193.904274 -370.151253 
L 194.717537 -370.150908 
L 195.5308 -370.148165 
L 196.344063 -370.143636 
L 197.157325 -370.139213 
L 197.970588 -370.134921 
L 198.783851 -370.132324 
L 199.597114 -370.146013 
L 200.410377 -370.141993 
L 201.22364 -370.13809 
L 202.036903 -370.18961 
L 202.850166 -370.186115 
L 203.663429 -370.182576 
L 204.476691 -370.179072 
L 205.289954 -370.175585 
L 206.103217 -370.201803 
L 206.91648 -370.198379 
L 207.729743 -370.195012 
L 208.543006 -370.197653 
L 209.356269 -370.212666 
L 210.169532 -370.210411 
L 210.982795 -370.209684 
L 211.796057 -370.207248 
L 212.60932 -370.204348 
L 213.422583 -370.209314 
L 214.235846 -370.206707 
L 215.049109 -370.204431 
L 215.862372 -370.202198 
L 216.675635 -370.19995 
L 217.488898 -370.211623 
L 218.302161 -370.209758 
L 219.115423 -370.207397 
L 219.928686 -370.204867 
L 220.741949 -370.211353 
L 221.555212 -370.209277 
L 222.368475 -370.206721 
L 223.181738 -370.220723 
L 223.995001 -370.21853 
L 224.808264 -370.216104 
L 225.621527 -370.214261 
L 226.434789 -370.21355 
L 227.248052 -370.214813 
L 228.061315 -370.213843 
L 228.874578 -370.2189 
L 229.687841 -370.219998 
L 230.501104 -370.217907 
L 231.314367 -370.217623 
L 232.12763 -370.215437 
L 232.940893 -370.21413 
L 233.754155 -370.21326 
L 234.567418 -370.211389 
L 235.380681 -370.217309 
L 236.193944 -370.2237 
L 237.007207 -370.221646 
L 237.82047 -370.219839 
L 238.633733 -370.218705 
L 239.446996 -370.219569 
L 240.260259 -370.21883 
L 241.073521 -370.218956 
L 241.886784 -370.218142 
L 242.700047 -370.218468 
L 243.51331 -370.218157 
L 244.326573 -370.218152 
L 245.139836 -370.218147 
L 245.953099 -370.217101 
L 246.766362 -370.21601 
L 247.579625 -370.223953 
L 248.392887 -370.228141 
L 249.20615 -370.226399 
L 250.019413 -370.224725 
L 250.832676 -370.223043 
L 251.645939 -370.221377 
L 252.459202 -370.219851 
L 253.272465 -370.227001 
L 254.085728 -370.2265 
L 254.898991 -370.225178 
L 255.712253 -370.22387 
L 256.525516 -370.224048 
L 257.338779 -370.222566 
L 258.152042 -370.221516 
L 258.965305 -370.219931 
L 259.778568 -370.218672 
L 260.591831 -370.217762 
L 261.405094 -370.223384 
L 262.218357 -370.230109 
L 263.031619 -370.231063 
L 263.844882 -370.234437 
L 264.658145 -370.233172 
L 265.471408 -370.233579 
L 266.284671 -370.234165 
L 267.097934 -370.233632 
L 267.911197 -370.232241 
L 268.72446 -370.230842 
L 269.537723 -370.229886 
L 270.350985 -370.228604 
L 271.164248 -370.227332 
L 271.977511 -370.226062 
L 272.790774 -370.225265 
L 273.604037 -370.225727 
L 274.4173 -370.225867 
L 275.230563 -370.225146 
L 276.043826 -370.223834 
L 276.857089 -370.223994 
L 277.670351 -370.22284 
L 278.483614 -370.221675 
L 279.296877 -370.225322 
L 280.11014 -370.224034 
L 280.923403 -370.222976 
L 281.736666 -370.221926 
L 282.549929 -370.221516 
L 283.363192 -370.22086 
L 284.176455 -370.220213 
L 284.989718 -370.218976 
L 285.80298 -370.217858 
L 286.616243 -370.216687 
L 287.429506 -370.21584 
L 288.242769 -370.215 
L 289.056032 -370.213813 
L 289.869295 -370.214389 
L 290.682558 -370.21891 
L 291.495821 -370.218177 
L 292.309084 -370.216999 
L 293.122346 -370.215837 
L 293.935609 -370.214707 
L 294.748872 -370.214904 
L 295.562135 -370.214659 
L 296.375398 -370.21384 
L 297.188661 -370.212838 
L 298.001924 -370.212807 
L 298.815187 -370.211687 
L 299.62845 -370.210684 
L 300.441712 -370.21079 
L 301.254975 -370.210171 
L 302.068238 -370.209154 
L 302.881501 -370.208327 
L 303.694764 -370.207506 
L 304.508027 -370.206702 
L 305.32129 -370.2058 
L 306.134553 -370.205764 
L 306.947816 -370.204939 
L 307.761078 -370.204984 
L 308.574341 -370.204213 
L 309.387604 -370.203644 
L 310.200867 -370.2075 
L 311.01413 -370.206477 
L 311.827393 -370.205502 
L 312.640656 -370.204502 
L 313.453919 -370.203508 
L 314.267182 -370.213021 
L 315.080444 -370.212076 
L 315.893707 -370.211137 
L 316.70697 -370.214127 
L 317.520233 -370.213142 
L 318.333496 -370.229868 
L 319.146759 -370.236392 
L 319.960022 -370.236226 
L 320.773285 -370.236062 
L 321.586548 -370.235702 
L 322.39981 -370.234804 
L 323.213073 -370.233869 
L 324.026336 -370.233281 
L 324.839599 -370.232698 
L 325.652862 -370.233432 
L 326.466125 -370.234155 
L 327.279388 -370.23487 
L 328.092651 -370.23573 
L 328.905914 -370.235034 
L 329.719176 -370.234288 
L 330.532439 -370.233382 
L 331.345702 -370.23292 
L 332.158965 -370.232404 
L 332.972228 -370.231891 
L 333.785491 -370.231378 
L 334.598754 -370.234453 
L 335.412017 -370.233963 
L 336.22528 -370.233561 
L 337.038542 -370.233162 
L 337.851805 -370.236599 
L 338.665068 -370.236051 
L 339.478331 -370.235465 
L 340.291594 -370.234707 
L 341.104857 -370.233921 
L 341.91812 -370.233069 
L 342.731383 -370.23231 
L 343.544646 -370.232288 
L 344.357908 -370.231536 
L 345.171171 -370.230788 
L 345.984434 -370.230104 
L 346.797697 -370.229764 
L 347.61096 -370.229179 
L 348.424223 -370.230713 
L 349.237486 -370.232728 
L 350.050749 -370.233288 
L 350.864012 -370.23441 
L 351.677274 -370.233722 
L 352.490537 -370.232975 
L 353.3038 -370.234275 
L 354.117063 -370.238854 
L 354.930326 -370.238149 
L 355.743589 -370.237467 
L 356.556852 -370.237233 
L 357.370115 -370.236449 
L 358.183378 -370.23567 
L 358.99664 -370.235361 
L 359.809903 -370.235054 
L 360.623166 -370.23466 
L 361.436429 -370.234152 
L 362.249692 -370.23537 
L 363.062955 -370.235314 
L 363.876218 -370.235258 
L 364.689481 -370.236364 
L 365.502744 -370.237732 
L 366.316006 -370.237147 
L 367.129269 -370.236413 
L 367.942532 -370.236693 
L 368.755795 -370.236053 
L 369.569058 -370.235376 
L 370.382321 -370.23474 
L 371.195584 -370.234453 
L 372.008847 -370.233743 
L 372.82211 -370.233032 
L 373.635372 -370.233576 
L 374.448635 -370.232894 
L 375.261898 -370.2322 
L 376.075161 -370.234263 
L 376.888424 -370.234248 
L 377.701687 -370.234001 
L 378.51495 -370.233299 
L 379.328213 -370.232601 
L 380.141476 -370.232951 
L 380.954738 -370.232256 
L 381.768001 -370.232837 
L 382.581264 -370.232205 
L 383.394527 -370.233364 
L 384.20779 -370.23272 
L 385.021053 -370.232033 
L 385.834316 -370.231596 
L 386.647579 -370.231036 
L 387.460842 -370.230371 
L 388.274104 -370.230803 
L 389.087367 -370.230929 
L 389.90063 -370.230532 
L 390.713893 -370.230504 
L 391.527156 -370.230023 
L 392.340419 -370.229435 
L 393.153682 -370.228832 
L 393.966945 -370.228239 
L 394.780208 -370.227583 
L 395.59347 -370.226928 
L 396.406733 -370.227648 
L 397.219996 -370.22714 
L 398.033259 -370.226587 
L 398.846522 -370.226004 
L 399.659785 -370.226533 
L 400.473048 -370.225915 
L 401.286311 -370.225286 
L 402.099574 -370.224678 
L 402.912836 -370.224045 
L 403.726099 -370.228967 
L 404.539362 -370.23112 
L 405.352625 -370.230626 
L 406.165888 -370.231958 
L 406.979151 -370.23297 
L 407.792414 -370.232922 
L 408.605677 -370.233461 
L 409.41894 -370.233894 
L 410.232202 -370.234889 
L 411.045465 -370.23428 
L 411.858728 -370.233667 
L 412.671991 -370.233088 
L 413.485254 -370.232479 
L 414.298517 -370.232239 
L 415.11178 -370.231635 
L 415.925043 -370.23118 
L 416.738306 -370.23058 
L 417.551568 -370.230162 
L 418.364831 -370.229575 
L 419.178094 -370.228995 
L 419.991357 -370.228404 
L 420.80462 -370.228778 
L 421.617883 -370.22941 
L 422.431146 -370.228827 
L 423.244409 -370.232411 
L 424.057672 -370.232001 
L 424.870934 -370.231666 
L 425.684197 -370.231087 
L 426.49746 -370.230508 
L 427.310723 -370.229936 
L 428.123986 -370.230235 
L 428.937249 -370.229717 
L 429.750512 -370.229146 
L 430.563775 -370.229867 
L 431.377038 -370.229459 
L 432.1903 -370.228907 
L 433.003563 -370.22929 
L 433.816826 -370.228731 
L 434.630089 -370.228228 
L 435.443352 -370.227668 
L 436.256615 -370.227226 
L 437.069878 -370.22667 
L 437.883141 -370.226492 
L 438.696404 -370.226535 
L 439.509666 -370.226088 
L 440.322929 -370.225558 
L 441.136192 -370.226475 
L 441.949455 -370.227615 
L 442.762718 -370.227592 
L 443.575981 -370.227062 
L 444.389244 -370.22652 
L 445.202507 -370.226079 
L 446.01577 -370.226063 
L 446.829032 -370.225803 
L 447.642295 -370.225285 
L 448.455558 -370.226131 
L 449.268821 -370.225624 
L 450.082084 -370.225138 
L 450.895347 -370.225949 
L 451.70861 -370.226779 
L 452.521873 -370.226808 
L 453.335136 -370.226834 
L 454.148399 -370.226364 
L 454.961661 -370.225966 
L 455.774924 -370.22711 
L 456.588187 -370.226776 
L 457.40145 -370.226483 
L 458.214713 -370.226886 
L 459.027976 -370.228758 
L 459.841239 -370.228411 
L 460.654502 -370.22817 
L 461.467765 -370.227977 
L 462.281027 -370.228751 
L 463.09429 -370.230276 
L 463.907553 -370.229775 
L 464.720816 -370.231659 
L 465.534079 -370.231187 
L 466.347342 -370.230764 
L 467.160605 -370.23098 
L 467.973868 -370.230493 
L 468.787131 -370.232677 
L 469.600393 -370.232963 
L 470.413656 -370.232479 
L 471.226919 -370.231994 
L 472.040182 -370.233219 
L 472.853445 -370.234328 
L 473.666708 -370.234716 
L 474.479971 -370.235099 
L 475.293234 -370.23498 
L 476.106497 -370.234492 
L 476.919759 -370.234019 
L 477.733022 -370.233559 
L 478.546285 -370.233078 
L 479.359548 -370.2327 
L 480.172811 -370.23226 
L 480.986074 -370.231837 
L 481.799337 -370.232464 
L 482.6126 -370.232063 
L 483.425863 -370.231608 
L 484.239125 -370.233018 
L 485.052388 -370.235177 
L 485.865651 -370.23603 
L 486.678914 -370.235944 
L 487.492177 -370.235473 
L 488.30544 -370.235007 
L 489.118703 -370.235107 
L 489.931966 -370.235095 
L 490.745229 -370.234658 
L 491.558491 -370.234468 
L 492.371754 -370.234671 
L 493.185017 -370.234248 
L 493.99828 -370.234021 
L 494.811543 -370.233602 
L 495.624806 -370.233158 
L 496.438069 -370.232706 
L 497.251332 -370.23225 
L 498.064595 -370.231934 
L 498.877857 -370.231553 
L 499.69112 -370.231186 
L 500.504383 -370.231582 
L 501.317646 -370.234151 
L 502.130909 -370.233752 
L 502.944172 -370.233311 
L 503.757435 -370.233341 
L 504.570698 -370.232914 
L 505.383961 -370.232474 
L 506.197223 -370.232029 
L 507.010486 -370.231586 
L 507.823749 -370.233046 
L 508.637012 -370.232609 
L 509.450275 -370.232679 
L 510.263538 -370.232241 
L 511.076801 -370.23183 
L 511.890064 -370.231398 
L 512.703327 -370.233057 
L 513.516589 -370.232735 
L 514.329852 -370.232459 
L 515.143115 -370.232025 
L 515.956378 -370.231689 
L 516.769641 -370.231257 
L 517.582904 -370.23094 
L 518.396167 -370.230552 
L 519.20943 -370.230135 
L 520.022693 -370.229722 
L 520.835955 -370.230355 
L 521.649218 -370.230349 
L 522.462481 -370.23601 
L 523.275744 -370.237156 
L 524.089007 -370.237295 
L 524.90227 -370.236951 
L 525.715533 -370.236532 
L 526.528796 -370.23689 
L 527.342059 -370.237748 
L 528.155321 -370.244468 
L 528.968584 -370.244074 
L 529.781847 -370.244429 
L 530.59511 -370.244026 
L 531.408373 -370.243632 
L 532.221636 -370.243238 
L 533.034899 -370.242869 
L 533.848162 -370.242457 
L 534.661425 -370.243195 
L 535.474687 -370.242798 
L 536.28795 -370.242668 
L 537.101213 -370.242305 
L 537.914476 -370.241898 
L 538.727739 -370.241495 
L 539.541002 -370.241091 
L 540.354265 -370.240993 
L 541.167528 -370.240608 
L 541.980791 -370.240291 
L 542.794053 -370.239976 
L 543.607316 -370.239847 
L 544.420579 -370.240914 
L 545.233842 -370.241379 
L 546.047105 -370.241675 
L 546.860368 -370.241528 
L 547.673631 -370.243464 
L 548.486894 -370.243078 
L 549.300157 -370.242696 
L 550.113419 -370.242321 
L 550.926682 -370.242026 
L 551.739945 -370.242605 
L 552.553208 -370.242263 
L 553.366471 -370.242107 
L 554.179734 -370.242534 
L 554.992997 -370.242258 
L 555.80626 -370.241871 
L 556.619523 -370.241497 
L 557.432785 -370.241875 
L 558.246048 -370.241973 
L 559.059311 -370.241903 
L 559.872574 -370.241795 
L 560.685837 -370.242765 
L 561.4991 -370.242383 
L 562.312363 -370.242009 
L 563.125626 -370.241662 
L 563.938889 -370.241484 
L 564.752151 -370.241601 
L 565.565414 -370.241289 
L 566.378677 -370.240911 
L 567.19194 -370.240534 
L 568.005203 -370.240183 
L 568.818466 -370.239815 
L 568.818466 -370.239815 
L 568.818466 -370.278831 
L 568.005203 -370.279186 
L 567.19194 -370.276295 
L 566.378677 -370.27664 
L 565.565414 -370.277018 
L 564.752151 -370.277394 
L 563.938889 -370.277773 
L 563.125626 -370.278138 
L 562.312363 -370.276492 
L 561.4991 -370.276588 
L 560.685837 -370.276912 
L 559.872574 -370.274373 
L 559.059311 -370.27458 
L 558.246048 -370.274956 
L 557.432785 -370.275335 
L 556.619523 -370.275715 
L 555.80626 -370.276079 
L 554.992997 -370.276419 
L 554.179734 -370.276119 
L 553.366471 -370.274975 
L 552.553208 -370.274322 
L 551.739945 -370.274684 
L 550.926682 -370.274975 
L 550.113419 -370.275343 
L 549.300157 -370.275254 
L 548.486894 -370.275459 
L 547.673631 -370.275855 
L 546.860368 -370.275995 
L 546.047105 -370.276271 
L 545.233842 -370.273836 
L 544.420579 -370.274227 
L 543.607316 -370.274303 
L 542.794053 -370.274702 
L 541.980791 -370.274982 
L 541.167528 -370.273945 
L 540.354265 -370.274341 
L 539.541002 -370.274255 
L 538.727739 -370.274197 
L 537.914476 -370.274086 
L 537.101213 -370.274488 
L 536.28795 -370.27438 
L 535.474687 -370.274699 
L 534.661425 -370.274912 
L 533.848162 -370.274827 
L 533.034899 -370.274249 
L 532.221636 -370.274133 
L 531.408373 -370.267735 
L 530.59511 -370.268141 
L 529.781847 -370.268334 
L 528.968584 -370.267856 
L 528.155321 -370.2681 
L 527.342059 -370.268175 
L 526.528796 -370.26836 
L 525.715533 -370.268541 
L 524.90227 -370.268174 
L 524.089007 -370.267317 
L 523.275744 -370.267324 
L 522.462481 -370.267738 
L 521.649218 -370.268159 
L 520.835955 -370.267934 
L 520.022693 -370.268242 
L 519.20943 -370.26866 
L 518.396167 -370.268323 
L 517.582904 -370.268695 
L 516.769641 -370.268619 
L 515.956378 -370.269042 
L 515.143115 -370.26945 
L 514.329852 -370.269863 
L 513.516589 -370.270069 
L 512.703327 -370.270489 
L 511.890064 -370.270917 
L 511.076801 -370.270596 
L 510.263538 -370.269451 
L 509.450275 -370.266047 
L 508.637012 -370.266434 
L 507.823749 -370.266872 
L 507.010486 -370.266514 
L 506.197223 -370.266881 
L 505.383961 -370.26703 
L 504.570698 -370.266762 
L 503.757435 -370.265683 
L 502.944172 -370.264852 
L 502.130909 -370.265208 
L 501.317646 -370.265618 
L 500.504383 -370.265163 
L 499.69112 -370.265462 
L 498.877857 -370.265907 
L 498.064595 -370.266313 
L 497.251332 -370.266027 
L 496.438069 -370.266453 
L 495.624806 -370.266892 
L 494.811543 -370.267095 
L 493.99828 -370.267421 
L 493.185017 -370.267881 
L 492.371754 -370.268291 
L 491.558491 -370.26873 
L 490.745229 -370.268772 
L 489.931966 -370.269235 
L 489.118703 -370.269698 
L 488.30544 -370.270162 
L 487.492177 -370.270608 
L 486.678914 -370.270966 
L 485.865651 -370.271261 
L 485.052388 -370.271333 
L 484.239125 -370.269923 
L 483.425863 -370.270349 
L 482.6126 -370.270815 
L 481.799337 -370.271282 
L 480.986074 -370.271663 
L 480.172811 -370.271427 
L 479.359548 -370.27188 
L 478.546285 -370.272261 
L 477.733022 -370.27274 
L 476.919759 -370.273221 
L 476.106497 -370.273411 
L 475.293234 -370.273145 
L 474.479971 -370.272492 
L 473.666708 -370.272814 
L 472.853445 -370.273276 
L 472.040182 -370.273492 
L 471.226919 -370.273932 
L 470.413656 -370.274411 
L 469.600393 -370.274791 
L 468.787131 -370.275284 
L 467.973868 -370.275777 
L 467.160605 -370.276229 
L 466.347342 -370.276719 
L 465.534079 -370.274855 
L 464.720816 -370.273251 
L 463.907553 -370.273726 
L 463.09429 -370.274232 
L 462.281027 -370.274738 
L 461.467765 -370.275247 
L 460.654502 -370.274739 
L 459.841239 -370.274901 
L 459.027976 -370.270382 
L 458.214713 -370.270399 
L 457.40145 -370.270566 
L 456.588187 -370.271018 
L 455.774924 -370.271464 
L 454.961661 -370.271589 
L 454.148399 -370.272111 
L 453.335136 -370.272133 
L 452.521873 -370.272256 
L 451.70861 -370.272783 
L 450.895347 -370.272755 
L 450.082084 -370.272132 
L 449.268821 -370.272595 
L 448.455558 -370.272076 
L 447.642295 -370.272235 
L 446.829032 -370.26812 
L 446.01577 -370.267735 
L 445.202507 -370.267785 
L 444.389244 -370.264338 
L 443.575981 -370.264351 
L 442.762718 -370.264685 
L 441.949455 -370.265138 
L 441.136192 -370.265674 
L 440.322929 -370.26622 
L 439.509666 -370.266765 
L 438.696404 -370.265836 
L 437.883141 -370.266326 
L 437.069878 -370.26645 
L 436.256615 -370.2668 
L 435.443352 -370.266827 
L 434.630089 -370.267357 
L 433.816826 -370.267916 
L 433.003563 -370.26848 
L 432.1903 -370.269045 
L 431.377038 -370.269529 
L 430.563775 -370.269535 
L 429.750512 -370.270064 
L 428.937249 -370.269929 
L 428.123986 -370.269882 
L 427.310723 -370.270411 
L 426.49746 -370.270975 
L 425.684197 -370.271239 
L 424.870934 -370.271718 
L 424.057672 -370.270839 
L 423.244409 -370.271348 
L 422.431146 -370.269347 
L 421.617883 -370.269572 
L 420.80462 -370.27015 
L 419.991357 -370.270733 
L 419.178094 -370.271316 
L 418.364831 -370.271551 
L 417.551568 -370.272147 
L 416.738306 -370.272123 
L 415.925043 -370.272702 
L 415.11178 -370.273049 
L 414.298517 -370.272284 
L 413.485254 -370.270708 
L 412.671991 -370.271207 
L 411.858728 -370.271535 
L 411.045465 -370.271428 
L 410.232202 -370.27203 
L 409.41894 -370.272535 
L 408.605677 -370.273001 
L 407.792414 -370.273611 
L 406.979151 -370.27351 
L 406.165888 -370.274122 
L 405.352625 -370.274642 
L 404.539362 -370.274034 
L 403.726099 -370.273649 
L 402.912836 -370.269744 
L 402.099574 -370.270362 
L 401.286311 -370.268632 
L 400.473048 -370.267269 
L 399.659785 -370.267095 
L 398.846522 -370.265911 
L 398.033259 -370.265687 
L 397.219996 -370.265979 
L 396.406733 -370.26647 
L 395.59347 -370.267054 
L 394.780208 -370.267542 
L 393.966945 -370.266738 
L 393.153682 -370.267184 
L 392.340419 -370.267003 
L 391.527156 -370.266541 
L 390.713893 -370.26706 
L 389.90063 -370.267689 
L 389.087367 -370.268324 
L 388.274104 -370.266831 
L 387.460842 -370.266831 
L 386.647579 -370.260075 
L 385.834316 -370.260752 
L 385.021053 -370.26059 
L 384.20779 -370.261271 
L 383.394527 -370.261131 
L 382.581264 -370.259445 
L 381.768001 -370.260077 
L 380.954738 -370.259569 
L 380.141476 -370.257716 
L 379.328213 -370.255308 
L 378.51495 -370.254031 
L 377.701687 -370.254001 
L 376.888424 -370.254673 
L 376.075161 -370.255377 
L 375.261898 -370.255641 
L 374.448635 -370.25557 
L 373.635372 -370.252794 
L 372.82211 -370.253489 
L 372.008847 -370.248739 
L 371.195584 -370.249328 
L 370.382321 -370.249778 
L 369.569058 -370.249102 
L 368.755795 -370.249731 
L 367.942532 -370.2503 
L 367.129269 -370.250874 
L 366.316006 -370.251126 
L 365.502744 -370.251762 
L 364.689481 -370.248913 
L 363.876218 -370.245997 
L 363.062955 -370.246676 
L 362.249692 -370.246348 
L 361.436429 -370.246874 
L 360.623166 -370.247275 
L 359.809903 -370.244949 
L 358.99664 -370.245573 
L 358.183378 -370.243238 
L 357.370115 -370.241105 
L 356.556852 -370.239285 
L 355.743589 -370.238951 
L 354.930326 -370.239326 
L 354.117063 -370.239704 
L 353.3038 -370.23986 
L 352.490537 -370.240018 
L 351.677274 -370.240819 
L 350.864012 -370.241414 
L 350.050749 -370.242034 
L 349.237486 -370.242833 
L 348.424223 -370.242703 
L 347.61096 -370.2435 
L 346.797697 -370.244312 
L 345.984434 -370.245141 
L 345.171171 -370.244238 
L 344.357908 -370.244071 
L 343.544646 -370.243383 
L 342.731383 -370.243365 
L 341.91812 -370.244201 
L 341.104857 -370.245034 
L 340.291594 -370.244462 
L 339.478331 -370.245175 
L 338.665068 -370.245617 
L 337.851805 -370.246138 
L 337.038542 -370.246942 
L 336.22528 -370.247801 
L 335.412017 -370.248677 
L 334.598754 -370.249545 
L 333.785491 -370.249417 
L 332.972228 -370.250272 
L 332.158965 -370.251082 
L 331.345702 -370.251678 
L 330.532439 -370.252582 
L 329.719176 -370.253133 
L 328.905914 -370.251845 
L 328.092651 -370.251252 
L 327.279388 -370.248018 
L 326.466125 -370.247566 
L 325.652862 -370.24823 
L 324.839599 -370.248898 
L 324.026336 -370.24957 
L 323.213073 -370.249597 
L 322.39981 -370.250136 
L 321.586548 -370.250679 
L 320.773285 -370.251567 
L 319.960022 -370.252472 
L 319.146759 -370.252714 
L 318.333496 -370.253488 
L 317.520233 -370.254268 
L 316.70697 -370.255034 
L 315.893707 -370.256022 
L 315.080444 -370.255031 
L 314.267182 -370.255904 
L 313.453919 -370.256856 
L 312.640656 -370.257836 
L 311.827393 -370.258629 
L 311.01413 -370.259608 
L 310.200867 -370.258836 
L 309.387604 -370.25974 
L 308.574341 -370.253127 
L 307.761078 -370.25337 
L 306.947816 -370.253477 
L 306.134553 -370.253452 
L 305.32129 -370.253425 
L 304.508027 -370.249865 
L 303.694764 -370.250828 
L 302.881501 -370.251902 
L 302.068238 -370.252988 
L 301.254975 -370.244908 
L 300.441712 -370.245894 
L 299.62845 -370.247003 
L 298.815187 -370.246988 
L 298.001924 -370.247082 
L 297.188661 -370.248135 
L 296.375398 -370.245668 
L 295.562135 -370.239066 
L 294.748872 -370.237351 
L 293.935609 -370.230472 
L 293.122346 -370.227366 
L 292.309084 -370.228109 
L 291.495821 -370.226862 
L 290.682558 -370.222626 
L 289.869295 -370.218236 
L 289.056032 -370.218491 
L 288.242769 -370.218861 
L 287.429506 -370.218149 
L 286.616243 -370.219334 
L 285.80298 -370.220499 
L 284.989718 -370.221675 
L 284.176455 -370.22287 
L 283.363192 -370.223164 
L 282.549929 -370.224293 
L 281.736666 -370.224407 
L 280.923403 -370.223987 
L 280.11014 -370.225052 
L 279.296877 -370.226184 
L 278.483614 -370.226613 
L 277.670351 -370.227932 
L 276.857089 -370.22729 
L 276.043826 -370.226049 
L 275.230563 -370.226552 
L 274.4173 -370.226477 
L 273.604037 -370.226906 
L 272.790774 -370.228233 
L 271.977511 -370.229599 
L 271.164248 -370.229535 
L 270.350985 -370.230025 
L 269.537723 -370.230521 
L 268.72446 -370.231934 
L 267.911197 -370.233326 
L 267.097934 -370.23453 
L 266.284671 -370.235991 
L 265.471408 -370.23739 
L 264.658145 -370.238876 
L 263.844882 -370.240239 
L 263.031619 -370.235511 
L 262.218357 -370.235766 
L 261.405094 -370.236024 
L 260.591831 -370.226087 
L 259.778568 -370.226645 
L 258.965305 -370.227715 
L 258.152042 -370.228798 
L 257.338779 -370.226187 
L 256.525516 -370.226894 
L 255.712253 -370.225056 
L 254.898991 -370.226077 
L 254.085728 -370.227407 
L 253.272465 -370.227834 
L 252.459202 -370.228674 
L 251.645939 -370.230027 
L 250.832676 -370.230907 
L 250.019413 -370.232088 
L 249.20615 -370.231214 
L 248.392887 -370.231433 
L 247.579625 -370.229922 
L 246.766362 -370.231434 
L 245.953099 -370.233238 
L 245.139836 -370.230545 
L 244.326573 -370.22991 
L 243.51331 -370.22926 
L 242.700047 -370.228594 
L 241.886784 -370.229038 
L 241.073521 -370.22949 
L 240.260259 -370.23083 
L 239.446996 -370.232477 
L 238.633733 -370.233649 
L 237.82047 -370.234254 
L 237.007207 -370.236242 
L 236.193944 -370.230136 
L 235.380681 -370.230384 
L 234.567418 -370.230375 
L 233.754155 -370.232491 
L 232.940893 -370.226393 
L 232.12763 -370.226806 
L 231.314367 -370.227284 
L 230.501104 -370.229199 
L 229.687841 -370.23072 
L 228.874578 -370.232784 
L 228.061315 -370.234876 
L 227.248052 -370.222319 
L 226.434789 -370.216426 
L 225.621527 -370.218491 
L 224.808264 -370.220477 
L 223.995001 -370.221671 
L 223.181738 -370.224006 
L 222.368475 -370.223478 
L 221.555212 -370.226021 
L 220.741949 -370.228419 
L 219.928686 -370.231046 
L 219.115423 -370.23367 
L 218.302161 -370.236332 
L 217.488898 -370.239069 
L 216.675635 -370.240993 
L 215.862372 -370.243719 
L 215.049109 -370.233966 
L 214.235846 -370.233798 
L 213.422583 -370.233954 
L 212.60932 -370.23658 
L 211.796057 -370.211479 
L 210.982795 -370.214577 
L 210.169532 -370.217463 
L 209.356269 -370.220402 
L 208.543006 -370.210443 
L 207.729743 -370.211743 
L 206.91648 -370.213081 
L 206.103217 -370.207434 
L 205.289954 -370.20515 
L 204.476691 -370.208106 
L 203.663429 -370.200773 
L 202.850166 -370.201822 
L 202.036903 -370.202907 
L 201.22364 -370.206623 
L 200.410377 -370.210569 
L 199.597114 -370.214038 
L 198.783851 -370.190491 
L 197.970588 -370.194572 
L 197.157325 -370.1935 
L 196.344063 -370.192371 
L 195.5308 -370.195105 
L 194.717537 -370.184327 
L 193.904274 -370.188215 
L 193.091011 -370.191455 
L 192.277748 -370.196093 
L 191.464485 -370.200199 
L 190.651222 -370.191915 
L 189.837959 -370.163181 
L 189.024697 -370.167299 
L 188.211434 -370.172476 
L 187.398171 -370.156969 
L 186.584908 -370.161605 
L 185.771645 -370.148128 
L 184.958382 -370.120349 
L 184.145119 -370.12679 
L 183.331856 -370.103282 
L 182.518593 -370.107868 
L 181.705331 -370.113698 
L 180.892068 -370.064681 
L 180.078805 -370.008082 
L 179.265542 -370.00121 
L 178.452279 -369.993348 
L 177.639016 -369.919785 
L 176.825753 -369.905364 
L 176.01249 -369.91443 
L 175.199227 -369.915936 
L 174.385965 -369.872535 
L 173.572702 -369.880658 
L 172.759439 -369.810051 
L 171.946176 -369.813037 
L 171.132913 -368.987295 
L 170.31965 -363.678662 
L 169.506387 -355.852447 
L 168.693124 -355.323036 
L 167.879861 -353.290777 
L 167.066599 -353.13329 
L 166.253336 -350.060174 
L 165.440073 -348.387525 
L 164.62681 -348.387525 
L 163.813547 -348.387525 
L 163.000284 -348.387525 
z
" id="maa382796ee" style="stroke:#0000ff;stroke-opacity:0.3;"/>
    </defs>
    <g clip-path="url(#pf2d1c38c9c)">
     <use style="fill:#0000ff;fill-opacity:0.3;stroke:#0000ff;stroke-opacity:0.3;" x="0" xlink:href="#maa382796ee" y="392.88125"/>
    </g>
   </g>
   <g id="matplotlib.axis_1">
    <g id="xtick_1">
     <g id="line2d_1">
      <defs>
       <path d="M 0 0 
L 0 3.5 
" id="m778a834b32" style="stroke:#000000;stroke-width:0.8;"/>
      </defs>
      <g>
       <use style="stroke:#000000;stroke-width:0.8;" x="163.000284" xlink:href="#m778a834b32" y="339.84"/>
      </g>
     </g>
     <g id="text_1">
      <!-- 0 -->
      <defs>
       <path d="M 31.78125 66.40625 
Q 24.171875 66.40625 20.328125 58.90625 
Q 16.5 51.421875 16.5 36.375 
Q 16.5 21.390625 20.328125 13.890625 
Q 24.171875 6.390625 31.78125 6.390625 
Q 39.453125 6.390625 43.28125 13.890625 
Q 47.125 21.390625 47.125 36.375 
Q 47.125 51.421875 43.28125 58.90625 
Q 39.453125 66.40625 31.78125 66.40625 
z
M 31.78125 74.21875 
Q 44.046875 74.21875 50.515625 64.515625 
Q 56.984375 54.828125 56.984375 36.375 
Q 56.984375 17.96875 50.515625 8.265625 
Q 44.046875 -1.421875 31.78125 -1.421875 
Q 19.53125 -1.421875 13.0625 8.265625 
Q 6.59375 17.96875 6.59375 36.375 
Q 6.59375 54.828125 13.0625 64.515625 
Q 19.53125 74.21875 31.78125 74.21875 
z
" id="DejaVuSans-48"/>
      </defs>
      <g transform="translate(157.274034 360.517188)scale(0.18 -0.18)">
       <use xlink:href="#DejaVuSans-48"/>
      </g>
     </g>
    </g>
    <g id="xtick_2">
     <g id="line2d_2">
      <g>
       <use style="stroke:#000000;stroke-width:0.8;" x="244.326573" xlink:href="#m778a834b32" y="339.84"/>
      </g>
     </g>
     <g id="text_2">
      <!-- 100 -->
      <defs>
       <path d="M 12.40625 8.296875 
L 28.515625 8.296875 
L 28.515625 63.921875 
L 10.984375 60.40625 
L 10.984375 69.390625 
L 28.421875 72.90625 
L 38.28125 72.90625 
L 38.28125 8.296875 
L 54.390625 8.296875 
L 54.390625 0 
L 12.40625 0 
z
" id="DejaVuSans-49"/>
      </defs>
      <g transform="translate(227.147823 360.517188)scale(0.18 -0.18)">
       <use xlink:href="#DejaVuSans-49"/>
       <use x="63.623047" xlink:href="#DejaVuSans-48"/>
       <use x="127.246094" xlink:href="#DejaVuSans-48"/>
      </g>
     </g>
    </g>
    <g id="xtick_3">
     <g id="line2d_3">
      <g>
       <use style="stroke:#000000;stroke-width:0.8;" x="325.652862" xlink:href="#m778a834b32" y="339.84"/>
      </g>
     </g>
     <g id="text_3">
      <!-- 200 -->
      <defs>
       <path d="M 19.1875 8.296875 
L 53.609375 8.296875 
L 53.609375 0 
L 7.328125 0 
L 7.328125 8.296875 
Q 12.9375 14.109375 22.625 23.890625 
Q 32.328125 33.6875 34.8125 36.53125 
Q 39.546875 41.84375 41.421875 45.53125 
Q 43.3125 49.21875 43.3125 52.78125 
Q 43.3125 58.59375 39.234375 62.25 
Q 35.15625 65.921875 28.609375 65.921875 
Q 23.96875 65.921875 18.8125 64.3125 
Q 13.671875 62.703125 7.8125 59.421875 
L 7.8125 69.390625 
Q 13.765625 71.78125 18.9375 73 
Q 24.125 74.21875 28.421875 74.21875 
Q 39.75 74.21875 46.484375 68.546875 
Q 53.21875 62.890625 53.21875 53.421875 
Q 53.21875 48.921875 51.53125 44.890625 
Q 49.859375 40.875 45.40625 35.40625 
Q 44.1875 33.984375 37.640625 27.21875 
Q 31.109375 20.453125 19.1875 8.296875 
z
" id="DejaVuSans-50"/>
      </defs>
      <g transform="translate(308.474112 360.517188)scale(0.18 -0.18)">
       <use xlink:href="#DejaVuSans-50"/>
       <use x="63.623047" xlink:href="#DejaVuSans-48"/>
       <use x="127.246094" xlink:href="#DejaVuSans-48"/>
      </g>
     </g>
    </g>
    <g id="xtick_4">
     <g id="line2d_4">
      <g>
       <use style="stroke:#000000;stroke-width:0.8;" x="406.979151" xlink:href="#m778a834b32" y="339.84"/>
      </g>
     </g>
     <g id="text_4">
      <!-- 300 -->
      <defs>
       <path d="M 40.578125 39.3125 
Q 47.65625 37.796875 51.625 33 
Q 55.609375 28.21875 55.609375 21.1875 
Q 55.609375 10.40625 48.1875 4.484375 
Q 40.765625 -1.421875 27.09375 -1.421875 
Q 22.515625 -1.421875 17.65625 -0.515625 
Q 12.796875 0.390625 7.625 2.203125 
L 7.625 11.71875 
Q 11.71875 9.328125 16.59375 8.109375 
Q 21.484375 6.890625 26.8125 6.890625 
Q 36.078125 6.890625 40.9375 10.546875 
Q 45.796875 14.203125 45.796875 21.1875 
Q 45.796875 27.640625 41.28125 31.265625 
Q 36.765625 34.90625 28.71875 34.90625 
L 20.21875 34.90625 
L 20.21875 43.015625 
L 29.109375 43.015625 
Q 36.375 43.015625 40.234375 45.921875 
Q 44.09375 48.828125 44.09375 54.296875 
Q 44.09375 59.90625 40.109375 62.90625 
Q 36.140625 65.921875 28.71875 65.921875 
Q 24.65625 65.921875 20.015625 65.03125 
Q 15.375 64.15625 9.8125 62.3125 
L 9.8125 71.09375 
Q 15.4375 72.65625 20.34375 73.4375 
Q 25.25 74.21875 29.59375 74.21875 
Q 40.828125 74.21875 47.359375 69.109375 
Q 53.90625 64.015625 53.90625 55.328125 
Q 53.90625 49.265625 50.4375 45.09375 
Q 46.96875 40.921875 40.578125 39.3125 
z
" id="DejaVuSans-51"/>
      </defs>
      <g transform="translate(389.800401 360.517188)scale(0.18 -0.18)">
       <use xlink:href="#DejaVuSans-51"/>
       <use x="63.623047" xlink:href="#DejaVuSans-48"/>
       <use x="127.246094" xlink:href="#DejaVuSans-48"/>
      </g>
     </g>
    </g>
    <g id="xtick_5">
     <g id="line2d_5">
      <g>
       <use style="stroke:#000000;stroke-width:0.8;" x="488.30544" xlink:href="#m778a834b32" y="339.84"/>
      </g>
     </g>
     <g id="text_5">
      <!-- 400 -->
      <defs>
       <path d="M 37.796875 64.3125 
L 12.890625 25.390625 
L 37.796875 25.390625 
z
M 35.203125 72.90625 
L 47.609375 72.90625 
L 47.609375 25.390625 
L 58.015625 25.390625 
L 58.015625 17.1875 
L 47.609375 17.1875 
L 47.609375 0 
L 37.796875 0 
L 37.796875 17.1875 
L 4.890625 17.1875 
L 4.890625 26.703125 
z
" id="DejaVuSans-52"/>
      </defs>
      <g transform="translate(471.12669 360.517188)scale(0.18 -0.18)">
       <use xlink:href="#DejaVuSans-52"/>
       <use x="63.623047" xlink:href="#DejaVuSans-48"/>
       <use x="127.246094" xlink:href="#DejaVuSans-48"/>
      </g>
     </g>
    </g>
    <g id="xtick_6">
     <g id="line2d_6">
      <g>
       <use style="stroke:#000000;stroke-width:0.8;" x="569.631729" xlink:href="#m778a834b32" y="339.84"/>
      </g>
     </g>
     <g id="text_6">
      <!-- 500 -->
      <defs>
       <path d="M 10.796875 72.90625 
L 49.515625 72.90625 
L 49.515625 64.59375 
L 19.828125 64.59375 
L 19.828125 46.734375 
Q 21.96875 47.46875 24.109375 47.828125 
Q 26.265625 48.1875 28.421875 48.1875 
Q 40.625 48.1875 47.75 41.5 
Q 54.890625 34.8125 54.890625 23.390625 
Q 54.890625 11.625 47.5625 5.09375 
Q 40.234375 -1.421875 26.90625 -1.421875 
Q 22.3125 -1.421875 17.546875 -0.640625 
Q 12.796875 0.140625 7.71875 1.703125 
L 7.71875 11.625 
Q 12.109375 9.234375 16.796875 8.0625 
Q 21.484375 6.890625 26.703125 6.890625 
Q 35.15625 6.890625 40.078125 11.328125 
Q 45.015625 15.765625 45.015625 23.390625 
Q 45.015625 31 40.078125 35.4375 
Q 35.15625 39.890625 26.703125 39.890625 
Q 22.75 39.890625 18.8125 39.015625 
Q 14.890625 38.140625 10.796875 36.28125 
z
" id="DejaVuSans-53"/>
      </defs>
      <g transform="translate(552.452979 360.517188)scale(0.18 -0.18)">
       <use xlink:href="#DejaVuSans-53"/>
       <use x="63.623047" xlink:href="#DejaVuSans-48"/>
       <use x="127.246094" xlink:href="#DejaVuSans-48"/>
      </g>
     </g>
    </g>
    <g id="text_7">
     <!-- Samples -->
     <defs>
      <path d="M 53.515625 70.515625 
L 53.515625 60.890625 
Q 47.90625 63.578125 42.921875 64.890625 
Q 37.9375 66.21875 33.296875 66.21875 
Q 25.25 66.21875 20.875 63.09375 
Q 16.5 59.96875 16.5 54.203125 
Q 16.5 49.359375 19.40625 46.890625 
Q 22.3125 44.4375 30.421875 42.921875 
L 36.375 41.703125 
Q 47.40625 39.59375 52.65625 34.296875 
Q 57.90625 29 57.90625 20.125 
Q 57.90625 9.515625 50.796875 4.046875 
Q 43.703125 -1.421875 29.984375 -1.421875 
Q 24.8125 -1.421875 18.96875 -0.25 
Q 13.140625 0.921875 6.890625 3.21875 
L 6.890625 13.375 
Q 12.890625 10.015625 18.65625 8.296875 
Q 24.421875 6.59375 29.984375 6.59375 
Q 38.421875 6.59375 43.015625 9.90625 
Q 47.609375 13.234375 47.609375 19.390625 
Q 47.609375 24.75 44.3125 27.78125 
Q 41.015625 30.8125 33.5 32.328125 
L 27.484375 33.5 
Q 16.453125 35.6875 11.515625 40.375 
Q 6.59375 45.0625 6.59375 53.421875 
Q 6.59375 63.09375 13.40625 68.65625 
Q 20.21875 74.21875 32.171875 74.21875 
Q 37.3125 74.21875 42.625 73.28125 
Q 47.953125 72.359375 53.515625 70.515625 
z
" id="DejaVuSans-83"/>
      <path d="M 34.28125 27.484375 
Q 23.390625 27.484375 19.1875 25 
Q 14.984375 22.515625 14.984375 16.5 
Q 14.984375 11.71875 18.140625 8.90625 
Q 21.296875 6.109375 26.703125 6.109375 
Q 34.1875 6.109375 38.703125 11.40625 
Q 43.21875 16.703125 43.21875 25.484375 
L 43.21875 27.484375 
z
M 52.203125 31.203125 
L 52.203125 0 
L 43.21875 0 
L 43.21875 8.296875 
Q 40.140625 3.328125 35.546875 0.953125 
Q 30.953125 -1.421875 24.3125 -1.421875 
Q 15.921875 -1.421875 10.953125 3.296875 
Q 6 8.015625 6 15.921875 
Q 6 25.140625 12.171875 29.828125 
Q 18.359375 34.515625 30.609375 34.515625 
L 43.21875 34.515625 
L 43.21875 35.40625 
Q 43.21875 41.609375 39.140625 45 
Q 35.0625 48.390625 27.6875 48.390625 
Q 23 48.390625 18.546875 47.265625 
Q 14.109375 46.140625 10.015625 43.890625 
L 10.015625 52.203125 
Q 14.9375 54.109375 19.578125 55.046875 
Q 24.21875 56 28.609375 56 
Q 40.484375 56 46.34375 49.84375 
Q 52.203125 43.703125 52.203125 31.203125 
z
" id="DejaVuSans-97"/>
      <path d="M 52 44.1875 
Q 55.375 50.25 60.0625 53.125 
Q 64.75 56 71.09375 56 
Q 79.640625 56 84.28125 50.015625 
Q 88.921875 44.046875 88.921875 33.015625 
L 88.921875 0 
L 79.890625 0 
L 79.890625 32.71875 
Q 79.890625 40.578125 77.09375 44.375 
Q 74.3125 48.1875 68.609375 48.1875 
Q 61.625 48.1875 57.5625 43.546875 
Q 53.515625 38.921875 53.515625 30.90625 
L 53.515625 0 
L 44.484375 0 
L 44.484375 32.71875 
Q 44.484375 40.625 41.703125 44.40625 
Q 38.921875 48.1875 33.109375 48.1875 
Q 26.21875 48.1875 22.15625 43.53125 
Q 18.109375 38.875 18.109375 30.90625 
L 18.109375 0 
L 9.078125 0 
L 9.078125 54.6875 
L 18.109375 54.6875 
L 18.109375 46.1875 
Q 21.1875 51.21875 25.484375 53.609375 
Q 29.78125 56 35.6875 56 
Q 41.65625 56 45.828125 52.96875 
Q 50 49.953125 52 44.1875 
z
" id="DejaVuSans-109"/>
      <path d="M 18.109375 8.203125 
L 18.109375 -20.796875 
L 9.078125 -20.796875 
L 9.078125 54.6875 
L 18.109375 54.6875 
L 18.109375 46.390625 
Q 20.953125 51.265625 25.265625 53.625 
Q 29.59375 56 35.59375 56 
Q 45.5625 56 51.78125 48.09375 
Q 58.015625 40.1875 58.015625 27.296875 
Q 58.015625 14.40625 51.78125 6.484375 
Q 45.5625 -1.421875 35.59375 -1.421875 
Q 29.59375 -1.421875 25.265625 0.953125 
Q 20.953125 3.328125 18.109375 8.203125 
z
M 48.6875 27.296875 
Q 48.6875 37.203125 44.609375 42.84375 
Q 40.53125 48.484375 33.40625 48.484375 
Q 26.265625 48.484375 22.1875 42.84375 
Q 18.109375 37.203125 18.109375 27.296875 
Q 18.109375 17.390625 22.1875 11.75 
Q 26.265625 6.109375 33.40625 6.109375 
Q 40.53125 6.109375 44.609375 11.75 
Q 48.6875 17.390625 48.6875 27.296875 
z
" id="DejaVuSans-112"/>
      <path d="M 9.421875 75.984375 
L 18.40625 75.984375 
L 18.40625 0 
L 9.421875 0 
z
" id="DejaVuSans-108"/>
      <path d="M 56.203125 29.59375 
L 56.203125 25.203125 
L 14.890625 25.203125 
Q 15.484375 15.921875 20.484375 11.0625 
Q 25.484375 6.203125 34.421875 6.203125 
Q 39.59375 6.203125 44.453125 7.46875 
Q 49.3125 8.734375 54.109375 11.28125 
L 54.109375 2.78125 
Q 49.265625 0.734375 44.1875 -0.34375 
Q 39.109375 -1.421875 33.890625 -1.421875 
Q 20.796875 -1.421875 13.15625 6.1875 
Q 5.515625 13.8125 5.515625 26.8125 
Q 5.515625 40.234375 12.765625 48.109375 
Q 20.015625 56 32.328125 56 
Q 43.359375 56 49.78125 48.890625 
Q 56.203125 41.796875 56.203125 29.59375 
z
M 47.21875 32.234375 
Q 47.125 39.59375 43.09375 43.984375 
Q 39.0625 48.390625 32.421875 48.390625 
Q 24.90625 48.390625 20.390625 44.140625 
Q 15.875 39.890625 15.1875 32.171875 
z
" id="DejaVuSans-101"/>
      <path d="M 44.28125 53.078125 
L 44.28125 44.578125 
Q 40.484375 46.53125 36.375 47.5 
Q 32.28125 48.484375 27.875 48.484375 
Q 21.1875 48.484375 17.84375 46.4375 
Q 14.5 44.390625 14.5 40.28125 
Q 14.5 37.15625 16.890625 35.375 
Q 19.28125 33.59375 26.515625 31.984375 
L 29.59375 31.296875 
Q 39.15625 29.25 43.1875 25.515625 
Q 47.21875 21.78125 47.21875 15.09375 
Q 47.21875 7.46875 41.1875 3.015625 
Q 35.15625 -1.421875 24.609375 -1.421875 
Q 20.21875 -1.421875 15.453125 -0.5625 
Q 10.6875 0.296875 5.421875 2 
L 5.421875 11.28125 
Q 10.40625 8.6875 15.234375 7.390625 
Q 20.0625 6.109375 24.8125 6.109375 
Q 31.15625 6.109375 34.5625 8.28125 
Q 37.984375 10.453125 37.984375 14.40625 
Q 37.984375 18.0625 35.515625 20.015625 
Q 33.0625 21.96875 24.703125 23.78125 
L 21.578125 24.515625 
Q 13.234375 26.265625 9.515625 29.90625 
Q 5.8125 33.546875 5.8125 39.890625 
Q 5.8125 47.609375 11.28125 51.796875 
Q 16.75 56 26.8125 56 
Q 31.78125 56 36.171875 55.265625 
Q 40.578125 54.546875 44.28125 53.078125 
z
" id="DejaVuSans-115"/>
     </defs>
     <g transform="translate(327.47375 381.937813)scale(0.18 -0.18)">
      <use xlink:href="#DejaVuSans-83"/>
      <use x="63.476562" xlink:href="#DejaVuSans-97"/>
      <use x="124.755859" xlink:href="#DejaVuSans-109"/>
      <use x="222.167969" xlink:href="#DejaVuSans-112"/>
      <use x="285.644531" xlink:href="#DejaVuSans-108"/>
      <use x="313.427734" xlink:href="#DejaVuSans-101"/>
      <use x="374.951172" xlink:href="#DejaVuSans-115"/>
     </g>
    </g>
   </g>
   <g id="matplotlib.axis_2">
    <g id="ytick_1">
     <g id="line2d_7">
      <defs>
       <path d="M 0 0 
L -3.5 0 
" id="mccd634836e" style="stroke:#000000;stroke-width:0.8;"/>
      </defs>
      <g>
       <use style="stroke:#000000;stroke-width:0.8;" x="142.709375" xlink:href="#mccd634836e" y="336.435177"/>
      </g>
     </g>
     <g id="text_8">
      <!-- -1.800e+03 -->
      <defs>
       <path d="M 4.890625 31.390625 
L 31.203125 31.390625 
L 31.203125 23.390625 
L 4.890625 23.390625 
z
" id="DejaVuSans-45"/>
       <path d="M 10.6875 12.40625 
L 21 12.40625 
L 21 0 
L 10.6875 0 
z
" id="DejaVuSans-46"/>
       <path d="M 31.78125 34.625 
Q 24.75 34.625 20.71875 30.859375 
Q 16.703125 27.09375 16.703125 20.515625 
Q 16.703125 13.921875 20.71875 10.15625 
Q 24.75 6.390625 31.78125 6.390625 
Q 38.8125 6.390625 42.859375 10.171875 
Q 46.921875 13.96875 46.921875 20.515625 
Q 46.921875 27.09375 42.890625 30.859375 
Q 38.875 34.625 31.78125 34.625 
z
M 21.921875 38.8125 
Q 15.578125 40.375 12.03125 44.71875 
Q 8.5 49.078125 8.5 55.328125 
Q 8.5 64.0625 14.71875 69.140625 
Q 20.953125 74.21875 31.78125 74.21875 
Q 42.671875 74.21875 48.875 69.140625 
Q 55.078125 64.0625 55.078125 55.328125 
Q 55.078125 49.078125 51.53125 44.71875 
Q 48 40.375 41.703125 38.8125 
Q 48.828125 37.15625 52.796875 32.3125 
Q 56.78125 27.484375 56.78125 20.515625 
Q 56.78125 9.90625 50.3125 4.234375 
Q 43.84375 -1.421875 31.78125 -1.421875 
Q 19.734375 -1.421875 13.25 4.234375 
Q 6.78125 9.90625 6.78125 20.515625 
Q 6.78125 27.484375 10.78125 32.3125 
Q 14.796875 37.15625 21.921875 38.8125 
z
M 18.3125 54.390625 
Q 18.3125 48.734375 21.84375 45.5625 
Q 25.390625 42.390625 31.78125 42.390625 
Q 38.140625 42.390625 41.71875 45.5625 
Q 45.3125 48.734375 45.3125 54.390625 
Q 45.3125 60.0625 41.71875 63.234375 
Q 38.140625 66.40625 31.78125 66.40625 
Q 25.390625 66.40625 21.84375 63.234375 
Q 18.3125 60.0625 18.3125 54.390625 
z
" id="DejaVuSans-56"/>
       <path d="M 46 62.703125 
L 46 35.5 
L 73.1875 35.5 
L 73.1875 27.203125 
L 46 27.203125 
L 46 0 
L 37.796875 0 
L 37.796875 27.203125 
L 10.59375 27.203125 
L 10.59375 35.5 
L 37.796875 35.5 
L 37.796875 62.703125 
z
" id="DejaVuSans-43"/>
      </defs>
      <g transform="translate(28.620625 343.27377)scale(0.18 -0.18)">
       <use xlink:href="#DejaVuSans-45"/>
       <use x="36.083984" xlink:href="#DejaVuSans-49"/>
       <use x="99.707031" xlink:href="#DejaVuSans-46"/>
       <use x="131.494141" xlink:href="#DejaVuSans-56"/>
       <use x="195.117188" xlink:href="#DejaVuSans-48"/>
       <use x="258.740234" xlink:href="#DejaVuSans-48"/>
       <use x="322.363281" xlink:href="#DejaVuSans-101"/>
       <use x="383.886719" xlink:href="#DejaVuSans-43"/>
       <use x="467.675781" xlink:href="#DejaVuSans-48"/>
       <use x="531.298828" xlink:href="#DejaVuSans-51"/>
      </g>
     </g>
    </g>
    <g id="ytick_2">
     <g id="line2d_8">
      <g>
       <use style="stroke:#000000;stroke-width:0.8;" x="142.709375" xlink:href="#mccd634836e" y="298.84471"/>
      </g>
     </g>
     <g id="text_9">
      <!-- -1.600e+03 -->
      <defs>
       <path d="M 33.015625 40.375 
Q 26.375 40.375 22.484375 35.828125 
Q 18.609375 31.296875 18.609375 23.390625 
Q 18.609375 15.53125 22.484375 10.953125 
Q 26.375 6.390625 33.015625 6.390625 
Q 39.65625 6.390625 43.53125 10.953125 
Q 47.40625 15.53125 47.40625 23.390625 
Q 47.40625 31.296875 43.53125 35.828125 
Q 39.65625 40.375 33.015625 40.375 
z
M 52.59375 71.296875 
L 52.59375 62.3125 
Q 48.875 64.0625 45.09375 64.984375 
Q 41.3125 65.921875 37.59375 65.921875 
Q 27.828125 65.921875 22.671875 59.328125 
Q 17.53125 52.734375 16.796875 39.40625 
Q 19.671875 43.65625 24.015625 45.921875 
Q 28.375 48.1875 33.59375 48.1875 
Q 44.578125 48.1875 50.953125 41.515625 
Q 57.328125 34.859375 57.328125 23.390625 
Q 57.328125 12.15625 50.6875 5.359375 
Q 44.046875 -1.421875 33.015625 -1.421875 
Q 20.359375 -1.421875 13.671875 8.265625 
Q 6.984375 17.96875 6.984375 36.375 
Q 6.984375 53.65625 15.1875 63.9375 
Q 23.390625 74.21875 37.203125 74.21875 
Q 40.921875 74.21875 44.703125 73.484375 
Q 48.484375 72.75 52.59375 71.296875 
z
" id="DejaVuSans-54"/>
      </defs>
      <g transform="translate(28.620625 305.683304)scale(0.18 -0.18)">
       <use xlink:href="#DejaVuSans-45"/>
       <use x="36.083984" xlink:href="#DejaVuSans-49"/>
       <use x="99.707031" xlink:href="#DejaVuSans-46"/>
       <use x="131.494141" xlink:href="#DejaVuSans-54"/>
       <use x="195.117188" xlink:href="#DejaVuSans-48"/>
       <use x="258.740234" xlink:href="#DejaVuSans-48"/>
       <use x="322.363281" xlink:href="#DejaVuSans-101"/>
       <use x="383.886719" xlink:href="#DejaVuSans-43"/>
       <use x="467.675781" xlink:href="#DejaVuSans-48"/>
       <use x="531.298828" xlink:href="#DejaVuSans-51"/>
      </g>
     </g>
    </g>
    <g id="ytick_3">
     <g id="line2d_9">
      <g>
       <use style="stroke:#000000;stroke-width:0.8;" x="142.709375" xlink:href="#mccd634836e" y="261.254244"/>
      </g>
     </g>
     <g id="text_10">
      <!-- -1.400e+03 -->
      <g transform="translate(28.620625 268.092838)scale(0.18 -0.18)">
       <use xlink:href="#DejaVuSans-45"/>
       <use x="36.083984" xlink:href="#DejaVuSans-49"/>
       <use x="99.707031" xlink:href="#DejaVuSans-46"/>
       <use x="131.494141" xlink:href="#DejaVuSans-52"/>
       <use x="195.117188" xlink:href="#DejaVuSans-48"/>
       <use x="258.740234" xlink:href="#DejaVuSans-48"/>
       <use x="322.363281" xlink:href="#DejaVuSans-101"/>
       <use x="383.886719" xlink:href="#DejaVuSans-43"/>
       <use x="467.675781" xlink:href="#DejaVuSans-48"/>
       <use x="531.298828" xlink:href="#DejaVuSans-51"/>
      </g>
     </g>
    </g>
    <g id="ytick_4">
     <g id="line2d_10">
      <g>
       <use style="stroke:#000000;stroke-width:0.8;" x="142.709375" xlink:href="#mccd634836e" y="223.663778"/>
      </g>
     </g>
     <g id="text_11">
      <!-- -1.200e+03 -->
      <g transform="translate(28.620625 230.502372)scale(0.18 -0.18)">
       <use xlink:href="#DejaVuSans-45"/>
       <use x="36.083984" xlink:href="#DejaVuSans-49"/>
       <use x="99.707031" xlink:href="#DejaVuSans-46"/>
       <use x="131.494141" xlink:href="#DejaVuSans-50"/>
       <use x="195.117188" xlink:href="#DejaVuSans-48"/>
       <use x="258.740234" xlink:href="#DejaVuSans-48"/>
       <use x="322.363281" xlink:href="#DejaVuSans-101"/>
       <use x="383.886719" xlink:href="#DejaVuSans-43"/>
       <use x="467.675781" xlink:href="#DejaVuSans-48"/>
       <use x="531.298828" xlink:href="#DejaVuSans-51"/>
      </g>
     </g>
    </g>
    <g id="ytick_5">
     <g id="line2d_11">
      <g>
       <use style="stroke:#000000;stroke-width:0.8;" x="142.709375" xlink:href="#mccd634836e" y="186.073312"/>
      </g>
     </g>
     <g id="text_12">
      <!-- -1.000e+03 -->
      <g transform="translate(28.620625 192.911906)scale(0.18 -0.18)">
       <use xlink:href="#DejaVuSans-45"/>
       <use x="36.083984" xlink:href="#DejaVuSans-49"/>
       <use x="99.707031" xlink:href="#DejaVuSans-46"/>
       <use x="131.494141" xlink:href="#DejaVuSans-48"/>
       <use x="195.117188" xlink:href="#DejaVuSans-48"/>
       <use x="258.740234" xlink:href="#DejaVuSans-48"/>
       <use x="322.363281" xlink:href="#DejaVuSans-101"/>
       <use x="383.886719" xlink:href="#DejaVuSans-43"/>
       <use x="467.675781" xlink:href="#DejaVuSans-48"/>
       <use x="531.298828" xlink:href="#DejaVuSans-51"/>
      </g>
     </g>
    </g>
    <g id="ytick_6">
     <g id="line2d_12">
      <g>
       <use style="stroke:#000000;stroke-width:0.8;" x="142.709375" xlink:href="#mccd634836e" y="148.482846"/>
      </g>
     </g>
     <g id="text_13">
      <!-- -8.000e+02 -->
      <g transform="translate(28.620625 155.32144)scale(0.18 -0.18)">
       <use xlink:href="#DejaVuSans-45"/>
       <use x="36.083984" xlink:href="#DejaVuSans-56"/>
       <use x="99.707031" xlink:href="#DejaVuSans-46"/>
       <use x="131.494141" xlink:href="#DejaVuSans-48"/>
       <use x="195.117188" xlink:href="#DejaVuSans-48"/>
       <use x="258.740234" xlink:href="#DejaVuSans-48"/>
       <use x="322.363281" xlink:href="#DejaVuSans-101"/>
       <use x="383.886719" xlink:href="#DejaVuSans-43"/>
       <use x="467.675781" xlink:href="#DejaVuSans-48"/>
       <use x="531.298828" xlink:href="#DejaVuSans-50"/>
      </g>
     </g>
    </g>
    <g id="ytick_7">
     <g id="line2d_13">
      <g>
       <use style="stroke:#000000;stroke-width:0.8;" x="142.709375" xlink:href="#mccd634836e" y="110.89238"/>
      </g>
     </g>
     <g id="text_14">
      <!-- -6.000e+02 -->
      <g transform="translate(28.620625 117.730973)scale(0.18 -0.18)">
       <use xlink:href="#DejaVuSans-45"/>
       <use x="36.083984" xlink:href="#DejaVuSans-54"/>
       <use x="99.707031" xlink:href="#DejaVuSans-46"/>
       <use x="131.494141" xlink:href="#DejaVuSans-48"/>
       <use x="195.117188" xlink:href="#DejaVuSans-48"/>
       <use x="258.740234" xlink:href="#DejaVuSans-48"/>
       <use x="322.363281" xlink:href="#DejaVuSans-101"/>
       <use x="383.886719" xlink:href="#DejaVuSans-43"/>
       <use x="467.675781" xlink:href="#DejaVuSans-48"/>
       <use x="531.298828" xlink:href="#DejaVuSans-50"/>
      </g>
     </g>
    </g>
    <g id="ytick_8">
     <g id="line2d_14">
      <g>
       <use style="stroke:#000000;stroke-width:0.8;" x="142.709375" xlink:href="#mccd634836e" y="73.301913"/>
      </g>
     </g>
     <g id="text_15">
      <!-- -4.000e+02 -->
      <g transform="translate(28.620625 80.140507)scale(0.18 -0.18)">
       <use xlink:href="#DejaVuSans-45"/>
       <use x="36.083984" xlink:href="#DejaVuSans-52"/>
       <use x="99.707031" xlink:href="#DejaVuSans-46"/>
       <use x="131.494141" xlink:href="#DejaVuSans-48"/>
       <use x="195.117188" xlink:href="#DejaVuSans-48"/>
       <use x="258.740234" xlink:href="#DejaVuSans-48"/>
       <use x="322.363281" xlink:href="#DejaVuSans-101"/>
       <use x="383.886719" xlink:href="#DejaVuSans-43"/>
       <use x="467.675781" xlink:href="#DejaVuSans-48"/>
       <use x="531.298828" xlink:href="#DejaVuSans-50"/>
      </g>
     </g>
    </g>
    <g id="ytick_9">
     <g id="line2d_15">
      <g>
       <use style="stroke:#000000;stroke-width:0.8;" x="142.709375" xlink:href="#mccd634836e" y="35.711447"/>
      </g>
     </g>
     <g id="text_16">
      <!-- -2.000e+02 -->
      <g transform="translate(28.620625 42.550041)scale(0.18 -0.18)">
       <use xlink:href="#DejaVuSans-45"/>
       <use x="36.083984" xlink:href="#DejaVuSans-50"/>
       <use x="99.707031" xlink:href="#DejaVuSans-46"/>
       <use x="131.494141" xlink:href="#DejaVuSans-48"/>
       <use x="195.117188" xlink:href="#DejaVuSans-48"/>
       <use x="258.740234" xlink:href="#DejaVuSans-48"/>
       <use x="322.363281" xlink:href="#DejaVuSans-101"/>
       <use x="383.886719" xlink:href="#DejaVuSans-43"/>
       <use x="467.675781" xlink:href="#DejaVuSans-48"/>
       <use x="531.298828" xlink:href="#DejaVuSans-50"/>
      </g>
     </g>
    </g>
    <g id="text_17">
     <!-- Predictive Log Likelihood -->
     <defs>
      <path d="M 19.671875 64.796875 
L 19.671875 37.40625 
L 32.078125 37.40625 
Q 38.96875 37.40625 42.71875 40.96875 
Q 46.484375 44.53125 46.484375 51.125 
Q 46.484375 57.671875 42.71875 61.234375 
Q 38.96875 64.796875 32.078125 64.796875 
z
M 9.8125 72.90625 
L 32.078125 72.90625 
Q 44.34375 72.90625 50.609375 67.359375 
Q 56.890625 61.8125 56.890625 51.125 
Q 56.890625 40.328125 50.609375 34.8125 
Q 44.34375 29.296875 32.078125 29.296875 
L 19.671875 29.296875 
L 19.671875 0 
L 9.8125 0 
z
" id="DejaVuSans-80"/>
      <path d="M 41.109375 46.296875 
Q 39.59375 47.171875 37.8125 47.578125 
Q 36.03125 48 33.890625 48 
Q 26.265625 48 22.1875 43.046875 
Q 18.109375 38.09375 18.109375 28.8125 
L 18.109375 0 
L 9.078125 0 
L 9.078125 54.6875 
L 18.109375 54.6875 
L 18.109375 46.1875 
Q 20.953125 51.171875 25.484375 53.578125 
Q 30.03125 56 36.53125 56 
Q 37.453125 56 38.578125 55.875 
Q 39.703125 55.765625 41.0625 55.515625 
z
" id="DejaVuSans-114"/>
      <path d="M 45.40625 46.390625 
L 45.40625 75.984375 
L 54.390625 75.984375 
L 54.390625 0 
L 45.40625 0 
L 45.40625 8.203125 
Q 42.578125 3.328125 38.25 0.953125 
Q 33.9375 -1.421875 27.875 -1.421875 
Q 17.96875 -1.421875 11.734375 6.484375 
Q 5.515625 14.40625 5.515625 27.296875 
Q 5.515625 40.1875 11.734375 48.09375 
Q 17.96875 56 27.875 56 
Q 33.9375 56 38.25 53.625 
Q 42.578125 51.265625 45.40625 46.390625 
z
M 14.796875 27.296875 
Q 14.796875 17.390625 18.875 11.75 
Q 22.953125 6.109375 30.078125 6.109375 
Q 37.203125 6.109375 41.296875 11.75 
Q 45.40625 17.390625 45.40625 27.296875 
Q 45.40625 37.203125 41.296875 42.84375 
Q 37.203125 48.484375 30.078125 48.484375 
Q 22.953125 48.484375 18.875 42.84375 
Q 14.796875 37.203125 14.796875 27.296875 
z
" id="DejaVuSans-100"/>
      <path d="M 9.421875 54.6875 
L 18.40625 54.6875 
L 18.40625 0 
L 9.421875 0 
z
M 9.421875 75.984375 
L 18.40625 75.984375 
L 18.40625 64.59375 
L 9.421875 64.59375 
z
" id="DejaVuSans-105"/>
      <path d="M 48.78125 52.59375 
L 48.78125 44.1875 
Q 44.96875 46.296875 41.140625 47.34375 
Q 37.3125 48.390625 33.40625 48.390625 
Q 24.65625 48.390625 19.8125 42.84375 
Q 14.984375 37.3125 14.984375 27.296875 
Q 14.984375 17.28125 19.8125 11.734375 
Q 24.65625 6.203125 33.40625 6.203125 
Q 37.3125 6.203125 41.140625 7.25 
Q 44.96875 8.296875 48.78125 10.40625 
L 48.78125 2.09375 
Q 45.015625 0.34375 40.984375 -0.53125 
Q 36.96875 -1.421875 32.421875 -1.421875 
Q 20.0625 -1.421875 12.78125 6.34375 
Q 5.515625 14.109375 5.515625 27.296875 
Q 5.515625 40.671875 12.859375 48.328125 
Q 20.21875 56 33.015625 56 
Q 37.15625 56 41.109375 55.140625 
Q 45.0625 54.296875 48.78125 52.59375 
z
" id="DejaVuSans-99"/>
      <path d="M 18.3125 70.21875 
L 18.3125 54.6875 
L 36.8125 54.6875 
L 36.8125 47.703125 
L 18.3125 47.703125 
L 18.3125 18.015625 
Q 18.3125 11.328125 20.140625 9.421875 
Q 21.96875 7.515625 27.59375 7.515625 
L 36.8125 7.515625 
L 36.8125 0 
L 27.59375 0 
Q 17.1875 0 13.234375 3.875 
Q 9.28125 7.765625 9.28125 18.015625 
L 9.28125 47.703125 
L 2.6875 47.703125 
L 2.6875 54.6875 
L 9.28125 54.6875 
L 9.28125 70.21875 
z
" id="DejaVuSans-116"/>
      <path d="M 2.984375 54.6875 
L 12.5 54.6875 
L 29.59375 8.796875 
L 46.6875 54.6875 
L 56.203125 54.6875 
L 35.6875 0 
L 23.484375 0 
z
" id="DejaVuSans-118"/>
      <path id="DejaVuSans-32"/>
      <path d="M 9.8125 72.90625 
L 19.671875 72.90625 
L 19.671875 8.296875 
L 55.171875 8.296875 
L 55.171875 0 
L 9.8125 0 
z
" id="DejaVuSans-76"/>
      <path d="M 30.609375 48.390625 
Q 23.390625 48.390625 19.1875 42.75 
Q 14.984375 37.109375 14.984375 27.296875 
Q 14.984375 17.484375 19.15625 11.84375 
Q 23.34375 6.203125 30.609375 6.203125 
Q 37.796875 6.203125 41.984375 11.859375 
Q 46.1875 17.53125 46.1875 27.296875 
Q 46.1875 37.015625 41.984375 42.703125 
Q 37.796875 48.390625 30.609375 48.390625 
z
M 30.609375 56 
Q 42.328125 56 49.015625 48.375 
Q 55.71875 40.765625 55.71875 27.296875 
Q 55.71875 13.875 49.015625 6.21875 
Q 42.328125 -1.421875 30.609375 -1.421875 
Q 18.84375 -1.421875 12.171875 6.21875 
Q 5.515625 13.875 5.515625 27.296875 
Q 5.515625 40.765625 12.171875 48.375 
Q 18.84375 56 30.609375 56 
z
" id="DejaVuSans-111"/>
      <path d="M 45.40625 27.984375 
Q 45.40625 37.75 41.375 43.109375 
Q 37.359375 48.484375 30.078125 48.484375 
Q 22.859375 48.484375 18.828125 43.109375 
Q 14.796875 37.75 14.796875 27.984375 
Q 14.796875 18.265625 18.828125 12.890625 
Q 22.859375 7.515625 30.078125 7.515625 
Q 37.359375 7.515625 41.375 12.890625 
Q 45.40625 18.265625 45.40625 27.984375 
z
M 54.390625 6.78125 
Q 54.390625 -7.171875 48.1875 -13.984375 
Q 42 -20.796875 29.203125 -20.796875 
Q 24.46875 -20.796875 20.265625 -20.09375 
Q 16.0625 -19.390625 12.109375 -17.921875 
L 12.109375 -9.1875 
Q 16.0625 -11.328125 19.921875 -12.34375 
Q 23.78125 -13.375 27.78125 -13.375 
Q 36.625 -13.375 41.015625 -8.765625 
Q 45.40625 -4.15625 45.40625 5.171875 
L 45.40625 9.625 
Q 42.625 4.78125 38.28125 2.390625 
Q 33.9375 0 27.875 0 
Q 17.828125 0 11.671875 7.65625 
Q 5.515625 15.328125 5.515625 27.984375 
Q 5.515625 40.671875 11.671875 48.328125 
Q 17.828125 56 27.875 56 
Q 33.9375 56 38.28125 53.609375 
Q 42.625 51.21875 45.40625 46.390625 
L 45.40625 54.6875 
L 54.390625 54.6875 
z
" id="DejaVuSans-103"/>
      <path d="M 9.078125 75.984375 
L 18.109375 75.984375 
L 18.109375 31.109375 
L 44.921875 54.6875 
L 56.390625 54.6875 
L 27.390625 29.109375 
L 57.625 0 
L 45.90625 0 
L 18.109375 26.703125 
L 18.109375 0 
L 9.078125 0 
z
" id="DejaVuSans-107"/>
      <path d="M 54.890625 33.015625 
L 54.890625 0 
L 45.90625 0 
L 45.90625 32.71875 
Q 45.90625 40.484375 42.875 44.328125 
Q 39.84375 48.1875 33.796875 48.1875 
Q 26.515625 48.1875 22.3125 43.546875 
Q 18.109375 38.921875 18.109375 30.90625 
L 18.109375 0 
L 9.078125 0 
L 9.078125 75.984375 
L 18.109375 75.984375 
L 18.109375 46.1875 
Q 21.34375 51.125 25.703125 53.5625 
Q 30.078125 56 35.796875 56 
Q 45.21875 56 50.046875 50.171875 
Q 54.890625 44.34375 54.890625 33.015625 
z
" id="DejaVuSans-104"/>
     </defs>
     <g transform="translate(20.877187 285.882187)rotate(-90)scale(0.18 -0.18)">
      <use xlink:href="#DejaVuSans-80"/>
      <use x="60.287109" xlink:href="#DejaVuSans-114"/>
      <use x="101.369141" xlink:href="#DejaVuSans-101"/>
      <use x="162.892578" xlink:href="#DejaVuSans-100"/>
      <use x="226.369141" xlink:href="#DejaVuSans-105"/>
      <use x="254.152344" xlink:href="#DejaVuSans-99"/>
      <use x="309.132812" xlink:href="#DejaVuSans-116"/>
      <use x="348.341797" xlink:href="#DejaVuSans-105"/>
      <use x="376.125" xlink:href="#DejaVuSans-118"/>
      <use x="435.304688" xlink:href="#DejaVuSans-101"/>
      <use x="496.828125" xlink:href="#DejaVuSans-32"/>
      <use x="528.615234" xlink:href="#DejaVuSans-76"/>
      <use x="584.3125" xlink:href="#DejaVuSans-111"/>
      <use x="645.494141" xlink:href="#DejaVuSans-103"/>
      <use x="708.970703" xlink:href="#DejaVuSans-32"/>
      <use x="740.757812" xlink:href="#DejaVuSans-76"/>
      <use x="796.470703" xlink:href="#DejaVuSans-105"/>
      <use x="824.253906" xlink:href="#DejaVuSans-107"/>
      <use x="882.117188" xlink:href="#DejaVuSans-101"/>
      <use x="943.640625" xlink:href="#DejaVuSans-108"/>
      <use x="971.423828" xlink:href="#DejaVuSans-105"/>
      <use x="999.207031" xlink:href="#DejaVuSans-104"/>
      <use x="1062.585938" xlink:href="#DejaVuSans-111"/>
      <use x="1123.767578" xlink:href="#DejaVuSans-111"/>
      <use x="1184.949219" xlink:href="#DejaVuSans-100"/>
     </g>
    </g>
   </g>
   <g id="line2d_16">
    <path clip-path="url(#pf2d1c38c9c)" d="M 163.000284 22.974211 
L 164.62681 22.567283 
L 166.253336 22.382865 
L 168.693124 22.405235 
L 179.265542 22.461993 
L 195.5308 22.449714 
L 212.60932 22.434905 
L 248.392887 22.428324 
L 319.146759 22.447936 
L 558.246048 22.459756 
L 568.818466 22.460023 
L 568.818466 22.460023 
" style="fill:none;stroke:#ff0000;stroke-linecap:square;stroke-width:1.5;"/>
   </g>
   <g id="line2d_17">
    <path clip-path="url(#pf2d1c38c9c)" d="M 163.000284 184.606862 
L 165.440073 184.606862 
L 166.253336 160.222703 
L 167.066599 109.098746 
L 167.879861 89.344408 
L 168.693124 85.428695 
L 169.506387 83.722342 
L 170.31965 51.682583 
L 171.132913 45.6919 
L 171.946176 44.109648 
L 172.759439 43.994018 
L 173.572702 29.440008 
L 174.385965 27.113511 
L 176.01249 24.881049 
L 176.825753 24.679306 
L 177.639016 24.3591 
L 178.452279 24.307693 
L 179.265542 23.816943 
L 180.078805 23.129075 
L 181.705331 23.006209 
L 187.398171 22.978732 
L 189.024697 22.770538 
L 194.717537 22.713633 
L 228.874578 22.655408 
L 380.954738 22.635338 
L 565.565414 22.622097 
L 568.818466 22.621927 
L 568.818466 22.621927 
" style="fill:none;stroke:#0000ff;stroke-linecap:square;stroke-width:1.5;"/>
   </g>
   <g id="patch_3">
    <path d="M 142.709375 339.84 
L 142.709375 7.2 
" style="fill:none;stroke:#000000;stroke-linecap:square;stroke-linejoin:miter;stroke-width:0.8;"/>
   </g>
   <g id="patch_4">
    <path d="M 589.109375 339.84 
L 589.109375 7.2 
" style="fill:none;stroke:#000000;stroke-linecap:square;stroke-linejoin:miter;stroke-width:0.8;"/>
   </g>
   <g id="patch_5">
    <path d="M 142.709375 339.84 
L 589.109375 339.84 
" style="fill:none;stroke:#000000;stroke-linecap:square;stroke-linejoin:miter;stroke-width:0.8;"/>
   </g>
   <g id="patch_6">
    <path d="M 142.709375 7.2 
L 589.109375 7.2 
" style="fill:none;stroke:#000000;stroke-linecap:square;stroke-linejoin:miter;stroke-width:0.8;"/>
   </g>
   <g id="legend_1">
    <g id="patch_7">
     <path d="M 398.39375 330.84 
L 576.509375 330.84 
Q 580.109375 330.84 580.109375 327.24 
L 580.109375 276.19875 
Q 580.109375 272.59875 576.509375 272.59875 
L 398.39375 272.59875 
Q 394.79375 272.59875 394.79375 276.19875 
L 394.79375 327.24 
Q 394.79375 330.84 398.39375 330.84 
z
" style="fill:#ffffff;opacity:0.8;stroke:#cccccc;stroke-linejoin:miter;"/>
    </g>
    <g id="line2d_18">
     <path d="M 401.99375 287.175938 
L 437.99375 287.175938 
" style="fill:none;stroke:#0000ff;stroke-linecap:square;stroke-width:1.5;"/>
    </g>
    <g id="line2d_19"/>
    <g id="text_18">
     <!-- stan-MCMC -->
     <defs>
      <path d="M 54.890625 33.015625 
L 54.890625 0 
L 45.90625 0 
L 45.90625 32.71875 
Q 45.90625 40.484375 42.875 44.328125 
Q 39.84375 48.1875 33.796875 48.1875 
Q 26.515625 48.1875 22.3125 43.546875 
Q 18.109375 38.921875 18.109375 30.90625 
L 18.109375 0 
L 9.078125 0 
L 9.078125 54.6875 
L 18.109375 54.6875 
L 18.109375 46.1875 
Q 21.34375 51.125 25.703125 53.5625 
Q 30.078125 56 35.796875 56 
Q 45.21875 56 50.046875 50.171875 
Q 54.890625 44.34375 54.890625 33.015625 
z
" id="DejaVuSans-110"/>
      <path d="M 9.8125 72.90625 
L 24.515625 72.90625 
L 43.109375 23.296875 
L 61.8125 72.90625 
L 76.515625 72.90625 
L 76.515625 0 
L 66.890625 0 
L 66.890625 64.015625 
L 48.09375 14.015625 
L 38.1875 14.015625 
L 19.390625 64.015625 
L 19.390625 0 
L 9.8125 0 
z
" id="DejaVuSans-77"/>
      <path d="M 64.40625 67.28125 
L 64.40625 56.890625 
Q 59.421875 61.53125 53.78125 63.8125 
Q 48.140625 66.109375 41.796875 66.109375 
Q 29.296875 66.109375 22.65625 58.46875 
Q 16.015625 50.828125 16.015625 36.375 
Q 16.015625 21.96875 22.65625 14.328125 
Q 29.296875 6.6875 41.796875 6.6875 
Q 48.140625 6.6875 53.78125 8.984375 
Q 59.421875 11.28125 64.40625 15.921875 
L 64.40625 5.609375 
Q 59.234375 2.09375 53.4375 0.328125 
Q 47.65625 -1.421875 41.21875 -1.421875 
Q 24.65625 -1.421875 15.125 8.703125 
Q 5.609375 18.84375 5.609375 36.375 
Q 5.609375 53.953125 15.125 64.078125 
Q 24.65625 74.21875 41.21875 74.21875 
Q 47.75 74.21875 53.53125 72.484375 
Q 59.328125 70.75 64.40625 67.28125 
z
" id="DejaVuSans-67"/>
     </defs>
     <g transform="translate(452.39375 293.475938)scale(0.18 -0.18)">
      <use xlink:href="#DejaVuSans-115"/>
      <use x="52.099609" xlink:href="#DejaVuSans-116"/>
      <use x="91.308594" xlink:href="#DejaVuSans-97"/>
      <use x="152.587891" xlink:href="#DejaVuSans-110"/>
      <use x="215.966797" xlink:href="#DejaVuSans-45"/>
      <use x="252.050781" xlink:href="#DejaVuSans-77"/>
      <use x="338.330078" xlink:href="#DejaVuSans-67"/>
      <use x="408.154297" xlink:href="#DejaVuSans-77"/>
      <use x="494.433594" xlink:href="#DejaVuSans-67"/>
     </g>
    </g>
    <g id="line2d_20">
     <path d="M 401.99375 313.596563 
L 437.99375 313.596563 
" style="fill:none;stroke:#ff0000;stroke-linecap:square;stroke-width:1.5;"/>
    </g>
    <g id="line2d_21"/>
    <g id="text_19">
     <!-- stan-VI-mean -->
     <defs>
      <path d="M 28.609375 0 
L 0.78125 72.90625 
L 11.078125 72.90625 
L 34.1875 11.53125 
L 57.328125 72.90625 
L 67.578125 72.90625 
L 39.796875 0 
z
" id="DejaVuSans-86"/>
      <path d="M 9.8125 72.90625 
L 19.671875 72.90625 
L 19.671875 0 
L 9.8125 0 
z
" id="DejaVuSans-73"/>
     </defs>
     <g transform="translate(452.39375 319.896563)scale(0.18 -0.18)">
      <use xlink:href="#DejaVuSans-115"/>
      <use x="52.099609" xlink:href="#DejaVuSans-116"/>
      <use x="91.308594" xlink:href="#DejaVuSans-97"/>
      <use x="152.587891" xlink:href="#DejaVuSans-110"/>
      <use x="215.966797" xlink:href="#DejaVuSans-45"/>
      <use x="251.972656" xlink:href="#DejaVuSans-86"/>
      <use x="320.380859" xlink:href="#DejaVuSans-73"/>
      <use x="349.873047" xlink:href="#DejaVuSans-45"/>
      <use x="385.957031" xlink:href="#DejaVuSans-109"/>
      <use x="483.369141" xlink:href="#DejaVuSans-101"/>
      <use x="544.892578" xlink:href="#DejaVuSans-97"/>
      <use x="606.171875" xlink:href="#DejaVuSans-110"/>
     </g>
    </g>
   </g>
  </g>
 </g>
 <defs>
  <clipPath id="pf2d1c38c9c">
   <rect height="332.64" width="446.4" x="142.709375" y="7.2"/>
  </clipPath>
 </defs>
</svg>
